<?xml version="1.0" encoding="UTF-8"?>
<svg xmlns="http://www.w3.org/2000/svg" xmlns:xlink="http://www.w3.org/1999/xlink" width="172pt" height="167pt" viewBox="0 0 172 167" version="1.1">
<g id="surface5315">
<path style=" stroke:none;fill-rule:evenodd;fill:rgb(45.098039%,45.098039%,87.058824%);fill-opacity:1;" d="M 151.421875 107.339844 C 151.421875 103.785156 146.09375 103.785156 146.09375 107.339844 C 146.09375 110.890625 151.421875 110.890625 151.421875 107.339844 "/>
<path style=" stroke:none;fill-rule:evenodd;fill:rgb(45.098039%,45.098039%,87.058824%);fill-opacity:1;" d="M 150.703125 100.136719 C 150.703125 96.585938 145.375 96.585938 145.375 100.136719 C 145.375 103.691406 150.703125 103.691406 150.703125 100.136719 "/>
<path style=" stroke:none;fill-rule:evenodd;fill:rgb(45.098039%,45.098039%,87.058824%);fill-opacity:1;" d="M 151.421875 92.9375 C 151.421875 89.386719 146.09375 89.386719 146.09375 92.9375 C 146.09375 96.488281 151.421875 96.488281 151.421875 92.9375 "/>
<path style=" stroke:none;fill-rule:evenodd;fill:rgb(45.098039%,45.098039%,87.058824%);fill-opacity:1;" d="M 150.703125 85.738281 C 150.703125 82.1875 145.375 82.1875 145.375 85.738281 C 145.375 89.289062 150.703125 89.289062 150.703125 85.738281 "/>
<path style=" stroke:none;fill-rule:evenodd;fill:rgb(45.098039%,45.098039%,87.058824%);fill-opacity:1;" d="M 151.421875 78.539062 C 151.421875 74.984375 146.09375 74.984375 146.09375 78.539062 C 146.09375 82.089844 151.421875 82.089844 151.421875 78.539062 "/>
<path style=" stroke:none;fill-rule:evenodd;fill:rgb(45.098039%,45.098039%,87.058824%);fill-opacity:1;" d="M 150.703125 71.339844 C 150.703125 67.785156 145.375 67.785156 145.375 71.339844 C 145.375 74.890625 150.703125 74.890625 150.703125 71.339844 "/>
<path style=" stroke:none;fill-rule:evenodd;fill:rgb(45.098039%,45.098039%,87.058824%);fill-opacity:1;" d="M 151.421875 56.9375 C 151.421875 53.386719 146.09375 53.386719 146.09375 56.9375 C 146.09375 60.488281 151.421875 60.488281 151.421875 56.9375 "/>
<path style=" stroke:none;fill-rule:evenodd;fill:rgb(45.098039%,45.098039%,87.058824%);fill-opacity:1;" d="M 150.703125 49.738281 C 150.703125 46.1875 145.375 46.1875 145.375 49.738281 C 145.375 53.289062 150.703125 53.289062 150.703125 49.738281 "/>
<path style=" stroke:none;fill-rule:evenodd;fill:rgb(45.098039%,45.098039%,87.058824%);fill-opacity:1;" d="M 151.421875 42.539062 C 151.421875 38.984375 146.09375 38.984375 146.09375 42.539062 C 146.09375 46.089844 151.421875 46.089844 151.421875 42.539062 "/>
<path style=" stroke:none;fill-rule:evenodd;fill:rgb(45.098039%,45.098039%,87.058824%);fill-opacity:1;" d="M 150.703125 35.339844 C 150.703125 31.785156 145.375 31.785156 145.375 35.339844 C 145.375 38.890625 150.703125 38.890625 150.703125 35.339844 "/>
<path style=" stroke:none;fill-rule:evenodd;fill:rgb(45.098039%,45.098039%,87.058824%);fill-opacity:1;" d="M 151.421875 28.136719 C 151.421875 24.585938 146.09375 24.585938 146.09375 28.136719 C 146.09375 31.691406 151.421875 31.691406 151.421875 28.136719 "/>
<path style=" stroke:none;fill-rule:evenodd;fill:rgb(45.098039%,45.098039%,87.058824%);fill-opacity:1;" d="M 150.703125 20.9375 C 150.703125 17.386719 145.375 17.386719 145.375 20.9375 C 145.375 24.488281 150.703125 24.488281 150.703125 20.9375 "/>
<path style=" stroke:none;fill-rule:evenodd;fill:rgb(45.098039%,45.098039%,87.058824%);fill-opacity:1;" d="M 13.902344 20.9375 C 13.902344 17.386719 8.574219 17.386719 8.574219 20.9375 C 8.574219 24.488281 13.902344 24.488281 13.902344 20.9375 "/>
<path style=" stroke:none;fill-rule:evenodd;fill:rgb(45.098039%,45.098039%,87.058824%);fill-opacity:1;" d="M 13.183594 28.136719 C 13.183594 24.585938 7.855469 24.585938 7.855469 28.136719 C 7.855469 31.691406 13.183594 31.691406 13.183594 28.136719 "/>
<path style=" stroke:none;fill-rule:evenodd;fill:rgb(45.098039%,45.098039%,87.058824%);fill-opacity:1;" d="M 13.902344 35.339844 C 13.902344 31.785156 8.574219 31.785156 8.574219 35.339844 C 8.574219 38.890625 13.902344 38.890625 13.902344 35.339844 "/>
<path style=" stroke:none;fill-rule:evenodd;fill:rgb(45.098039%,45.098039%,87.058824%);fill-opacity:1;" d="M 13.183594 42.539062 C 13.183594 38.984375 7.855469 38.984375 7.855469 42.539062 C 7.855469 46.089844 13.183594 46.089844 13.183594 42.539062 "/>
<path style=" stroke:none;fill-rule:evenodd;fill:rgb(45.098039%,45.098039%,87.058824%);fill-opacity:1;" d="M 13.902344 49.738281 C 13.902344 46.1875 8.574219 46.1875 8.574219 49.738281 C 8.574219 53.289062 13.902344 53.289062 13.902344 49.738281 "/>
<path style=" stroke:none;fill-rule:evenodd;fill:rgb(45.098039%,45.098039%,87.058824%);fill-opacity:1;" d="M 13.183594 56.9375 C 13.183594 53.386719 7.855469 53.386719 7.855469 56.9375 C 7.855469 60.488281 13.183594 60.488281 13.183594 56.9375 "/>
<path style=" stroke:none;fill-rule:evenodd;fill:rgb(45.098039%,45.098039%,87.058824%);fill-opacity:1;" d="M 13.902344 64.136719 C 13.902344 60.585938 8.574219 60.585938 8.574219 64.136719 C 8.574219 67.691406 13.902344 67.691406 13.902344 64.136719 "/>
<path style=" stroke:none;fill-rule:evenodd;fill:rgb(45.098039%,45.098039%,87.058824%);fill-opacity:1;" d="M 13.183594 71.339844 C 13.183594 67.785156 7.855469 67.785156 7.855469 71.339844 C 7.855469 74.890625 13.183594 74.890625 13.183594 71.339844 "/>
<path style=" stroke:none;fill-rule:evenodd;fill:rgb(45.098039%,45.098039%,87.058824%);fill-opacity:1;" d="M 13.902344 82.136719 C 13.902344 78.585938 8.574219 78.585938 8.574219 82.136719 C 8.574219 85.691406 13.902344 85.691406 13.902344 82.136719 "/>
<path style=" stroke:none;fill-rule:evenodd;fill:rgb(45.098039%,45.098039%,87.058824%);fill-opacity:1;" d="M 13.183594 89.339844 C 13.183594 85.785156 7.855469 85.785156 7.855469 89.339844 C 7.855469 92.890625 13.183594 92.890625 13.183594 89.339844 "/>
<path style=" stroke:none;fill-rule:evenodd;fill:rgb(45.098039%,45.098039%,87.058824%);fill-opacity:1;" d="M 13.902344 96.539062 C 13.902344 92.984375 8.574219 92.984375 8.574219 96.539062 C 8.574219 100.089844 13.902344 100.089844 13.902344 96.539062 "/>
<path style=" stroke:none;fill-rule:evenodd;fill:rgb(45.098039%,45.098039%,87.058824%);fill-opacity:1;" d="M 13.183594 103.738281 C 13.183594 100.1875 7.855469 100.1875 7.855469 103.738281 C 7.855469 107.289062 13.183594 107.289062 13.183594 103.738281 "/>
<path style=" stroke:none;fill-rule:evenodd;fill:rgb(45.098039%,45.098039%,87.058824%);fill-opacity:1;" d="M 13.902344 110.9375 C 13.902344 107.386719 8.574219 107.386719 8.574219 110.9375 C 8.574219 114.488281 13.902344 114.488281 13.902344 110.9375 "/>
<path style=" stroke:none;fill-rule:evenodd;fill:rgb(45.098039%,45.098039%,87.058824%);fill-opacity:1;" d="M 13.183594 118.136719 C 13.183594 114.585938 7.855469 114.585938 7.855469 118.136719 C 7.855469 121.691406 13.183594 121.691406 13.183594 118.136719 "/>
<path style=" stroke:none;fill-rule:evenodd;fill:rgb(45.098039%,45.098039%,87.058824%);fill-opacity:1;" d="M 13.902344 125.339844 C 13.902344 121.785156 8.574219 121.785156 8.574219 125.339844 C 8.574219 128.890625 13.902344 128.890625 13.902344 125.339844 "/>
<path style=" stroke:none;fill-rule:evenodd;fill:rgb(45.098039%,45.098039%,87.058824%);fill-opacity:1;" d="M 13.183594 132.539062 C 13.183594 128.984375 7.855469 128.984375 7.855469 132.539062 C 7.855469 136.089844 13.183594 136.089844 13.183594 132.539062 "/>
<path style=" stroke:none;fill-rule:evenodd;fill:rgb(45.098039%,45.098039%,87.058824%);fill-opacity:1;" d="M 13.902344 139.738281 C 13.902344 136.1875 8.574219 136.1875 8.574219 139.738281 C 8.574219 143.289062 13.902344 143.289062 13.902344 139.738281 "/>
<path style=" stroke:none;fill-rule:evenodd;fill:rgb(45.098039%,45.098039%,87.058824%);fill-opacity:1;" d="M 13.902344 146.9375 C 13.902344 143.386719 8.574219 143.386719 8.574219 146.9375 C 8.574219 150.488281 13.902344 150.488281 13.902344 146.9375 "/>
<path style=" stroke:none;fill-rule:evenodd;fill:rgb(45.098039%,45.098039%,87.058824%);fill-opacity:1;" d="M 150.703125 114.539062 C 150.703125 110.984375 145.375 110.984375 145.375 114.539062 C 145.375 118.089844 150.703125 118.089844 150.703125 114.539062 "/>
<path style=" stroke:none;fill-rule:evenodd;fill:rgb(45.098039%,45.098039%,87.058824%);fill-opacity:1;" d="M 151.421875 121.738281 C 151.421875 118.1875 146.09375 118.1875 146.09375 121.738281 C 146.09375 125.289062 151.421875 125.289062 151.421875 121.738281 "/>
<path style=" stroke:none;fill-rule:evenodd;fill:rgb(45.098039%,45.098039%,87.058824%);fill-opacity:1;" d="M 49.902344 143.339844 C 49.902344 139.785156 44.574219 139.785156 44.574219 143.339844 C 44.574219 146.890625 49.902344 146.890625 49.902344 143.339844 "/>
<path style=" stroke:none;fill-rule:evenodd;fill:rgb(45.098039%,45.098039%,87.058824%);fill-opacity:1;" d="M 57.101562 143.339844 C 57.101562 139.785156 51.773438 139.785156 51.773438 143.339844 C 51.773438 146.890625 57.101562 146.890625 57.101562 143.339844 "/>
<path style=" stroke:none;fill-rule:evenodd;fill:rgb(45.098039%,45.098039%,87.058824%);fill-opacity:1;" d="M 35.503906 20.9375 C 35.503906 17.386719 30.175781 17.386719 30.175781 20.9375 C 30.175781 24.488281 35.503906 24.488281 35.503906 20.9375 "/>
<path style=" stroke:none;fill-rule:evenodd;fill:rgb(45.098039%,45.098039%,87.058824%);fill-opacity:1;" d="M 42.703125 20.9375 C 42.703125 17.386719 37.375 17.386719 37.375 20.9375 C 37.375 24.488281 42.703125 24.488281 42.703125 20.9375 "/>
<path style=" stroke:none;fill-rule:evenodd;fill:rgb(45.098039%,45.098039%,87.058824%);fill-opacity:1;" d="M 49.902344 20.9375 C 49.902344 17.386719 44.574219 17.386719 44.574219 20.9375 C 44.574219 24.488281 49.902344 24.488281 49.902344 20.9375 "/>
<path style=" stroke:none;fill-rule:evenodd;fill:rgb(45.098039%,45.098039%,87.058824%);fill-opacity:1;" d="M 118.304688 24.539062 C 118.304688 20.984375 112.976562 20.984375 112.976562 24.539062 C 112.976562 28.089844 118.304688 28.089844 118.304688 24.539062 "/>
<path style=" stroke:none;fill-rule:evenodd;fill:rgb(45.098039%,45.098039%,87.058824%);fill-opacity:1;" d="M 125.503906 24.539062 C 125.503906 20.984375 120.175781 20.984375 120.175781 24.539062 C 120.175781 28.089844 125.503906 28.089844 125.503906 24.539062 "/>
<path style=" stroke:none;fill-rule:evenodd;fill:rgb(45.098039%,45.098039%,87.058824%);fill-opacity:1;" d="M 125.503906 31.738281 C 125.503906 28.1875 120.175781 28.1875 120.175781 31.738281 C 120.175781 35.289062 125.503906 35.289062 125.503906 31.738281 "/>
<path style=" stroke:none;fill-rule:evenodd;fill:rgb(45.098039%,45.098039%,87.058824%);fill-opacity:1;" d="M 125.503906 53.339844 C 125.503906 49.785156 120.175781 49.785156 120.175781 53.339844 C 120.175781 56.890625 125.503906 56.890625 125.503906 53.339844 "/>
<path style=" stroke:none;fill-rule:evenodd;fill:rgb(45.098039%,45.098039%,87.058824%);fill-opacity:1;" d="M 57.101562 64.136719 C 57.101562 60.585938 51.773438 60.585938 51.773438 64.136719 C 51.773438 67.691406 57.101562 67.691406 57.101562 64.136719 "/>
<path style=" stroke:none;fill-rule:evenodd;fill:rgb(45.098039%,45.098039%,87.058824%);fill-opacity:1;" d="M 35.503906 64.136719 C 35.503906 60.585938 30.175781 60.585938 30.175781 64.136719 C 30.175781 67.691406 35.503906 67.691406 35.503906 64.136719 "/>
<path style=" stroke:none;fill-rule:evenodd;fill:rgb(45.098039%,45.098039%,87.058824%);fill-opacity:1;" d="M 57.101562 82.136719 C 57.101562 78.585938 51.773438 78.585938 51.773438 82.136719 C 51.773438 85.691406 57.101562 85.691406 57.101562 82.136719 "/>
<path style=" stroke:none;fill-rule:evenodd;fill:rgb(45.098039%,45.098039%,87.058824%);fill-opacity:1;" d="M 35.503906 82.136719 C 35.503906 78.585938 30.175781 78.585938 30.175781 82.136719 C 30.175781 85.691406 35.503906 85.691406 35.503906 82.136719 "/>
<path style=" stroke:none;fill-rule:evenodd;fill:rgb(45.098039%,45.098039%,87.058824%);fill-opacity:1;" d="M 31.902344 114.539062 C 31.902344 110.984375 26.574219 110.984375 26.574219 114.539062 C 26.574219 118.089844 31.902344 118.089844 31.902344 114.539062 "/>
<path style=" stroke:none;fill-rule:evenodd;fill:rgb(45.098039%,45.098039%,87.058824%);fill-opacity:1;" d="M 31.902344 136.136719 C 31.902344 132.585938 26.574219 132.585938 26.574219 136.136719 C 26.574219 139.691406 31.902344 139.691406 31.902344 136.136719 "/>
<path style=" stroke:none;fill-rule:evenodd;fill:rgb(45.098039%,45.098039%,87.058824%);fill-opacity:1;" d="M 101.535156 132.652344 C 101.535156 129.800781 97.257812 129.800781 97.257812 132.652344 C 97.257812 135.5 101.535156 135.5 101.535156 132.652344 "/>
<path style=" stroke:none;fill-rule:evenodd;fill:rgb(45.098039%,45.098039%,87.058824%);fill-opacity:1;" d="M 101.535156 139.738281 C 101.535156 136.886719 97.257812 136.886719 97.257812 139.738281 C 97.257812 142.585938 101.535156 142.585938 101.535156 139.738281 "/>
<path style=" stroke:none;fill-rule:evenodd;fill:rgb(45.098039%,45.098039%,87.058824%);fill-opacity:1;" d="M 101.535156 146.824219 C 101.535156 143.976562 97.257812 143.976562 97.257812 146.824219 C 97.257812 149.675781 101.535156 149.675781 101.535156 146.824219 "/>
<path style="fill:none;stroke-width:0.1;stroke-linecap:round;stroke-linejoin:miter;stroke:rgb(45.098039%,45.098039%,87.058824%);stroke-opacity:1;stroke-miterlimit:10;" d="M 1.649987 0.423205 L 1.649987 0.523248 " transform="matrix(72,0,0,-72,0.4392,161.337937)"/>
<path style="fill:none;stroke-width:0.1;stroke-linecap:round;stroke-linejoin:miter;stroke:rgb(45.098039%,45.098039%,87.058824%);stroke-opacity:1;stroke-miterlimit:10;" d="M 1.649987 0.176786 L 1.649987 0.0767964 " transform="matrix(72,0,0,-72,0.4392,161.337937)"/>
<path style=" stroke:none;fill-rule:evenodd;fill:rgb(45.098039%,45.098039%,87.058824%);fill-opacity:1;" d="M 108.296875 84.152344 C 108.296875 80.601562 102.96875 80.601562 102.96875 84.152344 C 102.96875 87.707031 108.296875 87.707031 108.296875 84.152344 "/>
<path style=" stroke:none;fill-rule:evenodd;fill:rgb(45.098039%,45.098039%,87.058824%);fill-opacity:1;" d="M 108.296875 65.722656 C 108.296875 62.171875 102.96875 62.171875 102.96875 65.722656 C 102.96875 69.273438 108.296875 69.273438 108.296875 65.722656 "/>
<path style=" stroke:none;fill-rule:evenodd;fill:rgb(45.098039%,45.098039%,87.058824%);fill-opacity:1;" d="M 121.109375 84.152344 C 121.109375 80.601562 115.78125 80.601562 115.78125 84.152344 C 115.78125 87.707031 121.109375 87.707031 121.109375 84.152344 "/>
<path style=" stroke:none;fill-rule:evenodd;fill:rgb(45.098039%,45.098039%,87.058824%);fill-opacity:1;" d="M 121.109375 65.722656 C 121.109375 62.171875 115.78125 62.171875 115.78125 65.722656 C 115.78125 69.273438 121.109375 69.273438 121.109375 65.722656 "/>
<path style=" stroke:none;fill-rule:evenodd;fill:rgb(45.098039%,45.098039%,87.058824%);fill-opacity:1;" d="M 108.296875 112.953125 C 108.296875 109.402344 102.96875 109.402344 102.96875 112.953125 C 102.96875 116.507812 108.296875 116.507812 108.296875 112.953125 "/>
<path style=" stroke:none;fill-rule:evenodd;fill:rgb(45.098039%,45.098039%,87.058824%);fill-opacity:1;" d="M 108.296875 94.523438 C 108.296875 90.96875 102.96875 90.96875 102.96875 94.523438 C 102.96875 98.074219 108.296875 98.074219 108.296875 94.523438 "/>
<path style=" stroke:none;fill-rule:evenodd;fill:rgb(45.098039%,45.098039%,87.058824%);fill-opacity:1;" d="M 121.109375 112.953125 C 121.109375 109.402344 115.78125 109.402344 115.78125 112.953125 C 115.78125 116.507812 121.109375 116.507812 121.109375 112.953125 "/>
<path style=" stroke:none;fill-rule:evenodd;fill:rgb(45.098039%,45.098039%,87.058824%);fill-opacity:1;" d="M 121.109375 94.523438 C 121.109375 90.96875 115.78125 90.96875 115.78125 94.523438 C 115.78125 98.074219 121.109375 98.074219 121.109375 94.523438 "/>
<path style="fill:none;stroke-width:0.07;stroke-linecap:round;stroke-linejoin:miter;stroke:rgb(45.098039%,45.098039%,87.058824%);stroke-opacity:1;stroke-miterlimit:10;" d="M 1.35002 1.649984 L 1.60002 1.899984 " transform="matrix(72,0,0,-72,0.4392,161.337937)"/>
<path style="fill:none;stroke-width:0.07;stroke-linecap:round;stroke-linejoin:miter;stroke:rgb(45.098039%,45.098039%,87.058824%);stroke-opacity:1;stroke-miterlimit:10;" d="M 1.35002 1.649984 L 1.35002 1.225017 " transform="matrix(72,0,0,-72,0.4392,161.337937)"/>
<path style="fill:none;stroke-width:0.07;stroke-linecap:round;stroke-linejoin:miter;stroke:rgb(45.098039%,45.098039%,87.058824%);stroke-opacity:1;stroke-miterlimit:10;" d="M 1.60002 1.899984 L 1.60002 2.100017 " transform="matrix(72,0,0,-72,0.4392,161.337937)"/>
<path style="fill:none;stroke-width:0.07;stroke-linecap:round;stroke-linejoin:miter;stroke:rgb(45.098039%,45.098039%,87.058824%);stroke-opacity:1;stroke-miterlimit:10;" d="M 0.549998 2.100017 L 0.549998 1.950006 " transform="matrix(72,0,0,-72,0.4392,161.337937)"/>
<path style="fill:none;stroke-width:0.07;stroke-linecap:round;stroke-linejoin:miter;stroke:rgb(45.098039%,45.098039%,87.058824%);stroke-opacity:1;stroke-miterlimit:10;" d="M 0.549998 2.100017 L 1.60002 2.100017 " transform="matrix(72,0,0,-72,0.4392,161.337937)"/>
<path style="fill:none;stroke-width:0.07;stroke-linecap:round;stroke-linejoin:miter;stroke:rgb(45.098039%,45.098039%,87.058824%);stroke-opacity:1;stroke-miterlimit:10;" d="M 1.860979 0.950006 L 2.059981 0.950006 " transform="matrix(72,0,0,-72,0.4392,161.337937)"/>
<path style="fill:none;stroke-width:0.07;stroke-linecap:round;stroke-linejoin:miter;stroke:rgb(45.098039%,45.098039%,87.058824%);stroke-opacity:1;stroke-miterlimit:10;" d="M 1.524987 0.398411 L 1.374434 0.398411 " transform="matrix(72,0,0,-72,0.4392,161.337937)"/>
<path style="fill:none;stroke-width:0.07;stroke-linecap:round;stroke-linejoin:miter;stroke:rgb(45.098039%,45.098039%,87.058824%);stroke-opacity:1;stroke-miterlimit:10;" d="M 1.524987 0.398411 L 1.524987 0.575006 " transform="matrix(72,0,0,-72,0.4392,161.337937)"/>
<path style="fill:none;stroke-width:0.07;stroke-linecap:round;stroke-linejoin:miter;stroke:rgb(45.098039%,45.098039%,87.058824%);stroke-opacity:1;stroke-miterlimit:10;" d="M 1.524987 0.575006 L 1.624976 0.674995 " transform="matrix(72,0,0,-72,0.4392,161.337937)"/>
<path style="fill:none;stroke-width:0.07;stroke-linecap:round;stroke-linejoin:miter;stroke:rgb(45.098039%,45.098039%,87.058824%);stroke-opacity:1;stroke-miterlimit:10;" d="M 1.624976 0.674995 L 1.638974 0.672011 " transform="matrix(72,0,0,-72,0.4392,161.337937)"/>
<path style="fill:none;stroke-width:0.07;stroke-linecap:round;stroke-linejoin:miter;stroke:rgb(45.098039%,45.098039%,87.058824%);stroke-opacity:1;stroke-miterlimit:10;" d="M 1.638974 0.672011 L 1.85002 0.672011 " transform="matrix(72,0,0,-72,0.4392,161.337937)"/>
<path style="fill:none;stroke-width:0.07;stroke-linecap:round;stroke-linejoin:miter;stroke:rgb(45.098039%,45.098039%,87.058824%);stroke-opacity:1;stroke-miterlimit:10;" d="M 1.85002 0.672011 L 1.85002 0.924995 " transform="matrix(72,0,0,-72,0.4392,161.337937)"/>
<path style="fill:none;stroke-width:0.07;stroke-linecap:round;stroke-linejoin:miter;stroke:rgb(45.098039%,45.098039%,87.058824%);stroke-opacity:1;stroke-miterlimit:10;" d="M 1.85002 0.924995 L 1.860979 0.950006 " transform="matrix(72,0,0,-72,0.4392,161.337937)"/>
<path style="fill:none;stroke-width:0.07;stroke-linecap:round;stroke-linejoin:miter;stroke:rgb(45.098039%,45.098039%,87.058824%);stroke-opacity:1;stroke-miterlimit:10;" d="M 1.85002 1.049995 L 1.649987 1.049995 " transform="matrix(72,0,0,-72,0.4392,161.337937)"/>
<path style="fill:none;stroke-width:0.07;stroke-linecap:round;stroke-linejoin:miter;stroke:rgb(45.098039%,45.098039%,87.058824%);stroke-opacity:1;stroke-miterlimit:10;" d="M 1.85002 1.049995 L 1.85002 0.975017 " transform="matrix(72,0,0,-72,0.4392,161.337937)"/>
<path style="fill:none;stroke-width:0.07;stroke-linecap:round;stroke-linejoin:miter;stroke:rgb(45.098039%,45.098039%,87.058824%);stroke-opacity:1;stroke-miterlimit:10;" d="M 1.649987 1.049995 L 1.638974 1.072022 " transform="matrix(72,0,0,-72,0.4392,161.337937)"/>
<path style="fill:none;stroke-width:0.07;stroke-linecap:round;stroke-linejoin:miter;stroke:rgb(45.098039%,45.098039%,87.058824%);stroke-opacity:1;stroke-miterlimit:10;" d="M 1.85002 0.975017 L 1.860979 0.950006 " transform="matrix(72,0,0,-72,0.4392,161.337937)"/>
<path style="fill:none;stroke-width:0.07;stroke-linecap:round;stroke-linejoin:miter;stroke:rgb(45.098039%,45.098039%,87.058824%);stroke-opacity:1;stroke-miterlimit:10;" d="M 1.638974 1.072022 L 1.638974 1.225017 " transform="matrix(72,0,0,-72,0.4392,161.337937)"/>
<path style="fill:none;stroke-width:0.07;stroke-linecap:round;stroke-linejoin:miter;stroke:rgb(45.098039%,45.098039%,87.058824%);stroke-opacity:1;stroke-miterlimit:10;" d="M 1.638974 1.225017 L 1.35002 1.225017 " transform="matrix(72,0,0,-72,0.4392,161.337937)"/>
<path style="fill:none;stroke-width:0.07;stroke-linecap:round;stroke-linejoin:miter;stroke:rgb(45.098039%,45.098039%,87.058824%);stroke-opacity:1;stroke-miterlimit:10;" d="M 1.962487 1.149984 L 2.059981 1.149984 " transform="matrix(72,0,0,-72,0.4392,161.337937)"/>
<path style="fill:none;stroke-width:0.07;stroke-linecap:round;stroke-linejoin:miter;stroke:rgb(45.098039%,45.098039%,87.058824%);stroke-opacity:1;stroke-miterlimit:10;" d="M 1.700009 1.412517 L 1.700009 1.499974 " transform="matrix(72,0,0,-72,0.4392,161.337937)"/>
<path style="fill:none;stroke-width:0.07;stroke-linecap:round;stroke-linejoin:miter;stroke:rgb(45.098039%,45.098039%,87.058824%);stroke-opacity:1;stroke-miterlimit:10;" d="M 1.700009 1.412517 L 1.962487 1.149984 " transform="matrix(72,0,0,-72,0.4392,161.337937)"/>
<path style="fill:none;stroke-width:0.07;stroke-linecap:round;stroke-linejoin:miter;stroke:rgb(45.098039%,45.098039%,87.058824%);stroke-opacity:1;stroke-miterlimit:10;" d="M 0.737498 1.862495 L 0.649987 1.950006 " transform="matrix(72,0,0,-72,0.4392,161.337937)"/>
<path style="fill:none;stroke-width:0.07;stroke-linecap:round;stroke-linejoin:miter;stroke:rgb(45.098039%,45.098039%,87.058824%);stroke-opacity:1;stroke-miterlimit:10;" d="M 0.737498 1.862495 L 0.737498 1.374974 " transform="matrix(72,0,0,-72,0.4392,161.337937)"/>
<path style="fill:none;stroke-width:0.07;stroke-linecap:round;stroke-linejoin:miter;stroke:rgb(45.098039%,45.098039%,87.058824%);stroke-opacity:1;stroke-miterlimit:10;" d="M 0.737498 1.374974 L 0.749976 1.350017 " transform="matrix(72,0,0,-72,0.4392,161.337937)"/>
<path style=" stroke:none;fill-rule:evenodd;fill:rgb(45.098039%,45.098039%,87.058824%);fill-opacity:1;" d="M 54.609375 62.339844 C 54.609375 60.910156 52.46875 60.910156 52.46875 62.339844 C 52.46875 63.765625 54.609375 63.765625 54.609375 62.339844 "/>
<path style="fill:none;stroke-width:0.07;stroke-linecap:round;stroke-linejoin:miter;stroke:rgb(45.098039%,45.098039%,87.058824%);stroke-opacity:1;stroke-miterlimit:10;" d="M 0.399987 0.350017 L 0.499976 0.249974 " transform="matrix(72,0,0,-72,0.4392,161.337937)"/>
<path style="fill:none;stroke-width:0.07;stroke-linecap:round;stroke-linejoin:miter;stroke:rgb(45.098039%,45.098039%,87.058824%);stroke-opacity:1;stroke-miterlimit:10;" d="M 0.499976 0.249974 L 0.649987 0.249974 " transform="matrix(72,0,0,-72,0.4392,161.337937)"/>
<path style="fill:none;stroke-width:0.07;stroke-linecap:round;stroke-linejoin:miter;stroke:rgb(45.098039%,45.098039%,87.058824%);stroke-opacity:1;stroke-miterlimit:10;" d="M 1.374434 0.299995 L 2.249976 0.299995 " transform="matrix(72,0,0,-72,0.4392,161.337937)"/>
<path style="fill:none;stroke-width:0.07;stroke-linecap:round;stroke-linejoin:miter;stroke:rgb(45.098039%,45.098039%,87.058824%);stroke-opacity:1;stroke-miterlimit:10;" d="M 2.249976 1.450006 L 2.059981 1.450006 " transform="matrix(72,0,0,-72,0.4392,161.337937)"/>
<path style="fill:none;stroke-width:0.07;stroke-linecap:round;stroke-linejoin:miter;stroke:rgb(45.098039%,45.098039%,87.058824%);stroke-opacity:1;stroke-miterlimit:10;" d="M 2.249976 1.450006 L 2.249976 0.299995 " transform="matrix(72,0,0,-72,0.4392,161.337937)"/>
<path style="fill:none;stroke-width:0.07;stroke-linecap:round;stroke-linejoin:miter;stroke:rgb(45.098039%,45.098039%,87.058824%);stroke-opacity:1;stroke-miterlimit:10;" d="M 1.700009 1.799995 L 1.700009 1.899984 " transform="matrix(72,0,0,-72,0.4392,161.337937)"/>
<path style="fill:none;stroke-width:0.07;stroke-linecap:round;stroke-linejoin:miter;stroke:rgb(45.098039%,45.098039%,87.058824%);stroke-opacity:1;stroke-miterlimit:10;" d="M 1.825009 1.549995 L 2.049998 1.549995 " transform="matrix(72,0,0,-72,0.4392,161.337937)"/>
<path style="fill:none;stroke-width:0.07;stroke-linecap:round;stroke-linejoin:miter;stroke:rgb(45.098039%,45.098039%,87.058824%);stroke-opacity:1;stroke-miterlimit:10;" d="M 1.825009 1.549995 L 1.700009 1.799995 " transform="matrix(72,0,0,-72,0.4392,161.337937)"/>
<path style="fill:none;stroke-width:0.07;stroke-linecap:round;stroke-linejoin:miter;stroke:rgb(45.098039%,45.098039%,87.058824%);stroke-opacity:1;stroke-miterlimit:10;" d="M 0.35002 1.450006 L 0.140005 1.450006 " transform="matrix(72,0,0,-72,0.4392,161.337937)"/>
<path style="fill:none;stroke-width:0.07;stroke-linecap:round;stroke-linejoin:miter;stroke:rgb(45.098039%,45.098039%,87.058824%);stroke-opacity:1;stroke-miterlimit:10;" d="M 0.35002 1.850017 L 0.450009 1.950006 " transform="matrix(72,0,0,-72,0.4392,161.337937)"/>
<path style="fill:none;stroke-width:0.07;stroke-linecap:round;stroke-linejoin:miter;stroke:rgb(45.098039%,45.098039%,87.058824%);stroke-opacity:1;stroke-miterlimit:10;" d="M 0.35002 1.850017 L 0.35002 1.450006 " transform="matrix(72,0,0,-72,0.4392,161.337937)"/>
<path style="fill:none;stroke-width:0.07;stroke-linecap:round;stroke-linejoin:miter;stroke:rgb(45.098039%,45.098039%,87.058824%);stroke-opacity:1;stroke-miterlimit:10;" d="M 0.450009 1.350017 L 0.149987 1.350017 " transform="matrix(72,0,0,-72,0.4392,161.337937)"/>
<path style="fill:none;stroke-width:0.07;stroke-linecap:round;stroke-linejoin:miter;stroke:rgb(45.098039%,45.098039%,87.058824%);stroke-opacity:1;stroke-miterlimit:10;" d="M 1.024987 1.200006 L 1.153025 1.072022 " transform="matrix(72,0,0,-72,0.4392,161.337937)"/>
<path style="fill:none;stroke-width:0.07;stroke-linecap:round;stroke-linejoin:miter;stroke:rgb(45.098039%,45.098039%,87.058824%);stroke-opacity:1;stroke-miterlimit:10;" d="M 1.024987 1.200006 L 0.612498 1.200006 " transform="matrix(72,0,0,-72,0.4392,161.337937)"/>
<path style="fill:none;stroke-width:0.07;stroke-linecap:round;stroke-linejoin:miter;stroke:rgb(45.098039%,45.098039%,87.058824%);stroke-opacity:1;stroke-miterlimit:10;" d="M 0.612498 1.200006 L 0.47502 1.337484 " transform="matrix(72,0,0,-72,0.4392,161.337937)"/>
<path style="fill:none;stroke-width:0.07;stroke-linecap:round;stroke-linejoin:miter;stroke:rgb(45.098039%,45.098039%,87.058824%);stroke-opacity:1;stroke-miterlimit:10;" d="M 1.153025 1.072022 L 1.461022 1.072022 " transform="matrix(72,0,0,-72,0.4392,161.337937)"/>
<path style="fill:none;stroke-width:0.07;stroke-linecap:round;stroke-linejoin:miter;stroke:rgb(45.098039%,45.098039%,87.058824%);stroke-opacity:1;stroke-miterlimit:10;" d="M 0.47502 1.337484 L 0.450009 1.350017 " transform="matrix(72,0,0,-72,0.4392,161.337937)"/>
<path style="fill:none;stroke-width:0.07;stroke-linecap:round;stroke-linejoin:miter;stroke:rgb(45.098039%,45.098039%,87.058824%);stroke-opacity:1;stroke-miterlimit:10;" d="M 0.249976 1.249974 L 0.399987 1.100017 " transform="matrix(72,0,0,-72,0.4392,161.337937)"/>
<path style="fill:none;stroke-width:0.07;stroke-linecap:round;stroke-linejoin:miter;stroke:rgb(45.098039%,45.098039%,87.058824%);stroke-opacity:1;stroke-miterlimit:10;" d="M 0.399987 1.100017 L 0.450009 1.100017 " transform="matrix(72,0,0,-72,0.4392,161.337937)"/>
<path style="fill:none;stroke-width:0.07;stroke-linecap:round;stroke-linejoin:miter;stroke:rgb(45.098039%,45.098039%,87.058824%);stroke-opacity:1;stroke-miterlimit:10;" d="M 0.249976 1.249974 L 0.140005 1.249974 " transform="matrix(72,0,0,-72,0.4392,161.337937)"/>
<path style="fill:none;stroke-width:0.07;stroke-linecap:round;stroke-linejoin:miter;stroke:rgb(45.098039%,45.098039%,87.058824%);stroke-opacity:1;stroke-miterlimit:10;" d="M 0.66252 0.899984 L 0.825009 0.899984 " transform="matrix(72,0,0,-72,0.4392,161.337937)"/>
<path style="fill:none;stroke-width:0.07;stroke-linecap:round;stroke-linejoin:miter;stroke:rgb(45.098039%,45.098039%,87.058824%);stroke-opacity:1;stroke-miterlimit:10;" d="M 0.66252 0.899984 L 0.47502 1.087484 " transform="matrix(72,0,0,-72,0.4392,161.337937)"/>
<path style="fill:none;stroke-width:0.07;stroke-linecap:round;stroke-linejoin:miter;stroke:rgb(45.098039%,45.098039%,87.058824%);stroke-opacity:1;stroke-miterlimit:10;" d="M 1.265113 0.672011 L 1.461022 0.672011 " transform="matrix(72,0,0,-72,0.4392,161.337937)"/>
<path style="fill:none;stroke-width:0.07;stroke-linecap:round;stroke-linejoin:miter;stroke:rgb(45.098039%,45.098039%,87.058824%);stroke-opacity:1;stroke-miterlimit:10;" d="M 0.47502 1.087484 L 0.450009 1.100017 " transform="matrix(72,0,0,-72,0.4392,161.337937)"/>
<path style="fill:none;stroke-width:0.07;stroke-linecap:round;stroke-linejoin:miter;stroke:rgb(45.098039%,45.098039%,87.058824%);stroke-opacity:1;stroke-miterlimit:10;" d="M 0.825009 0.700006 L 1.249976 0.700006 " transform="matrix(72,0,0,-72,0.4392,161.337937)"/>
<path style="fill:none;stroke-width:0.07;stroke-linecap:round;stroke-linejoin:miter;stroke:rgb(45.098039%,45.098039%,87.058824%);stroke-opacity:1;stroke-miterlimit:10;" d="M 0.825009 0.700006 L 0.825009 0.899984 " transform="matrix(72,0,0,-72,0.4392,161.337937)"/>
<path style="fill:none;stroke-width:0.07;stroke-linecap:round;stroke-linejoin:miter;stroke:rgb(45.098039%,45.098039%,87.058824%);stroke-opacity:1;stroke-miterlimit:10;" d="M 1.249976 0.700006 L 1.265113 0.672011 " transform="matrix(72,0,0,-72,0.4392,161.337937)"/>
<path style="fill:none;stroke-width:0.07;stroke-linecap:round;stroke-linejoin:miter;stroke:rgb(45.098039%,45.098039%,87.058824%);stroke-opacity:1;stroke-miterlimit:10;" d="M 0.299998 0.749974 L 0.299998 0.999974 " transform="matrix(72,0,0,-72,0.4392,161.337937)"/>
<path style="fill:none;stroke-width:0.07;stroke-linecap:round;stroke-linejoin:miter;stroke:rgb(45.098039%,45.098039%,87.058824%);stroke-opacity:1;stroke-miterlimit:10;" d="M 0.299998 0.749974 L 0.399987 0.649984 " transform="matrix(72,0,0,-72,0.4392,161.337937)"/>
<path style="fill:none;stroke-width:0.07;stroke-linecap:round;stroke-linejoin:miter;stroke:rgb(45.098039%,45.098039%,87.058824%);stroke-opacity:1;stroke-miterlimit:10;" d="M 0.299998 0.999974 L 0.140005 0.999974 " transform="matrix(72,0,0,-72,0.4392,161.337937)"/>
</g>
</svg>
