<?xml version="1.0" encoding="UTF-8"?>
<svg xmlns="http://www.w3.org/2000/svg" xmlns:xlink="http://www.w3.org/1999/xlink" width="157pt" height="155pt" viewBox="0 0 157 155" version="1.1">
<g id="surface6244">
<path style=" stroke:none;fill-rule:evenodd;fill:rgb(45.098039%,45.098039%,87.058824%);fill-opacity:1;" d="M 150.746094 95.871094 C 150.746094 92.320312 145.417969 92.320312 145.417969 95.871094 C 145.417969 99.421875 150.746094 99.421875 150.746094 95.871094 "/>
<path style=" stroke:none;fill-rule:evenodd;fill:rgb(45.098039%,45.098039%,87.058824%);fill-opacity:1;" d="M 150.027344 88.671875 C 150.027344 85.117188 144.699219 85.117188 144.699219 88.671875 C 144.699219 92.222656 150.027344 92.222656 150.027344 88.671875 "/>
<path style=" stroke:none;fill-rule:evenodd;fill:rgb(45.098039%,45.098039%,87.058824%);fill-opacity:1;" d="M 150.746094 81.472656 C 150.746094 77.917969 145.417969 77.917969 145.417969 81.472656 C 145.417969 85.023438 150.746094 85.023438 150.746094 81.472656 "/>
<path style=" stroke:none;fill-rule:evenodd;fill:rgb(45.098039%,45.098039%,87.058824%);fill-opacity:1;" d="M 150.027344 74.269531 C 150.027344 70.71875 144.699219 70.71875 144.699219 74.269531 C 144.699219 77.824219 150.027344 77.824219 150.027344 74.269531 "/>
<path style=" stroke:none;fill-rule:evenodd;fill:rgb(45.098039%,45.098039%,87.058824%);fill-opacity:1;" d="M 150.746094 67.070312 C 150.746094 63.519531 145.417969 63.519531 145.417969 67.070312 C 145.417969 70.621094 150.746094 70.621094 150.746094 67.070312 "/>
<path style=" stroke:none;fill-rule:evenodd;fill:rgb(45.098039%,45.098039%,87.058824%);fill-opacity:1;" d="M 150.027344 59.871094 C 150.027344 56.320312 144.699219 56.320312 144.699219 59.871094 C 144.699219 63.421875 150.027344 63.421875 150.027344 59.871094 "/>
<path style=" stroke:none;fill-rule:evenodd;fill:rgb(45.098039%,45.098039%,87.058824%);fill-opacity:1;" d="M 150.746094 45.472656 C 150.746094 41.917969 145.417969 41.917969 145.417969 45.472656 C 145.417969 49.023438 150.746094 49.023438 150.746094 45.472656 "/>
<path style=" stroke:none;fill-rule:evenodd;fill:rgb(45.098039%,45.098039%,87.058824%);fill-opacity:1;" d="M 150.027344 38.269531 C 150.027344 34.71875 144.699219 34.71875 144.699219 38.269531 C 144.699219 41.824219 150.027344 41.824219 150.027344 38.269531 "/>
<path style=" stroke:none;fill-rule:evenodd;fill:rgb(45.098039%,45.098039%,87.058824%);fill-opacity:1;" d="M 150.746094 31.070312 C 150.746094 27.519531 145.417969 27.519531 145.417969 31.070312 C 145.417969 34.621094 150.746094 34.621094 150.746094 31.070312 "/>
<path style=" stroke:none;fill-rule:evenodd;fill:rgb(45.098039%,45.098039%,87.058824%);fill-opacity:1;" d="M 150.027344 23.871094 C 150.027344 20.320312 144.699219 20.320312 144.699219 23.871094 C 144.699219 27.421875 150.027344 27.421875 150.027344 23.871094 "/>
<path style=" stroke:none;fill-rule:evenodd;fill:rgb(45.098039%,45.098039%,87.058824%);fill-opacity:1;" d="M 150.746094 16.671875 C 150.746094 13.117188 145.417969 13.117188 145.417969 16.671875 C 145.417969 20.222656 150.746094 20.222656 150.746094 16.671875 "/>
<path style=" stroke:none;fill-rule:evenodd;fill:rgb(45.098039%,45.098039%,87.058824%);fill-opacity:1;" d="M 150.027344 9.472656 C 150.027344 5.917969 144.699219 5.917969 144.699219 9.472656 C 144.699219 13.023438 150.027344 13.023438 150.027344 9.472656 "/>
<path style=" stroke:none;fill-rule:evenodd;fill:rgb(45.098039%,45.098039%,87.058824%);fill-opacity:1;" d="M 13.226562 9.472656 C 13.226562 5.917969 7.898438 5.917969 7.898438 9.472656 C 7.898438 13.023438 13.226562 13.023438 13.226562 9.472656 "/>
<path style=" stroke:none;fill-rule:evenodd;fill:rgb(45.098039%,45.098039%,87.058824%);fill-opacity:1;" d="M 12.507812 16.671875 C 12.507812 13.117188 7.179688 13.117188 7.179688 16.671875 C 7.179688 20.222656 12.507812 20.222656 12.507812 16.671875 "/>
<path style=" stroke:none;fill-rule:evenodd;fill:rgb(45.098039%,45.098039%,87.058824%);fill-opacity:1;" d="M 13.226562 23.871094 C 13.226562 20.320312 7.898438 20.320312 7.898438 23.871094 C 7.898438 27.421875 13.226562 27.421875 13.226562 23.871094 "/>
<path style=" stroke:none;fill-rule:evenodd;fill:rgb(45.098039%,45.098039%,87.058824%);fill-opacity:1;" d="M 12.507812 31.070312 C 12.507812 27.519531 7.179688 27.519531 7.179688 31.070312 C 7.179688 34.621094 12.507812 34.621094 12.507812 31.070312 "/>
<path style=" stroke:none;fill-rule:evenodd;fill:rgb(45.098039%,45.098039%,87.058824%);fill-opacity:1;" d="M 13.226562 38.269531 C 13.226562 34.71875 7.898438 34.71875 7.898438 38.269531 C 7.898438 41.824219 13.226562 41.824219 13.226562 38.269531 "/>
<path style=" stroke:none;fill-rule:evenodd;fill:rgb(45.098039%,45.098039%,87.058824%);fill-opacity:1;" d="M 12.507812 45.472656 C 12.507812 41.917969 7.179688 41.917969 7.179688 45.472656 C 7.179688 49.023438 12.507812 49.023438 12.507812 45.472656 "/>
<path style=" stroke:none;fill-rule:evenodd;fill:rgb(45.098039%,45.098039%,87.058824%);fill-opacity:1;" d="M 13.226562 52.671875 C 13.226562 49.117188 7.898438 49.117188 7.898438 52.671875 C 7.898438 56.222656 13.226562 56.222656 13.226562 52.671875 "/>
<path style=" stroke:none;fill-rule:evenodd;fill:rgb(45.098039%,45.098039%,87.058824%);fill-opacity:1;" d="M 12.507812 59.871094 C 12.507812 56.320312 7.179688 56.320312 7.179688 59.871094 C 7.179688 63.421875 12.507812 63.421875 12.507812 59.871094 "/>
<path style=" stroke:none;fill-rule:evenodd;fill:rgb(45.098039%,45.098039%,87.058824%);fill-opacity:1;" d="M 13.226562 70.671875 C 13.226562 67.117188 7.898438 67.117188 7.898438 70.671875 C 7.898438 74.222656 13.226562 74.222656 13.226562 70.671875 "/>
<path style=" stroke:none;fill-rule:evenodd;fill:rgb(45.098039%,45.098039%,87.058824%);fill-opacity:1;" d="M 12.507812 77.871094 C 12.507812 74.320312 7.179688 74.320312 7.179688 77.871094 C 7.179688 81.421875 12.507812 81.421875 12.507812 77.871094 "/>
<path style=" stroke:none;fill-rule:evenodd;fill:rgb(45.098039%,45.098039%,87.058824%);fill-opacity:1;" d="M 13.226562 85.070312 C 13.226562 81.519531 7.898438 81.519531 7.898438 85.070312 C 7.898438 88.621094 13.226562 88.621094 13.226562 85.070312 "/>
<path style=" stroke:none;fill-rule:evenodd;fill:rgb(45.098039%,45.098039%,87.058824%);fill-opacity:1;" d="M 12.507812 92.269531 C 12.507812 88.71875 7.179688 88.71875 7.179688 92.269531 C 7.179688 95.824219 12.507812 95.824219 12.507812 92.269531 "/>
<path style=" stroke:none;fill-rule:evenodd;fill:rgb(45.098039%,45.098039%,87.058824%);fill-opacity:1;" d="M 13.226562 99.472656 C 13.226562 95.917969 7.898438 95.917969 7.898438 99.472656 C 7.898438 103.023438 13.226562 103.023438 13.226562 99.472656 "/>
<path style=" stroke:none;fill-rule:evenodd;fill:rgb(45.098039%,45.098039%,87.058824%);fill-opacity:1;" d="M 12.507812 106.671875 C 12.507812 103.117188 7.179688 103.117188 7.179688 106.671875 C 7.179688 110.222656 12.507812 110.222656 12.507812 106.671875 "/>
<path style=" stroke:none;fill-rule:evenodd;fill:rgb(45.098039%,45.098039%,87.058824%);fill-opacity:1;" d="M 13.226562 113.871094 C 13.226562 110.320312 7.898438 110.320312 7.898438 113.871094 C 7.898438 117.421875 13.226562 117.421875 13.226562 113.871094 "/>
<path style=" stroke:none;fill-rule:evenodd;fill:rgb(45.098039%,45.098039%,87.058824%);fill-opacity:1;" d="M 12.507812 121.070312 C 12.507812 117.519531 7.179688 117.519531 7.179688 121.070312 C 7.179688 124.621094 12.507812 124.621094 12.507812 121.070312 "/>
<path style=" stroke:none;fill-rule:evenodd;fill:rgb(45.098039%,45.098039%,87.058824%);fill-opacity:1;" d="M 13.226562 128.269531 C 13.226562 124.71875 7.898438 124.71875 7.898438 128.269531 C 7.898438 131.824219 13.226562 131.824219 13.226562 128.269531 "/>
<path style=" stroke:none;fill-rule:evenodd;fill:rgb(45.098039%,45.098039%,87.058824%);fill-opacity:1;" d="M 13.226562 135.472656 C 13.226562 131.917969 7.898438 131.917969 7.898438 135.472656 C 7.898438 139.023438 13.226562 139.023438 13.226562 135.472656 "/>
<path style=" stroke:none;fill-rule:evenodd;fill:rgb(45.098039%,45.098039%,87.058824%);fill-opacity:1;" d="M 150.027344 103.070312 C 150.027344 99.519531 144.699219 99.519531 144.699219 103.070312 C 144.699219 106.621094 150.027344 106.621094 150.027344 103.070312 "/>
<path style=" stroke:none;fill-rule:evenodd;fill:rgb(45.098039%,45.098039%,87.058824%);fill-opacity:1;" d="M 150.746094 110.269531 C 150.746094 106.71875 145.417969 106.71875 145.417969 110.269531 C 145.417969 113.824219 150.746094 113.824219 150.746094 110.269531 "/>
<path style=" stroke:none;fill-rule:evenodd;fill:rgb(45.098039%,45.098039%,87.058824%);fill-opacity:1;" d="M 49.226562 131.871094 C 49.226562 128.320312 43.898438 128.320312 43.898438 131.871094 C 43.898438 135.421875 49.226562 135.421875 49.226562 131.871094 "/>
<path style=" stroke:none;fill-rule:evenodd;fill:rgb(45.098039%,45.098039%,87.058824%);fill-opacity:1;" d="M 56.425781 131.871094 C 56.425781 128.320312 51.097656 128.320312 51.097656 131.871094 C 51.097656 135.421875 56.425781 135.421875 56.425781 131.871094 "/>
<path style=" stroke:none;fill-rule:evenodd;fill:rgb(45.098039%,45.098039%,87.058824%);fill-opacity:1;" d="M 34.828125 9.472656 C 34.828125 5.917969 29.5 5.917969 29.5 9.472656 C 29.5 13.023438 34.828125 13.023438 34.828125 9.472656 "/>
<path style=" stroke:none;fill-rule:evenodd;fill:rgb(45.098039%,45.098039%,87.058824%);fill-opacity:1;" d="M 42.027344 9.472656 C 42.027344 5.917969 36.699219 5.917969 36.699219 9.472656 C 36.699219 13.023438 42.027344 13.023438 42.027344 9.472656 "/>
<path style=" stroke:none;fill-rule:evenodd;fill:rgb(45.098039%,45.098039%,87.058824%);fill-opacity:1;" d="M 49.226562 9.472656 C 49.226562 5.917969 43.898438 5.917969 43.898438 9.472656 C 43.898438 13.023438 49.226562 13.023438 49.226562 9.472656 "/>
<path style=" stroke:none;fill-rule:evenodd;fill:rgb(45.098039%,45.098039%,87.058824%);fill-opacity:1;" d="M 117.625 13.070312 C 117.625 9.519531 112.296875 9.519531 112.296875 13.070312 C 112.296875 16.621094 117.625 16.621094 117.625 13.070312 "/>
<path style=" stroke:none;fill-rule:evenodd;fill:rgb(45.098039%,45.098039%,87.058824%);fill-opacity:1;" d="M 124.828125 13.070312 C 124.828125 9.519531 119.5 9.519531 119.5 13.070312 C 119.5 16.621094 124.828125 16.621094 124.828125 13.070312 "/>
<path style=" stroke:none;fill-rule:evenodd;fill:rgb(45.098039%,45.098039%,87.058824%);fill-opacity:1;" d="M 124.828125 20.269531 C 124.828125 16.71875 119.5 16.71875 119.5 20.269531 C 119.5 23.824219 124.828125 23.824219 124.828125 20.269531 "/>
<path style=" stroke:none;fill-rule:evenodd;fill:rgb(45.098039%,45.098039%,87.058824%);fill-opacity:1;" d="M 124.828125 41.871094 C 124.828125 38.320312 119.5 38.320312 119.5 41.871094 C 119.5 45.421875 124.828125 45.421875 124.828125 41.871094 "/>
<path style=" stroke:none;fill-rule:evenodd;fill:rgb(45.098039%,45.098039%,87.058824%);fill-opacity:1;" d="M 56.425781 52.671875 C 56.425781 49.117188 51.097656 49.117188 51.097656 52.671875 C 51.097656 56.222656 56.425781 56.222656 56.425781 52.671875 "/>
<path style=" stroke:none;fill-rule:evenodd;fill:rgb(45.098039%,45.098039%,87.058824%);fill-opacity:1;" d="M 34.828125 52.671875 C 34.828125 49.117188 29.5 49.117188 29.5 52.671875 C 29.5 56.222656 34.828125 56.222656 34.828125 52.671875 "/>
<path style=" stroke:none;fill-rule:evenodd;fill:rgb(45.098039%,45.098039%,87.058824%);fill-opacity:1;" d="M 56.425781 70.671875 C 56.425781 67.117188 51.097656 67.117188 51.097656 70.671875 C 51.097656 74.222656 56.425781 74.222656 56.425781 70.671875 "/>
<path style=" stroke:none;fill-rule:evenodd;fill:rgb(45.098039%,45.098039%,87.058824%);fill-opacity:1;" d="M 34.828125 70.671875 C 34.828125 67.117188 29.5 67.117188 29.5 70.671875 C 29.5 74.222656 34.828125 74.222656 34.828125 70.671875 "/>
<path style=" stroke:none;fill-rule:evenodd;fill:rgb(45.098039%,45.098039%,87.058824%);fill-opacity:1;" d="M 31.226562 103.070312 C 31.226562 99.519531 25.898438 99.519531 25.898438 103.070312 C 25.898438 106.621094 31.226562 106.621094 31.226562 103.070312 "/>
<path style=" stroke:none;fill-rule:evenodd;fill:rgb(45.098039%,45.098039%,87.058824%);fill-opacity:1;" d="M 31.226562 124.671875 C 31.226562 121.117188 25.898438 121.117188 25.898438 124.671875 C 25.898438 128.222656 31.226562 128.222656 31.226562 124.671875 "/>
<path style=" stroke:none;fill-rule:evenodd;fill:rgb(45.098039%,45.098039%,87.058824%);fill-opacity:1;" d="M 100.855469 121.183594 C 100.855469 118.335938 96.582031 118.335938 96.582031 121.183594 C 96.582031 124.035156 100.855469 124.035156 100.855469 121.183594 "/>
<path style=" stroke:none;fill-rule:evenodd;fill:rgb(45.098039%,45.098039%,87.058824%);fill-opacity:1;" d="M 100.855469 128.269531 C 100.855469 125.421875 96.582031 125.421875 96.582031 128.269531 C 96.582031 131.121094 100.855469 131.121094 100.855469 128.269531 "/>
<path style=" stroke:none;fill-rule:evenodd;fill:rgb(45.098039%,45.098039%,87.058824%);fill-opacity:1;" d="M 100.855469 135.355469 C 100.855469 132.507812 96.582031 132.507812 96.582031 135.355469 C 96.582031 138.207031 100.855469 138.207031 100.855469 135.355469 "/>
<path style="fill:none;stroke-width:0.1;stroke-linecap:round;stroke-linejoin:miter;stroke:rgb(45.098039%,45.098039%,87.058824%);stroke-opacity:1;stroke-miterlimit:10;" d="M 1.650001 0.423226 L 1.650001 0.523216 " transform="matrix(72,0,0,-72,-0.2376,149.870737)"/>
<path style="fill:none;stroke-width:0.1;stroke-linecap:round;stroke-linejoin:miter;stroke:rgb(45.098039%,45.098039%,87.058824%);stroke-opacity:1;stroke-miterlimit:10;" d="M 1.650001 0.176753 L 1.650001 0.0767637 " transform="matrix(72,0,0,-72,-0.2376,149.870737)"/>
<path style=" stroke:none;fill-rule:evenodd;fill:rgb(45.098039%,45.098039%,87.058824%);fill-opacity:1;" d="M 107.617188 72.6875 C 107.617188 69.132812 102.289062 69.132812 102.289062 72.6875 C 102.289062 76.238281 107.617188 76.238281 107.617188 72.6875 "/>
<path style=" stroke:none;fill-rule:evenodd;fill:rgb(45.098039%,45.098039%,87.058824%);fill-opacity:1;" d="M 107.617188 54.253906 C 107.617188 50.703125 102.289062 50.703125 102.289062 54.253906 C 102.289062 57.808594 107.617188 57.808594 107.617188 54.253906 "/>
<path style=" stroke:none;fill-rule:evenodd;fill:rgb(45.098039%,45.098039%,87.058824%);fill-opacity:1;" d="M 120.433594 72.6875 C 120.433594 69.132812 115.105469 69.132812 115.105469 72.6875 C 115.105469 76.238281 120.433594 76.238281 120.433594 72.6875 "/>
<path style=" stroke:none;fill-rule:evenodd;fill:rgb(45.098039%,45.098039%,87.058824%);fill-opacity:1;" d="M 120.433594 54.253906 C 120.433594 50.703125 115.105469 50.703125 115.105469 54.253906 C 115.105469 57.808594 120.433594 57.808594 120.433594 54.253906 "/>
<path style=" stroke:none;fill-rule:evenodd;fill:rgb(45.098039%,45.098039%,87.058824%);fill-opacity:1;" d="M 107.617188 101.488281 C 107.617188 97.933594 102.289062 97.933594 102.289062 101.488281 C 102.289062 105.039062 107.617188 105.039062 107.617188 101.488281 "/>
<path style=" stroke:none;fill-rule:evenodd;fill:rgb(45.098039%,45.098039%,87.058824%);fill-opacity:1;" d="M 107.617188 83.054688 C 107.617188 79.503906 102.289062 79.503906 102.289062 83.054688 C 102.289062 86.605469 107.617188 86.605469 107.617188 83.054688 "/>
<path style=" stroke:none;fill-rule:evenodd;fill:rgb(45.098039%,45.098039%,87.058824%);fill-opacity:1;" d="M 120.433594 101.488281 C 120.433594 97.933594 115.105469 97.933594 115.105469 101.488281 C 115.105469 105.039062 120.433594 105.039062 120.433594 101.488281 "/>
<path style=" stroke:none;fill-rule:evenodd;fill:rgb(45.098039%,45.098039%,87.058824%);fill-opacity:1;" d="M 120.433594 83.054688 C 120.433594 79.503906 115.105469 79.503906 115.105469 83.054688 C 115.105469 86.605469 120.433594 86.605469 120.433594 83.054688 "/>
<path style="fill:none;stroke-width:0.07;stroke-linecap:round;stroke-linejoin:miter;stroke:rgb(45.098039%,45.098039%,87.058824%);stroke-opacity:1;stroke-miterlimit:10;" d="M 1.362512 0.199973 L 0.749991 0.199973 " transform="matrix(72,0,0,-72,-0.2376,149.870737)"/>
<path style="fill:none;stroke-width:0.07;stroke-linecap:round;stroke-linejoin:miter;stroke:rgb(45.098039%,45.098039%,87.058824%);stroke-opacity:1;stroke-miterlimit:10;" d="M 0.749991 0.199973 L 0.749991 0.249995 " transform="matrix(72,0,0,-72,-0.2376,149.870737)"/>
<path style="fill:none;stroke-width:0.07;stroke-linecap:round;stroke-linejoin:miter;stroke:rgb(45.098039%,45.098039%,87.058824%);stroke-opacity:1;stroke-miterlimit:10;" d="M 1.362512 0.199973 L 1.374394 0.201601 " transform="matrix(72,0,0,-72,-0.2376,149.870737)"/>
<path style="fill:none;stroke-width:0.07;stroke-linecap:round;stroke-linejoin:miter;stroke:rgb(45.098039%,45.098039%,87.058824%);stroke-opacity:1;stroke-miterlimit:10;" d="M 0.749991 1.099984 L 0.749991 1.349984 " transform="matrix(72,0,0,-72,-0.2376,149.870737)"/>
<path style="fill:none;stroke-width:0.07;stroke-linecap:round;stroke-linejoin:miter;stroke:rgb(45.098039%,45.098039%,87.058824%);stroke-opacity:1;stroke-miterlimit:10;" d="M 0.749991 1.099984 L 0.749991 0.249995 " transform="matrix(72,0,0,-72,-0.2376,149.870737)"/>
<path style="fill:none;stroke-width:0.07;stroke-linecap:round;stroke-linejoin:miter;stroke:rgb(45.098039%,45.098039%,87.058824%);stroke-opacity:1;stroke-miterlimit:10;" d="M 0.737512 1.374995 L 0.862512 1.499995 " transform="matrix(72,0,0,-72,-0.2376,149.870737)"/>
<path style="fill:none;stroke-width:0.07;stroke-linecap:round;stroke-linejoin:miter;stroke:rgb(45.098039%,45.098039%,87.058824%);stroke-opacity:1;stroke-miterlimit:10;" d="M 0.862512 1.499995 L 1.700023 1.499995 " transform="matrix(72,0,0,-72,-0.2376,149.870737)"/>
<path style=" stroke:none;fill-rule:evenodd;fill:rgb(45.098039%,45.098039%,87.058824%);fill-opacity:1;" d="M 53.933594 50.871094 C 53.933594 49.441406 51.789062 49.441406 51.789062 50.871094 C 51.789062 52.300781 53.933594 52.300781 53.933594 50.871094 "/>
</g>
</svg>
