<?xml version="1.0" encoding="UTF-8"?>
<svg xmlns="http://www.w3.org/2000/svg" xmlns:xlink="http://www.w3.org/1999/xlink" width="257pt" height="221pt" viewBox="0 0 257 221" version="1.1">
<g id="surface11261">
<path style=" stroke:none;fill-rule:evenodd;fill:rgb(45.098039%,45.098039%,87.058824%);fill-opacity:1;" d="M 177.085938 134.847656 C 177.085938 131.296875 171.757812 131.296875 171.757812 134.847656 C 171.757812 138.402344 177.085938 138.402344 177.085938 134.847656 "/>
<path style=" stroke:none;fill-rule:evenodd;fill:rgb(45.098039%,45.098039%,87.058824%);fill-opacity:1;" d="M 184.261719 134.296875 C 184.261719 130.746094 178.933594 130.746094 178.933594 134.296875 C 178.933594 137.847656 184.261719 137.847656 184.261719 134.296875 "/>
<path style=" stroke:none;fill-rule:evenodd;fill:rgb(45.098039%,45.098039%,87.058824%);fill-opacity:1;" d="M 58.273438 19.375 C 58.273438 15.820312 52.945312 15.820312 52.945312 19.375 C 52.945312 22.925781 58.273438 22.925781 58.273438 19.375 "/>
<path style=" stroke:none;fill-rule:evenodd;fill:rgb(45.098039%,45.098039%,87.058824%);fill-opacity:1;" d="M 51.074219 19.375 C 51.074219 15.820312 45.746094 15.820312 45.746094 19.375 C 45.746094 22.925781 51.074219 22.925781 51.074219 19.375 "/>
<path style=" stroke:none;fill-rule:evenodd;fill:rgb(45.098039%,45.098039%,87.058824%);fill-opacity:1;" d="M 43.875 19.375 C 43.875 15.820312 38.546875 15.820312 38.546875 19.375 C 38.546875 22.925781 43.875 22.925781 43.875 19.375 "/>
<path style=" stroke:none;fill-rule:evenodd;fill:rgb(45.098039%,45.098039%,87.058824%);fill-opacity:1;" d="M 155.472656 19.375 C 155.472656 15.820312 150.144531 15.820312 150.144531 19.375 C 150.144531 22.925781 155.472656 22.925781 155.472656 19.375 "/>
<path style=" stroke:none;fill-rule:evenodd;fill:rgb(45.098039%,45.098039%,87.058824%);fill-opacity:1;" d="M 162.671875 19.375 C 162.671875 15.820312 157.347656 15.820312 157.347656 19.375 C 157.347656 22.925781 162.671875 22.925781 162.671875 19.375 "/>
<path style=" stroke:none;fill-rule:evenodd;fill:rgb(45.098039%,45.098039%,87.058824%);fill-opacity:1;" d="M 108.671875 188.574219 C 108.671875 185.019531 103.347656 185.019531 103.347656 188.574219 C 103.347656 192.125 108.671875 192.125 108.671875 188.574219 "/>
<path style=" stroke:none;fill-rule:evenodd;fill:rgb(45.098039%,45.098039%,87.058824%);fill-opacity:1;" d="M 108.671875 181.375 C 108.671875 177.820312 103.347656 177.820312 103.347656 181.375 C 103.347656 184.925781 108.671875 184.925781 108.671875 181.375 "/>
<path style=" stroke:none;fill-rule:evenodd;fill:rgb(45.098039%,45.098039%,87.058824%);fill-opacity:1;" d="M 108.671875 174.171875 C 108.671875 170.621094 103.347656 170.621094 103.347656 174.171875 C 103.347656 177.726562 108.671875 177.726562 108.671875 174.171875 "/>
<path style=" stroke:none;fill-rule:evenodd;fill:rgb(45.098039%,45.098039%,87.058824%);fill-opacity:1;" d="M 108.671875 166.972656 C 108.671875 163.421875 103.347656 163.421875 103.347656 166.972656 C 103.347656 170.523438 108.671875 170.523438 108.671875 166.972656 "/>
<path style=" stroke:none;fill-rule:evenodd;fill:rgb(45.098039%,45.098039%,87.058824%);fill-opacity:1;" d="M 108.671875 159.773438 C 108.671875 156.222656 103.347656 156.222656 103.347656 159.773438 C 103.347656 163.324219 108.671875 163.324219 108.671875 159.773438 "/>
<path style=" stroke:none;fill-rule:evenodd;fill:rgb(45.098039%,45.098039%,87.058824%);fill-opacity:1;" d="M 112.433594 82.300781 L 111.335938 83.398438 L 111.335938 84.949219 L 112.433594 86.046875 L 113.984375 86.046875 L 115.082031 84.949219 L 115.082031 83.398438 L 113.984375 82.300781 L 112.433594 82.300781 "/>
<path style=" stroke:none;fill-rule:evenodd;fill:rgb(45.098039%,45.098039%,87.058824%);fill-opacity:1;" d="M 112.433594 46.300781 L 111.335938 47.398438 L 111.335938 48.949219 L 112.433594 50.046875 L 113.984375 50.046875 L 115.082031 48.949219 L 115.082031 47.398438 L 113.984375 46.300781 L 112.433594 46.300781 "/>
<path style=" stroke:none;fill-rule:evenodd;fill:rgb(45.098039%,45.098039%,87.058824%);fill-opacity:1;" d="M 125.882812 115.796875 L 124.785156 114.703125 L 123.234375 114.703125 L 122.136719 115.796875 L 122.136719 117.347656 L 123.234375 118.445312 L 124.785156 118.445312 L 125.882812 117.347656 L 125.882812 115.796875 "/>
<path style=" stroke:none;fill-rule:evenodd;fill:rgb(45.098039%,45.098039%,87.058824%);fill-opacity:1;" d="M 161.882812 115.796875 L 160.785156 114.703125 L 159.234375 114.703125 L 158.136719 115.796875 L 158.136719 117.347656 L 159.234375 118.445312 L 160.785156 118.445312 L 161.882812 117.347656 L 161.882812 115.796875 "/>
<path style=" stroke:none;fill-rule:evenodd;fill:rgb(45.098039%,45.098039%,87.058824%);fill-opacity:1;" d="M 146.386719 32.046875 L 147.480469 30.949219 L 147.480469 29.398438 L 146.386719 28.300781 L 144.835938 28.300781 L 143.738281 29.398438 L 143.738281 30.949219 L 144.835938 32.046875 L 146.386719 32.046875 "/>
<path style=" stroke:none;fill-rule:evenodd;fill:rgb(45.098039%,45.098039%,87.058824%);fill-opacity:1;" d="M 146.386719 68.046875 L 147.480469 66.949219 L 147.480469 65.398438 L 146.386719 64.300781 L 144.835938 64.300781 L 143.738281 65.398438 L 143.738281 66.949219 L 144.835938 68.046875 L 146.386719 68.046875 "/>
<path style=" stroke:none;fill-rule:evenodd;fill:rgb(45.098039%,45.098039%,87.058824%);fill-opacity:1;" d="M 173.632812 103.902344 L 172.539062 104.996094 L 172.539062 106.546875 L 173.632812 107.644531 L 175.183594 107.644531 L 176.28125 106.546875 L 176.28125 104.996094 L 175.183594 103.902344 L 173.632812 103.902344 "/>
<path style=" stroke:none;fill-rule:evenodd;fill:rgb(45.098039%,45.098039%,87.058824%);fill-opacity:1;" d="M 173.632812 67.902344 L 172.539062 68.996094 L 172.539062 70.546875 L 173.632812 71.644531 L 175.183594 71.644531 L 176.28125 70.546875 L 176.28125 68.996094 L 175.183594 67.902344 L 173.632812 67.902344 "/>
<path style=" stroke:none;fill-rule:evenodd;fill:rgb(45.098039%,45.098039%,87.058824%);fill-opacity:1;" d="M 211.058594 66.964844 C 211.058594 63.414062 205.730469 63.414062 205.730469 66.964844 C 205.730469 70.515625 211.058594 70.515625 211.058594 66.964844 "/>
<path style=" stroke:none;fill-rule:evenodd;fill:rgb(45.098039%,45.098039%,87.058824%);fill-opacity:1;" d="M 229.488281 66.964844 C 229.488281 63.414062 224.160156 63.414062 224.160156 66.964844 C 224.160156 70.515625 229.488281 70.515625 229.488281 66.964844 "/>
<path style=" stroke:none;fill-rule:evenodd;fill:rgb(45.098039%,45.098039%,87.058824%);fill-opacity:1;" d="M 211.058594 79.78125 C 211.058594 76.230469 205.730469 76.230469 205.730469 79.78125 C 205.730469 83.332031 211.058594 83.332031 211.058594 79.78125 "/>
<path style=" stroke:none;fill-rule:evenodd;fill:rgb(45.098039%,45.098039%,87.058824%);fill-opacity:1;" d="M 229.488281 79.78125 C 229.488281 76.230469 224.160156 76.230469 224.160156 79.78125 C 224.160156 83.332031 229.488281 83.332031 229.488281 79.78125 "/>
<path style=" stroke:none;fill-rule:evenodd;fill:rgb(45.098039%,45.098039%,87.058824%);fill-opacity:1;" d="M 207.457031 128.164062 C 207.457031 124.613281 202.128906 124.613281 202.128906 128.164062 C 202.128906 131.71875 207.457031 131.71875 207.457031 128.164062 "/>
<path style=" stroke:none;fill-rule:evenodd;fill:rgb(45.098039%,45.098039%,87.058824%);fill-opacity:1;" d="M 225.890625 128.164062 C 225.890625 124.613281 220.5625 124.613281 220.5625 128.164062 C 220.5625 131.71875 225.890625 131.71875 225.890625 128.164062 "/>
<path style=" stroke:none;fill-rule:evenodd;fill:rgb(45.098039%,45.098039%,87.058824%);fill-opacity:1;" d="M 207.457031 140.980469 C 207.457031 137.429688 202.128906 137.429688 202.128906 140.980469 C 202.128906 144.535156 207.457031 144.535156 207.457031 140.980469 "/>
<path style=" stroke:none;fill-rule:evenodd;fill:rgb(45.098039%,45.098039%,87.058824%);fill-opacity:1;" d="M 225.890625 140.980469 C 225.890625 137.429688 220.5625 137.429688 220.5625 140.980469 C 220.5625 144.535156 225.890625 144.535156 225.890625 140.980469 "/>
<path style=" stroke:none;fill-rule:evenodd;fill:rgb(45.098039%,45.098039%,87.058824%);fill-opacity:1;" d="M 85.582031 206.289062 C 85.582031 203.441406 81.308594 203.441406 81.308594 206.289062 C 81.308594 209.140625 85.582031 209.140625 85.582031 206.289062 "/>
<path style=" stroke:none;fill-rule:evenodd;fill:rgb(45.098039%,45.098039%,87.058824%);fill-opacity:1;" d="M 85.582031 199.089844 C 85.582031 196.238281 81.308594 196.238281 81.308594 199.089844 C 81.308594 201.941406 85.582031 201.941406 85.582031 199.089844 "/>
<path style=" stroke:none;fill-rule:evenodd;fill:rgb(45.098039%,45.098039%,87.058824%);fill-opacity:1;" d="M 85.582031 191.890625 C 85.582031 189.039062 81.308594 189.039062 81.308594 191.890625 C 81.308594 194.738281 85.582031 194.738281 85.582031 191.890625 "/>
<path style=" stroke:none;fill-rule:evenodd;fill:rgb(45.098039%,45.098039%,87.058824%);fill-opacity:1;" d="M 85.582031 184.691406 C 85.582031 181.839844 81.308594 181.839844 81.308594 184.691406 C 81.308594 187.539062 85.582031 187.539062 85.582031 184.691406 "/>
<path style=" stroke:none;fill-rule:evenodd;fill:rgb(45.098039%,45.098039%,87.058824%);fill-opacity:1;" d="M 85.582031 177.488281 C 85.582031 174.640625 81.308594 174.640625 81.308594 177.488281 C 81.308594 180.339844 85.582031 180.339844 85.582031 177.488281 "/>
<path style=" stroke:none;fill-rule:evenodd;fill:rgb(45.098039%,45.098039%,87.058824%);fill-opacity:1;" d="M 85.582031 170.289062 C 85.582031 167.441406 81.308594 167.441406 81.308594 170.289062 C 81.308594 173.140625 85.582031 173.140625 85.582031 170.289062 "/>
<path style=" stroke:none;fill-rule:evenodd;fill:rgb(45.098039%,45.098039%,87.058824%);fill-opacity:1;" d="M 85.582031 163.089844 C 85.582031 160.238281 81.308594 160.238281 81.308594 163.089844 C 81.308594 165.941406 85.582031 165.941406 85.582031 163.089844 "/>
<path style=" stroke:none;fill-rule:evenodd;fill:rgb(45.098039%,45.098039%,87.058824%);fill-opacity:1;" d="M 85.582031 155.890625 C 85.582031 153.039062 81.308594 153.039062 81.308594 155.890625 C 81.308594 158.738281 85.582031 158.738281 85.582031 155.890625 "/>
<path style=" stroke:none;fill-rule:evenodd;fill:rgb(45.098039%,45.098039%,87.058824%);fill-opacity:1;" d="M 85.582031 148.691406 C 85.582031 145.839844 81.308594 145.839844 81.308594 148.691406 C 81.308594 151.539062 85.582031 151.539062 85.582031 148.691406 "/>
<path style=" stroke:none;fill-rule:evenodd;fill:rgb(45.098039%,45.098039%,87.058824%);fill-opacity:1;" d="M 85.582031 141.488281 C 85.582031 138.640625 81.308594 138.640625 81.308594 141.488281 C 81.308594 144.339844 85.582031 144.339844 85.582031 141.488281 "/>
<path style=" stroke:none;fill-rule:evenodd;fill:rgb(45.098039%,45.098039%,87.058824%);fill-opacity:1;" d="M 85.582031 134.289062 C 85.582031 131.441406 81.308594 131.441406 81.308594 134.289062 C 81.308594 137.140625 85.582031 137.140625 85.582031 134.289062 "/>
<path style=" stroke:none;fill-rule:evenodd;fill:rgb(45.098039%,45.098039%,87.058824%);fill-opacity:1;" d="M 85.582031 127.089844 C 85.582031 124.238281 81.308594 124.238281 81.308594 127.089844 C 81.308594 129.941406 85.582031 129.941406 85.582031 127.089844 "/>
<path style=" stroke:none;fill-rule:evenodd;fill:rgb(45.098039%,45.098039%,87.058824%);fill-opacity:1;" d="M 85.582031 119.890625 C 85.582031 117.039062 81.308594 117.039062 81.308594 119.890625 C 81.308594 122.738281 85.582031 122.738281 85.582031 119.890625 "/>
<path style=" stroke:none;fill-rule:evenodd;fill:rgb(45.098039%,45.098039%,87.058824%);fill-opacity:1;" d="M 85.582031 112.691406 C 85.582031 109.839844 81.308594 109.839844 81.308594 112.691406 C 81.308594 115.539062 85.582031 115.539062 85.582031 112.691406 "/>
<path style=" stroke:none;fill-rule:evenodd;fill:rgb(45.098039%,45.098039%,87.058824%);fill-opacity:1;" d="M 85.582031 105.488281 C 85.582031 102.640625 81.308594 102.640625 81.308594 105.488281 C 81.308594 108.339844 85.582031 108.339844 85.582031 105.488281 "/>
<path style=" stroke:none;fill-rule:evenodd;fill:rgb(45.098039%,45.098039%,87.058824%);fill-opacity:1;" d="M 85.582031 98.289062 C 85.582031 95.441406 81.308594 95.441406 81.308594 98.289062 C 81.308594 101.140625 85.582031 101.140625 85.582031 98.289062 "/>
<path style=" stroke:none;fill-rule:evenodd;fill:rgb(45.098039%,45.098039%,87.058824%);fill-opacity:1;" d="M 85.582031 91.089844 C 85.582031 88.238281 81.308594 88.238281 81.308594 91.089844 C 81.308594 93.941406 85.582031 93.941406 85.582031 91.089844 "/>
<path style=" stroke:none;fill-rule:evenodd;fill:rgb(45.098039%,45.098039%,87.058824%);fill-opacity:1;" d="M 85.582031 83.890625 C 85.582031 81.039062 81.308594 81.039062 81.308594 83.890625 C 81.308594 86.738281 85.582031 86.738281 85.582031 83.890625 "/>
<path style=" stroke:none;fill-rule:evenodd;fill:rgb(45.098039%,45.098039%,87.058824%);fill-opacity:1;" d="M 85.582031 76.691406 C 85.582031 73.839844 81.308594 73.839844 81.308594 76.691406 C 81.308594 79.539062 85.582031 79.539062 85.582031 76.691406 "/>
<path style=" stroke:none;fill-rule:evenodd;fill:rgb(45.098039%,45.098039%,87.058824%);fill-opacity:1;" d="M 85.582031 69.488281 C 85.582031 66.640625 81.308594 66.640625 81.308594 69.488281 C 81.308594 72.339844 85.582031 72.339844 85.582031 69.488281 "/>
<path style=" stroke:none;fill-rule:evenodd;fill:rgb(45.098039%,45.098039%,87.058824%);fill-opacity:1;" d="M 35.183594 206.289062 C 35.183594 203.441406 30.910156 203.441406 30.910156 206.289062 C 30.910156 209.140625 35.183594 209.140625 35.183594 206.289062 "/>
<path style=" stroke:none;fill-rule:evenodd;fill:rgb(45.098039%,45.098039%,87.058824%);fill-opacity:1;" d="M 35.183594 199.089844 C 35.183594 196.238281 30.910156 196.238281 30.910156 199.089844 C 30.910156 201.941406 35.183594 201.941406 35.183594 199.089844 "/>
<path style=" stroke:none;fill-rule:evenodd;fill:rgb(45.098039%,45.098039%,87.058824%);fill-opacity:1;" d="M 35.183594 191.890625 C 35.183594 189.039062 30.910156 189.039062 30.910156 191.890625 C 30.910156 194.738281 35.183594 194.738281 35.183594 191.890625 "/>
<path style=" stroke:none;fill-rule:evenodd;fill:rgb(45.098039%,45.098039%,87.058824%);fill-opacity:1;" d="M 35.183594 184.691406 C 35.183594 181.839844 30.910156 181.839844 30.910156 184.691406 C 30.910156 187.539062 35.183594 187.539062 35.183594 184.691406 "/>
<path style=" stroke:none;fill-rule:evenodd;fill:rgb(45.098039%,45.098039%,87.058824%);fill-opacity:1;" d="M 35.183594 177.488281 C 35.183594 174.640625 30.910156 174.640625 30.910156 177.488281 C 30.910156 180.339844 35.183594 180.339844 35.183594 177.488281 "/>
<path style=" stroke:none;fill-rule:evenodd;fill:rgb(45.098039%,45.098039%,87.058824%);fill-opacity:1;" d="M 35.183594 170.289062 C 35.183594 167.441406 30.910156 167.441406 30.910156 170.289062 C 30.910156 173.140625 35.183594 173.140625 35.183594 170.289062 "/>
<path style=" stroke:none;fill-rule:evenodd;fill:rgb(45.098039%,45.098039%,87.058824%);fill-opacity:1;" d="M 35.183594 163.089844 C 35.183594 160.238281 30.910156 160.238281 30.910156 163.089844 C 30.910156 165.941406 35.183594 165.941406 35.183594 163.089844 "/>
<path style=" stroke:none;fill-rule:evenodd;fill:rgb(45.098039%,45.098039%,87.058824%);fill-opacity:1;" d="M 35.183594 155.890625 C 35.183594 153.039062 30.910156 153.039062 30.910156 155.890625 C 30.910156 158.738281 35.183594 158.738281 35.183594 155.890625 "/>
<path style=" stroke:none;fill-rule:evenodd;fill:rgb(45.098039%,45.098039%,87.058824%);fill-opacity:1;" d="M 35.183594 148.691406 C 35.183594 145.839844 30.910156 145.839844 30.910156 148.691406 C 30.910156 151.539062 35.183594 151.539062 35.183594 148.691406 "/>
<path style=" stroke:none;fill-rule:evenodd;fill:rgb(45.098039%,45.098039%,87.058824%);fill-opacity:1;" d="M 35.183594 141.488281 C 35.183594 138.640625 30.910156 138.640625 30.910156 141.488281 C 30.910156 144.339844 35.183594 144.339844 35.183594 141.488281 "/>
<path style=" stroke:none;fill-rule:evenodd;fill:rgb(45.098039%,45.098039%,87.058824%);fill-opacity:1;" d="M 35.183594 134.289062 C 35.183594 131.441406 30.910156 131.441406 30.910156 134.289062 C 30.910156 137.140625 35.183594 137.140625 35.183594 134.289062 "/>
<path style=" stroke:none;fill-rule:evenodd;fill:rgb(45.098039%,45.098039%,87.058824%);fill-opacity:1;" d="M 35.183594 127.089844 C 35.183594 124.238281 30.910156 124.238281 30.910156 127.089844 C 30.910156 129.941406 35.183594 129.941406 35.183594 127.089844 "/>
<path style=" stroke:none;fill-rule:evenodd;fill:rgb(45.098039%,45.098039%,87.058824%);fill-opacity:1;" d="M 35.183594 119.890625 C 35.183594 117.039062 30.910156 117.039062 30.910156 119.890625 C 30.910156 122.738281 35.183594 122.738281 35.183594 119.890625 "/>
<path style=" stroke:none;fill-rule:evenodd;fill:rgb(45.098039%,45.098039%,87.058824%);fill-opacity:1;" d="M 35.183594 112.691406 C 35.183594 109.839844 30.910156 109.839844 30.910156 112.691406 C 30.910156 115.539062 35.183594 115.539062 35.183594 112.691406 "/>
<path style=" stroke:none;fill-rule:evenodd;fill:rgb(45.098039%,45.098039%,87.058824%);fill-opacity:1;" d="M 35.183594 105.488281 C 35.183594 102.640625 30.910156 102.640625 30.910156 105.488281 C 30.910156 108.339844 35.183594 108.339844 35.183594 105.488281 "/>
<path style=" stroke:none;fill-rule:evenodd;fill:rgb(45.098039%,45.098039%,87.058824%);fill-opacity:1;" d="M 35.183594 98.289062 C 35.183594 95.441406 30.910156 95.441406 30.910156 98.289062 C 30.910156 101.140625 35.183594 101.140625 35.183594 98.289062 "/>
<path style=" stroke:none;fill-rule:evenodd;fill:rgb(45.098039%,45.098039%,87.058824%);fill-opacity:1;" d="M 35.183594 91.089844 C 35.183594 88.238281 30.910156 88.238281 30.910156 91.089844 C 30.910156 93.941406 35.183594 93.941406 35.183594 91.089844 "/>
<path style=" stroke:none;fill-rule:evenodd;fill:rgb(45.098039%,45.098039%,87.058824%);fill-opacity:1;" d="M 35.183594 83.890625 C 35.183594 81.039062 30.910156 81.039062 30.910156 83.890625 C 30.910156 86.738281 35.183594 86.738281 35.183594 83.890625 "/>
<path style=" stroke:none;fill-rule:evenodd;fill:rgb(45.098039%,45.098039%,87.058824%);fill-opacity:1;" d="M 35.183594 76.691406 C 35.183594 73.839844 30.910156 73.839844 30.910156 76.691406 C 30.910156 79.539062 35.183594 79.539062 35.183594 76.691406 "/>
<path style=" stroke:none;fill-rule:evenodd;fill:rgb(45.098039%,45.098039%,87.058824%);fill-opacity:1;" d="M 35.183594 69.488281 C 35.183594 66.640625 30.910156 66.640625 30.910156 69.488281 C 30.910156 72.339844 35.183594 72.339844 35.183594 69.488281 "/>
<path style=" stroke:none;fill-rule:evenodd;fill:rgb(45.098039%,45.098039%,87.058824%);fill-opacity:1;" d="M 67.582031 70.140625 C 67.582031 67.292969 63.308594 67.292969 63.308594 70.140625 C 63.308594 72.992188 67.582031 72.992188 67.582031 70.140625 "/>
<path style=" stroke:none;fill-rule:evenodd;fill:rgb(45.098039%,45.098039%,87.058824%);fill-opacity:1;" d="M 60.382812 70.140625 C 60.382812 67.292969 56.109375 67.292969 56.109375 70.140625 C 56.109375 72.992188 60.382812 72.992188 60.382812 70.140625 "/>
<path style=" stroke:none;fill-rule:evenodd;fill:rgb(45.098039%,45.098039%,87.058824%);fill-opacity:1;" d="M 53.183594 70.140625 C 53.183594 67.292969 48.910156 67.292969 48.910156 70.140625 C 48.910156 72.992188 53.183594 72.992188 53.183594 70.140625 "/>
<path style=" stroke:none;fill-rule:evenodd;fill:rgb(45.098039%,45.098039%,87.058824%);fill-opacity:1;" d="M 218.660156 203.878906 L 223.988281 203.878906 L 223.988281 198.550781 L 218.660156 198.550781 Z M 218.660156 203.878906 "/>
<path style=" stroke:none;fill-rule:evenodd;fill:rgb(45.098039%,45.098039%,87.058824%);fill-opacity:1;" d="M 225.746094 203.878906 L 231.074219 203.878906 L 231.074219 198.550781 L 225.746094 198.550781 Z M 225.746094 203.878906 "/>
<path style=" stroke:none;fill-rule:evenodd;fill:rgb(45.098039%,45.098039%,87.058824%);fill-opacity:1;" d="M 232.832031 203.878906 L 238.160156 203.878906 L 238.160156 198.550781 L 232.832031 198.550781 Z M 232.832031 203.878906 "/>
<path style=" stroke:none;fill-rule:evenodd;fill:rgb(45.098039%,45.098039%,87.058824%);fill-opacity:1;" d="M 217.699219 185.625 L 220.1875 183.132812 L 220.1875 179.613281 L 217.699219 177.121094 L 214.175781 177.121094 L 211.683594 179.613281 L 211.683594 183.132812 L 214.175781 185.625 L 217.699219 185.625 "/>
<path style=" stroke:none;fill-rule:evenodd;fill:rgb(45.098039%,45.098039%,87.058824%);fill-opacity:1;" d="M 242.644531 185.625 L 245.132812 183.132812 L 245.132812 179.613281 L 242.644531 177.121094 L 239.121094 177.121094 L 236.628906 179.613281 L 236.628906 183.132812 L 239.121094 185.625 L 242.644531 185.625 "/>
<path style="fill:none;stroke-width:0.07;stroke-linecap:round;stroke-linejoin:miter;stroke:rgb(45.098039%,45.098039%,87.058824%);stroke-opacity:1;stroke-miterlimit:10;" d="M 2.200006 2.149999 L 2.149984 2.200021 " transform="matrix(72,0,0,-72,16.009736,224.573354)"/>
<path style="fill:none;stroke-width:0.07;stroke-linecap:round;stroke-linejoin:miter;stroke:rgb(45.098039%,45.098039%,87.058824%);stroke-opacity:1;stroke-miterlimit:10;" d="M 2.149984 2.200021 L 1.799995 2.200021 " transform="matrix(72,0,0,-72,16.009736,224.573354)"/>
<path style="fill:none;stroke-width:0.07;stroke-linecap:round;stroke-linejoin:miter;stroke:rgb(45.098039%,45.098039%,87.058824%);stroke-opacity:1;stroke-miterlimit:10;" d="M 1.600017 2.200021 L 1.350017 2.450021 " transform="matrix(72,0,0,-72,16.009736,224.573354)"/>
<path style="fill:none;stroke-width:0.07;stroke-linecap:round;stroke-linejoin:miter;stroke:rgb(45.098039%,45.098039%,87.058824%);stroke-opacity:1;stroke-miterlimit:10;" d="M 1.600017 2.200021 L 1.799995 2.200021 " transform="matrix(72,0,0,-72,16.009736,224.573354)"/>
<path style="fill:none;stroke-width:0.07;stroke-linecap:round;stroke-linejoin:miter;stroke:rgb(45.098039%,45.098039%,87.058824%);stroke-opacity:1;stroke-miterlimit:10;" d="M 2.299832 1.25384 L 2.299832 0.953818 " transform="matrix(72,0,0,-72,16.009736,224.573354)"/>
<path style="fill:none;stroke-width:0.07;stroke-linecap:round;stroke-linejoin:miter;stroke:rgb(45.098039%,45.098039%,87.058824%);stroke-opacity:1;stroke-miterlimit:10;" d="M 2.299832 0.953818 L 1.700006 0.953818 " transform="matrix(72,0,0,-72,16.009736,224.573354)"/>
<path style="fill:none;stroke-width:0.07;stroke-linecap:round;stroke-linejoin:miter;stroke:rgb(45.098039%,45.098039%,87.058824%);stroke-opacity:1;stroke-miterlimit:10;" d="M 1.700006 0.953818 L 1.700006 0.599977 " transform="matrix(72,0,0,-72,16.009736,224.573354)"/>
<path style="fill:none;stroke-width:0.07;stroke-linecap:round;stroke-linejoin:miter;stroke:rgb(45.098039%,45.098039%,87.058824%);stroke-opacity:1;stroke-miterlimit:10;" d="M 1.700006 0.599977 L 1.700006 0.224435 " transform="matrix(72,0,0,-72,16.009736,224.573354)"/>
<path style="fill:none;stroke-width:0.07;stroke-linecap:round;stroke-linejoin:miter;stroke:rgb(45.098039%,45.098039%,87.058824%);stroke-opacity:1;stroke-miterlimit:10;" d="M 1.700006 0.224435 L 2.85159 0.224435 " transform="matrix(72,0,0,-72,16.009736,224.573354)"/>
<path style="fill:none;stroke-width:0.07;stroke-linecap:round;stroke-linejoin:miter;stroke:rgb(45.098039%,45.098039%,87.058824%);stroke-opacity:1;stroke-miterlimit:10;" d="M 2.85159 0.224435 L 2.85159 0.324424 " transform="matrix(72,0,0,-72,16.009736,224.573354)"/>
<path style="fill:none;stroke-width:0.07;stroke-linecap:round;stroke-linejoin:miter;stroke:rgb(45.098039%,45.098039%,87.058824%);stroke-opacity:1;stroke-miterlimit:10;" d="M 2.200006 1.92501 L 2.200006 2.149999 " transform="matrix(72,0,0,-72,16.009736,224.573354)"/>
<path style="fill:none;stroke-width:0.07;stroke-linecap:round;stroke-linejoin:miter;stroke:rgb(45.098039%,45.098039%,87.058824%);stroke-opacity:1;stroke-miterlimit:10;" d="M 2.200006 1.92501 L 1.960477 1.685481 " transform="matrix(72,0,0,-72,16.009736,224.573354)"/>
<path style="fill:none;stroke-width:0.07;stroke-linecap:round;stroke-linejoin:miter;stroke:rgb(45.098039%,45.098039%,87.058824%);stroke-opacity:1;stroke-miterlimit:10;" d="M 2.299832 1.346125 L 2.299832 1.25384 " transform="matrix(72,0,0,-72,16.009736,224.573354)"/>
<path style="fill:none;stroke-width:0.07;stroke-linecap:round;stroke-linejoin:miter;stroke:rgb(45.098039%,45.098039%,87.058824%);stroke-opacity:1;stroke-miterlimit:10;" d="M 2.299832 1.346125 L 1.960477 1.685481 " transform="matrix(72,0,0,-72,16.009736,224.573354)"/>
<path style="fill:none;stroke-width:0.07;stroke-linecap:round;stroke-linejoin:miter;stroke:rgb(45.098039%,45.098039%,87.058824%);stroke-opacity:1;stroke-miterlimit:10;" d="M 1.350017 2.450021 L 1.100017 2.450021 " transform="matrix(72,0,0,-72,16.009736,224.573354)"/>
<path style="fill:none;stroke-width:0.07;stroke-linecap:round;stroke-linejoin:miter;stroke:rgb(45.098039%,45.098039%,87.058824%);stroke-opacity:1;stroke-miterlimit:10;" d="M 1.100017 2.450021 L 0.899984 2.649999 " transform="matrix(72,0,0,-72,16.009736,224.573354)"/>
<path style="fill:none;stroke-width:0.07;stroke-linecap:round;stroke-linejoin:miter;stroke:rgb(45.098039%,45.098039%,87.058824%);stroke-opacity:1;stroke-miterlimit:10;" d="M 0.899984 2.649999 L 0.350017 2.649999 " transform="matrix(72,0,0,-72,16.009736,224.573354)"/>
<path style=" stroke:none;fill-rule:evenodd;fill:rgb(45.098039%,45.098039%,87.058824%);fill-opacity:1;" d="M 42.28125 33.773438 C 42.28125 32.34375 40.136719 32.34375 40.136719 33.773438 C 40.136719 35.203125 42.28125 35.203125 42.28125 33.773438 "/>
<path style=" stroke:none;fill-rule:evenodd;fill:rgb(45.098039%,45.098039%,87.058824%);fill-opacity:1;" d="M 139.480469 181.375 C 139.480469 179.945312 137.335938 179.945312 137.335938 181.375 C 137.335938 182.804688 139.480469 182.804688 139.480469 181.375 "/>
<path style="fill:none;stroke-width:0.07;stroke-linecap:round;stroke-linejoin:miter;stroke:rgb(45.098039%,45.098039%,87.058824%);stroke-opacity:1;stroke-miterlimit:10;" d="M 1.200006 2.899999 L 1.149984 2.950021 " transform="matrix(72,0,0,-72,16.009736,224.573354)"/>
<path style="fill:none;stroke-width:0.07;stroke-linecap:round;stroke-linejoin:miter;stroke:rgb(45.098039%,45.098039%,87.058824%);stroke-opacity:1;stroke-miterlimit:10;" d="M 1.149984 2.950021 L -0.0249833 2.950021 " transform="matrix(72,0,0,-72,16.009736,224.573354)"/>
<path style=" stroke:none;fill-rule:evenodd;fill:rgb(45.098039%,45.098039%,87.058824%);fill-opacity:1;" d="M 15.28125 12.171875 C 15.28125 10.742188 13.136719 10.742188 13.136719 12.171875 C 13.136719 13.601562 15.28125 13.601562 15.28125 12.171875 "/>
<path style=" stroke:none;fill-rule:evenodd;fill:rgb(45.098039%,45.098039%,87.058824%);fill-opacity:1;" d="M 103.480469 15.773438 C 103.480469 14.34375 101.335938 14.34375 101.335938 15.773438 C 101.335938 17.203125 103.480469 17.203125 103.480469 15.773438 "/>
</g>
</svg>
