<?xml version="1.0" encoding="UTF-8" standalone="no"?>
<svg
   xmlns:dc="http://purl.org/dc/elements/1.1/"
   xmlns:cc="http://creativecommons.org/ns#"
   xmlns:rdf="http://www.w3.org/1999/02/22-rdf-syntax-ns#"
   xmlns:svg="http://www.w3.org/2000/svg"
   xmlns="http://www.w3.org/2000/svg"
   xmlns:sodipodi="http://sodipodi.sourceforge.net/DTD/sodipodi-0.dtd"
   xmlns:inkscape="http://www.inkscape.org/namespaces/inkscape"
   width="18.066389cm"
   height="8.4313889cm"
   viewBox="0 0 512.1181 239"
   version="1.1"
   id="svg311"
   sodipodi:docname="copperv3_completo.gbr.svg"
   inkscape:version="0.92.5 (2060ec1f9f, 2020-04-08)">
  <metadata
     id="metadata317">
    <rdf:RDF>
      <cc:Work
         rdf:about="">
        <dc:format>image/svg+xml</dc:format>
        <dc:type
           rdf:resource="http://purl.org/dc/dcmitype/StillImage" />
        <dc:title />
      </cc:Work>
    </rdf:RDF>
  </metadata>
  <defs
     id="defs315" />
  <sodipodi:namedview
     pagecolor="#ffffff"
     bordercolor="#666666"
     borderopacity="1"
     objecttolerance="10"
     gridtolerance="10"
     guidetolerance="10"
     inkscape:pageopacity="0"
     inkscape:pageshadow="2"
     inkscape:window-width="3720"
     inkscape:window-height="2032"
     id="namedview313"
     showgrid="false"
     inkscape:zoom="3.6520058"
     inkscape:cx="304.74258"
     inkscape:cy="149.73771"
     inkscape:window-x="120"
     inkscape:window-y="54"
     inkscape:window-maximized="1"
     inkscape:current-layer="svg311"
     inkscape:lockguides="false"
     units="cm" />
  <g
     id="g2193"
     transform="translate(-289.69357,-0.37622446)">
    <path
       id="path4-6"
       d="m 700.40709,30.616658 a 2.5202521,2.5202521 0 0 1 0.50097,0.0483 h 84.37501 a 2.5202521,2.5202521 0 0 1 0.70312,0 2.5202521,2.5202521 0 0 1 0.70313,0.28125 2.5202521,2.5202521 0 0 1 0.5625,0.5625 2.5202521,2.5202521 0 0 1 0.28125,0.421871 2.5202521,2.5202521 0 0 1 0.28125,0.984379 2.5202521,2.5202521 0 0 1 -0.14063,0.98437 2.5202521,2.5202521 0 0 1 -0.14062,0.42188 2.5202521,2.5202521 0 0 1 -0.28125,0.42187 2.5202521,2.5202521 0 0 1 -0.84375,0.5625 2.5202521,2.5202521 0 0 1 -0.70313,0.28125 2.5202521,2.5202521 0 0 1 -0.42187,0.14063 h -83.67188 l -2.8125,2.8125 a 2.5202521,2.5202521 0 0 1 -0.14063,0.14062 2.5202521,2.5202521 0 0 1 -0.42187,0.28125 2.5202521,2.5202521 0 0 1 -0.42188,0.14063 2.5202521,2.5202521 0 0 1 -0.14062,0.14062 2.5202521,2.5202521 0 0 1 -1.125,0 2.5202521,2.5202521 0 0 1 -0.70313,-0.28125 2.5202521,2.5202521 0 0 1 -0.42187,-0.28125 2.5202521,2.5202521 0 0 1 -0.14063,-0.14062 2.5202521,2.5202521 0 0 1 -0.14062,-0.14063 2.5202521,2.5202521 0 0 1 -0.42188,-0.70312 2.5202521,2.5202521 0 0 1 -0.14062,-0.98438 2.5202521,2.5202521 0 0 1 0.14062,-0.98437 2.5202521,2.5202521 0 0 1 0.28125,-0.42188 2.5202521,2.5202521 0 0 1 0.14063,-0.14062 2.5202521,2.5202521 0 0 1 0.14062,-0.14063 l 3.09668,-3.09814 a 2.5202521,2.5202521 0 0 1 0.27832,-0.41748 2.5202521,2.5202521 0 0 1 0.39845,-0.268069 2.5202521,2.5202521 0 0 1 0.16405,-0.15381 2.5202521,2.5202521 0 0 1 0.70313,-0.421871 2.5202521,2.5202521 0 0 1 0.4834,-0.0483 z m 18.24902,21.562502 a 2.5202521,2.5202521 0 0 1 0.25195,0.0015 h 39.37501 a 2.5202521,2.5202521 0 0 1 0.70312,0.140625 2.5202521,2.5202521 0 0 1 0.70313,0.28125 2.5202521,2.5202521 0 0 1 0.14062,0.140625 2.5202521,2.5202521 0 0 1 0.5625,0.5625 2.5202521,2.5202521 0 0 1 0.28125,0.703125 2.5202521,2.5202521 0 0 1 0.14063,0.984376 2.5202521,2.5202521 0 0 1 -0.28125,0.984375 2.5202521,2.5202521 0 0 1 -0.28125,0.421875 2.5202521,2.5202521 0 0 1 -0.42188,0.28125 2.5202521,2.5202521 0 0 1 -0.42187,0.28125 2.5202521,2.5202521 0 0 1 -0.70313,0.28125 2.5202521,2.5202521 0 0 1 -0.42187,0 h -38.53858 l -13.21875,13.091308 a 2.5202521,2.5202521 0 0 1 -0.27393,0.408693 2.5202521,2.5202521 0 0 1 -0.57276,0.430664 2.5202521,2.5202521 0 0 1 -0.69286,0.413086 2.5202521,2.5202521 0 0 1 -0.42188,0.140625 2.5202521,2.5202521 0 0 1 -0.5625,0 h -16.875 l -16.59375,16.593751 a 2.5202521,2.5202521 0 0 1 -0.28125,0.421875 2.5202521,2.5202521 0 0 1 -0.57276,0.430663 2.5202521,2.5202521 0 0 1 -0.69288,0.413087 2.5202521,2.5202521 0 0 1 -0.42186,0.140625 2.5202521,2.5202521 0 0 1 -0.5625,0 h -14.20314 -35.71874 a 2.5202521,2.5202521 0 0 1 -0.26075,0 h -0.0205 a 2.5202521,2.5202521 0 0 1 -0.009,-0.0029 2.5202521,2.5202521 0 0 1 -0.69434,-0.137695 2.5202521,2.5202521 0 0 1 -0.12158,-0.05713 2.5202521,2.5202521 0 0 1 -0.3003,-0.0835 2.5202521,2.5202521 0 0 1 -0.42187,-0.28125 2.5202521,2.5202521 0 0 1 -0.28125,-0.421875 2.5202521,2.5202521 0 0 1 -0.002,-0.0029 l -6.32667,-6.325195 h -18 v 36.140627 c 0.0515,0.21924 0.0864,0.45131 0.0864,0.70752 0,0.25622 -0.0349,0.48828 -0.0864,0.70752 v 54.41308 h 69.18751 a 2.5202521,2.5202521 0 0 1 0.98436,0 2.5202521,2.5202521 0 0 1 0.84375,0.5625 2.5202521,2.5202521 0 0 1 0.14064,0.14063 2.5202521,2.5202521 0 0 1 0.0249,0.0249 2.5202521,2.5202521 0 0 1 0.11571,0.11572 2.5202521,2.5202521 0 0 1 0.16699,0.22998 2.5202521,2.5202521 0 0 1 0.13916,0.22853 2.5202521,2.5202521 0 0 1 0.39697,0.94774 2.5202521,2.5202521 0 0 1 0,0.27833 2.5202521,2.5202521 0 0 1 0,0.003 v 25.45312 27.00001 a 2.5202521,2.5202521 0 0 1 0,0.008 2.5202521,2.5202521 0 0 1 0,0.27393 2.5202521,2.5202521 0 0 1 -0.28125,0.70312 2.5202521,2.5202521 0 0 1 -0.14062,0.42188 2.5202521,2.5202521 0 0 1 -0.5625,0.5625 2.5202521,2.5202521 0 0 1 -0.42188,0.28125 2.5202521,2.5202521 0 0 1 -0.70312,0.28125 2.5202521,2.5202521 0 0 1 -0.98438,0 h -99.84374 a 2.5202521,2.5202521 0 0 1 -0.84375,0 2.5202521,2.5202521 0 0 1 -0.70314,-0.14063 2.5202521,2.5202521 0 0 1 -0.42186,-0.28125 2.5202521,2.5202521 0 0 1 -0.003,-7.5e-4 2.5202521,2.5202521 0 0 1 -0.41895,-0.2798 2.5202521,2.5202521 0 0 1 -7.5e-4,-0.003 2.5202521,2.5202521 0 0 1 -0.27979,-0.41893 2.5202521,2.5202521 0 0 1 -7.5e-4,-0.003 2.5202521,2.5202521 0 0 0 0,-7.5e-4 2.5202521,2.5202521 0 0 1 -0.2798,-0.41748 2.5202521,2.5202521 0 0 1 -0.14061,-0.98437 2.5202521,2.5202521 0 0 1 0,-0.26075 v -4.26269 h -0.1333 v -5.32917 h 5.32909 v 5.32763 h -0.13329 v 1.99219 h 95.90603 v -24.04689 a 2.5202521,2.5202521 0 0 1 0,-0.42187 2.5202521,2.5202521 0 0 1 0,-0.26075 v -22.66113 h -69.1875 a 2.5202521,2.5202521 0 0 1 -0.84375,0 2.5202521,2.5202521 0 0 1 -0.70314,-0.28125 2.5202521,2.5202521 0 0 1 -0.42186,-0.28125 2.5202521,2.5202521 0 0 1 -0.28125,-0.42188 2.5202521,2.5202521 0 0 1 -7.5e-4,-0.003 2.5202521,2.5202521 0 0 1 -0.2798,-0.41894 2.5202521,2.5202521 0 0 1 -0.0103,-0.0205 2.5202521,2.5202521 0 0 1 -0.003,-0.006 2.5202521,2.5202521 0 0 1 -0.26808,-0.67676 2.5202521,2.5202521 0 0 1 0,-0.98437 v -56.08288 c -0.10839,-0.29803 -0.18018,-0.62747 -0.18018,-1.00635 0,-0.37889 0.0718,-0.70832 0.18018,-1.00635 V 80.165002 a 2.5202521,2.5202521 0 0 1 0,-0.984375 2.5202521,2.5202521 0 0 1 0.5625,-0.84375 2.5202521,2.5202521 0 0 1 0.14063,-0.140625 2.5202521,2.5202521 0 0 1 0.42187,-0.421875 2.5202521,2.5202521 0 0 1 0.31347,-0.109864 2.5202521,2.5202521 0 0 1 0.81153,-0.312011 2.5202521,2.5202521 0 0 1 0.28125,0 h 21.51563 a 2.5202521,2.5202521 0 0 1 0.68995,0.152343 2.5202521,2.5202521 0 0 1 0.57567,0.128907 2.5202521,2.5202521 0 0 1 0.35595,0.316406 2.5202521,2.5202521 0 0 1 0.34718,0.386719 2.5202521,2.5202521 0 0 1 0.003,0.0029 l 6.32518,6.325195 h 34.87501 a 2.5202521,2.5202521 0 0 1 0.28125,0 2.5202521,2.5202521 0 0 1 0.2754,0 h 12.80204 l 17.15625,-17.1562 a 2.5202521,2.5202521 0 0 1 0.14062,-0.140625 2.5202521,2.5202521 0 0 1 0.14063,-0.140625 2.5202521,2.5202521 0 0 1 0.70312,-0.421875 2.5202521,2.5202521 0 0 1 0.21827,-0.06592 2.5202521,2.5202521 0 0 1 0.1333,-0.02783 2.5202521,2.5202521 0 0 1 0.11571,-0.02198 2.5202521,2.5202521 0 0 1 0.12744,-0.01319 2.5202521,2.5202521 0 0 1 0.10841,-0.01172 2.5202521,2.5202521 0 0 1 0.98437,0 h 16.17888 l 13.08107,-12.955085 a 2.5202521,2.5202521 0 0 1 0.27099,-0.404297 2.5202521,2.5202521 0 0 1 0.14062,-0.140625 2.5202521,2.5202521 0 0 1 0.42188,-0.421875 2.5202521,2.5202521 0 0 1 0.42187,-0.28125 2.5202521,2.5202521 0 0 1 0.28858,-0.08057 2.5202521,2.5202521 0 0 1 0.1333,-0.06006 2.5202521,2.5202521 0 0 1 0.69726,-0.139161 2.5202521,2.5202521 0 0 1 0.006,-0.0015 h 0.0132 a 2.5202521,2.5202521 0 0 1 0.0161,-0.0015 z"
       style="fill:none;fill-opacity:1;fill-rule:evenodd;stroke:#0b2700;stroke-width:0.075;stroke-miterlimit:4;stroke-dasharray:none;stroke-opacity:1"
       inkscape:connector-curvature="0" />
  </g>
  <path
     inkscape:connector-curvature="0"
     style="fill:none;fill-opacity:1;fill-rule:evenodd;stroke:#000000;stroke-width:0.075;stroke-miterlimit:4;stroke-dasharray:none;stroke-opacity:1"
     d="m 41.28323,11.823388 c -0.005,4.8e-4 -0.0107,9.8e-4 -0.0161,0.001 h -0.0205 c -0.003,9.6e-4 -0.006,0.002 -0.009,0.003 -0.23677,0.013 -0.47052,0.0594 -0.69434,0.13769 -0.13937,0.0337 -0.2756,0.0793 -0.40722,0.13623 -0.005,0.002 -0.01,0.003 -0.0147,0.004 -0.004,0.002 -0.009,0.005 -0.0132,0.007 -0.0919,0.0391 -0.18143,0.0836 -0.26807,0.13331 -0.0487,0.045 -0.0956,0.0919 -0.14063,0.14062 l -0.003,0.003 c -0.24135,0.23964 -0.43169,0.52566 -0.55957,0.84082 -9.7e-4,0.001 -0.002,0.003 -0.003,0.004 -0.002,0.005 -0.005,0.0107 -0.007,0.0161 -0.12318,0.21309 -0.21448,0.44307 -0.27099,0.68262 -0.02,0.10598 -0.0332,0.21313 -0.0395,0.3208 -0.0346,0.0327 -0.0683,0.0664 -0.10108,0.10107 v 13.77541 c -0.0474,0.21167 -0.0776,0.43699 -0.0776,0.68261 0,0.24536 0.0303,0.46971 0.0776,0.68116 v 16.36082 l -6.04687,6.04688 c -0.0487,0.045 -0.0956,0.0919 -0.14063,0.14062 -0.2161,0.15654 -0.40596,0.34641 -0.5625,0.5625 -0.12863,0.21888 -0.22345,0.45593 -0.28125,0.70313 -0.0802,0.22647 -0.1275,0.46324 -0.14062,0.70312 -0.005,0.0917 -0.005,0.18367 0,0.2754 V 213.47959 h -4.42969 l -0.49219,-0.14062 c -0.22647,-0.0802 -0.46324,-0.1275 -0.70312,-0.14063 -0.33421,-0.019 -0.66885,0.0288 -0.98438,0.14063 -0.14972,0.0793 -0.29106,0.17356 -0.42187,0.28125 -0.14972,0.0793 -0.29107,0.17356 -0.42188,0.28125 -0.10769,0.13081 -0.20192,0.27215 -0.28125,0.42187 -0.12863,0.21887 -0.22345,0.45593 -0.28125,0.70313 -0.11178,0.31553 -0.15958,0.65016 -0.14062,0.98437 0.0131,0.23988 0.0605,0.47665 0.14062,0.70313 0.0793,0.14972 0.17356,0.29106 0.28125,0.42187 0.15654,0.2161 0.3464,0.40596 0.5625,0.5625 0.13081,0.10769 0.27216,0.20192 0.42188,0.28125 0.1362,0.0592 0.27738,0.10628 0.42187,0.14063 l 0.73535,0.21094 c 0.0817,0.0277 0.16487,0.0511 0.24903,0.0703 0.045,0.0487 0.0919,0.0956 0.14062,0.14062 0.18691,0.021 0.37559,0.021 0.5625,0 0.0917,0.005 0.18366,0.005 0.27539,0 h 6.33399 c 0.27925,0.0474 0.5645,0.0474 0.84375,0 0.0161,-0.002 0.0322,-0.003 0.0483,-0.005 0.22334,-0.0161 0.44354,-0.0619 0.65478,-0.13623 0.0281,-0.0161 0.056,-0.0327 0.0835,-0.0498 0.0672,-0.0274 0.13318,-0.0577 0.19776,-0.0908 0.14972,-0.0793 0.29106,-0.17356 0.42187,-0.28125 0.0487,-0.045 0.0956,-0.0919 0.14063,-0.14062 l 0.002,-0.003 c 0.10702,-0.12996 0.20075,-0.27031 0.27978,-0.41895 l 9.8e-4,-0.003 c 0.10702,-0.12995 0.20075,-0.27029 0.27979,-0.41893 0.15444,-0.40288 0.20286,-0.83867 0.14062,-1.26563 V 55.124168 l 5.93115,-6.04834 c 0.14048,-0.0761 0.2734,-0.16535 0.39698,-0.2666 0.10191,-0.12444 0.19167,-0.25835 0.26806,-0.3999 0.0537,-0.0519 0.10497,-0.10615 0.15381,-0.1626 0.17807,-0.20977 0.32058,-0.44729 0.42188,-0.70313 0.0647,-0.32493 0.0647,-0.65944 0,-0.98437 v -16.7124 c 0.11428,-0.30418 0.1875,-0.64299 0.1875,-1.03272 0,-0.39016 -0.0732,-0.72967 -0.1875,-1.03418 v -10.89258 h 106.59362 v 11.06836 c -0.0776,0.26104 -0.1333,0.5405 -0.1333,0.8584 0,1.26932 0.6851,2.07568 1.56006,2.4375 l 17.97949,17.97949 c 0.045,0.0487 0.0919,0.0956 0.14063,0.14063 0.045,0.0487 0.0919,0.0956 0.14062,0.14062 0.002,0.002 0.004,0.004 0.006,0.006 0.20841,0.17545 0.4439,0.31594 0.69728,0.41602 0.045,0.0487 0.0919,0.0956 0.14062,0.14062 0.19586,0.0336 0.39498,0.0439 0.59325,0.0308 0.0355,0.0377 0.0721,0.0744 0.10988,0.10987 0.2872,0.001 0.57256,-0.046 0.84375,-0.14063 h 60.17431 l 5.77881,5.89307 v 30.38818 l -6.32812,6.32815 c -0.0487,0.045 -0.0956,0.0919 -0.14063,0.14062 l -0.003,0.003 c -0.0477,0.0441 -0.0936,0.09 -0.1377,0.1377 -0.10768,0.1308 -0.20191,0.27216 -0.28125,0.42188 -0.0326,0.0641 -0.0624,0.12961 -0.0894,0.19629 -0.0177,0.028 -0.0348,0.0563 -0.0513,0.085 -0.0743,0.21318 -0.11964,0.43538 -0.13477,0.66064 -0.002,0.0142 -0.004,0.0283 -0.006,0.0425 -0.0647,0.32493 -0.0647,0.65943 0,0.98438 v 0.004 8.749502 c -0.12852,0.31797 -0.20655,0.67926 -0.20655,1.09424 0,3.55077 5.32764,3.55077 5.32764,0 0,-0.40535 -0.0762,-0.758 -0.1992,-1.07081 v -8.482902 l 2.25,-2.20751 V 199.13741 H 103.56986 l -2.2793,-2.37012 c -1.08217,-2.23293 -5.05225,-1.8211 -5.05225,1.24658 0,1.18564 0.59874,1.96602 1.39014,2.35986 l 2.60889,2.50781 c 0.14218,0.17993 0.30828,0.33961 0.49365,0.47462 0.008,0.008 0.0165,0.0167 0.0249,0.0249 0.0373,0.0398 0.0759,0.0784 0.11572,0.11572 0.0735,0.0599 0.15024,0.1157 0.22998,0.16699 0.11528,0.0778 0.23678,0.14588 0.36329,0.20362 0.0353,0.0174 0.0709,0.034 0.10693,0.0498 l 0.003,7.5e-4 c 0.14999,0.0786 0.30752,0.14193 0.47021,0.18896 0.03,0.0316 0.0607,0.0623 0.0923,0.0923 0.16269,0.0159 0.32655,0.0159 0.48925,0 h 138.02636 c 0.18691,0.021 0.37559,0.021 0.5625,0 0.17907,-0.0424 0.35296,-0.10431 0.51855,-0.18459 l 2.15333,2.15334 v 1.82077 h -0.16407 v 5.32913 h 5.32764 v -5.32913 h -0.10107 v -2.38327 c 0.0647,-0.32495 0.0647,-0.65945 0,-0.98439 -0.0334,-0.13833 -0.0785,-0.27357 -0.13476,-0.4043 -0.002,-0.006 -0.004,-0.0117 -0.006,-0.0175 -7.5e-4,-0.002 -0.002,-0.003 -0.003,-0.005 -0.0402,-0.095 -0.0862,-0.18748 -0.1377,-0.27686 -0.0618,-0.0842 -0.12888,-0.1644 -0.20069,-0.24024 -0.0653,-0.11298 -0.13923,-0.22073 -0.22119,-0.32226 -0.12571,-0.10317 -0.2611,-0.19392 -0.40429,-0.271 l -4.37696,-4.49561 V 88.184228 c 0.11178,-0.31553 0.15959,-0.65016 0.14063,-0.98437 0.019,-0.33421 -0.0288,-0.66885 -0.14063,-0.98438 v -30.92871 c 0.0337,-0.23611 0.0337,-0.47581 0,-0.71192 -0.0131,-0.23988 -0.0605,-0.47665 -0.14062,-0.70312 -0.0793,-0.14972 -0.17356,-0.29106 -0.28125,-0.42188 l -0.003,-0.003 c -0.0786,-0.14858 -0.17181,-0.28892 -0.27832,-0.41894 l -6.60351,-6.47607 c -0.55802,-1.45324 -2.25345,-1.91941 -3.54932,-1.39896 h -59.87235 l -17.30274,-17.43164 v -13.08399 c 0.005,-0.0869 0.005,-0.17388 0,-0.26074 v -0.0205 c 0.0118,-0.14037 0.0118,-0.28149 0,-0.42187 -0.0578,-0.2472 -0.15262,-0.48425 -0.28125,-0.70313 -7.5e-4,-0.002 -0.002,-0.003 -0.003,-0.004 -0.0402,-0.095 -0.0862,-0.18747 -0.13769,-0.27685 -0.045,-0.0487 -0.0919,-0.0956 -0.14063,-0.14063 -0.045,-0.0487 -0.0919,-0.0956 -0.14062,-0.14062 -0.12343,-0.15683 -0.26505,-0.29845 -0.42188,-0.42188 -0.21887,-0.12862 -0.45592,-0.22344 -0.70312,-0.28125 -0.22648,-0.0802 -0.46325,-0.1275 -0.70313,-0.14062 H 41.52786 c -0.0815,-0.005 -0.16311,-0.005 -0.24463,-0.002 z m -34.2085005,7.17334 c -0.34391,0.0254 -0.67894,0.12114 -0.98437,0.28125 -0.1445,0.0344 -0.28567,0.0814 -0.42188,0.14062 -0.2161,0.15654 -0.40596,0.34641 -0.5625,0.5625 -0.12863,0.21887 -0.22345,0.45593 -0.28125,0.70313 -0.16011,0.30542 -0.25583,0.64046 -0.28125,0.98437 V 151.18423 c -2e-5,0.005 -2e-5,0.0107 0,0.0161 -9.9e-4,0.0254 -0.002,0.0508 -0.002,0.0762 -0.002,0.061 -8.7e-4,0.12212 0.002,0.18311 0,0.002 0,0.004 0,0.006 0.002,0.0171 0.004,0.0342 0.006,0.0513 0.0159,0.22229 0.0612,0.44148 0.13477,0.65185 0.0165,0.0296 0.0336,0.059 0.0513,0.0879 0.027,0.0657 0.0568,0.13019 0.0893,0.19336 0.0793,0.14972 0.17356,0.29107 0.28125,0.42188 0.0265,0.0206 0.0533,0.0406 0.0806,0.0601 0.0195,0.0273 0.0395,0.0541 0.0601,0.0806 0.13081,0.10769 0.27215,0.20192 0.42187,0.28125 0.0907,0.0527 0.18466,0.0996 0.28125,0.14062 0.16013,0.0936 0.33011,0.16927 0.50684,0.22559 0.0183,0.0189 0.0368,0.0374 0.0557,0.0557 0.27925,0.0474 0.5645,0.0474 0.84375,0 H 24.37184 c 0.37021,0.0848 0.75479,0.0848 1.125,0 0.026,-0.006 0.0518,-0.0133 0.0776,-0.0205 0.1652,-0.0239 0.32762,-0.0641 0.48486,-0.12012 0.0615,-0.0331 0.12163,-0.0688 0.18018,-0.10694 l 0.52295,-0.17431 c 0.14449,-0.0343 0.28567,-0.0814 0.42187,-0.14063 0.14972,-0.0793 0.29107,-0.17356 0.42188,-0.28125 0.10769,-0.13081 0.20192,-0.27214 0.28125,-0.42187 0.10769,-0.1308 0.20192,-0.27216 0.28125,-0.42188 0.12863,-0.21886 0.22345,-0.45592 0.28125,-0.70312 0.0647,-0.32493 0.0647,-0.65943 0,-0.98438 -0.0578,-0.2472 -0.15262,-0.48424 -0.28125,-0.70312 -0.0793,-0.14972 -0.17356,-0.29106 -0.28125,-0.42188 -0.13081,-0.10768 -0.27216,-0.20191 -0.42188,-0.28125 -0.13081,-0.10768 -0.27215,-0.20191 -0.42187,-0.28125 -0.30543,-0.16011 -0.64047,-0.25582 -0.98438,-0.28125 -0.33421,-0.019 -0.66884,0.0289 -0.98437,0.14063 l -0.42188,0.14062 H 9.6059695 V 21.668598 c 0.005,-0.0937 0.005,-0.18757 0,-0.28125 -0.0254,-0.34391 -0.12114,-0.67895 -0.28125,-0.98437 -0.0793,-0.14972 -0.17356,-0.29106 -0.28125,-0.42188 -0.045,-0.0487 -0.0919,-0.0956 -0.14062,-0.14062 -0.045,-0.0487 -0.0919,-0.0956 -0.14063,-0.14063 -0.20977,-0.17806 -0.44729,-0.32057 -0.70312,-0.42187 -0.30543,-0.16011 -0.64047,-0.25584 -0.98438,-0.28125 z m 88.2172905,3.71924 c -0.25199,-0.0117 -0.5043,0.0144 -0.74853,0.0776 -0.1445,0.0344 -0.28566,0.0814 -0.42188,0.14062 -0.14971,0.0793 -0.29106,0.17356 -0.42187,0.28125 -0.0487,0.045 -0.0956,0.0919 -0.14063,0.14063 -0.15682,0.12342 -0.29845,0.26504 -0.42187,0.42187 -0.12863,0.21887 -0.22344,0.45592 -0.28125,0.70313 -0.10764,0.415 -0.10764,0.85061 0,1.26562 0.0131,0.23988 0.0605,0.47665 0.14062,0.70313 0.15654,0.21609 0.3464,0.40596 0.5625,0.5625 l 3.23438,3.23437 c 0.045,0.0487 0.0919,0.0956 0.14062,0.14063 0.15654,0.21609 0.3464,0.40596 0.5625,0.5625 0.21887,0.12863 0.45593,0.22345 0.70313,0.28125 0.004,0.001 0.009,0.003 0.0132,0.004 0.1321,0.057 0.26883,0.10256 0.4087,0.13623 0.0937,0.005 0.18758,0.005 0.28125,0 0.0917,0.005 0.18366,0.005 0.27539,0 h 44.02148 l -6.46874,6.46875 c -0.0487,0.045 -0.0956,0.0919 -0.14064,0.14062 -0.10769,0.13082 -0.20192,0.27216 -0.28125,0.42188 -0.12863,0.21887 -0.22344,0.45592 -0.28125,0.70312 -0.10764,0.41501 -0.10764,0.85062 0,1.26563 0.0344,0.14449 0.0814,0.28567 0.14064,0.42187 0.15654,0.2161 0.34639,0.40596 0.5625,0.5625 0.16686,0.16622 0.3562,0.30823 0.5625,0.42188 0.2941,0.20952 0.6298,0.35339 0.98436,0.42187 0.33421,0.019 0.66885,-0.0288 0.98439,-0.14062 0.31645,-0.1284 0.60351,-0.31977 0.84374,-0.5625 0.0487,-0.045 0.0956,-0.0919 0.14062,-0.14063 l 6.66357,-6.66357 c 0.077,-0.0251 0.15281,-0.054 0.22706,-0.0864 0.2161,-0.15654 0.40596,-0.34641 0.5625,-0.5625 0.12863,-0.21887 0.22345,-0.45592 0.28125,-0.70313 0.16011,-0.30542 0.25583,-0.64046 0.28125,-0.98437 v -2.77296 c 0.0617,-0.23685 0.10544,-0.48755 0.10544,-0.76904 0,-2.21151 -2.06111,-3.0451 -3.61963,-2.50488 h -44.74803 l -2.9253,-2.8125 c -0.045,-0.0487 -0.0919,-0.0956 -0.14063,-0.14063 -0.13081,-0.10769 -0.27214,-0.20192 -0.42187,-0.28125 -0.21887,-0.12863 -0.45593,-0.22345 -0.70313,-0.28125 -0.16921,-0.0437 -0.34249,-0.0698 -0.51709,-0.0776 z m -61.18946,3.43212 c -0.32538,0 -0.65057,0.0551 -0.95654,0.16114 H 14.52786 c -0.32494,-0.0647 -0.65944,-0.0647 -0.98438,0 -0.25583,0.1013 -0.49335,0.24381 -0.70312,0.42187 -0.0487,0.045 -0.0956,0.0919 -0.14063,0.14063 -0.0487,0.045 -0.0956,0.0919 -0.14062,0.14062 -0.15683,0.12343 -0.29845,0.26505 -0.42188,0.42188 -0.12863,0.21887 -0.22345,0.45592 -0.28125,0.70312 -0.0802,0.22648 -0.1275,0.46325 -0.14062,0.70313 v 64.5469 c -0.005,0.0917 -0.005,0.18366 0,0.27537 v 0.006 0.003 c 0.0134,0.23889 0.0607,0.47466 0.14062,0.7002 0.0344,0.14451 0.0814,0.28567 0.14063,0.42189 0.0793,0.14971 0.17356,0.29106 0.28125,0.42186 l 0.003,0.003 c 0.23964,0.24135 0.52566,0.4317 0.84082,0.55959 0.21887,0.12862 0.45592,0.22344 0.70312,0.28125 0.045,0.0487 0.0919,0.0956 0.14063,0.14061 0.0886,-6.9e-4 0.1771,-0.006 0.26513,-0.0161 0.005,0.005 0.0107,0.0108 0.0161,0.0161 h 10.68751 c 0.0937,0.005 0.18757,0.005 0.28125,0 0.23988,-0.0131 0.47665,-0.0605 0.70312,-0.14061 l 0.84375,-0.28125 c 0.14972,-0.0793 0.29107,-0.17357 0.42188,-0.28125 0.14972,-0.0793 0.29106,-0.17357 0.42187,-0.28125 0.0487,-0.045 0.0956,-0.0919 0.14063,-0.14064 0.10769,-0.1308 0.20192,-0.27215 0.28125,-0.42186 0.10769,-0.13082 0.20192,-0.27216 0.28125,-0.42189 0.11178,-0.31553 0.15958,-0.65016 0.14062,-0.98436 0.019,-0.33422 -0.0288,-0.66885 -0.14062,-0.98439 -0.0793,-0.14972 -0.17356,-0.29106 -0.28125,-0.42186 -0.045,-0.0487 -0.0919,-0.0956 -0.14063,-0.14064 -0.12342,-0.15683 -0.26504,-0.29844 -0.42187,-0.42186 -0.13081,-0.1077 -0.27216,-0.20193 -0.42188,-0.28125 -0.31553,-0.11178 -0.65016,-0.1596 -0.98437,-0.14064 -0.33421,-0.019 -0.66885,0.0288 -0.98438,0.14064 l -0.42187,0.14061 h -7.875 v -59.76592 h 14.76562 v 11.8125 c -0.019,0.33421 0.0288,0.66885 0.14063,0.98437 0.0793,0.14973 0.17356,0.29107 0.28125,0.42188 0.0793,0.14972 0.17356,0.29106 0.28125,0.42187 0.13081,0.1077 0.27215,0.20192 0.42187,0.28125 0.21887,0.12863 0.45593,0.22345 0.70313,0.28125 0.045,0.0487 0.0919,0.0956 0.14062,0.14063 0.27925,0.0474 0.5645,0.0474 0.84375,0 0.34391,-0.0254 0.67895,-0.12114 0.98438,-0.28125 0.14972,-0.0793 0.29106,-0.17356 0.42187,-0.28125 0.0487,-0.045 0.0956,-0.0919 0.14063,-0.14063 0.10769,-0.13081 0.20192,-0.27215 0.28125,-0.42187 0.10769,-0.13081 0.20192,-0.27215 0.28125,-0.42188 0.11178,-0.31553 0.15959,-0.65016 0.14062,-0.98437 v -13.42676 c 0.0949,-0.28284 0.15967,-0.59031 0.15967,-0.94336 0,-1.77734 -1.33105,-2.66602 -2.66308,-2.66602 z m 14.39942,0 c -1.33106,0 -2.66162,0.88868 -2.66162,2.66602 0,0.38973 0.0733,0.72854 0.1875,1.03272 v 5.4624 c -0.0561,0.28635 -0.0621,0.58026 -0.0176,0.86865 -0.0133,0.17931 -0.007,0.35954 0.0176,0.5376 0.0578,0.2472 0.15262,0.48425 0.28125,0.70312 0.12342,0.15684 0.26504,0.29845 0.42187,0.42188 0.045,0.0487 0.0919,0.0956 0.14063,0.14062 l 0.003,0.003 17.15334,17.15335 v 59.343742 c -0.11178,0.31553 -0.15958,0.65016 -0.14062,0.98438 0.0254,0.34391 0.12114,0.67894 0.28125,0.98437 0.15654,0.21611 0.3464,0.40596 0.5625,0.5625 0.045,0.0487 0.0919,0.0956 0.14062,0.14063 0.002,0.002 0.004,0.004 0.006,0.006 0.18255,0.15235 0.38573,0.27811 0.60352,0.37353 0.03,0.0143 0.0603,0.0279 0.0908,0.041 l 0.003,0.002 c 0.004,7.5e-4 0.009,0.003 0.0132,0.004 0.13209,0.057 0.26882,0.10257 0.40869,0.13623 0.1211,0.0132 0.24301,0.0176 0.36475,0.0132 0.29865,0.0498 0.60382,0.0453 0.90088,-0.0132 h 7.59375 c 0.0937,0.005 0.18757,0.005 0.28125,0 0.32493,0.0647 0.65944,0.0647 0.98437,0 0.0188,-0.0182 0.0374,-0.0368 0.0557,-0.0556 0.17674,-0.0563 0.34672,-0.13195 0.50685,-0.22557 l 0.003,-0.002 0.41895,-0.13916 c 0.2472,-0.0578 0.48425,-0.15262 0.70312,-0.28125 0.0487,-0.045 0.0956,-0.0919 0.14063,-0.14062 0.15683,-0.12343 0.29845,-0.26505 0.42187,-0.42188 0.10769,-0.13081 0.20192,-0.27215 0.28125,-0.42187 0.0802,-0.22648 0.12751,-0.46325 0.14063,-0.70313 0.0647,-0.32493 0.0647,-0.65944 0,-0.98437 -0.0578,-0.2472 -0.15262,-0.48426 -0.28125,-0.70313 -0.0793,-0.14972 -0.17356,-0.29106 -0.28125,-0.42187 -0.045,-0.0487 -0.0919,-0.0956 -0.14063,-0.14063 -0.13081,-0.10769 -0.27215,-0.20192 -0.42187,-0.28125 -0.21887,-0.12863 -0.45593,-0.22345 -0.70313,-0.28125 -0.31553,-0.11178 -0.65016,-0.15958 -0.98437,-0.14062 -0.1445,0.0344 -0.28567,0.0814 -0.42188,0.14062 l -0.42187,0.14063 H 69.09073 V 54.012448 c 0,-0.002 0,-0.004 0,-0.006 0.005,-0.0917 0.005,-0.18366 0,-0.27539 -0.0334,-0.13833 -0.0785,-0.27357 -0.13477,-0.40429 -0.002,-0.006 -0.004,-0.0117 -0.006,-0.0176 -0.0578,-0.24721 -0.15262,-0.48426 -0.28125,-0.70313 -0.15654,-0.21609 -0.3464,-0.40596 -0.5625,-0.5625 l -0.003,-10e-4 -17.01287,-17.01406 v -5.54297 c 0.0458,-0.2084 0.0747,-0.42973 0.0747,-0.67089 0,-1.77735 -1.33203,-2.66602 -2.66309,-2.66602 z m 185.18555,31.60841 c -0.3541,0 -0.7051,0.0679 -1.03417,0.19335 h -59.54883 c -0.21104,-0.0758 -0.43125,-0.12308 -0.65478,-0.14062 -0.21735,0.0172 -0.43154,0.0625 -0.63722,0.13477 -0.022,0.002 -0.044,0.004 -0.0659,0.006 -0.14451,0.0344 -0.28568,0.0814 -0.42189,0.14062 -0.32952,0.1695 -0.61761,0.40957 -0.84375,0.70313 -0.10769,0.13081 -0.20192,0.27215 -0.28125,0.42187 l -31.92187,31.92189 h -31.54835 c -0.21103,-0.0758 -0.43123,-0.12309 -0.65478,-0.14063 -0.21733,0.0172 -0.43153,0.0625 -0.63721,0.13476 -0.022,0.002 -0.044,0.004 -0.0659,0.006 -0.2472,0.0578 -0.48426,0.15262 -0.70313,0.28125 -0.21609,0.15654 -0.40595,0.34641 -0.56249,0.5625 l -0.003,0.003 v 0.002 c -0.10643,0.12956 -0.19966,0.26941 -0.27832,0.41748 -0.16011,0.30543 -0.25583,0.64047 -0.28125,0.98438 -0.005,0.0927 -0.005,0.18562 0,0.27832 v 0.003 13.359312 l -12.5435,12.54345 c -0.005,-7.4e-4 -0.01,-0.002 -0.0146,-0.003 -0.0433,-0.006 -0.0868,-0.01 -0.13036,-0.0132 -0.036,-0.005 -0.0722,-0.009 -0.10839,-0.0117 h -0.0132 c -0.0893,-0.005 -0.17879,-0.005 -0.26808,0 H 76.40276 c -0.0937,-0.005 -0.18757,-0.005 -0.28125,0 -0.34391,0.0254 -0.67894,0.12114 -0.98437,0.28125 -0.14972,0.0793 -0.29107,0.17356 -0.42188,0.28125 -0.10769,0.13081 -0.20192,0.27215 -0.28125,0.42187 -0.10769,0.13081 -0.20192,0.27216 -0.28125,0.42188 -0.12863,0.21887 -0.22345,0.45593 -0.28125,0.70312 -0.0647,0.32494 -0.0647,0.65944 0,0.98438 0.0131,0.23988 0.0605,0.47666 0.14063,0.70312 0.15654,0.2161 0.3464,0.40596 0.5625,0.5625 0.045,0.0487 0.0919,0.0956 0.14062,0.14063 0.20978,0.17806 0.4473,0.32058 0.70313,0.42187 0.045,0.0487 0.0919,0.0956 0.14062,0.14063 0.27925,0.0474 0.5645,0.0474 0.84375,0 h 13.64063 l 0.78809,0.22558 c 0.0183,0.0188 0.0369,0.0374 0.0557,0.0556 0.27925,0.0474 0.56449,0.0474 0.84375,0 0.0814,0.005 0.16308,0.006 0.24462,0.003 0.25237,-0.0105 0.50175,-0.0589 0.73975,-0.14355 l 0.003,-7.5e-4 c 0.31529,-0.12831 0.60132,-0.31915 0.84083,-0.56103 0.0487,-0.045 0.0956,-0.0919 0.14062,-0.14061 0.10973,-0.13056 0.20592,-0.2719 0.2871,-0.42189 l 13.77539,-13.64106 c 0.0487,-0.045 0.0956,-0.0919 0.14062,-0.14064 l 0.002,-0.003 c 0.10702,-0.12994 0.20075,-0.2703 0.27979,-0.41893 l 0.002,-0.003 c 0.10701,-0.12995 0.20075,-0.2703 0.27978,-0.41894 0.11178,-0.31554 0.1596,-0.65017 0.14063,-0.98439 0.004,-0.0869 0.004,-0.17388 0,-0.26073 V 96.200788 h 30.65625 c 0.3439,-0.0254 0.67895,-0.12114 0.98438,-0.28125 0.14448,-0.0344 0.28566,-0.0814 0.42187,-0.14062 0.21611,-0.15654 0.40596,-0.3464 0.5625,-0.5625 l 7.5e-4,-0.003 32.34229,-32.34083 h 59.03467 c 1.57078,0.63155 3.74267,-0.18065 3.74267,-2.45215 0,-1.77539 -1.33251,-2.66309 -2.66454,-2.66309 z m -40.66993,32.53564 c -0.2523,0.01 -0.50166,0.0579 -0.73974,0.1421 -0.14972,0.0793 -0.29106,0.17355 -0.42186,0.28125 -0.0487,0.045 -0.0956,0.0919 -0.14064,0.14064 -0.21609,0.15654 -0.40596,0.34639 -0.5625,0.5625 l -10.6875,10.687492 c -0.15683,0.12342 -0.29844,0.26503 -0.42186,0.42186 l -0.14064,0.14064 c -0.0487,0.045 -0.0956,0.0919 -0.14061,0.14061 l -0.003,0.003 -0.84083,0.84084 h -53.01563 c -0.002,0 -0.004,0 -0.006,0 -0.0917,-0.005 -0.18366,-0.005 -0.27537,0 -0.13938,0.0337 -0.27561,0.0793 -0.40724,0.13623 -0.005,0.002 -0.01,0.003 -0.0146,0.005 -0.2472,0.0578 -0.48426,0.15262 -0.70314,0.28125 -0.14972,0.0793 -0.29106,0.17356 -0.42186,0.28125 -0.1077,0.13081 -0.20193,0.27215 -0.28125,0.42187 -7.5e-4,0.002 -0.002,0.003 -0.003,0.005 L 94.26197,134.31042 H 77.52758 l -0.42186,-0.14062 c -0.0907,-0.0527 -0.18467,-0.0996 -0.28125,-0.14063 -0.32495,-0.0647 -0.65945,-0.0647 -0.98439,0 -0.2472,0.0578 -0.48425,0.15262 -0.70312,0.28125 -0.14972,0.0793 -0.29107,0.17356 -0.42188,0.28125 -0.0487,0.045 -0.0956,0.0919 -0.14062,0.14063 -0.10769,0.13081 -0.20192,0.27215 -0.28125,0.42187 -0.10769,0.13081 -0.20192,0.27216 -0.28125,0.42188 -0.16011,0.30543 -0.25583,0.64046 -0.28125,0.98437 0.0254,0.34391 0.12114,0.67895 0.28125,0.98438 0.1284,0.31646 0.31977,0.60352 0.5625,0.84375 0.13081,0.10769 0.27215,0.20192 0.42187,0.28125 0.13621,0.0592 0.27738,0.10627 0.42188,0.14062 0.045,0.0487 0.0919,0.0956 0.14062,0.14063 l 0.6753,0.19336 c 0.22566,0.10457 0.46557,0.17516 0.7119,0.20947 0.006,0.006 0.0126,0.0127 0.019,0.019 0.27926,0.0474 0.56451,0.0474 0.84375,0 h 17.01564 c 0.26408,0.0382 0.53256,0.0343 0.79541,-0.0117 0.31153,-0.0336 0.61407,-0.12501 0.89209,-0.26953 l 0.003,-0.002 c 0.14864,-0.079 0.28899,-0.17276 0.41895,-0.27978 0.0487,-0.045 0.0956,-0.0919 0.14063,-0.14062 0.10769,-0.13081 0.20192,-0.27216 0.28125,-0.42188 l 29.66894,-29.53069 h 52.31543 c 0.2363,0.0393 0.47701,0.0447 0.71484,0.0161 0.18363,0.0148 0.36833,0.009 0.55079,-0.0161 0.25583,-0.1013 0.49335,-0.24381 0.70312,-0.42188 0.14972,-0.0793 0.29107,-0.17356 0.42188,-0.28125 0.0487,-0.045 0.0956,-0.0919 0.14062,-0.14062 0.022,-0.0264 0.0435,-0.0533 0.0644,-0.0806 l 1.48242,-1.60692 10.95996,-10.828132 h 13.08692 l 23.76855,23.768542 c 0.97753,2.39367 5.11816,2.02915 5.11816,-1.10303 0,-1.20355 -0.61743,-1.98978 -1.42675,-2.37744 l -24.6474,-24.647712 c -0.045,-0.0487 -0.0919,-0.0956 -0.14063,-0.14063 -0.13081,-0.10768 -0.27215,-0.20191 -0.42187,-0.28125 -0.0641,-0.0326 -0.12961,-0.0624 -0.19629,-0.0894 -0.028,-0.0177 -0.0563,-0.0348 -0.085,-0.0513 -0.21319,-0.0743 -0.43539,-0.11964 -0.66065,-0.13477 -0.0141,-0.002 -0.0283,-0.004 -0.0425,-0.006 -0.005,0 -0.01,0 -0.0146,0 -0.0415,-7.5e-4 -0.083,-0.002 -0.12451,-7.5e-4 -0.0405,-6.4e-4 -0.0811,-3.1e-4 -0.12158,7.5e-4 -0.007,-3e-5 -0.0137,-3e-5 -0.0205,0 h -14.91922 c -0.0893,-0.005 -0.17877,-0.005 -0.26806,0 -0.0815,-0.004 -0.16313,-0.005 -0.24464,-7.5e-4 z m 3.09669,15.332502 c -0.29442,0 -0.58716,0.0508 -0.86718,0.1377 H 192.981 c -0.32495,-0.0647 -0.65945,-0.0647 -0.98439,0 -0.13937,0.0337 -0.2756,0.0793 -0.40722,0.13623 -0.005,0.002 -0.01,0.003 -0.0146,0.005 -0.25583,0.1013 -0.49335,0.24381 -0.70312,0.42187 -0.0487,0.045 -0.0956,0.0919 -0.14063,0.14062 l -0.003,0.003 -6.06152,6.18458 H 167.2466 c -0.14038,-0.0118 -0.2815,-0.0118 -0.42188,0 -0.2472,0.0578 -0.48425,0.15262 -0.70312,0.28125 -0.14972,0.0793 -0.29107,0.17356 -0.42188,0.28125 -0.0487,0.045 -0.0956,0.0919 -0.14062,0.14062 -0.10769,0.13082 -0.20192,0.27216 -0.28125,0.42188 -0.17807,0.20977 -0.32058,0.44728 -0.42188,0.70312 -0.11178,0.31554 -0.15958,0.65016 -0.14062,0.98438 0.0254,0.3439 0.12114,0.67894 0.28125,0.98437 0.0793,0.14973 0.17356,0.29106 0.28125,0.42188 0.13081,0.10768 0.27215,0.20191 0.42187,0.28125 0.13081,0.10768 0.27216,0.20191 0.42188,0.28125 0.21887,0.12862 0.45592,0.22345 0.70312,0.28125 0.0937,0.005 0.18757,0.005 0.28125,0 0.0469,7.5e-4 0.0938,7.5e-4 0.14063,0 h 17.85937 c 0.41501,0.10765 0.85062,0.10765 1.26563,0 0.14972,-0.0793 0.29106,-0.17357 0.42187,-0.28125 0.14972,-0.0793 0.29107,-0.17357 0.42188,-0.28125 0.0487,-0.045 0.0956,-0.0919 0.14062,-0.14063 0.0487,-0.045 0.0956,-0.0919 0.14063,-0.14062 l 6.04687,-6.04688 h 1.7373 c 1.54203,0.45686 3.49659,-0.38193 3.49659,-2.53417 0,-1.77735 -1.33106,-2.66602 -2.66309,-2.66602 z m -64.83106,7.02684 c -0.2523,0.01 -0.50166,0.0579 -0.73974,0.1421 -0.2472,0.0578 -0.48426,0.15262 -0.70313,0.28125 -0.0487,0.045 -0.0956,0.0919 -0.14062,0.14062 -0.24273,0.24023 -0.4341,0.52729 -0.5625,0.84375 -0.12863,0.21887 -0.22344,0.45593 -0.28125,0.70313 -0.0592,0.1362 -0.10628,0.27738 -0.14063,0.42187 v 5.05811 l -28.2627,28.12939 h -24.0498 c -0.0937,-0.005 -0.18757,-0.005 -0.28125,0 -0.3439,0.0254 -0.67894,0.12114 -0.98437,0.28125 -0.14972,0.0793 -0.29107,0.17356 -0.42188,0.28125 -0.0487,0.045 -0.0956,0.0919 -0.14062,0.14063 -0.10769,0.13081 -0.20192,0.27215 -0.28125,0.42187 -0.17807,0.20977 -0.32058,0.44729 -0.42188,0.70313 -0.11178,0.31553 -0.15958,0.65016 -0.14062,0.98437 0.0254,0.34391 0.12114,0.67895 0.28125,0.98438 0.15654,0.2161 0.3464,0.40596 0.5625,0.5625 0.045,0.0487 0.0919,0.0956 0.14062,0.14062 0.20977,0.17807 0.44729,0.32058 0.70313,0.42188 0.13621,0.0592 0.27738,0.10627 0.42187,0.14062 0.18692,0.021 0.37559,0.021 0.5625,0 h 24.60938 c 0.18691,0.021 0.3756,0.021 0.5625,0 0.23323,0.0329 0.4699,0.0329 0.70314,0 0.0651,-0.0348 0.12862,-0.0724 0.19041,-0.11279 0.0304,-0.009 0.0607,-0.018 0.0908,-0.0278 0.14971,-0.0793 0.29106,-0.17355 0.42187,-0.28125 0.0487,-0.045 0.0956,-0.0919 0.14063,-0.14061 l 0.003,-7.5e-4 c 0.14863,-0.079 0.28899,-0.17277 0.41895,-0.27978 0.0516,-0.0899 0.0976,-0.18282 0.13768,-0.27834 l 28.83107,-28.83157 c 0.21609,-0.15654 0.40596,-0.3464 0.5625,-0.5625 0.0487,-0.045 0.0956,-0.0919 0.14062,-0.14063 l 7.5e-4,-0.003 c 0.10702,-0.12994 0.20075,-0.2703 0.27978,-0.41893 l 7.5e-4,-0.003 c 0.12785,-0.21806 0.22217,-0.4541 0.27979,-0.7002 0.0647,-0.32493 0.0647,-0.65945 0,-0.98438 v -5.48437 c 0.0328,-0.23322 0.0328,-0.46991 0,-0.70313 -0.0578,-0.2472 -0.15262,-0.48426 -0.28125,-0.70312 -0.15654,-0.21611 -0.3464,-0.40596 -0.5625,-0.5625 -0.13081,-0.10769 -0.27215,-0.20192 -0.42187,-0.28125 -0.30543,-0.16011 -0.64047,-0.25583 -0.98438,-0.28125 -0.0815,-0.005 -0.1631,-0.005 -0.24463,-0.002 z m -116.15625,42.8906 c -0.005,3.2e-4 -0.0107,6.5e-4 -0.0161,7.5e-4 h -0.0205 c -0.003,7.5e-4 -0.006,0.002 -0.009,0.003 -0.23677,0.013 -0.47052,0.0594 -0.69434,0.1377 -0.13937,0.0337 -0.27561,0.0793 -0.40723,0.13623 -0.005,0.002 -0.01,0.003 -0.0146,0.005 -0.004,0.002 -0.009,0.005 -0.0132,0.007 -0.0919,0.0391 -0.18143,0.0836 -0.26806,0.1333 -0.0487,0.045 -0.0956,0.0919 -0.14063,0.14063 -0.0248,0.0196 -0.0492,0.0396 -0.0732,0.0601 -0.26047,0.21627 -0.4747,0.48281 -0.62989,0.7837 -0.16011,0.30543 -0.25583,0.64046 -0.28125,0.98437 -9.7e-4,0.0469 -9.7e-4,0.0938 0,0.14063 v 0.29442 c -0.005,0.0893 -0.005,0.17878 0,0.26808 v 0.004 68.19872 c -0.019,0.33422 0.0289,0.66885 0.14063,0.98438 0.0793,0.14971 0.17356,0.29107 0.28125,0.42187 0.045,0.0487 0.0919,0.0956 0.14062,0.14063 0.12343,0.15682 0.26505,0.29845 0.42188,0.42187 0.13081,0.1077 0.27215,0.20193 0.42187,0.28125 0.21887,0.12864 0.45593,0.22346 0.70313,0.28125 0.32493,0.0647 0.65944,0.0647 0.98437,0 h 223.1719 c 0.32493,0.0647 0.65943,0.0647 0.98436,0 0.2472,-0.0578 0.48426,-0.15261 0.70313,-0.28125 l 0.003,-7.5e-4 c 0.14864,-0.079 0.28899,-0.17276 0.41895,-0.27978 l 7.5e-4,-0.003 c 0.0481,-0.0441 0.0946,-0.09 0.13915,-0.13769 0.1077,-0.13081 0.20193,-0.27216 0.28125,-0.42187 0.17808,-0.20978 0.32058,-0.4473 0.42189,-0.70313 0.11178,-0.31552 0.15959,-0.65017 0.14061,-0.98437 -0.0177,-0.22305 -0.065,-0.44276 -0.14061,-0.65333 V 213.3184 h 0.1875 v -5.32911 h -5.32764 v 5.32911 h 0.0776 v 10.991 H 17.62161 v -63.70313 h 8.29687 c 0.33421,0.019 0.66885,-0.0288 0.98438,-0.14062 0.14449,-0.0344 0.28567,-0.0814 0.42187,-0.14063 0.15683,-0.12342 0.29845,-0.26504 0.42188,-0.42187 0.0487,-0.045 0.0956,-0.0919 0.14062,-0.14063 0.10769,-0.13081 0.20192,-0.27215 0.28125,-0.42187 0.16011,-0.30543 0.25583,-0.64047 0.28125,-0.98438 0.0647,-0.32493 0.0647,-0.65944 0,-0.98437 -0.1013,-0.25583 -0.24381,-0.49335 -0.42187,-0.70313 -0.045,-0.0487 -0.0919,-0.0956 -0.14063,-0.14062 -0.045,-0.0487 -0.0919,-0.0956 -0.14062,-0.14063 -0.12343,-0.15683 -0.26505,-0.29845 -0.42188,-0.42187 -0.21887,-0.12863 -0.45592,-0.22345 -0.70312,-0.28125 -0.22648,-0.0802 -0.46325,-0.12751 -0.70313,-0.14063 H 15.37161 c -0.0815,-0.005 -0.1631,-0.005 -0.24463,-0.002 z m 76.29199,3.91554 c -0.0838,0.004 -0.16743,0.0114 -0.25048,0.0234 -0.13937,0.0337 -0.27561,0.0793 -0.40722,0.13623 -0.005,0.002 -0.01,0.003 -0.0146,0.005 -0.004,0.002 -0.009,0.005 -0.0132,0.007 -0.0919,0.0391 -0.18144,0.0836 -0.26806,0.1333 -0.14972,0.0793 -0.29108,0.17356 -0.42188,0.28125 -0.0487,0.045 -0.0956,0.0919 -0.14062,0.14063 l -0.003,0.003 -10.12208,10.12207 h -2.25 l -0.42187,-0.14062 c -0.0907,-0.0527 -0.18467,-0.0996 -0.28125,-0.14063 -0.32495,-0.0647 -0.65945,-0.0647 -0.98438,0 -0.2472,0.0578 -0.48425,0.15262 -0.70312,0.28125 -0.14972,0.0793 -0.29107,0.17356 -0.42188,0.28125 -0.0487,0.045 -0.0956,0.0919 -0.14062,0.14063 -0.10769,0.13081 -0.20192,0.27215 -0.28125,0.42187 -0.10769,0.13081 -0.20192,0.27216 -0.28125,0.42188 -0.16011,0.30543 -0.25583,0.64046 -0.28125,0.98437 0.0254,0.34391 0.12114,0.67895 0.28125,0.98438 0.1284,0.31646 0.31977,0.60352 0.5625,0.84375 0.13081,0.10769 0.27215,0.20192 0.42187,0.28125 0.13621,0.0592 0.27738,0.10627 0.42188,0.14062 0.045,0.0487 0.0919,0.0956 0.14062,0.14063 l 0.67529,0.19336 c 0.22567,0.10457 0.46557,0.17516 0.71191,0.20947 0.006,0.006 0.0126,0.0127 0.019,0.019 0.27925,0.0474 0.5645,0.0474 0.84375,0 h 2.53125 c 0.27925,0.0474 0.5645,0.0474 0.84375,0 0.1445,-0.0343 0.28567,-0.0814 0.42188,-0.14062 0.2472,-0.0578 0.48425,-0.15262 0.70312,-0.28125 l 0.003,-0.002 c 0.14864,-0.079 0.28899,-0.17276 0.41895,-0.27978 0.10769,-0.13081 0.20192,-0.27216 0.28125,-0.42188 l 7.5e-4,-0.003 9.70167,-9.70019 h 3.65625 v 3.81152 c -0.0776,0.26075 -0.13332,0.53938 -0.13332,0.85693 0,3.55078 5.32911,3.55078 5.32911,0 0,-0.31755 -0.0557,-0.59618 -0.13329,-0.85693 v -5.91206 c 0.0337,-0.23611 0.0337,-0.4758 0,-0.71191 -0.0131,-0.23988 -0.0605,-0.47665 -0.14064,-0.70313 -0.0793,-0.14972 -0.17355,-0.29106 -0.28125,-0.42187 l -0.003,-0.003 c -0.0786,-0.14858 -0.17181,-0.28893 -0.27831,-0.41895 l -0.003,-7.5e-4 c -0.12996,-0.10702 -0.2703,-0.20074 -0.41895,-0.27978 l -0.003,-7.5e-4 h -7.5e-4 c -0.12949,-0.10694 -0.26935,-0.20066 -0.41748,-0.27978 -0.40288,-0.15444 -0.83866,-0.20286 -1.26562,-0.14062 h -6.74122 c -0.15277,-0.0219 -0.30722,-0.0297 -0.46142,-0.0234 z m 7.48389,14.29101 c -0.21306,0 -0.42373,0.0308 -0.63135,0.0762 h -7.80615 c -0.003,-1e-5 -0.006,-1e-5 -0.009,0 -0.0907,-0.005 -0.18171,-0.005 -0.27246,0 -0.2472,0.0578 -0.48424,0.15263 -0.70312,0.28126 -0.1445,0.0344 -0.28566,0.0814 -0.42188,0.14062 -0.2128,0.15448 -0.40014,0.34131 -0.55518,0.55371 l -9.70165,9.57129 h -2.39942 c -0.0937,-0.005 -0.18757,-0.005 -0.28125,0 -0.3439,0.0254 -0.67894,0.12114 -0.98437,0.28125 -0.14972,0.0793 -0.29107,0.17356 -0.42188,0.28125 -0.0487,0.045 -0.0956,0.0919 -0.14062,0.14063 -0.10769,0.13081 -0.20192,0.27215 -0.28125,0.42187 -0.17807,0.20977 -0.32058,0.44729 -0.42188,0.70313 -0.11178,0.31553 -0.15958,0.65016 -0.14062,0.98437 0.0254,0.34391 0.12114,0.67895 0.28125,0.98438 0.15654,0.2161 0.3464,0.40596 0.5625,0.5625 0.045,0.0487 0.0919,0.0956 0.14062,0.14062 0.20977,0.17807 0.44729,0.32058 0.70313,0.42188 0.13621,0.0592 0.27738,0.10627 0.42187,0.14062 0.18692,0.021 0.37559,0.021 0.5625,0 h 2.95313 c 0.37021,0.0848 0.7548,0.0848 1.125,0 0.14554,-0.0347 0.2877,-0.0822 0.4248,-0.14209 h 7.5e-4 c 0.0951,-0.0407 0.18753,-0.0871 0.27687,-0.13916 0.14972,-0.0793 0.29106,-0.17356 0.42188,-0.28125 0.0487,-0.045 0.0956,-0.0919 0.14062,-0.14062 0.0487,-0.045 0.0956,-0.0919 0.14063,-0.14063 l 9.70312,-9.70312 h 6.28271 c 1.56642,0.59369 3.69433,-0.22863 3.69433,-2.47559 0,-1.77539 -1.33251,-2.66309 -2.66454,-2.66309 z m 0,7.19971 c -0.35194,0 -0.7024,0.065 -1.02978,0.18897 h -2.34522 c -0.32493,-0.0647 -0.65944,-0.0647 -0.98437,0 -0.0445,0.0188 -0.0885,0.0388 -0.13184,0.0601 -0.0982,0.0211 -0.19504,0.048 -0.29004,0.0806 -0.2161,0.15654 -0.40596,0.3464 -0.5625,0.5625 -0.0487,0.045 -0.0956,0.0919 -0.14062,0.14063 l -0.003,0.003 -9.84081,9.84082 h -6.04689 l -0.42186,-0.14062 c -0.0937,-0.005 -0.18758,-0.005 -0.28125,0 -0.32495,-0.0647 -0.65945,-0.0647 -0.98439,0 -0.23988,0.0131 -0.47665,0.0605 -0.70312,0.14062 -0.14972,0.0793 -0.29107,0.17356 -0.42188,0.28125 -0.10769,0.13081 -0.20192,0.27216 -0.28125,0.42188 -0.10769,0.13081 -0.20192,0.27215 -0.28125,0.42187 -0.20952,0.29411 -0.35339,0.62982 -0.42187,0.98438 -0.019,0.33421 0.0288,0.66884 0.14062,0.98437 0.0793,0.14972 0.17356,0.29107 0.28125,0.42188 0.0793,0.14972 0.17356,0.29106 0.28125,0.42187 0.045,0.0487 0.0919,0.0956 0.14063,0.14063 0.13081,0.10769 0.27215,0.20192 0.42187,0.28125 0.20978,0.17806 0.4473,0.32057 0.70314,0.42187 l 0.84375,0.28125 c 0.12109,0.0132 0.243,0.0176 0.36474,0.0132 0.29865,0.0498 0.60381,0.0453 0.90087,-0.0132 h 5.90626 c 0.18692,0.021 0.37559,0.021 0.5625,0 0.32493,0.0647 0.65945,0.0647 0.98438,0 0.25582,-0.1013 0.49335,-0.24381 0.70312,-0.42187 0.0487,-0.045 0.0956,-0.0919 0.14063,-0.14063 0.0487,-0.045 0.0956,-0.0919 0.14062,-0.14062 0.0487,-0.045 0.0956,-0.0919 0.14063,-0.14063 l 0.002,-0.003 9.84229,-9.84081 h 2.03905 c 1.50588,0.33065 3.29737,-0.52608 3.29737,-2.58839 0,-1.77538 -1.33252,-2.66308 -2.66455,-2.66308 z m 0,7.1997 c -1.33203,0 -2.66455,0.88868 -2.66455,2.66602 0,2.11065 1.88013,2.95619 3.40723,2.55762 h 31.60107 c 0.0937,0.005 0.18758,0.005 0.28125,0 0.34391,-0.0254 0.67895,-0.12114 0.98438,-0.28125 0.14973,-0.0793 0.29106,-0.17356 0.42187,-0.28125 0.0487,-0.045 0.0956,-0.0919 0.14063,-0.14062 0.1077,-0.13081 0.20193,-0.27216 0.28125,-0.42188 0.17806,-0.20977 0.32058,-0.44729 0.42187,-0.70312 0.1118,-0.31553 0.15959,-0.65017 0.14063,-0.98438 -0.0254,-0.34391 -0.12114,-0.67894 -0.28125,-0.98437 -0.15654,-0.2161 -0.3464,-0.40596 -0.5625,-0.5625 -0.045,-0.0487 -0.0919,-0.0956 -0.14063,-0.14063 -0.20977,-0.17806 -0.44728,-0.32057 -0.70312,-0.42187 -0.31553,-0.11179 -0.65016,-0.15959 -0.98438,-0.14063 h -31.3872 c -0.306,-0.10607 -0.63114,-0.16114 -0.95655,-0.16114 z m 130.64796,19.84131 v 5.32911 h 5.32909 v -5.32911 z"
     id="path2-7"
     sodipodi:nodetypes="ccccccccccccccccccscccccccccccccccccccccccccccccccccccccccccccccccccsccccscccccccccccccccccccccccccssccccccscccccccccccccccccccccccccccccccccccccccccccccccccccccccccccccccccccccccccccccccccccccccccccccccccccccccccccccccccccccccccccccccccccccccccccccccccccccsccccccccsccccccccccccccccccccccccccccccccccccccccccccccccccccccccccssscsccccccccccccccccccccccccccccccccccccccccccccccccccccccscccccccccccccccccccccccccccccccccccccccccccccccccccccccccccccccccccccccscccccccccccccccccccccccccccccccccccccccccccccccccccccccccccccscccccccccccccccccccccccccccccccccccccccccccccccccscccccccccccccccccccccccccccccccccccccccccccccccccccccccccccccccccccccccccccccccccccccccccccccccccccccccccccccccccccccccccccccccccccccccccccccccccccccccccsscccccccccccccccccccccccccccccccccccccccccccccccccsccccccccccccccccccccccccccccccccccccccccsccsscccccccccccccccsccccc" />
  <path
     style="opacity:1;vector-effect:none;fill:none;fill-opacity:1;stroke:#ada743;stroke-width:1.08731163;stroke-linecap:butt;stroke-linejoin:miter;stroke-miterlimit:4;stroke-dasharray:none;stroke-dashoffset:0;stroke-opacity:1"
     d="M -23.368011,-21.241447 H 259.00925 V 261.13581 H -23.368011 Z"
     id="rect822" />
</svg>
