<?xml version="1.0" encoding="UTF-8" standalone="no"?>
<svg
   xmlns:dc="http://purl.org/dc/elements/1.1/"
   xmlns:cc="http://creativecommons.org/ns#"
   xmlns:rdf="http://www.w3.org/1999/02/22-rdf-syntax-ns#"
   xmlns:svg="http://www.w3.org/2000/svg"
   xmlns="http://www.w3.org/2000/svg"
   xmlns:sodipodi="http://sodipodi.sourceforge.net/DTD/sodipodi-0.dtd"
   xmlns:inkscape="http://www.inkscape.org/namespaces/inkscape"
   width="257pt"
   height="239pt"
   viewBox="0 0 257 239"
   version="1.1"
   id="svg311"
   sodipodi:docname="copper_topv2.gbr.svg"
   inkscape:version="0.92.5 (2060ec1f9f, 2020-04-08)">
  <metadata
     id="metadata317">
    <rdf:RDF>
      <cc:Work
         rdf:about="">
        <dc:format>image/svg+xml</dc:format>
        <dc:type
           rdf:resource="http://purl.org/dc/dcmitype/StillImage" />
      </cc:Work>
    </rdf:RDF>
  </metadata>
  <defs
     id="defs315" />
  <sodipodi:namedview
     pagecolor="#ffffff"
     bordercolor="#666666"
     borderopacity="1"
     objecttolerance="10"
     gridtolerance="10"
     guidetolerance="10"
     inkscape:pageopacity="0"
     inkscape:pageshadow="2"
     inkscape:window-width="3720"
     inkscape:window-height="2032"
     id="namedview313"
     showgrid="false"
     inkscape:zoom="3.8254024"
     inkscape:cx="339.05356"
     inkscape:cy="137.62146"
     inkscape:window-x="120"
     inkscape:window-y="54"
     inkscape:window-maximized="1"
     inkscape:current-layer="g1355" />
  <g
     id="g1355"
     transform="translate(501.05972,220.97643)"
     style="stroke:#000000;stroke-opacity:1;fill:none">
    <g
       transform="translate(225.37058,36.931652)"
       id="surface6069-8"
       style="fill:#1973de;fill-opacity:1;stroke:#000000;stroke-opacity:1">
      <path
         sodipodi:nodetypes="ssssss"
         inkscape:connector-curvature="0"
         id="path2232-0-7-5-8-5"
         d="m -352.74678,-153.27184 c 0,0.40498 -0.3283,0.73328 -0.73329,0.73328 -0.40498,1e-5 -0.73329,-0.3283 -0.73329,-0.73328 0,-0.21036 0.0886,-0.40003 0.23047,-0.53375 0.13128,-0.12372 0.3082,-0.19955 0.50282,-0.19955 0.40499,0 0.73329,0.32832 0.73329,0.7333 z"
         style="opacity:1;fill:#1973de;fill-opacity:1;stroke:#000000;stroke-width:0.03342551;stroke-linecap:butt;stroke-linejoin:miter;stroke-miterlimit:4;stroke-dasharray:none;stroke-dashoffset:0;stroke-opacity:1" />
      <path
         sodipodi:nodetypes="ssssss"
         inkscape:connector-curvature="0"
         id="path2232-0-7-5-8-82"
         d="m -342.17794,-121.71752 c 0,0.40498 -0.3283,0.73328 -0.73329,0.73328 -0.40498,1e-5 -0.73329,-0.3283 -0.73329,-0.73328 0,-0.21036 0.0886,-0.40003 0.23047,-0.53375 0.13128,-0.12372 0.3082,-0.19955 0.50282,-0.19955 0.40499,0 0.73329,0.32832 0.73329,0.7333 z"
         style="opacity:1;fill:#1973de;fill-opacity:1;stroke:#000000;stroke-width:0.03342551;stroke-linecap:butt;stroke-linejoin:miter;stroke-miterlimit:4;stroke-dasharray:none;stroke-dashoffset:0;stroke-opacity:1" />
      <path
         sodipodi:nodetypes="ssssss"
         inkscape:connector-curvature="0"
         id="path2232-0-7-5-8-6"
         d="m -359.79726,-78.254747 c 0,0.40498 -0.3283,0.73328 -0.73329,0.73328 -0.40498,1e-5 -0.73329,-0.3283 -0.73329,-0.73328 0,-0.21036 0.0886,-0.40003 0.23047,-0.53375 0.13128,-0.12372 0.3082,-0.19955 0.50282,-0.19955 0.40499,0 0.73329,0.32832 0.73329,0.7333 z"
         style="opacity:1;fill:#1973de;fill-opacity:1;stroke:#000000;stroke-width:0.03342551;stroke-linecap:butt;stroke-linejoin:miter;stroke-miterlimit:4;stroke-dasharray:none;stroke-dashoffset:0;stroke-opacity:1" />
      <path
         sodipodi:nodetypes="ssssss"
         inkscape:connector-curvature="0"
         id="path2232-0-7-5-8-0"
         d="m -359.73288,-70.850737 c 0,0.40498 -0.3283,0.73328 -0.73329,0.73328 -0.40498,1e-5 -0.73329,-0.3283 -0.73329,-0.73328 0,-0.21036 0.0886,-0.40003 0.23047,-0.53375 0.13128,-0.12372 0.3082,-0.19955 0.50282,-0.19955 0.40499,0 0.73329,0.32832 0.73329,0.7333 z"
         style="opacity:1;fill:#1973de;fill-opacity:1;stroke:#000000;stroke-width:0.03342551;stroke-linecap:butt;stroke-linejoin:miter;stroke-miterlimit:4;stroke-dasharray:none;stroke-dashoffset:0;stroke-opacity:1" />
      <path
         sodipodi:nodetypes="ssssss"
         inkscape:connector-curvature="0"
         id="path2232-0-7-5-8-66"
         d="m -359.86164,-63.897406 c 0,0.40498 -0.3283,0.73328 -0.73329,0.73328 -0.40498,1e-5 -0.73329,-0.3283 -0.73329,-0.73328 0,-0.21036 0.0886,-0.40003 0.23047,-0.53375 0.13128,-0.12372 0.3082,-0.19955 0.50282,-0.19955 0.40499,0 0.73329,0.32832 0.73329,0.7333 z"
         style="opacity:1;fill:#1973de;fill-opacity:1;stroke:#000000;stroke-width:0.03342551;stroke-linecap:butt;stroke-linejoin:miter;stroke-miterlimit:4;stroke-dasharray:none;stroke-dashoffset:0;stroke-opacity:1" />
      <path
         sodipodi:nodetypes="ssssss"
         inkscape:connector-curvature="0"
         id="path2232-0-7-5-8-4"
         d="m -359.86164,-56.686543 c 0,0.40498 -0.3283,0.73328 -0.73329,0.73328 -0.40498,1e-5 -0.73329,-0.3283 -0.73329,-0.73328 0,-0.21036 0.0886,-0.40003 0.23047,-0.53375 0.13128,-0.12372 0.3082,-0.19955 0.50282,-0.19955 0.40499,0 0.73329,0.32832 0.73329,0.7333 z"
         style="opacity:1;fill:#1973de;fill-opacity:1;stroke:#000000;stroke-width:0.03342551;stroke-linecap:butt;stroke-linejoin:miter;stroke-miterlimit:4;stroke-dasharray:none;stroke-dashoffset:0;stroke-opacity:1" />
      <path
         sodipodi:nodetypes="ssssss"
         inkscape:connector-curvature="0"
         id="path2232-0-7-5-8-62"
         d="m -359.41097,-49.668829 c 0,0.40498 -0.3283,0.73328 -0.73329,0.73328 -0.40498,1e-5 -0.73329,-0.3283 -0.73329,-0.73328 0,-0.21036 0.0886,-0.40003 0.23047,-0.53375 0.13128,-0.12372 0.3082,-0.19955 0.50282,-0.19955 0.40499,0 0.73329,0.32832 0.73329,0.7333 z"
         style="opacity:1;fill:#1973de;fill-opacity:1;stroke:#000000;stroke-width:0.03342551;stroke-linecap:butt;stroke-linejoin:miter;stroke-miterlimit:4;stroke-dasharray:none;stroke-dashoffset:0;stroke-opacity:1" />
      <path
         sodipodi:nodetypes="ssssss"
         inkscape:connector-curvature="0"
         id="path2232-0-7-5-8-89"
         d="m -292.49487,-103.64752 c 0,0.40498 -0.3283,0.73328 -0.73329,0.73328 -0.40498,1e-5 -0.73329,-0.3283 -0.73329,-0.73328 0,-0.21036 0.0886,-0.40003 0.23047,-0.53375 0.13128,-0.12372 0.3082,-0.19955 0.50282,-0.19955 0.40499,0 0.73329,0.32832 0.73329,0.7333 z"
         style="opacity:1;fill:#1973de;fill-opacity:1;stroke:#000000;stroke-width:0.03342551;stroke-linecap:butt;stroke-linejoin:miter;stroke-miterlimit:4;stroke-dasharray:none;stroke-dashoffset:0;stroke-opacity:1" />
      <path
         sodipodi:nodetypes="ssssss"
         inkscape:connector-curvature="0"
         id="path2232-0-7-5-8-60"
         d="m -285.34838,-104.16258 c 0,0.40498 -0.3283,0.73328 -0.73329,0.73328 -0.40498,1e-5 -0.73329,-0.3283 -0.73329,-0.73328 0,-0.21036 0.0886,-0.40003 0.23047,-0.53375 0.13128,-0.12372 0.3082,-0.19955 0.50282,-0.19955 0.40499,0 0.73329,0.32832 0.73329,0.7333 z"
         style="opacity:1;fill:#1973de;fill-opacity:1;stroke:#000000;stroke-width:0.03342551;stroke-linecap:butt;stroke-linejoin:miter;stroke-miterlimit:4;stroke-dasharray:none;stroke-dashoffset:0;stroke-opacity:1" />
      <path
         sodipodi:nodetypes="ssssss"
         inkscape:connector-curvature="0"
         id="path2232-0-7-5-8-7"
         d="m -293.61981,-133.20363 c 0,0.40498 -0.3283,0.73328 -0.73329,0.73328 -0.40498,1e-5 -0.73329,-0.3283 -0.73329,-0.73328 0,-0.21036 0.0886,-0.40003 0.23047,-0.53375 0.13128,-0.12372 0.3082,-0.19955 0.50282,-0.19955 0.40499,0 0.73329,0.32832 0.73329,0.7333 z"
         style="opacity:1;fill:#1973de;fill-opacity:1;stroke:#000000;stroke-width:0.03342551;stroke-linecap:butt;stroke-linejoin:miter;stroke-miterlimit:4;stroke-dasharray:none;stroke-dashoffset:0;stroke-opacity:1" />
      <path
         sodipodi:nodetypes="ssssss"
         inkscape:connector-curvature="0"
         id="path2232-0-7-5-8-01"
         d="m -306.12363,-121.65314 c 0,0.40498 -0.3283,0.73328 -0.73329,0.73328 -0.40498,1e-5 -0.73329,-0.3283 -0.73329,-0.73328 0,-0.21036 0.0886,-0.40003 0.23047,-0.53375 0.13128,-0.12372 0.3082,-0.19955 0.50282,-0.19955 0.40499,0 0.73329,0.32832 0.73329,0.7333 z"
         style="opacity:1;fill:#1973de;fill-opacity:1;stroke:#000000;stroke-width:0.03342551;stroke-linecap:butt;stroke-linejoin:miter;stroke-miterlimit:4;stroke-dasharray:none;stroke-dashoffset:0;stroke-opacity:1" />
      <path
         sodipodi:nodetypes="ssssss"
         inkscape:connector-curvature="0"
         id="path2232-0-7-5-8-013"
         d="m -327.08424,-56.726258 c 0,0.40498 -0.3283,0.73328 -0.73329,0.73328 -0.40498,1e-5 -0.73329,-0.3283 -0.73329,-0.73328 0,-0.21036 0.0886,-0.40003 0.23047,-0.53375 0.13128,-0.12372 0.3082,-0.19955 0.50282,-0.19955 0.40499,0 0.73329,0.32832 0.73329,0.7333 z"
         style="opacity:1;fill:#1973de;fill-opacity:1;stroke:#000000;stroke-width:0.03342551;stroke-linecap:butt;stroke-linejoin:miter;stroke-miterlimit:4;stroke-dasharray:none;stroke-dashoffset:0;stroke-opacity:1" />
      <path
         sodipodi:nodetypes="ssssss"
         inkscape:connector-curvature="0"
         id="path2232-0-7-5-8-77"
         d="m -261.66679,-96.990113 c 0,0.40498 -0.3283,0.73328 -0.73329,0.73328 -0.40498,1e-5 -0.73329,-0.3283 -0.73329,-0.73328 0,-0.21036 0.0886,-0.40003 0.23047,-0.53375 0.13128,-0.12372 0.3082,-0.19955 0.50282,-0.19955 0.40499,0 0.73329,0.32832 0.73329,0.7333 z"
         style="opacity:1;fill:#1973de;fill-opacity:1;stroke:#000000;stroke-width:0.03342551;stroke-linecap:butt;stroke-linejoin:miter;stroke-miterlimit:4;stroke-dasharray:none;stroke-dashoffset:0;stroke-opacity:1" />
      <path
         sodipodi:nodetypes="ssssss"
         inkscape:connector-curvature="0"
         id="path2232-0-7-5-8-2"
         d="m -243.25333,-97.118878 c 0,0.40498 -0.3283,0.73328 -0.73329,0.73328 -0.40498,1e-5 -0.73329,-0.3283 -0.73329,-0.73328 0,-0.21036 0.0886,-0.40003 0.23047,-0.53375 0.13128,-0.12372 0.3082,-0.19955 0.50282,-0.19955 0.40499,0 0.73329,0.32832 0.73329,0.7333 z"
         style="opacity:1;fill:#1973de;fill-opacity:1;stroke:#000000;stroke-width:0.03342551;stroke-linecap:butt;stroke-linejoin:miter;stroke-miterlimit:4;stroke-dasharray:none;stroke-dashoffset:0;stroke-opacity:1" />
      <path
         sodipodi:nodetypes="ssssss"
         inkscape:connector-curvature="0"
         id="path2232-0-7-5-8-64"
         d="m -261.60241,-109.86665 c 0,0.40498 -0.3283,0.73328 -0.73329,0.73328 -0.40498,1e-5 -0.73329,-0.3283 -0.73329,-0.73328 0,-0.21036 0.0886,-0.40003 0.23047,-0.53375 0.13128,-0.12372 0.3082,-0.19955 0.50282,-0.19955 0.40499,0 0.73329,0.32832 0.73329,0.7333 z"
         style="opacity:1;fill:#1973de;fill-opacity:1;stroke:#000000;stroke-width:0.03342551;stroke-linecap:butt;stroke-linejoin:miter;stroke-miterlimit:4;stroke-dasharray:none;stroke-dashoffset:0;stroke-opacity:1" />
      <path
         sodipodi:nodetypes="ssssss"
         inkscape:connector-curvature="0"
         id="path2232-0-7-5-8-52"
         d="m -243.44649,-109.80227 c 0,0.40498 -0.3283,0.73328 -0.73329,0.73328 -0.40498,1e-5 -0.73329,-0.3283 -0.73329,-0.73328 0,-0.21036 0.0886,-0.40003 0.23047,-0.53375 0.13128,-0.12372 0.3082,-0.19955 0.50282,-0.19955 0.40499,0 0.73329,0.32832 0.73329,0.7333 z"
         style="opacity:1;fill:#1973de;fill-opacity:1;stroke:#000000;stroke-width:0.03342551;stroke-linecap:butt;stroke-linejoin:miter;stroke-miterlimit:4;stroke-dasharray:none;stroke-dashoffset:0;stroke-opacity:1" />
      <path
         sodipodi:nodetypes="ssssss"
         inkscape:connector-curvature="0"
         id="path2232-0-7-5-8-02"
         d="m -258.53802,-171.42096 c 0,0.40498 -0.3283,0.73328 -0.73329,0.73328 -0.40498,1e-5 -0.73329,-0.3283 -0.73329,-0.73328 0,-0.21036 0.0886,-0.40003 0.23047,-0.53375 0.13128,-0.12372 0.3082,-0.19955 0.50282,-0.19955 0.40499,0 0.73329,0.32832 0.73329,0.7333 z"
         style="opacity:1;fill:#1973de;fill-opacity:1;stroke:#000000;stroke-width:0.03342551;stroke-linecap:butt;stroke-linejoin:miter;stroke-miterlimit:4;stroke-dasharray:none;stroke-dashoffset:0;stroke-opacity:1" />
      <path
         sodipodi:nodetypes="ssssss"
         inkscape:connector-curvature="0"
         id="path2232-0-7-5-8-02-9"
         d="m -240.25334,-171.22782 c 0,0.40498 -0.3283,0.73328 -0.73329,0.73328 -0.40498,1e-5 -0.73329,-0.3283 -0.73329,-0.73328 0,-0.21036 0.0886,-0.40003 0.23047,-0.53375 0.13128,-0.12372 0.3082,-0.19955 0.50282,-0.19955 0.40499,0 0.73329,0.32832 0.73329,0.7333 z"
         style="opacity:1;fill:#1973de;fill-opacity:1;stroke:#000000;stroke-width:0.03342551;stroke-linecap:butt;stroke-linejoin:miter;stroke-miterlimit:4;stroke-dasharray:none;stroke-dashoffset:0;stroke-opacity:1" />
      <path
         sodipodi:nodetypes="ssssss"
         inkscape:connector-curvature="0"
         id="path2232-0-7-5-8-02-0"
         d="m -240.06019,-158.6088 c 0,0.40498 -0.3283,0.73328 -0.73329,0.73328 -0.40498,1e-5 -0.73329,-0.3283 -0.73329,-0.73328 0,-0.21036 0.0886,-0.40003 0.23047,-0.53375 0.13128,-0.12372 0.3082,-0.19955 0.50282,-0.19955 0.40499,0 0.73329,0.32832 0.73329,0.7333 z"
         style="opacity:1;fill:#1973de;fill-opacity:1;stroke:#000000;stroke-width:0.03342551;stroke-linecap:butt;stroke-linejoin:miter;stroke-miterlimit:4;stroke-dasharray:none;stroke-dashoffset:0;stroke-opacity:1" />
      <path
         sodipodi:nodetypes="ssssss"
         inkscape:connector-curvature="0"
         id="path2232-0-7-5-8-02-99"
         d="m -258.53803,-158.41567 c 0,0.40498 -0.3283,0.73328 -0.73329,0.73328 -0.40498,1e-5 -0.73329,-0.3283 -0.73329,-0.73328 0,-0.21036 0.0886,-0.40003 0.23047,-0.53375 0.13128,-0.12372 0.3082,-0.19955 0.50282,-0.19955 0.40499,0 0.73329,0.32832 0.73329,0.7333 z"
         style="opacity:1;fill:#1973de;fill-opacity:1;stroke:#000000;stroke-width:0.03342551;stroke-linecap:butt;stroke-linejoin:miter;stroke-miterlimit:4;stroke-dasharray:none;stroke-dashoffset:0;stroke-opacity:1" />
      <path
         sodipodi:nodetypes="ssssss"
         inkscape:connector-curvature="0"
         id="path2232-0-7-5-8-02-4"
         d="m -292.41314,-168.33384 c 0,0.40498 -0.3283,0.73328 -0.73329,0.73328 -0.40498,1e-5 -0.73329,-0.3283 -0.73329,-0.73328 0,-0.21036 0.0886,-0.40003 0.23047,-0.53375 0.13128,-0.12372 0.3082,-0.19955 0.50282,-0.19955 0.40499,0 0.73329,0.32832 0.73329,0.7333 z"
         style="opacity:1;fill:#1973de;fill-opacity:1;stroke:#000000;stroke-width:0.03342551;stroke-linecap:butt;stroke-linejoin:miter;stroke-miterlimit:4;stroke-dasharray:none;stroke-dashoffset:0;stroke-opacity:1" />
      <path
         sodipodi:nodetypes="ssssss"
         inkscape:connector-curvature="0"
         id="path2232-0-7-5-8-02-5"
         d="m -321.50876,-172.38108 c 0,0.40498 -0.3283,0.73328 -0.73329,0.73328 -0.40498,1e-5 -0.73329,-0.3283 -0.73329,-0.73328 0,-0.21036 0.0886,-0.40003 0.23047,-0.53375 0.13128,-0.12372 0.3082,-0.19955 0.50282,-0.19955 0.40499,0 0.73329,0.32832 0.73329,0.7333 z"
         style="opacity:1;fill:#1973de;fill-opacity:1;stroke:#000000;stroke-width:0.03342551;stroke-linecap:butt;stroke-linejoin:miter;stroke-miterlimit:4;stroke-dasharray:none;stroke-dashoffset:0;stroke-opacity:1" />
      <path
         sodipodi:nodetypes="ssssss"
         inkscape:connector-curvature="0"
         id="path2232-0-7-5-8-02-1"
         d="m -245.82303,-36.79229 c 0,0.40498 -0.3283,0.73328 -0.73329,0.73328 -0.40498,1e-5 -0.73329,-0.3283 -0.73329,-0.73328 0,-0.21036 0.0886,-0.40003 0.23047,-0.53375 0.13128,-0.12372 0.3082,-0.19955 0.50282,-0.19955 0.40499,0 0.73329,0.32832 0.73329,0.7333 z"
         style="opacity:1;fill:#1973de;fill-opacity:1;stroke:#000000;stroke-width:0.03342551;stroke-linecap:butt;stroke-linejoin:miter;stroke-miterlimit:4;stroke-dasharray:none;stroke-dashoffset:0;stroke-opacity:1" />
      <path
         sodipodi:nodetypes="ssssss"
         inkscape:connector-curvature="0"
         id="path2232-0-7-5-8-02-03"
         d="m -238.4834,-36.79229 c 0,0.40498 -0.3283,0.73328 -0.73329,0.73328 -0.40498,1e-5 -0.73329,-0.3283 -0.73329,-0.73328 0,-0.21036 0.0886,-0.40003 0.23047,-0.53375 0.13128,-0.12372 0.3082,-0.19955 0.50282,-0.19955 0.40499,0 0.73329,0.32832 0.73329,0.7333 z"
         style="opacity:1;fill:#1973de;fill-opacity:1;stroke:#000000;stroke-width:0.03342551;stroke-linecap:butt;stroke-linejoin:miter;stroke-miterlimit:4;stroke-dasharray:none;stroke-dashoffset:0;stroke-opacity:1" />
      <path
         sodipodi:nodetypes="ssssss"
         inkscape:connector-curvature="0"
         id="path2232-0-7-5-8-02-7"
         d="m -231.27254,-36.856672 c 0,0.40498 -0.3283,0.73328 -0.73329,0.73328 -0.40498,1e-5 -0.73329,-0.3283 -0.73329,-0.73328 0,-0.21036 0.0886,-0.40003 0.23047,-0.53375 0.13128,-0.12372 0.3082,-0.19955 0.50282,-0.19955 0.40499,0 0.73329,0.32832 0.73329,0.7333 z"
         style="opacity:1;fill:#1973de;fill-opacity:1;stroke:#000000;stroke-width:0.03342551;stroke-linecap:butt;stroke-linejoin:miter;stroke-miterlimit:4;stroke-dasharray:none;stroke-dashoffset:0;stroke-opacity:1" />
      <path
         inkscape:connector-curvature="0"
         style="fill:#1973de;fill-opacity:1;fill-rule:evenodd;stroke:#000000;stroke-width:0.075;stroke-miterlimit:4;stroke-dasharray:none;stroke-opacity:1"
         d="m -249.23953,-53.003741 1.96388,-1.960797 v -2.776509 l -1.96388,-1.963878 h -2.7765 l -1.96081,1.963878 v 2.776509 l 1.96081,1.960797 h 2.7765"
         id="path150-2-8" />
      <path
         inkscape:connector-curvature="0"
         style="fill:#1973de;fill-opacity:1;fill-rule:evenodd;stroke:#000000;stroke-width:0.075;stroke-miterlimit:4;stroke-dasharray:none;stroke-opacity:1"
         d="m -226.10084,-53.750668 1.96388,-1.96079 v -2.77651 l -1.96388,-1.96388 h -2.7765 l -1.96081,1.96388 v 2.77651 l 1.96081,1.96079 h 2.7765"
         id="path150-2-8-8" />
      <path
         sodipodi:nodetypes="ssssss"
         inkscape:connector-curvature="0"
         id="path2232-0-7-5-8-8-67-5"
         d="m -451.64941,-225.92938 c 0,0.40498 -0.3283,0.73328 -0.73329,0.73328 -0.40498,1e-5 -0.73329,-0.3283 -0.73329,-0.73328 0,-0.21036 0.0886,-0.40003 0.23047,-0.53375 0.13128,-0.12372 0.3082,-0.19955 0.50282,-0.19955 0.40499,0 0.73329,0.32832 0.73329,0.7333 z"
         style="opacity:1;fill:#1973de;fill-opacity:1;stroke:#000000;stroke-width:0.03342551;stroke-linecap:butt;stroke-linejoin:miter;stroke-miterlimit:4;stroke-dasharray:none;stroke-dashoffset:0;stroke-opacity:1" />
    </g>
    <path
       sodipodi:nodetypes="ssssss"
       inkscape:connector-curvature="0"
       id="path2232-0-7-5-8-8"
       d="m -127.44059,-153.76572 c 0,0.40498 -0.3283,0.73328 -0.73329,0.73328 -0.40498,1e-5 -0.73329,-0.3283 -0.73329,-0.73328 0,-0.21036 0.0886,-0.40003 0.23047,-0.53375 0.13128,-0.12372 0.3082,-0.19955 0.50282,-0.19955 0.40499,0 0.73329,0.32832 0.73329,0.7333 z"
       style="opacity:1;fill:#1973de;fill-opacity:1;stroke:#000000;stroke-width:0.03342551;stroke-linecap:butt;stroke-linejoin:miter;stroke-miterlimit:4;stroke-dasharray:none;stroke-dashoffset:0;stroke-opacity:1" />
    <path
       sodipodi:nodetypes="ssssss"
       inkscape:connector-curvature="0"
       id="path2232-0-7-5-8-8-6"
       d="m -96.395723,-171.43935 c 0,0.40498 -0.3283,0.73328 -0.73329,0.73328 -0.40498,1e-5 -0.733295,-0.3283 -0.733295,-0.73328 0,-0.21036 0.0886,-0.40003 0.230475,-0.53375 0.13128,-0.12372 0.3082,-0.19955 0.50282,-0.19955 0.40499,0 0.73329,0.32832 0.73329,0.7333 z"
       style="opacity:1;fill:#1973de;fill-opacity:1;stroke:#000000;stroke-width:0.03342551;stroke-linecap:butt;stroke-linejoin:miter;stroke-miterlimit:4;stroke-dasharray:none;stroke-dashoffset:0;stroke-opacity:1" />
    <path
       sodipodi:nodetypes="ssssss"
       inkscape:connector-curvature="0"
       id="path2232-0-7-5-8-8-0"
       d="m -87.684853,-181.54861 c 0,0.40499 -0.3283,0.73329 -0.73329,0.73329 -0.40498,0 -0.73329,-0.3283 -0.73329,-0.73329 0,-0.21036 0.0886,-0.40002 0.23047,-0.53374 0.13128,-0.12372 0.3082,-0.19955 0.50282,-0.19955 0.40499,0 0.73329,0.32832 0.73329,0.73329 z"
       style="opacity:1;fill:#1973de;fill-opacity:1;stroke:#000000;stroke-width:0.03342551;stroke-linecap:butt;stroke-linejoin:miter;stroke-miterlimit:4;stroke-dasharray:none;stroke-dashoffset:0;stroke-opacity:1" />
    <path
       sodipodi:nodetypes="ssssss"
       inkscape:connector-curvature="0"
       id="path2232-0-7-5-8-8-4"
       d="m -80.538383,-181.54861 c 0,0.40499 -0.3283,0.73329 -0.73329,0.73329 -0.40498,0 -0.73329,-0.3283 -0.73329,-0.73329 0,-0.21036 0.0886,-0.40002 0.23047,-0.53374 0.13128,-0.12372 0.3082,-0.19955 0.50282,-0.19955 0.40499,0 0.73329,0.32832 0.73329,0.73329 z"
       style="opacity:1;fill:#1973de;fill-opacity:1;stroke:#000000;stroke-width:0.03342551;stroke-linecap:butt;stroke-linejoin:miter;stroke-miterlimit:4;stroke-dasharray:none;stroke-dashoffset:0;stroke-opacity:1" />
    <path
       sodipodi:nodetypes="ssssss"
       inkscape:connector-curvature="0"
       id="path2232-0-7-5-8-8-67"
       d="m -138.05483,-185.39616 c 0,0.40498 -0.3283,0.73328 -0.73329,0.73328 -0.40498,1e-5 -0.73329,-0.3283 -0.73329,-0.73328 0,-0.21036 0.0886,-0.40003 0.23047,-0.53375 0.13128,-0.12372 0.3082,-0.19955 0.50282,-0.19955 0.40499,0 0.73329,0.32832 0.73329,0.7333 z"
       style="opacity:1;fill:#1973de;fill-opacity:1;stroke:#000000;stroke-width:0.03342551;stroke-linecap:butt;stroke-linejoin:miter;stroke-miterlimit:4;stroke-dasharray:none;stroke-dashoffset:0;stroke-opacity:1" />
    <path
       sodipodi:nodetypes="ssssss"
       inkscape:connector-curvature="0"
       id="path2232-0-7-5-8-8-67-6"
       d="m -199.29917,-167.39616 c 0,0.40498 -0.3283,0.73328 -0.73329,0.73328 -0.40498,1e-5 -0.73329,-0.3283 -0.73329,-0.73328 0,-0.21036 0.0886,-0.40003 0.23047,-0.53375 0.13128,-0.12372 0.3082,-0.19955 0.50282,-0.19955 0.40499,0 0.73329,0.32832 0.73329,0.7333 z"
       style="opacity:1;fill:#1973de;fill-opacity:1;stroke:#000000;stroke-width:0.03342551;stroke-linecap:butt;stroke-linejoin:miter;stroke-miterlimit:4;stroke-dasharray:none;stroke-dashoffset:0;stroke-opacity:1" />
    <path
       sodipodi:nodetypes="ssssss"
       inkscape:connector-curvature="0"
       id="path2232-0-7-5-8-8-67-0"
       d="m -199.26007,-181.54861 c 0,0.40499 -0.3283,0.73329 -0.73329,0.73329 -0.40498,0 -0.73329,-0.3283 -0.73329,-0.73329 0,-0.21036 0.0886,-0.40002 0.23047,-0.53374 0.13128,-0.12372 0.3082,-0.19955 0.50282,-0.19955 0.40499,0 0.73329,0.32832 0.73329,0.73329 z"
       style="opacity:1;fill:#1973de;fill-opacity:1;stroke:#000000;stroke-width:0.03342551;stroke-linecap:butt;stroke-linejoin:miter;stroke-miterlimit:4;stroke-dasharray:none;stroke-dashoffset:0;stroke-opacity:1" />
    <path
       sodipodi:nodetypes="ssssss"
       inkscape:connector-curvature="0"
       id="path2232-0-7-5-8-8-67-9"
       d="m -192.0492,-181.61299 c 0,0.40498 -0.3283,0.73328 -0.73329,0.73328 -0.40498,10e-6 -0.73329,-0.3283 -0.73329,-0.73328 0,-0.21036 0.0886,-0.40003 0.23047,-0.53375 0.13128,-0.12372 0.3082,-0.19955 0.50282,-0.19955 0.40499,0 0.73329,0.32832 0.73329,0.7333 z"
       style="opacity:1;fill:#1973de;fill-opacity:1;stroke:#000000;stroke-width:0.03342551;stroke-linecap:butt;stroke-linejoin:miter;stroke-miterlimit:4;stroke-dasharray:none;stroke-dashoffset:0;stroke-opacity:1" />
    <path
       sodipodi:nodetypes="ssssss"
       inkscape:connector-curvature="0"
       id="path2232-0-7-5-8-8-67-7"
       d="m -184.90273,-181.61299 c 0,0.40498 -0.3283,0.73328 -0.73329,0.73328 -0.40498,10e-6 -0.73329,-0.3283 -0.73329,-0.73328 0,-0.21036 0.0886,-0.40003 0.23047,-0.53375 0.13128,-0.12372 0.3082,-0.19955 0.50282,-0.19955 0.40499,0 0.73329,0.32832 0.73329,0.7333 z"
       style="opacity:1;fill:#1973de;fill-opacity:1;stroke:#000000;stroke-width:0.03342551;stroke-linecap:butt;stroke-linejoin:miter;stroke-miterlimit:4;stroke-dasharray:none;stroke-dashoffset:0;stroke-opacity:1" />
    <g
       id="g2099"
       transform="translate(255.62878,7.5956503)"
       style="fill:#1973de;fill-opacity:1">
      <path
         style="opacity:1;fill:#1973de;fill-opacity:1;stroke:#000000;stroke-width:0.04178173;stroke-linecap:butt;stroke-linejoin:miter;stroke-miterlimit:4;stroke-dasharray:none;stroke-dashoffset:0;stroke-opacity:1"
         d="m -462.94432,-139.47826 c 0,0.50622 -0.41038,0.91659 -0.91661,0.91659 -0.50623,1e-5 -0.91661,-0.41037 -0.91661,-0.91659 0,-0.26295 0.11075,-0.50004 0.28808,-0.66719 0.1641,-0.15465 0.38525,-0.24944 0.62853,-0.24944 0.50623,0 0.91661,0.4104 0.91661,0.91663 z"
         id="path2232-0-7-5-1-9"
         inkscape:connector-curvature="0"
         sodipodi:nodetypes="ssssss" />
      <path
         style="opacity:1;fill:#1973de;fill-opacity:1;stroke:#000000;stroke-width:0.04178173;stroke-linecap:butt;stroke-linejoin:miter;stroke-miterlimit:4;stroke-dasharray:none;stroke-dashoffset:0;stroke-opacity:1"
         d="m -462.94432,-132.27961 c 0,0.50622 -0.41038,0.91659 -0.91661,0.91659 -0.50623,1e-5 -0.91661,-0.41037 -0.91661,-0.91659 0,-0.26295 0.11075,-0.50004 0.28808,-0.66719 0.1641,-0.15465 0.38525,-0.24944 0.62853,-0.24944 0.50623,0 0.91661,0.4104 0.91661,0.91663 z"
         id="path2232-0-7-5-1-9-0"
         inkscape:connector-curvature="0"
         sodipodi:nodetypes="ssssss" />
      <path
         style="opacity:1;fill:#1973de;fill-opacity:1;stroke:#000000;stroke-width:0.04178173;stroke-linecap:butt;stroke-linejoin:miter;stroke-miterlimit:4;stroke-dasharray:none;stroke-dashoffset:0;stroke-opacity:1"
         d="m -462.94432,-125.09649 c 0,0.50622 -0.41038,0.91659 -0.91661,0.91659 -0.50623,1e-5 -0.91661,-0.41037 -0.91661,-0.91659 0,-0.26295 0.11075,-0.50004 0.28808,-0.66719 0.1641,-0.15465 0.38525,-0.24944 0.62853,-0.24944 0.50623,0 0.91661,0.4104 0.91661,0.91663 z"
         id="path2232-0-7-5-1-9-9"
         inkscape:connector-curvature="0"
         sodipodi:nodetypes="ssssss" />
      <path
         style="opacity:1;fill:#1973de;fill-opacity:1;stroke:#000000;stroke-width:0.04178173;stroke-linecap:butt;stroke-linejoin:miter;stroke-miterlimit:4;stroke-dasharray:none;stroke-dashoffset:0;stroke-opacity:1"
         d="m -462.94432,-117.87368 c 0,0.50622 -0.41038,0.91659 -0.91661,0.91659 -0.50623,10e-6 -0.91661,-0.41037 -0.91661,-0.91659 0,-0.26295 0.11075,-0.50004 0.28808,-0.66719 0.1641,-0.15465 0.38525,-0.24944 0.62853,-0.24944 0.50623,0 0.91661,0.4104 0.91661,0.91663 z"
         id="path2232-0-7-5-1-9-1"
         inkscape:connector-curvature="0"
         sodipodi:nodetypes="ssssss" />
      <path
         style="opacity:1;fill:#1973de;fill-opacity:1;stroke:#000000;stroke-width:0.04178173;stroke-linecap:butt;stroke-linejoin:miter;stroke-miterlimit:4;stroke-dasharray:none;stroke-dashoffset:0;stroke-opacity:1"
         d="m -462.94432,-110.66267 c 0,0.50622 -0.41038,0.91659 -0.91661,0.91659 -0.50623,1e-5 -0.91661,-0.41037 -0.91661,-0.91659 0,-0.26295 0.11075,-0.50004 0.28808,-0.66719 0.1641,-0.15465 0.38525,-0.24944 0.62853,-0.24944 0.50623,0 0.91661,0.4104 0.91661,0.91663 z"
         id="path2232-0-7-5-1-9-7"
         inkscape:connector-curvature="0"
         sodipodi:nodetypes="ssssss" />
      <path
         style="opacity:1;fill:#1973de;fill-opacity:1;stroke:#000000;stroke-width:0.04178173;stroke-linecap:butt;stroke-linejoin:miter;stroke-miterlimit:4;stroke-dasharray:none;stroke-dashoffset:0;stroke-opacity:1"
         d="m -462.94432,-103.46775 c 0,0.50622 -0.41038,0.91659 -0.91661,0.91659 -0.50623,10e-6 -0.91661,-0.41037 -0.91661,-0.91659 0,-0.26295 0.11075,-0.50004 0.28808,-0.66719 0.1641,-0.15465 0.38525,-0.24944 0.62853,-0.24944 0.50623,0 0.91661,0.4104 0.91661,0.91663 z"
         id="path2232-0-7-5-1-9-71"
         inkscape:connector-curvature="0"
         sodipodi:nodetypes="ssssss" />
      <path
         style="opacity:1;fill:#1973de;fill-opacity:1;stroke:#000000;stroke-width:0.04178173;stroke-linecap:butt;stroke-linejoin:miter;stroke-miterlimit:4;stroke-dasharray:none;stroke-dashoffset:0;stroke-opacity:1"
         d="m -462.94432,-96.244936 c 0,0.50622 -0.41038,0.91659 -0.91661,0.91659 -0.50623,1e-5 -0.91661,-0.41037 -0.91661,-0.91659 0,-0.26295 0.11075,-0.50004 0.28808,-0.667193 0.1641,-0.15465 0.38525,-0.24944 0.62853,-0.24944 0.50623,0 0.91661,0.410403 0.91661,0.916633 z"
         id="path2232-0-7-5-1-9-15"
         inkscape:connector-curvature="0"
         sodipodi:nodetypes="ssssss" />
      <path
         style="opacity:1;fill:#1973de;fill-opacity:1;stroke:#000000;stroke-width:0.04178173;stroke-linecap:butt;stroke-linejoin:miter;stroke-miterlimit:4;stroke-dasharray:none;stroke-dashoffset:0;stroke-opacity:1"
         d="m -462.94432,-89.048584 c 0,0.50622 -0.41038,0.91659 -0.91661,0.91659 -0.50623,1e-5 -0.91661,-0.41037 -0.91661,-0.91659 0,-0.26295 0.11075,-0.50004 0.28808,-0.66719 0.1641,-0.15465 0.38525,-0.24944 0.62853,-0.24944 0.50623,0 0.91661,0.4104 0.91661,0.91663 z"
         id="path2232-0-7-5-1-9-97"
         inkscape:connector-curvature="0"
         sodipodi:nodetypes="ssssss" />
      <path
         style="opacity:1;fill:#1973de;fill-opacity:1;stroke:#000000;stroke-width:0.04178173;stroke-linecap:butt;stroke-linejoin:miter;stroke-miterlimit:4;stroke-dasharray:none;stroke-dashoffset:0;stroke-opacity:1"
         d="m -462.94432,-81.839004 c 0,0.50622 -0.41038,0.91659 -0.91661,0.91659 -0.50623,1e-5 -0.91661,-0.41037 -0.91661,-0.91659 0,-0.26295 0.11075,-0.50004 0.28808,-0.66719 0.1641,-0.15465 0.38525,-0.24944 0.62853,-0.24944 0.50623,0 0.91661,0.4104 0.91661,0.91663 z"
         id="path2232-0-7-5-1-9-76"
         inkscape:connector-curvature="0"
         sodipodi:nodetypes="ssssss" />
      <path
         style="opacity:1;fill:#1973de;fill-opacity:1;stroke:#000000;stroke-width:0.04178173;stroke-linecap:butt;stroke-linejoin:miter;stroke-miterlimit:4;stroke-dasharray:none;stroke-dashoffset:0;stroke-opacity:1"
         d="m -462.94432,-74.708796 c 0,0.50622 -0.41038,0.91659 -0.91661,0.91659 -0.50623,10e-6 -0.91661,-0.41037 -0.91661,-0.91659 0,-0.26295 0.11075,-0.50004 0.28808,-0.66719 0.1641,-0.15465 0.38525,-0.24944 0.62853,-0.24944 0.50623,0 0.91661,0.4104 0.91661,0.91663 z"
         id="path2232-0-7-5-1-9-73"
         inkscape:connector-curvature="0"
         sodipodi:nodetypes="ssssss" />
      <path
         style="opacity:1;fill:#1973de;fill-opacity:1;stroke:#000000;stroke-width:0.04178173;stroke-linecap:butt;stroke-linejoin:miter;stroke-miterlimit:4;stroke-dasharray:none;stroke-dashoffset:0;stroke-opacity:1"
         d="m -462.94432,-67.459531 c 0,0.50622 -0.41038,0.91659 -0.91661,0.91659 -0.50623,1e-5 -0.91661,-0.41037 -0.91661,-0.91659 0,-0.26295 0.11075,-0.50004 0.28808,-0.66719 0.1641,-0.15465 0.38525,-0.24944 0.62853,-0.24944 0.50623,0 0.91661,0.4104 0.91661,0.91663 z"
         id="path2232-0-7-5-1-9-6"
         inkscape:connector-curvature="0"
         sodipodi:nodetypes="ssssss" />
      <path
         style="opacity:1;fill:#1973de;fill-opacity:1;stroke:#000000;stroke-width:0.04178173;stroke-linecap:butt;stroke-linejoin:miter;stroke-miterlimit:4;stroke-dasharray:none;stroke-dashoffset:0;stroke-opacity:1"
         d="m -462.94432,-60.302865 c 0,0.50622 -0.41038,0.91659 -0.91661,0.91659 -0.50623,10e-6 -0.91661,-0.41037 -0.91661,-0.91659 0,-0.26295 0.11075,-0.50004 0.28808,-0.66719 0.1641,-0.15465 0.38525,-0.24944 0.62853,-0.24944 0.50623,0 0.91661,0.4104 0.91661,0.91663 z"
         id="path2232-0-7-5-1-9-5"
         inkscape:connector-curvature="0"
         sodipodi:nodetypes="ssssss" />
      <path
         style="opacity:1;fill:#1973de;fill-opacity:1;stroke:#000000;stroke-width:0.04178173;stroke-linecap:butt;stroke-linejoin:miter;stroke-miterlimit:4;stroke-dasharray:none;stroke-dashoffset:0;stroke-opacity:1"
         d="m -462.94432,-53.000685 c 0,0.50622 -0.41038,0.91659 -0.91661,0.91659 -0.50623,10e-6 -0.91661,-0.41037 -0.91661,-0.91659 0,-0.26295 0.11075,-0.50004 0.28808,-0.66719 0.1641,-0.15465 0.38525,-0.24944 0.62853,-0.24944 0.50623,0 0.91661,0.4104 0.91661,0.91663 z"
         id="path2232-0-7-5-1-9-63"
         inkscape:connector-curvature="0"
         sodipodi:nodetypes="ssssss" />
      <path
         style="opacity:1;fill:#1973de;fill-opacity:1;stroke:#000000;stroke-width:0.04178173;stroke-linecap:butt;stroke-linejoin:miter;stroke-miterlimit:4;stroke-dasharray:none;stroke-dashoffset:0;stroke-opacity:1"
         d="m -462.94432,-45.870477 c 0,0.50622 -0.41038,0.91659 -0.91661,0.91659 -0.50623,1e-5 -0.91661,-0.41037 -0.91661,-0.91659 0,-0.26295 0.11075,-0.50004 0.28808,-0.66719 0.1641,-0.15465 0.38525,-0.24944 0.62853,-0.24944 0.50623,0 0.91661,0.4104 0.91661,0.91663 z"
         id="path2232-0-7-5-1-9-94"
         inkscape:connector-curvature="0"
         sodipodi:nodetypes="ssssss" />
      <path
         style="opacity:1;fill:#1973de;fill-opacity:1;stroke:#000000;stroke-width:0.04178173;stroke-linecap:butt;stroke-linejoin:miter;stroke-miterlimit:4;stroke-dasharray:none;stroke-dashoffset:0;stroke-opacity:1"
         d="m -462.94432,-38.660897 c 0,0.50622 -0.41038,0.91659 -0.91661,0.91659 -0.50623,10e-6 -0.91661,-0.41037 -0.91661,-0.91659 0,-0.26295 0.11075,-0.50004 0.28808,-0.66719 0.1641,-0.15465 0.38525,-0.24944 0.62853,-0.24944 0.50623,0 0.91661,0.4104 0.91661,0.91663 z"
         id="path2232-0-7-5-1-9-8"
         inkscape:connector-curvature="0"
         sodipodi:nodetypes="ssssss" />
      <path
         style="opacity:1;fill:#1973de;fill-opacity:1;stroke:#000000;stroke-width:0.04178173;stroke-linecap:butt;stroke-linejoin:miter;stroke-miterlimit:4;stroke-dasharray:none;stroke-dashoffset:0;stroke-opacity:1"
         d="m -462.94432,-31.398403 c 0,0.50622 -0.41038,0.91659 -0.91661,0.91659 -0.50623,10e-6 -0.91661,-0.41037 -0.91661,-0.91659 0,-0.26295 0.11075,-0.50004 0.28808,-0.66719 0.1641,-0.15465 0.38525,-0.24944 0.62853,-0.24944 0.50623,0 0.91661,0.4104 0.91661,0.91663 z"
         id="path2232-0-7-5-1-9-12"
         inkscape:connector-curvature="0"
         sodipodi:nodetypes="ssssss" />
      <path
         style="opacity:1;fill:#1973de;fill-opacity:1;stroke:#000000;stroke-width:0.04178173;stroke-linecap:butt;stroke-linejoin:miter;stroke-miterlimit:4;stroke-dasharray:none;stroke-dashoffset:0;stroke-opacity:1"
         d="m -462.94432,-24.268195 c 0,0.50622 -0.41038,0.91659 -0.91661,0.91659 -0.50623,10e-6 -0.91661,-0.41037 -0.91661,-0.91659 0,-0.26295 0.11075,-0.50004 0.28808,-0.66719 0.1641,-0.15465 0.38525,-0.24944 0.62853,-0.24944 0.50623,0 0.91661,0.4104 0.91661,0.91663 z"
         id="path2232-0-7-5-1-9-93"
         inkscape:connector-curvature="0"
         sodipodi:nodetypes="ssssss" />
      <path
         style="opacity:1;fill:#1973de;fill-opacity:1;stroke:#000000;stroke-width:0.04178173;stroke-linecap:butt;stroke-linejoin:miter;stroke-miterlimit:4;stroke-dasharray:none;stroke-dashoffset:0;stroke-opacity:1"
         d="m -462.94432,-17.058655 c 0,-0.50622 -0.41038,-0.91659 -0.91661,-0.91659 -0.50623,-10e-6 -0.91661,0.41037 -0.91661,0.91659 0,0.26295 0.11075,0.50004 0.28808,0.66719 0.1641,0.15465 0.38525,0.24944 0.62853,0.24944 0.50623,0 0.91661,-0.4104 0.91661,-0.91663 z"
         id="path2232-0-7-5-1-9-90"
         inkscape:connector-curvature="0"
         sodipodi:nodetypes="ssssss" />
      <path
         style="opacity:1;fill:#1973de;fill-opacity:1;stroke:#000000;stroke-width:0.04178173;stroke-linecap:butt;stroke-linejoin:miter;stroke-miterlimit:4;stroke-dasharray:none;stroke-dashoffset:0;stroke-opacity:1"
         d="m -462.94432,-9.8358065 c 0,0.50622 -0.41038,0.91659 -0.91661,0.91659 -0.50623,10e-6 -0.91661,-0.41037 -0.91661,-0.91659 0,-0.2629505 0.11075,-0.5000405 0.28808,-0.6671905 0.1641,-0.15465 0.38525,-0.24944 0.62853,-0.24944 0.50623,0 0.91661,0.4104 0.91661,0.9166305 z"
         id="path2232-0-7-5-1-9-88"
         inkscape:connector-curvature="0"
         sodipodi:nodetypes="ssssss" />
      <path
         style="opacity:1;fill:#1973de;fill-opacity:1;stroke:#000000;stroke-width:0.04178173;stroke-linecap:butt;stroke-linejoin:miter;stroke-miterlimit:4;stroke-dasharray:none;stroke-dashoffset:0;stroke-opacity:1"
         d="m -462.94432,-2.6262267 c 0,0.50622 -0.41038,0.91659 -0.91661,0.91659 -0.50623,10e-6 -0.91661,-0.41037 -0.91661,-0.91659 0,-0.26295 0.11075,-0.50004 0.28808,-0.66719 0.1641,-0.15465 0.38525,-0.24944 0.62853,-0.24944 0.50623,0 0.91661,0.4104 0.91661,0.91663 z"
         id="path2232-0-7-5-1-9-50"
         inkscape:connector-curvature="0"
         sodipodi:nodetypes="ssssss" />
    </g>
    <g
       id="g2121"
       style="fill:#1973de;fill-opacity:1"
       transform="translate(255.62878,7.6809503)">
      <path
         style="opacity:1;fill:#1973de;fill-opacity:1;stroke:#000000;stroke-width:0.04178173;stroke-linecap:butt;stroke-linejoin:miter;stroke-miterlimit:4;stroke-dasharray:none;stroke-dashoffset:0;stroke-opacity:1"
         d="m -412.36291,-139.56356 c 0,0.50622 -0.41038,0.91659 -0.91661,0.91659 -0.50623,1e-5 -0.91661,-0.41037 -0.91661,-0.91659 0,-0.26295 0.11075,-0.50004 0.28808,-0.66719 0.1641,-0.15465 0.38525,-0.24944 0.62853,-0.24944 0.50623,0 0.91661,0.4104 0.91661,0.91663 z"
         id="path2232-0-7-5-1-9-96"
         inkscape:connector-curvature="0"
         sodipodi:nodetypes="ssssss" />
      <path
         style="opacity:1;fill:#1973de;fill-opacity:1;stroke:#000000;stroke-width:0.04178173;stroke-linecap:butt;stroke-linejoin:miter;stroke-miterlimit:4;stroke-dasharray:none;stroke-dashoffset:0;stroke-opacity:1"
         d="m -412.36291,-132.36491 c 0,0.50622 -0.41038,0.91659 -0.91661,0.91659 -0.50623,1e-5 -0.91661,-0.41037 -0.91661,-0.91659 0,-0.26295 0.11075,-0.50004 0.28808,-0.66719 0.1641,-0.15465 0.38525,-0.24944 0.62853,-0.24944 0.50623,0 0.91661,0.4104 0.91661,0.91663 z"
         id="path2232-0-7-5-1-9-0-3"
         inkscape:connector-curvature="0"
         sodipodi:nodetypes="ssssss" />
      <path
         style="opacity:1;fill:#1973de;fill-opacity:1;stroke:#000000;stroke-width:0.04178173;stroke-linecap:butt;stroke-linejoin:miter;stroke-miterlimit:4;stroke-dasharray:none;stroke-dashoffset:0;stroke-opacity:1"
         d="m -412.36291,-125.18179 c 0,0.50622 -0.41038,0.91659 -0.91661,0.91659 -0.50623,10e-6 -0.91661,-0.41037 -0.91661,-0.91659 0,-0.26295 0.11075,-0.50004 0.28808,-0.66719 0.1641,-0.15465 0.38525,-0.24944 0.62853,-0.24944 0.50623,0 0.91661,0.4104 0.91661,0.91663 z"
         id="path2232-0-7-5-1-9-9-8"
         inkscape:connector-curvature="0"
         sodipodi:nodetypes="ssssss" />
      <path
         style="opacity:1;fill:#1973de;fill-opacity:1;stroke:#000000;stroke-width:0.04178173;stroke-linecap:butt;stroke-linejoin:miter;stroke-miterlimit:4;stroke-dasharray:none;stroke-dashoffset:0;stroke-opacity:1"
         d="m -412.36291,-117.95898 c 0,0.50622 -0.41038,0.91659 -0.91661,0.91659 -0.50623,1e-5 -0.91661,-0.41037 -0.91661,-0.91659 0,-0.26295 0.11075,-0.50004 0.28808,-0.66719 0.1641,-0.15465 0.38525,-0.24944 0.62853,-0.24944 0.50623,0 0.91661,0.4104 0.91661,0.91663 z"
         id="path2232-0-7-5-1-9-1-5"
         inkscape:connector-curvature="0"
         sodipodi:nodetypes="ssssss" />
      <path
         style="opacity:1;fill:#1973de;fill-opacity:1;stroke:#000000;stroke-width:0.04178173;stroke-linecap:butt;stroke-linejoin:miter;stroke-miterlimit:4;stroke-dasharray:none;stroke-dashoffset:0;stroke-opacity:1"
         d="m -412.36291,-110.74797 c 0,0.50622 -0.41038,0.91659 -0.91661,0.91659 -0.50623,10e-6 -0.91661,-0.41037 -0.91661,-0.91659 0,-0.26295 0.11075,-0.50004 0.28808,-0.66719 0.1641,-0.15465 0.38525,-0.24944 0.62853,-0.24944 0.50623,0 0.91661,0.4104 0.91661,0.91663 z"
         id="path2232-0-7-5-1-9-7-6"
         inkscape:connector-curvature="0"
         sodipodi:nodetypes="ssssss" />
      <path
         style="opacity:1;fill:#1973de;fill-opacity:1;stroke:#000000;stroke-width:0.04178173;stroke-linecap:butt;stroke-linejoin:miter;stroke-miterlimit:4;stroke-dasharray:none;stroke-dashoffset:0;stroke-opacity:1"
         d="m -412.36291,-103.55305 c 0,0.50622 -0.41038,0.91659 -0.91661,0.91659 -0.50623,1e-5 -0.91661,-0.41037 -0.91661,-0.91659 0,-0.26295 0.11075,-0.50004 0.28808,-0.66719 0.1641,-0.15465 0.38525,-0.24944 0.62853,-0.24944 0.50623,0 0.91661,0.4104 0.91661,0.91663 z"
         id="path2232-0-7-5-1-9-71-1"
         inkscape:connector-curvature="0"
         sodipodi:nodetypes="ssssss" />
      <path
         style="opacity:1;fill:#1973de;fill-opacity:1;stroke:#000000;stroke-width:0.04178173;stroke-linecap:butt;stroke-linejoin:miter;stroke-miterlimit:4;stroke-dasharray:none;stroke-dashoffset:0;stroke-opacity:1"
         d="m -412.36291,-96.33024 c 0,0.50622 -0.41038,0.91659 -0.91661,0.91659 -0.50623,2e-5 -0.91661,-0.41037 -0.91661,-0.91659 0,-0.26295 0.11075,-0.50004 0.28808,-0.66719 0.1641,-0.15465 0.38525,-0.24944 0.62853,-0.24944 0.50623,0 0.91661,0.41041 0.91661,0.91663 z"
         id="path2232-0-7-5-1-9-15-1"
         inkscape:connector-curvature="0"
         sodipodi:nodetypes="ssssss" />
      <path
         style="opacity:1;fill:#1973de;fill-opacity:1;stroke:#000000;stroke-width:0.04178173;stroke-linecap:butt;stroke-linejoin:miter;stroke-miterlimit:4;stroke-dasharray:none;stroke-dashoffset:0;stroke-opacity:1"
         d="m -412.36291,-89.13388 c 0,0.50622 -0.41038,0.91659 -0.91661,0.91659 -0.50623,1e-5 -0.91661,-0.41037 -0.91661,-0.91659 0,-0.26295 0.11075,-0.50004 0.28808,-0.66719 0.1641,-0.15465 0.38525,-0.24944 0.62853,-0.24944 0.50623,0 0.91661,0.4104 0.91661,0.91663 z"
         id="path2232-0-7-5-1-9-97-5"
         inkscape:connector-curvature="0"
         sodipodi:nodetypes="ssssss" />
      <path
         style="opacity:1;fill:#1973de;fill-opacity:1;stroke:#000000;stroke-width:0.04178173;stroke-linecap:butt;stroke-linejoin:miter;stroke-miterlimit:4;stroke-dasharray:none;stroke-dashoffset:0;stroke-opacity:1"
         d="m -412.36291,-81.9243 c 0,0.50622 -0.41038,0.91659 -0.91661,0.91659 -0.50623,1e-5 -0.91661,-0.41037 -0.91661,-0.91659 0,-0.26295 0.11075,-0.50004 0.28808,-0.66719 0.1641,-0.15465 0.38525,-0.24944 0.62853,-0.24944 0.50623,0 0.91661,0.4104 0.91661,0.91663 z"
         id="path2232-0-7-5-1-9-76-9"
         inkscape:connector-curvature="0"
         sodipodi:nodetypes="ssssss" />
      <path
         style="opacity:1;fill:#1973de;fill-opacity:1;stroke:#000000;stroke-width:0.04178173;stroke-linecap:butt;stroke-linejoin:miter;stroke-miterlimit:4;stroke-dasharray:none;stroke-dashoffset:0;stroke-opacity:1"
         d="m -412.36291,-74.79409 c 0,0.506217 -0.41038,0.916587 -0.91661,0.916587 -0.50623,1e-5 -0.91661,-0.41037 -0.91661,-0.916587 0,-0.26295 0.11075,-0.50004 0.28808,-0.66719 0.1641,-0.15466 0.38525,-0.24944 0.62853,-0.24944 0.50623,0 0.91661,0.4104 0.91661,0.91663 z"
         id="path2232-0-7-5-1-9-73-8"
         inkscape:connector-curvature="0"
         sodipodi:nodetypes="ssssss" />
      <path
         style="opacity:1;fill:#1973de;fill-opacity:1;stroke:#000000;stroke-width:0.04178173;stroke-linecap:butt;stroke-linejoin:miter;stroke-miterlimit:4;stroke-dasharray:none;stroke-dashoffset:0;stroke-opacity:1"
         d="m -412.36291,-67.544833 c 0,0.50622 -0.41038,0.91659 -0.91661,0.91659 -0.50623,1e-5 -0.91661,-0.41037 -0.91661,-0.91659 0,-0.26295 0.11075,-0.50004 0.28808,-0.66719 0.1641,-0.15465 0.38525,-0.24944 0.62853,-0.24944 0.50623,0 0.91661,0.4104 0.91661,0.91663 z"
         id="path2232-0-7-5-1-9-6-4"
         inkscape:connector-curvature="0"
         sodipodi:nodetypes="ssssss" />
      <path
         style="opacity:1;fill:#1973de;fill-opacity:1;stroke:#000000;stroke-width:0.04178173;stroke-linecap:butt;stroke-linejoin:miter;stroke-miterlimit:4;stroke-dasharray:none;stroke-dashoffset:0;stroke-opacity:1"
         d="m -412.36291,-60.388163 c 0,0.50622 -0.41038,0.91659 -0.91661,0.91659 -0.50623,0 -0.91661,-0.41037 -0.91661,-0.91659 0,-0.26295 0.11075,-0.50004 0.28808,-0.6672 0.1641,-0.15465 0.38525,-0.24943 0.62853,-0.24943 0.50623,0 0.91661,0.4104 0.91661,0.91663 z"
         id="path2232-0-7-5-1-9-5-8"
         inkscape:connector-curvature="0"
         sodipodi:nodetypes="ssssss" />
      <path
         style="opacity:1;fill:#1973de;fill-opacity:1;stroke:#000000;stroke-width:0.04178173;stroke-linecap:butt;stroke-linejoin:miter;stroke-miterlimit:4;stroke-dasharray:none;stroke-dashoffset:0;stroke-opacity:1"
         d="m -412.36291,-53.085983 c 0,0.50622 -0.41038,0.91659 -0.91661,0.91659 -0.50623,10e-6 -0.91661,-0.41037 -0.91661,-0.91659 0,-0.26295 0.11075,-0.50004 0.28808,-0.66719 0.1641,-0.15465 0.38525,-0.24945 0.62853,-0.24945 0.50623,0 0.91661,0.4104 0.91661,0.91664 z"
         id="path2232-0-7-5-1-9-63-1"
         inkscape:connector-curvature="0"
         sodipodi:nodetypes="ssssss" />
      <path
         style="opacity:1;fill:#1973de;fill-opacity:1;stroke:#000000;stroke-width:0.04178173;stroke-linecap:butt;stroke-linejoin:miter;stroke-miterlimit:4;stroke-dasharray:none;stroke-dashoffset:0;stroke-opacity:1"
         d="m -412.36291,-45.955783 c 0,0.50622 -0.41038,0.91659 -0.91661,0.91659 -0.50623,2e-5 -0.91661,-0.41037 -0.91661,-0.91659 0,-0.26295 0.11075,-0.50004 0.28808,-0.66718 0.1641,-0.15465 0.38525,-0.24944 0.62853,-0.24944 0.50623,0 0.91661,0.4104 0.91661,0.91662 z"
         id="path2232-0-7-5-1-9-94-0"
         inkscape:connector-curvature="0"
         sodipodi:nodetypes="ssssss" />
      <path
         style="opacity:1;fill:#1973de;fill-opacity:1;stroke:#000000;stroke-width:0.04178173;stroke-linecap:butt;stroke-linejoin:miter;stroke-miterlimit:4;stroke-dasharray:none;stroke-dashoffset:0;stroke-opacity:1"
         d="m -412.36291,-38.746193 c 0,0.50622 -0.41038,0.91659 -0.91661,0.91659 -0.50623,10e-6 -0.91661,-0.41037 -0.91661,-0.91659 0,-0.26295 0.11075,-0.50004 0.28808,-0.66719 0.1641,-0.15465 0.38525,-0.24945 0.62853,-0.24945 0.50623,0 0.91661,0.4104 0.91661,0.91664 z"
         id="path2232-0-7-5-1-9-8-3"
         inkscape:connector-curvature="0"
         sodipodi:nodetypes="ssssss" />
      <path
         style="opacity:1;fill:#1973de;fill-opacity:1;stroke:#000000;stroke-width:0.04178173;stroke-linecap:butt;stroke-linejoin:miter;stroke-miterlimit:4;stroke-dasharray:none;stroke-dashoffset:0;stroke-opacity:1"
         d="m -412.36291,-31.483703 c 0,0.50622 -0.41038,0.91659 -0.91661,0.91659 -0.50623,10e-6 -0.91661,-0.41037 -0.91661,-0.91659 0,-0.26295 0.11075,-0.50004 0.28808,-0.66719 0.1641,-0.15465 0.38525,-0.24944 0.62853,-0.24944 0.50623,0 0.91661,0.4104 0.91661,0.91663 z"
         id="path2232-0-7-5-1-9-12-0"
         inkscape:connector-curvature="0"
         sodipodi:nodetypes="ssssss" />
      <path
         style="opacity:1;fill:#1973de;fill-opacity:1;stroke:#000000;stroke-width:0.04178173;stroke-linecap:butt;stroke-linejoin:miter;stroke-miterlimit:4;stroke-dasharray:none;stroke-dashoffset:0;stroke-opacity:1"
         d="m -412.36291,-24.353503 c 0,0.50622 -0.41038,0.91659 -0.91661,0.91659 -0.50623,2e-5 -0.91661,-0.41037 -0.91661,-0.91659 0,-0.26295 0.11075,-0.50004 0.28808,-0.66718 0.1641,-0.15465 0.38525,-0.24944 0.62853,-0.24944 0.50623,0 0.91661,0.4104 0.91661,0.91662 z"
         id="path2232-0-7-5-1-9-93-4"
         inkscape:connector-curvature="0"
         sodipodi:nodetypes="ssssss" />
      <path
         style="opacity:1;fill:#1973de;fill-opacity:1;stroke:#000000;stroke-width:0.04178173;stroke-linecap:butt;stroke-linejoin:miter;stroke-miterlimit:4;stroke-dasharray:none;stroke-dashoffset:0;stroke-opacity:1"
         d="m -412.36291,-17.143959 c 0,-0.50622 -0.41038,-0.91659 -0.91661,-0.91659 -0.50623,-8e-6 -0.91661,0.41037 -0.91661,0.91659 0,0.26295 0.11075,0.50004 0.28808,0.667192 0.1641,0.15465 0.38525,0.249443 0.62853,0.249443 0.50623,0 0.91661,-0.4104 0.91661,-0.916635 z"
         id="path2232-0-7-5-1-9-90-4"
         inkscape:connector-curvature="0"
         sodipodi:nodetypes="ssssss" />
      <path
         style="opacity:1;fill:#1973de;fill-opacity:1;stroke:#000000;stroke-width:0.04178173;stroke-linecap:butt;stroke-linejoin:miter;stroke-miterlimit:4;stroke-dasharray:none;stroke-dashoffset:0;stroke-opacity:1"
         d="m -412.36291,-9.921106 c 0,0.50622 -0.41038,0.91659 -0.91661,0.91659 -0.50623,7e-6 -0.91661,-0.41037 -0.91661,-0.91659 0,-0.26295 0.11075,-0.50004 0.28808,-0.667193 0.1641,-0.15465 0.38525,-0.249443 0.62853,-0.249443 0.50623,0 0.91661,0.410401 0.91661,0.916636 z"
         id="path2232-0-7-5-1-9-88-4"
         inkscape:connector-curvature="0"
         sodipodi:nodetypes="ssssss" />
      <path
         style="opacity:1;fill:#1973de;fill-opacity:1;stroke:#000000;stroke-width:0.04178173;stroke-linecap:butt;stroke-linejoin:miter;stroke-miterlimit:4;stroke-dasharray:none;stroke-dashoffset:0;stroke-opacity:1"
         d="m -412.36291,-2.711529 c 0,0.50622 -0.41038,0.91659 -0.91661,0.91659 -0.50623,8e-6 -0.91661,-0.41037 -0.91661,-0.91659 0,-0.26295 0.11075,-0.50004 0.28808,-0.667192 0.1641,-0.15465 0.38525,-0.249435 0.62853,-0.249435 0.50623,0 0.91661,0.4104 0.91661,0.916627 z"
         id="path2232-0-7-5-1-9-50-4"
         inkscape:connector-curvature="0"
         sodipodi:nodetypes="ssssss" />
    </g>
  </g>
  <path
     sodipodi:nodetypes="cccccccc"
     inkscape:connector-curvature="0"
     id="rect5551"
     d="m 266.81805,16.602997 h 205.51249 v 0 l 31.39375,21.126655 V 101.91196 246.05467 H 266.81805 Z"
     style="opacity:1;vector-effect:none;fill:none;fill-opacity:1;stroke:#c50b87;stroke-width:0.0781931;stroke-linecap:butt;stroke-linejoin:miter;stroke-miterlimit:8.5;stroke-dasharray:none;stroke-dashoffset:0;stroke-opacity:1" />
  <g
     transform="translate(259.05172,11.323831)"
     id="surface6544-3">
    <path
       style="fill:none;fill-opacity:1;fill-rule:evenodd;stroke:#7373de;stroke-width:0.1;stroke-miterlimit:10;stroke-dasharray:none;stroke-opacity:1"
       d="m 563.16406,172.33789 a 3.3603359,3.3603359 0 0 0 -0.33398,0.0312 3.3603359,3.3603359 0 0 0 -0.9375,0.1875 3.3603359,3.3603359 0 0 0 -0.5625,0.375 3.3603359,3.3603359 0 0 0 -0.5625,0.375 3.3603359,3.3603359 0 0 0 -0.375,0.5625 3.3603359,3.3603359 0 0 0 -0.375,0.9375 3.3603359,3.3603359 0 0 0 -0.1875,0.9375 v 24.01758 a 3.3603359,3.3603359 0 0 0 0,0.35742 3.3603359,3.3603359 0 0 0 0.1875,1.3125 3.3603359,3.3603359 0 0 0 0.375,0.5625 3.3603359,3.3603359 0 0 0 0.375,0.5625 3.3603359,3.3603359 0 0 0 0.5625,0.375 3.3603359,3.3603359 0 0 0 0.5625,0.375 3.3603359,3.3603359 0 0 0 0.5625,0.1875 3.3603359,3.3603359 0 0 0 1.125,0 h 17.73047 c 2.05611,0.6095 4.66406,-0.50899 4.66406,-3.37891 0,-2.89294 -2.64458,-4.00972 -4.70703,-3.37109 h -14.6875 v -21 a 3.3603359,3.3603359 0 0 0 -0.1875,-0.9375 3.3603359,3.3603359 0 0 0 -0.375,-0.9375 3.3603359,3.3603359 0 0 0 -0.375,-0.5625 3.3603359,3.3603359 0 0 0 -0.5625,-0.375 3.3603359,3.3603359 0 0 0 -0.5625,-0.375 3.3603359,3.3603359 0 0 0 -1.35352,-0.21875 z"
       transform="matrix(0.75000002,0,0,0.75000002,-262.39436,-7.0004303)"
       id="path2-6"
       inkscape:connector-curvature="0" />
    <path
       style="fill:none;fill-opacity:1;fill-rule:evenodd;stroke:#7373de;stroke-width:0.1;stroke-miterlimit:10;stroke-dasharray:none;stroke-opacity:1"
       d="m 424.00586,42.591797 c -1.77604,0 -3.55274,1.184896 -3.55274,3.554687 0,0.522058 0.0982,0.975889 0.25196,1.382813 v 7.277344 a 3.3603359,3.3603359 0 0 0 -0.0234,1.158203 3.3603359,3.3603359 0 0 0 0.0234,0.716797 3.3603359,3.3603359 0 0 0 0.375,0.9375 3.3603359,3.3603359 0 0 0 0.5625,0.5625 3.3603359,3.3603359 0 0 0 0.1875,0.1875 3.3603359,3.3603359 0 0 0 0.004,0.0039 l 22.8711,22.871094 v 79.124995 a 3.3603359,3.3603359 0 0 0 -0.1875,1.3125 3.3603359,3.3603359 0 0 0 0.375,1.3125 3.3603359,3.3603359 0 0 0 0.75,0.75 3.3603359,3.3603359 0 0 0 0.1875,0.1875 3.3603359,3.3603359 0 0 0 0.0117,0.01 3.3603359,3.3603359 0 0 0 0.79882,0.49414 3.3603359,3.3603359 0 0 0 0.11915,0.0547 3.3603359,3.3603359 0 0 0 0.008,0.004 3.3603359,3.3603359 0 0 0 0.041,0.0156 3.3603359,3.3603359 0 0 0 0.52149,0.17187 3.3603359,3.3603359 0 0 0 0.48633,0.0176 3.3603359,3.3603359 0 0 0 1.20117,-0.0176 h 10.125 a 3.3603359,3.3603359 0 0 0 0.375,0 3.3603359,3.3603359 0 0 0 1.3125,0 3.3603359,3.3603359 0 0 0 0.0742,-0.0742 3.3603359,3.3603359 0 0 0 0.67578,-0.30078 3.3603359,3.3603359 0 0 0 0.006,-0.002 l 0.55664,-0.18555 a 3.3603359,3.3603359 0 0 0 0.375,0 3.3603359,3.3603359 0 0 0 0.5625,-0.375 3.3603359,3.3603359 0 0 0 0.1875,-0.1875 3.3603359,3.3603359 0 0 0 0.5625,-0.5625 3.3603359,3.3603359 0 0 0 0.375,-0.5625 3.3603359,3.3603359 0 0 0 0.1875,-0.9375 3.3603359,3.3603359 0 0 0 0,-1.3125 3.3603359,3.3603359 0 0 0 -0.375,-0.9375 3.3603359,3.3603359 0 0 0 -0.375,-0.5625 3.3603359,3.3603359 0 0 0 -0.1875,-0.1875 3.3603359,3.3603359 0 0 0 -0.5625,-0.375 3.3603359,3.3603359 0 0 0 -0.9375,-0.375 3.3603359,3.3603359 0 0 0 -1.6875,0 3.3603359,3.3603359 0 0 0 -0.1875,0 l -0.5625,0.1875 h -8.0625 V 79.744141 a 3.3603359,3.3603359 0 0 0 0,-0.0098 3.3603359,3.3603359 0 0 0 0,-0.365234 3.3603359,3.3603359 0 0 0 -0.1875,-0.5625 3.3603359,3.3603359 0 0 0 -0.375,-0.9375 3.3603359,3.3603359 0 0 0 -0.75,-0.75 3.3603359,3.3603359 0 0 0 -0.004,-0.002 L 427.45508,54.431641 v -7.384766 c 0.062,-0.279643 0.10156,-0.576405 0.10156,-0.900391 0,-2.369791 -1.77474,-3.554687 -3.55078,-3.554687 z"
       transform="matrix(0.75000002,0,0,0.75000002,-262.39436,-7.0004303)"
       id="path6-7"
       inkscape:connector-curvature="0" />
    <path
       style="fill:none;fill-opacity:1;fill-rule:evenodd;stroke:#7373de;stroke-width:0.1;stroke-miterlimit:10;stroke-dasharray:none;stroke-opacity:1"
       d="m 404.80664,42.591797 c -0.43387,0 -0.86741,0.07342 -1.27539,0.214844 h -24.82617 a 3.3603359,3.3603359 0 0 0 -1.3125,0 3.3603359,3.3603359 0 0 0 -0.5625,0.375 3.3603359,3.3603359 0 0 0 -0.5625,0.375 3.3603359,3.3603359 0 0 0 -0.1875,0.1875 3.3603359,3.3603359 0 0 0 -0.5625,0.5625 3.3603359,3.3603359 0 0 0 -0.375,0.9375 3.3603359,3.3603359 0 0 0 -0.1875,0.9375 v 86.062499 a 3.3603359,3.3603359 0 0 0 0,0.34766 v 0.0273 a 3.3603359,3.3603359 0 0 0 0.004,0.0117 3.3603359,3.3603359 0 0 0 0.1836,0.92578 3.3603359,3.3603359 0 0 0 0.1875,0.5625 3.3603359,3.3603359 0 0 0 0.375,0.5625 3.3603359,3.3603359 0 0 0 0.004,0.004 3.3603359,3.3603359 0 0 0 1.1211,0.74609 3.3603359,3.3603359 0 0 0 0.006,0.004 3.3603359,3.3603359 0 0 0 0.0215,0.01 3.3603359,3.3603359 0 0 0 0.91016,0.36133 3.3603359,3.3603359 0 0 0 0.1875,0.1875 3.3603359,3.3603359 0 0 0 0.35351,-0.0215 3.3603359,3.3603359 0 0 0 0.0215,0.0215 h 14.25 a 3.3603359,3.3603359 0 0 0 0.375,0 3.3603359,3.3603359 0 0 0 0.9375,-0.1875 l 1.125,-0.375 a 3.3603359,3.3603359 0 0 0 0.5625,-0.375 3.3603359,3.3603359 0 0 0 0.5625,-0.375 3.3603359,3.3603359 0 0 0 0.1875,-0.1875 3.3603359,3.3603359 0 0 0 0.375,-0.5625 3.3603359,3.3603359 0 0 0 0.375,-0.5625 3.3603359,3.3603359 0 0 0 0.1875,-1.3125 3.3603359,3.3603359 0 0 0 -0.1875,-1.3125 3.3603359,3.3603359 0 0 0 -0.375,-0.5625 3.3603359,3.3603359 0 0 0 -0.1875,-0.1875 3.3603359,3.3603359 0 0 0 -0.5625,-0.5625 3.3603359,3.3603359 0 0 0 -0.5625,-0.375 3.3603359,3.3603359 0 0 0 -1.3125,-0.1875 3.3603359,3.3603359 0 0 0 -1.3125,0.1875 l -0.5625,0.1875 h -10.5 V 49.556641 h 19.6875 v 15.75 a 3.3603359,3.3603359 0 0 0 0.1875,1.3125 3.3603359,3.3603359 0 0 0 0.375,0.5625 3.3603359,3.3603359 0 0 0 0.375,0.5625 3.3603359,3.3603359 0 0 0 0.5625,0.375 3.3603359,3.3603359 0 0 0 0.9375,0.375 3.3603359,3.3603359 0 0 0 0.1875,0.1875 3.3603359,3.3603359 0 0 0 1.5,0 3.3603359,3.3603359 0 0 0 0.9375,-0.375 3.3603359,3.3603359 0 0 0 0.5625,-0.375 3.3603359,3.3603359 0 0 0 0.1875,-0.1875 3.3603359,3.3603359 0 0 0 0.375,-0.5625 3.3603359,3.3603359 0 0 0 0.375,-0.5625 3.3603359,3.3603359 0 0 0 0.1875,-1.3125 V 47.417969 c 0.12934,-0.380462 0.2168,-0.795188 0.2168,-1.271485 0,-2.369791 -1.7767,-3.554687 -3.55274,-3.554687 z"
       transform="matrix(0.75000002,0,0,0.75000002,-262.39436,-7.0004303)"
       id="path10-3"
       inkscape:connector-curvature="0" />
    <path
       style="fill:none;fill-opacity:1;fill-rule:evenodd;stroke:#7373de;stroke-width:0.1;stroke-miterlimit:10;stroke-dasharray:none;stroke-opacity:1"
       d="m 486.39258,38.015625 a 3.3603359,3.3603359 0 0 0 -1,0.103516 3.3603359,3.3603359 0 0 0 -0.5625,0.1875 3.3603359,3.3603359 0 0 0 -0.5625,0.375 3.3603359,3.3603359 0 0 0 -0.1875,0.1875 3.3603359,3.3603359 0 0 0 -0.5625,0.5625 3.3603359,3.3603359 0 0 0 -0.375,0.9375 3.3603359,3.3603359 0 0 0 0,1.6875 3.3603359,3.3603359 0 0 0 0.1875,0.9375 3.3603359,3.3603359 0 0 0 0.5625,0.5625 3.3603359,3.3603359 0 0 0 0.1875,0.1875 l 4.3125,4.3125 a 3.3603359,3.3603359 0 0 0 0.1875,0.1875 3.3603359,3.3603359 0 0 0 0.75,0.75 3.3603359,3.3603359 0 0 0 0.9375,0.375 3.3603359,3.3603359 0 0 0 0.041,0.01563 3.3603359,3.3603359 0 0 0 0.52149,0.171875 3.3603359,3.3603359 0 0 0 0.375,0 3.3603359,3.3603359 0 0 0 0.36914,0 h 58.69336 l -8.625,8.625 a 3.3603359,3.3603359 0 0 0 -0.1875,0.1875 3.3603359,3.3603359 0 0 0 -0.375,0.5625 3.3603359,3.3603359 0 0 0 -0.375,0.9375 3.3603359,3.3603359 0 0 0 0,1.6875 3.3603359,3.3603359 0 0 0 0.1875,0.5625 3.3603359,3.3603359 0 0 0 0.75,0.75 3.3603359,3.3603359 0 0 0 0.75,0.5625 3.3603359,3.3603359 0 0 0 1.3125,0.5625 3.3603359,3.3603359 0 0 0 1.3125,-0.1875 3.3603359,3.3603359 0 0 0 1.125,-0.75 3.3603359,3.3603359 0 0 0 0.1875,-0.1875 l 8.88476,-8.884766 a 3.3603359,3.3603359 0 0 0 0.30274,-0.115234 3.3603359,3.3603359 0 0 0 0.75,-0.75 3.3603359,3.3603359 0 0 0 0.375,-0.9375 3.3603359,3.3603359 0 0 0 0.375,-1.3125 v -3.703125 c 0.0812,-0.314157 0.13867,-0.646633 0.13867,-1.019532 0,-2.948716 -2.75009,-4.060196 -4.82813,-3.339843 h -59.66015 l -3.90039,-3.75 a 3.3603359,3.3603359 0 0 0 -0.1875,-0.1875 3.3603359,3.3603359 0 0 0 -0.5625,-0.375 3.3603359,3.3603359 0 0 0 -0.9375,-0.375 3.3603359,3.3603359 0 0 0 -0.6875,-0.103516 z"
       transform="matrix(0.75000002,0,0,0.75000002,-262.39436,-7.0004303)"
       id="path12-5"
       inkscape:connector-curvature="0" />
    <path
       style="fill:none;fill-opacity:1;fill-rule:evenodd;stroke:#7373de;stroke-width:0.1;stroke-miterlimit:10;stroke-dasharray:none;stroke-opacity:1"
       d="m 414.37891,23.492188 a 3.3603359,3.3603359 0 0 0 -0.0215,0.002 h -0.0273 a 3.3603359,3.3603359 0 0 0 -0.0117,0.0039 3.3603359,3.3603359 0 0 0 -0.92578,0.183594 3.3603359,3.3603359 0 0 0 -0.5625,0.1875 3.3603359,3.3603359 0 0 0 -0.0586,0.03516 3.3603359,3.3603359 0 0 0 -0.23046,0.136719 3.3603359,3.3603359 0 0 0 -0.004,0.0039 3.3603359,3.3603359 0 0 0 -0.26953,0.199219 3.3603359,3.3603359 0 0 0 -0.74805,1.121093 3.3603359,3.3603359 0 0 0 -0.002,0.0039 3.3603359,3.3603359 0 0 0 -0.0137,0.02734 3.3603359,3.3603359 0 0 0 -0.36133,0.910157 3.3603359,3.3603359 0 0 0 -0.0527,0.427734 3.3603359,3.3603359 0 0 0 -0.13476,0.134766 v 19.3125 22.6875 l -8.0586,8.058593 a 3.3603359,3.3603359 0 0 0 -0.004,0.0039 3.3603359,3.3603359 0 0 0 -0.1875,0.1875 3.3603359,3.3603359 0 0 0 -0.75,0.75 3.3603359,3.3603359 0 0 0 -0.375,0.9375 3.3603359,3.3603359 0 0 0 -0.1875,0.9375 3.3603359,3.3603359 0 0 0 0,0.347656 V 292.36914 h -5.90625 l -0.65625,-0.1875 a 3.3603359,3.3603359 0 0 0 -0.9375,-0.1875 3.3603359,3.3603359 0 0 0 -0.32617,-0.002 3.3603359,3.3603359 0 0 0 -0.98633,0.18945 3.3603359,3.3603359 0 0 0 -0.5625,0.375 3.3603359,3.3603359 0 0 0 -0.5625,0.375 3.3603359,3.3603359 0 0 0 -0.375,0.5625 3.3603359,3.3603359 0 0 0 -0.375,0.9375 3.3603359,3.3603359 0 0 0 -0.1875,1.3125 3.3603359,3.3603359 0 0 0 0.1875,0.9375 3.3603359,3.3603359 0 0 0 0.375,0.5625 3.3603359,3.3603359 0 0 0 0.75,0.75 3.3603359,3.3603359 0 0 0 0.5625,0.375 3.3603359,3.3603359 0 0 0 0.5625,0.1875 l 0.98828,0.2832 h 0.002 a 3.3603359,3.3603359 0 0 0 0.32227,0.0918 3.3603359,3.3603359 0 0 0 0.1875,0.1875 3.3603359,3.3603359 0 0 0 0.19531,0.0117 3.3603359,3.3603359 0 0 0 0.18164,0.008 3.3603359,3.3603359 0 0 0 0.17774,-0.008 3.3603359,3.3603359 0 0 0 0.19531,-0.0117 3.3603359,3.3603359 0 0 0 0.35742,0 h 8.45508 a 3.3603359,3.3603359 0 0 0 1.5,0 3.3603359,3.3603359 0 0 0 0.55859,-0.18555 3.3603359,3.3603359 0 0 0 0.0137,-0.006 3.3603359,3.3603359 0 0 0 0.36524,-0.18359 3.3603359,3.3603359 0 0 0 0.5625,-0.375 3.3603359,3.3603359 0 0 0 0.1875,-0.1875 3.3603359,3.3603359 0 0 0 0.10547,-0.14062 3.3603359,3.3603359 0 0 0 0.0957,-0.12891 3.3603359,3.3603359 0 0 0 0.002,-0.004 3.3603359,3.3603359 0 0 0 0.16992,-0.28515 3.3603359,3.3603359 0 0 0 0.002,-0.004 3.3603359,3.3603359 0 0 0 0.375,-0.5625 3.3603359,3.3603359 0 0 0 0.1875,-1.6875 V 81.226562 l 7.91015,-8.066406 a 3.3603359,3.3603359 0 0 0 0.52735,-0.353515 3.3603359,3.3603359 0 0 0 0.35742,-0.533203 3.3603359,3.3603359 0 0 0 0.20508,-0.216797 3.3603359,3.3603359 0 0 0 0.5625,-0.9375 3.3603359,3.3603359 0 0 0 0,-1.3125 v -23.0625 a 3.3603359,3.3603359 0 0 0 0,-0.5625 3.3603359,3.3603359 0 0 0 0,-0.357422 V 30.244141 h 142.125 v 14.767578 c -0.10155,0.345468 -0.17383,0.714913 -0.17383,1.134765 0,1.691625 0.91121,2.767234 2.07617,3.25 l 61.84766,61.847656 a 3.3603359,3.3603359 0 0 0 0.375,0.5625 3.3603359,3.3603359 0 0 0 0.5625,0.375 3.3603359,3.3603359 0 0 0 0.14062,0.10547 3.3603359,3.3603359 0 0 0 0.12891,0.0957 3.3603359,3.3603359 0 0 0 0.004,0.002 3.3603359,3.3603359 0 0 0 0.28906,0.17187 3.3603359,3.3603359 0 0 0 0.13086,0.0684 3.3603359,3.3603359 0 0 0 0.16601,0.0879 3.3603359,3.3603359 0 0 0 0.006,0.002 3.3603359,3.3603359 0 0 0 0.30664,0.12305 3.3603359,3.3603359 0 0 0 0.006,0.002 3.3603359,3.3603359 0 0 0 0.32227,0.0918 3.3603359,3.3603359 0 0 0 0.2207,0.0332 l 8.0293,8.0293 v 43.17969 a 3.3603359,3.3603359 0 0 0 -0.1875,-0.0547 3.3603359,3.3603359 0 0 0 -1.3125,-0.1875 h -9.1875 a 3.3603359,3.3603359 0 0 0 -1.6875,0 3.3603359,3.3603359 0 0 0 -0.5625,0.1875 3.3603359,3.3603359 0 0 0 -0.5625,0.375 3.3603359,3.3603359 0 0 0 -0.375,0.5625 3.3603359,3.3603359 0 0 0 -0.375,0.5625 3.3603359,3.3603359 0 0 0 -0.002,0.006 3.3603359,3.3603359 0 0 0 -0.0137,0.0273 3.3603359,3.3603359 0 0 0 -0.35937,0.9043 3.3603359,3.3603359 0 0 0 0,1.3125 v 23.25 a 3.3603359,3.3603359 0 0 0 0,0.375 3.3603359,3.3603359 0 0 0 0.1875,1.3125 3.3603359,3.3603359 0 0 0 0.375,0.5625 3.3603359,3.3603359 0 0 0 0.5625,0.375 3.3603359,3.3603359 0 0 0 0.5625,0.375 3.3603359,3.3603359 0 0 0 0.9375,0.375 3.3603359,3.3603359 0 0 0 0.5625,0.1875 3.3603359,3.3603359 0 0 0 0.75,-0.1875 3.3603359,3.3603359 0 0 0 0.9375,-0.1875 3.3603359,3.3603359 0 0 0 0.75,-0.75 3.3603359,3.3603359 0 0 0 0.1875,-0.1875 3.3603359,3.3603359 0 0 0 0.5625,-0.9375 3.3603359,3.3603359 0 0 0 0.1875,-1.3125 v -20.625 h 6.5625 a 3.3603359,3.3603359 0 0 0 1.3125,-0.1875 3.3603359,3.3603359 0 0 0 0.5625,-0.1875 3.3603359,3.3603359 0 0 0 0.5625,-0.5625 3.3603359,3.3603359 0 0 0 0.004,0.004 3.3603359,3.3603359 0 0 0 0.1836,0.18359 3.3603359,3.3603359 0 0 0 0.9375,0.5625 3.3603359,3.3603359 0 0 0 0.1875,0.1875 3.3603359,3.3603359 0 0 0 0.36914,0.0391 3.3603359,3.3603359 0 0 0 0.75586,0.14844 3.3603359,3.3603359 0 0 0 0.875,-0.1875 h 14.875 v 101.4375 a 3.3603359,3.3603359 0 0 0 0.1875,1.3125 H 497.42773 l -3.78515,-3.9375 a 3.3603359,3.3603359 0 0 0 -0.5625,-0.375 3.3603359,3.3603359 0 0 0 -0.5625,-0.1875 3.3603359,3.3603359 0 0 0 -1.3125,-0.375 3.3603359,3.3603359 0 0 0 -1.3125,0.1875 3.3603359,3.3603359 0 0 0 -0.5625,0.375 3.3603359,3.3603359 0 0 0 -0.5625,0.375 3.3603359,3.3603359 0 0 0 -0.375,0.5625 3.3603359,3.3603359 0 0 0 -0.375,0.9375 3.3603359,3.3603359 0 0 0 -0.1875,1.3125 3.3603359,3.3603359 0 0 0 0.1875,0.9375 3.3603359,3.3603359 0 0 0 0.375,0.5625 3.3603359,3.3603359 0 0 0 0.375,0.5625 l 4.22265,4.06055 a 3.3603359,3.3603359 0 0 0 0.65235,0.62695 3.3603359,3.3603359 0 0 0 0.0117,0.0117 3.3603359,3.3603359 0 0 0 0.17578,0.17578 3.3603359,3.3603359 0 0 0 0.30859,0.22461 3.3603359,3.3603359 0 0 0 0.48633,0.27148 3.3603359,3.3603359 0 0 0 0.13672,0.0645 3.3603359,3.3603359 0 0 0 0.006,0.002 3.3603359,3.3603359 0 0 0 0.625,0.25 3.3603359,3.3603359 0 0 0 0.125,0.125 3.3603359,3.3603359 0 0 0 0.65234,0 H 660.1427 l 0.375,0.375 v 8.25 a 3.3603359,3.3603359 0 0 0 0,0.9375 3.3603359,3.3603359 0 0 0 0.5625,0.9375 3.3603359,3.3603359 0 0 0 0.1875,0.1875 3.3603359,3.3603359 0 0 0 0.375,0.5625 3.3603359,3.3603359 0 0 0 0.9375,0.5625 3.3603359,3.3603359 0 0 0 0.5625,0.1875 3.3603359,3.3603359 0 0 0 0.75,0 3.3603359,3.3603359 0 0 0 1.3125,-0.1875 3.3603359,3.3603359 0 0 0 0.5625,-0.375 3.3603359,3.3603359 0 0 0 0.1875,-0.1875 3.3603359,3.3603359 0 0 0 0.5625,-0.5625 3.3603359,3.3603359 0 0 0 0.1875,-0.1875 3.3603359,3.3603359 0 0 0 0.375,-1.3125 3.3603359,3.3603359 0 0 0 0.1875,-0.5625 v -9 a 3.3603359,3.3603359 0 0 0 0,-1.3125 3.3603359,3.3603359 0 0 0 -0.1875,-0.5625 3.3603359,3.3603359 0 0 0 -0.002,-0.006 3.3603359,3.3603359 0 0 0 -0.18554,-0.36914 3.3603359,3.3603359 0 0 0 -0.26563,-0.32031 3.3603359,3.3603359 0 0 0 -0.29687,-0.42969 3.3603359,3.3603359 0 0 0 -0.5625,-0.375 l -1.31446,-1.31641 a 3.3603359,3.3603359 0 0 0 -0.37304,-0.55859 3.3603359,3.3603359 0 0 0 -0.5625,-0.375 3.3603359,3.3603359 0 0 0 -0.004,-0.002 3.3603359,3.3603359 0 0 0 -0.18359,-0.18555 3.3603359,3.3603359 0 0 0 -0.9375,-0.5625 3.3603359,3.3603359 0 0 0 -1.6875,0 h -0.86133 a 3.3603359,3.3603359 0 0 0 0.11133,-0.375 3.3603359,3.3603359 0 0 0 0.1875,-0.9375 v -104.4375 a 3.3603359,3.3603359 0 0 0 0,-1.3125 3.3603359,3.3603359 0 0 0 -0.37305,-0.55859 3.3603359,3.3603359 0 0 0 -0.002,-0.004 3.3603359,3.3603359 0 0 0 -0.26953,-0.42187 3.3603359,3.3603359 0 0 0 -0.10157,-0.13672 3.3603359,3.3603359 0 0 0 -0.004,-0.004 3.3603359,3.3603359 0 0 0 -0.1875,-0.1875 3.3603359,3.3603359 0 0 0 -0.5625,-0.5625 3.3603359,3.3603359 0 0 0 -0.5625,-0.1875 3.3603359,3.3603359 0 0 0 -1.3125,-0.375 3.3603359,3.3603359 0 0 0 -0.875,0.1875 h -14.875 v -44.4375 a 3.3603359,3.3603359 0 0 0 0,-0.0215 3.3603359,3.3603359 0 0 0 0.002,-0.10157 3.3603359,3.3603359 0 0 0 -0.002,-0.25195 3.3603359,3.3603359 0 0 0 -0.002,-0.0117 3.3603359,3.3603359 0 0 0 -0.18554,-0.92578 3.3603359,3.3603359 0 0 0 -0.375,-0.5625 3.3603359,3.3603359 0 0 0 -0.002,-0.004 3.3603359,3.3603359 0 0 0 -0.37304,-0.55859 3.3603359,3.3603359 0 0 0 -0.5625,-0.375 3.3603359,3.3603359 0 0 0 -0.004,-0.002 l -8.99609,-8.99805 -0.1875,-0.1875 a 3.3603359,3.3603359 0 0 0 -0.75,-0.75 3.3603359,3.3603359 0 0 0 -0.9375,-0.375 3.3603359,3.3603359 0 0 0 -0.72656,-0.16602 L 566.58008,44.683594 V 27.244141 a 3.3603359,3.3603359 0 0 0 0,-0.375 3.3603359,3.3603359 0 0 0 0,-0.5625 3.3603359,3.3603359 0 0 0 -0.375,-0.9375 3.3603359,3.3603359 0 0 0 -0.002,-0.0039 3.3603359,3.3603359 0 0 1 0,-0.002 3.3603359,3.3603359 0 0 0 -0.18554,-0.36914 3.3603359,3.3603359 0 0 0 -0.1875,-0.1875 3.3603359,3.3603359 0 0 0 -0.1875,-0.1875 3.3603359,3.3603359 0 0 0 -0.5625,-0.5625 3.3603359,3.3603359 0 0 0 -0.9375,-0.375 3.3603359,3.3603359 0 0 0 -0.9375,-0.1875 h -148.5 a 3.3603359,3.3603359 0 0 0 -0.32617,-0.002 z"
       transform="matrix(0.75000002,0,0,0.75000002,-262.39436,-7.0004303)"
       id="path14-6"
       inkscape:connector-curvature="0" />
    <path
       style="fill:none;fill-opacity:1;fill-rule:evenodd;stroke:#7373de;stroke-width:0.1;stroke-miterlimit:10;stroke-dasharray:none;stroke-opacity:1"
       d="m 491.20508,248.99219 c -0.46893,0 -0.93491,0.0867 -1.3711,0.25195 h -3.1289 a 3.3603359,3.3603359 0 0 0 -0.64453,-0.0644 3.3603359,3.3603359 0 0 0 -0.66797,0.0644 3.3603359,3.3603359 0 0 0 -0.17188,0.0781 3.3603359,3.3603359 0 0 0 -0.39062,0.10937 3.3603359,3.3603359 0 0 0 -0.75,0.75 3.3603359,3.3603359 0 0 0 -0.1875,0.1875 3.3603359,3.3603359 0 0 0 -0.002,0.004 l -13.12304,13.12109 h -8.0625 l -0.5625,-0.1875 a 3.3603359,3.3603359 0 0 0 -0.375,0 3.3603359,3.3603359 0 0 0 -0.6875,-0.10352 3.3603359,3.3603359 0 0 0 -1,0.10352 3.3603359,3.3603359 0 0 0 -0.5625,0.1875 3.3603359,3.3603359 0 0 0 -0.5625,0.375 3.3603359,3.3603359 0 0 0 -0.75,1.125 3.3603359,3.3603359 0 0 0 -0.5625,1.3125 3.3603359,3.3603359 0 0 0 0.1875,1.3125 3.3603359,3.3603359 0 0 0 0.375,0.5625 3.3603359,3.3603359 0 0 0 0.375,0.5625 3.3603359,3.3603359 0 0 0 0.1875,0.1875 3.3603359,3.3603359 0 0 0 0.5625,0.375 3.3603359,3.3603359 0 0 0 0.9375,0.5625 l 1.125,0.375 a 3.3603359,3.3603359 0 0 0 0.48828,0.0176 3.3603359,3.3603359 0 0 0 1.19922,-0.0176 h 7.875 a 3.3603359,3.3603359 0 0 0 0.75,0 3.3603359,3.3603359 0 0 0 1.3125,0 3.3603359,3.3603359 0 0 0 0.9375,-0.5625 3.3603359,3.3603359 0 0 0 0.1875,-0.1875 3.3603359,3.3603359 0 0 0 0.1875,-0.1875 3.3603359,3.3603359 0 0 0 0.1875,-0.1875 3.3603359,3.3603359 0 0 0 0.004,-0.004 l 13.1211,-13.12109 h 2.71875 c 2.00646,0.44119 4.39453,-0.70119 4.39453,-3.45117 0,-2.36719 -1.77604,-3.55078 -3.55078,-3.55078 z"
       transform="matrix(0.75000002,0,0,0.75000002,-262.39436,-7.0004303)"
       id="path20-1"
       inkscape:connector-curvature="0" />
    <path
       style="fill:none;fill-opacity:1;fill-rule:evenodd;stroke:#7373de;stroke-width:0.1;stroke-miterlimit:10;stroke-dasharray:none;stroke-opacity:1"
       d="m 481.22656,220.33789 a 3.3603359,3.3603359 0 0 0 -0.33398,0.0312 3.3603359,3.3603359 0 0 0 -0.53906,0.17969 3.3603359,3.3603359 0 0 0 -0.0234,0.008 3.3603359,3.3603359 0 0 0 -0.0156,0.008 3.3603359,3.3603359 0 0 0 -0.35937,0.17969 3.3603359,3.3603359 0 0 0 -0.5625,0.375 3.3603359,3.3603359 0 0 0 -0.1875,0.1875 3.3603359,3.3603359 0 0 0 -0.002,0.004 l -13.49804,13.49609 h -3 l -0.5625,-0.1875 a 3.3603359,3.3603359 0 0 0 -0.375,-0.1875 3.3603359,3.3603359 0 0 0 -1.3125,0 3.3603359,3.3603359 0 0 0 -0.9375,0.375 3.3603359,3.3603359 0 0 0 -0.5625,0.375 3.3603359,3.3603359 0 0 0 -0.1875,0.1875 3.3603359,3.3603359 0 0 0 -0.375,0.5625 3.3603359,3.3603359 0 0 0 -0.375,0.5625 3.3603359,3.3603359 0 0 0 -0.375,1.3125 3.3603359,3.3603359 0 0 0 0.375,1.3125 3.3603359,3.3603359 0 0 0 0.75,1.125 3.3603359,3.3603359 0 0 0 0.5625,0.375 3.3603359,3.3603359 0 0 0 0.5625,0.1875 3.3603359,3.3603359 0 0 0 0.1875,0.1875 l 0.90234,0.25781 a 3.3603359,3.3603359 0 0 0 0.94531,0.27735 3.3603359,3.3603359 0 0 0 0.0274,0.0273 3.3603359,3.3603359 0 0 0 1.125,0 h 3.375 a 3.3603359,3.3603359 0 0 0 1.125,0 3.3603359,3.3603359 0 0 0 0.5625,-0.1875 3.3603359,3.3603359 0 0 0 0.9375,-0.375 3.3603359,3.3603359 0 0 0 0.5625,-0.375 3.3603359,3.3603359 0 0 0 0.375,-0.5625 3.3603359,3.3603359 0 0 0 0.004,-0.004 l 12.9336,-12.93359 h 4.875 v 5.0918 c -0.10155,0.34509 -0.17383,0.71342 -0.17383,1.13281 0,4.73437 7.09961,4.73437 7.09961,0 0,-0.42098 -0.0735,-0.7906 -0.17578,-1.13672 v -7.88672 a 3.3603359,3.3603359 0 0 0 0,-0.95117 3.3603359,3.3603359 0 0 0 -0.1875,-0.9375 3.3603359,3.3603359 0 0 0 -0.375,-0.5625 3.3603359,3.3603359 0 0 0 -0.002,-0.004 3.3603359,3.3603359 0 0 0 -0.37304,-0.55859 3.3603359,3.3603359 0 0 0 -0.004,-0.002 3.3603359,3.3603359 0 0 0 -0.55859,-0.37305 3.3603359,3.3603359 0 0 0 -0.5625,-0.375 3.3603359,3.3603359 0 0 0 -1.6875,-0.1875 h -8.99024 a 3.3603359,3.3603359 0 0 0 -0.61328,-0.0312 z"
       transform="matrix(0.75000002,0,0,0.75000002,-262.39436,-7.0004303)"
       id="path24-7"
       inkscape:connector-curvature="0" />
    <path
       style="fill:none;fill-opacity:1;fill-rule:evenodd;stroke:#7373de;stroke-width:0.1;stroke-miterlimit:10;stroke-dasharray:none;stroke-opacity:1"
       d="m 368.76758,33.056641 a 3.3603359,3.3603359 0 0 0 -1.3125,0.375 3.3603359,3.3603359 0 0 0 -0.5625,0.1875 3.3603359,3.3603359 0 0 0 -0.75,0.75 3.3603359,3.3603359 0 0 0 -0.375,0.9375 3.3603359,3.3603359 0 0 0 -0.375,1.3125 V 209.30664 a 3.3603359,3.3603359 0 0 0 0,0.0195 3.3603359,3.3603359 0 0 0 -0.002,0.16602 3.3603359,3.3603359 0 0 0 0.002,0.16015 3.3603359,3.3603359 0 0 0 0,0.0293 3.3603359,3.3603359 0 0 0 0.01,0.0957 3.3603359,3.3603359 0 0 0 0.17774,0.8418 3.3603359,3.3603359 0 0 0 0.0664,0.11133 3.3603359,3.3603359 0 0 0 0.1211,0.26367 3.3603359,3.3603359 0 0 0 0.375,0.5625 3.3603359,3.3603359 0 0 0 0.10937,0.082 3.3603359,3.3603359 0 0 0 0.0781,0.10547 3.3603359,3.3603359 0 0 0 0.5625,0.375 3.3603359,3.3603359 0 0 0 0.37304,0.18555 3.3603359,3.3603359 0 0 0 0.002,0.002 3.3603359,3.3603359 0 0 0 0.67578,0.30078 3.3603359,3.3603359 0 0 0 0.0742,0.0742 3.3603359,3.3603359 0 0 0 1.5,0 h 0.006 23.24414 a 3.3603359,3.3603359 0 0 0 1.3125,-0.1875 3.3603359,3.3603359 0 0 0 0.5625,-0.375 3.3603359,3.3603359 0 0 0 0.5625,-0.375 3.3603359,3.3603359 0 0 0 0.1875,-0.1875 3.3603359,3.3603359 0 0 0 0.16992,-0.22461 c 0.70314,-0.45913 1.20898,-1.24154 1.20898,-2.36719 0,-2.00142 -1.58274,-2.93669 -3.08007,-2.82812 a 3.3603359,3.3603359 0 0 0 -0.92383,-0.20508 h -20.625 V 36.619141 a 3.3603359,3.3603359 0 0 0 0,-0.375 3.3603359,3.3603359 0 0 0 -0.375,-1.3125 3.3603359,3.3603359 0 0 0 -0.375,-0.5625 3.3603359,3.3603359 0 0 0 -0.1875,-0.1875 3.3603359,3.3603359 0 0 0 -0.1875,-0.1875 3.3603359,3.3603359 0 0 0 -0.9375,-0.5625 3.3603359,3.3603359 0 0 0 -1.3125,-0.375 z"
       transform="matrix(0.75000002,0,0,0.75000002,-262.39436,-7.0004303)"
       id="path116-9"
       inkscape:connector-curvature="0" />
    <path
       style="color:#000000;font-style:normal;font-variant:normal;font-weight:normal;font-stretch:normal;font-size:medium;line-height:normal;font-family:sans-serif;font-variant-ligatures:normal;font-variant-position:normal;font-variant-caps:normal;font-variant-numeric:normal;font-variant-alternates:normal;font-feature-settings:normal;text-indent:0;text-align:start;text-decoration:none;text-decoration-line:none;text-decoration-style:solid;text-decoration-color:#000000;letter-spacing:normal;word-spacing:normal;text-transform:none;writing-mode:lr-tb;direction:ltr;text-orientation:mixed;dominant-baseline:auto;baseline-shift:baseline;text-anchor:start;white-space:normal;shape-padding:0;clip-rule:nonzero;display:inline;overflow:visible;visibility:visible;opacity:1;isolation:auto;mix-blend-mode:normal;color-interpolation:sRGB;color-interpolation-filters:linearRGB;solid-color:#000000;solid-opacity:1;vector-effect:none;fill:none;fill-opacity:1;fill-rule:nonzero;stroke:#7373de;stroke-width:0.075;stroke-linecap:round;stroke-linejoin:miter;stroke-miterlimit:10;stroke-dasharray:none;stroke-dashoffset:0;stroke-opacity:1;color-rendering:auto;image-rendering:auto;shape-rendering:auto;text-rendering:auto;enable-background:accumulate"
       d="m 105.72849,192.16738 a 2.520252,2.520252 0 0 1 -0.42188,-0.14063 2.520252,2.520252 0 0 1 -0.70312,-0.28125 2.520252,2.520252 0 0 1 -0.56251,-0.5625 2.520252,2.520252 0 0 1 -0.14062,-0.14062 2.520252,2.520252 0 0 1 -0.28125,-0.42188 2.520252,2.520252 0 0 1 -0.14062,-0.98438 2.520252,2.520252 0 0 1 0.14062,-0.98437 2.520252,2.520252 0 0 1 0.42187,-0.70313 2.520252,2.520252 0 0 1 0.14063,-0.14062 2.520252,2.520252 0 0 1 0.42188,-0.28125 2.520252,2.520252 0 0 1 0.42187,-0.28125 2.520252,2.520252 0 0 1 0.98438,-0.14062 h 32.34375 a 2.520252,2.520252 0 0 1 0.98437,0.14062 2.520252,2.520252 0 0 1 0.70312,0.42188 2.520252,2.520252 0 0 1 0.14063,0.14062 2.520252,2.520252 0 0 1 0.5625,0.5625 2.520252,2.520252 0 0 1 0.28125,0.98438 2.520252,2.520252 0 0 1 -0.14062,0.98437 2.520252,2.520252 0 0 1 -0.42188,0.70313 2.520252,2.520252 0 0 1 -0.28125,0.42187 2.520252,2.520252 0 0 1 -0.14063,0.14063 2.520252,2.520252 0 0 1 -0.42187,0.28124 2.520252,2.520252 0 0 1 -0.98437,0.28126 2.520252,2.520252 0 0 1 -0.28125,0 h -32.34375 a 2.520252,2.520252 0 0 1 -0.28125,0 z"
       id="path168-1"
       inkscape:connector-curvature="0" />
    <path
       style="color:#000000;font-style:normal;font-variant:normal;font-weight:normal;font-stretch:normal;font-size:medium;line-height:normal;font-family:sans-serif;font-variant-ligatures:normal;font-variant-position:normal;font-variant-caps:normal;font-variant-numeric:normal;font-variant-alternates:normal;font-feature-settings:normal;text-indent:0;text-align:start;text-decoration:none;text-decoration-line:none;text-decoration-style:solid;text-decoration-color:#000000;letter-spacing:normal;word-spacing:normal;text-transform:none;writing-mode:lr-tb;direction:ltr;text-orientation:mixed;dominant-baseline:auto;baseline-shift:baseline;text-anchor:start;white-space:normal;shape-padding:0;clip-rule:nonzero;display:inline;overflow:visible;visibility:visible;opacity:1;isolation:auto;mix-blend-mode:normal;color-interpolation:sRGB;color-interpolation-filters:linearRGB;solid-color:#000000;solid-opacity:1;vector-effect:none;fill:none;fill-opacity:1;fill-rule:nonzero;stroke:#7373de;stroke-width:0.1;stroke-linecap:round;stroke-linejoin:miter;stroke-miterlimit:10;stroke-dasharray:none;stroke-dashoffset:0;stroke-opacity:1;color-rendering:auto;image-rendering:auto;shape-rendering:auto;text-rendering:auto;enable-background:accumulate"
       d="m 379.50391,215.11719 a 3.3603359,3.3603359 0 0 0 -0.0215,0.002 h -0.0273 a 3.3603359,3.3603359 0 0 0 -0.0117,0.004 3.3603359,3.3603359 0 0 0 -0.92578,0.18359 3.3603359,3.3603359 0 0 0 -0.53906,0.17969 3.3603359,3.3603359 0 0 0 -0.0234,0.008 3.3603359,3.3603359 0 0 0 -0.0156,0.008 3.3603359,3.3603359 0 0 0 -0.35937,0.17969 3.3603359,3.3603359 0 0 0 -0.1875,0.1875 3.3603359,3.3603359 0 0 0 -0.9375,1.125 3.3603359,3.3603359 0 0 0 -0.375,1.3125 3.3603359,3.3603359 0 0 0 0,0.1875 v 0.39258 a 3.3603359,3.3603359 0 0 0 0,0.35742 v 90.9375 a 3.3603359,3.3603359 0 0 0 0.1875,1.3125 3.3603359,3.3603359 0 0 0 0.375,0.5625 3.3603359,3.3603359 0 0 0 0.1875,0.1875 3.3603359,3.3603359 0 0 0 0.5625,0.5625 3.3603359,3.3603359 0 0 0 0.5625,0.375 3.3603359,3.3603359 0 0 0 0.006,0.004 3.3603359,3.3603359 0 0 0 0.0215,0.01 3.3603359,3.3603359 0 0 0 0.91016,0.36133 3.3603359,3.3603359 0 0 0 1.3125,0 h 273.5625 a 3.3603359,3.3603359 0 0 0 1.3125,0 3.3603359,3.3603359 0 0 0 0.9375,-0.375 3.3603359,3.3603359 0 0 0 0.5625,-0.375 3.3603359,3.3603359 0 0 0 0.004,-0.004 3.3603359,3.3603359 0 0 0 0.1836,-0.18359 3.3603359,3.3603359 0 0 0 0.375,-0.5625 3.3603359,3.3603359 0 0 0 0.5625,-0.9375 3.3603359,3.3603359 0 0 0 0.1875,-1.3125 3.3603359,3.3603359 0 0 0 -0.1875,-0.87305 V 288.6199 a 3.3603359,3.3603359 0 0 0 -0.1875,-1.3125 3.3603359,3.3603359 0 0 0 -0.1875,-0.5625 3.3603359,3.3603359 0 0 0 -0.5625,-0.5625 3.3603359,3.3603359 0 0 0 -0.1875,-0.1875 3.3603359,3.3603359 0 0 0 -0.5625,-0.375 3.3603359,3.3603359 0 0 0 -1.3125,-0.375 3.3603359,3.3603359 0 0 0 -1.3125,0 3.3603359,3.3603359 0 0 0 -0.5625,0.375 3.3603359,3.3603359 0 0 0 -0.5625,0.375 3.3603359,3.3603359 0 0 0 -0.1875,0.1875 3.3603359,3.3603359 0 0 0 -0.5625,0.5625 3.3603359,3.3603359 0 0 0 -0.375,0.9375 3.3603359,3.3603359 0 0 0 -0.1875,0.9375 v 18.1875 h -268.125 v -84.9375 h 11.0625 a 3.3603359,3.3603359 0 0 0 1.3125,-0.1875 3.3603359,3.3603359 0 0 0 0.5625,-0.1875 3.3603359,3.3603359 0 0 0 0.5625,-0.5625 3.3603359,3.3603359 0 0 0 0.1875,-0.1875 3.3603359,3.3603359 0 0 0 0.375,-0.5625 3.3603359,3.3603359 0 0 0 0.375,-1.3125 3.3603359,3.3603359 0 0 0 0,-1.3125 3.3603359,3.3603359 0 0 0 -0.5625,-0.9375 3.3603359,3.3603359 0 0 0 -0.1875,-0.1875 3.3603359,3.3603359 0 0 0 -0.1875,-0.1875 3.3603359,3.3603359 0 0 0 -0.5625,-0.5625 3.3603359,3.3603359 0 0 0 -0.9375,-0.375 3.3603359,3.3603359 0 0 0 -0.9375,-0.1875 h -14.0625 a 3.3603359,3.3603359 0 0 0 -0.32617,-0.002 z"
       transform="matrix(0.75000002,0,0,0.75000002,-262.39436,-7.0004303)"
       id="path238-4"
       inkscape:connector-curvature="0" />
    <path
       style="color:#000000;font-style:normal;font-variant:normal;font-weight:normal;font-stretch:normal;font-size:medium;line-height:normal;font-family:sans-serif;font-variant-ligatures:normal;font-variant-position:normal;font-variant-caps:normal;font-variant-numeric:normal;font-variant-alternates:normal;font-feature-settings:normal;text-indent:0;text-align:start;text-decoration:none;text-decoration-line:none;text-decoration-style:solid;text-decoration-color:#000000;letter-spacing:normal;word-spacing:normal;text-transform:none;writing-mode:lr-tb;direction:ltr;text-orientation:mixed;dominant-baseline:auto;baseline-shift:baseline;text-anchor:start;white-space:normal;shape-padding:0;clip-rule:nonzero;display:inline;overflow:visible;visibility:visible;opacity:1;isolation:auto;mix-blend-mode:normal;color-interpolation:sRGB;color-interpolation-filters:linearRGB;solid-color:#000000;solid-opacity:1;vector-effect:none;fill:none;fill-opacity:1;fill-rule:nonzero;stroke:#7373de;stroke-width:0.1;stroke-linecap:round;stroke-linejoin:miter;stroke-miterlimit:10;stroke-dasharray:none;stroke-dashoffset:0;stroke-opacity:1;color-rendering:auto;image-rendering:auto;shape-rendering:auto;text-rendering:auto;enable-background:accumulate"
       d="m 515.16406,172.33789 a 3.3603359,3.3603359 0 0 0 -0.33398,0.0312 3.3603359,3.3603359 0 0 0 -0.9375,0.1875 3.3603359,3.3603359 0 0 0 -0.5625,0.375 3.3603359,3.3603359 0 0 0 -0.5625,0.375 3.3603359,3.3603359 0 0 0 -0.375,0.5625 3.3603359,3.3603359 0 0 0 -0.375,0.9375 3.3603359,3.3603359 0 0 0 -0.1875,0.9375 v 11.25 l -18.5625,18.5625 h -32.0625 a 3.3603359,3.3603359 0 0 0 -0.375,0 3.3603359,3.3603359 0 0 0 -1.3125,0.375 3.3603359,3.3603359 0 0 0 -0.5625,0.375 3.3603359,3.3603359 0 0 0 -0.1875,0.1875 3.3603359,3.3603359 0 0 0 -0.375,0.5625 3.3603359,3.3603359 0 0 0 -0.5625,0.9375 3.3603359,3.3603359 0 0 0 -0.1875,1.3125 3.3603359,3.3603359 0 0 0 0.375,1.3125 3.3603359,3.3603359 0 0 0 0.75,0.75 3.3603359,3.3603359 0 0 0 0.1875,0.1875 3.3603359,3.3603359 0 0 0 0.9375,0.5625 3.3603359,3.3603359 0 0 0 0.5625,0.1875 3.3603359,3.3603359 0 0 0 0.75,0 h 32.8125 a 3.3603359,3.3603359 0 0 0 0.75,0 3.3603359,3.3603359 0 0 0 0.9375,0 3.3603359,3.3603359 0 0 0 0.25781,-0.15234 3.3603359,3.3603359 0 0 0 0.11719,-0.0352 3.3603359,3.3603359 0 0 0 0.5625,-0.375 3.3603359,3.3603359 0 0 0 0.1875,-0.1875 3.3603359,3.3603359 0 0 0 0.5625,-0.375 3.3603359,3.3603359 0 0 0 0.18359,-0.36523 l 20.06641,-19.88477 a 3.3603359,3.3603359 0 0 0 0.375,-0.5625 3.3603359,3.3603359 0 0 0 0.5625,-1.3125 3.3603359,3.3603359 0 0 0 0,-0.5625 v -0.375 -12.375 a 3.3603359,3.3603359 0 0 0 -0.1875,-0.9375 3.3603359,3.3603359 0 0 0 -0.375,-0.9375 3.3603359,3.3603359 0 0 0 -0.375,-0.5625 3.3603359,3.3603359 0 0 0 -0.5625,-0.375 3.3603359,3.3603359 0 0 0 -0.5625,-0.375 3.3603359,3.3603359 0 0 0 -1.35352,-0.21875 z"
       transform="matrix(0.75000002,0,0,0.75000002,-262.39436,-7.0004303)"
       id="path256-4"
       inkscape:connector-curvature="0" />
    <path
       style="color:#000000;font-style:normal;font-variant:normal;font-weight:normal;font-stretch:normal;font-size:medium;line-height:normal;font-family:sans-serif;font-variant-ligatures:normal;font-variant-position:normal;font-variant-caps:normal;font-variant-numeric:normal;font-variant-alternates:normal;font-feature-settings:normal;text-indent:0;text-align:start;text-decoration:none;text-decoration-line:none;text-decoration-style:solid;text-decoration-color:#000000;letter-spacing:normal;word-spacing:normal;text-transform:none;writing-mode:lr-tb;direction:ltr;text-orientation:mixed;dominant-baseline:auto;baseline-shift:baseline;text-anchor:start;white-space:normal;shape-padding:0;clip-rule:nonzero;display:inline;overflow:visible;visibility:visible;opacity:1;isolation:auto;mix-blend-mode:normal;color-interpolation:sRGB;color-interpolation-filters:linearRGB;solid-color:#000000;solid-opacity:1;vector-effect:none;fill:none;fill-opacity:1;fill-rule:nonzero;stroke:#7373de;stroke-width:0.1;stroke-linecap:round;stroke-linejoin:miter;stroke-miterlimit:10;stroke-dasharray:none;stroke-dashoffset:0;stroke-opacity:1;color-rendering:auto;image-rendering:auto;shape-rendering:auto;text-rendering:auto;enable-background:accumulate"
       d="m 479.91602,239.49219 a 3.3603359,3.3603359 0 0 0 -0.33594,0.002 3.3603359,3.3603359 0 0 0 -0.9375,0.375 3.3603359,3.3603359 0 0 0 -0.5625,0.1875 3.3603359,3.3603359 0 0 0 -0.74024,0.73828 l -12.93359,12.76172 h -3.20117 a 3.3603359,3.3603359 0 0 0 -0.375,0 3.3603359,3.3603359 0 0 0 -1.3125,0.375 3.3603359,3.3603359 0 0 0 -0.5625,0.375 3.3603359,3.3603359 0 0 0 -0.1875,0.1875 3.3603359,3.3603359 0 0 0 -0.375,0.5625 3.3603359,3.3603359 0 0 0 -0.5625,0.9375 3.3603359,3.3603359 0 0 0 -0.1875,1.3125 3.3603359,3.3603359 0 0 0 0.375,1.3125 3.3603359,3.3603359 0 0 0 0.75,0.75 3.3603359,3.3603359 0 0 0 0.1875,0.1875 3.3603359,3.3603359 0 0 0 0.9375,0.5625 3.3603359,3.3603359 0 0 0 0.5625,0.1875 3.3603359,3.3603359 0 0 0 0.75,0 h 3.9375 a 3.3603359,3.3603359 0 0 0 1.5,0 3.3603359,3.3603359 0 0 0 0.5625,-0.1875 3.3603359,3.3603359 0 0 0 0.006,-0.002 3.3603359,3.3603359 0 0 0 0.002,-0.002 3.3603359,3.3603359 0 0 0 0.36719,-0.18359 3.3603359,3.3603359 0 0 0 0.5625,-0.375 3.3603359,3.3603359 0 0 0 0.1875,-0.1875 3.3603359,3.3603359 0 0 0 0.1875,-0.1875 l 12.9375,-12.9375 h 9.75 a 3.3603359,3.3603359 0 0 0 0.9375,0 3.3603359,3.3603359 0 0 0 0.9375,-0.375 3.3603359,3.3603359 0 0 0 0.5625,-0.5625 3.3603359,3.3603359 0 0 0 0.1875,-0.1875 3.3603359,3.3603359 0 0 0 0.375,-0.5625 3.3603359,3.3603359 0 0 0 0.375,-1.3125 3.3603359,3.3603359 0 0 0 -0.1875,-1.3125 3.3603359,3.3603359 0 0 0 -0.375,-0.9375 3.3603359,3.3603359 0 0 0 -0.1875,-0.1875 3.3603359,3.3603359 0 0 0 -0.1875,-0.1875 3.3603359,3.3603359 0 0 0 -0.5625,-0.5625 3.3603359,3.3603359 0 0 0 -0.9375,-0.375 3.3603359,3.3603359 0 0 0 -0.9375,-0.1875 h -11.25 a 3.3603359,3.3603359 0 0 0 -0.01,0 3.3603359,3.3603359 0 0 0 -0.0293,-0.002 z"
       transform="matrix(0.75000002,0,0,0.75000002,-262.39436,-7.0004303)"
       id="path262-4"
       inkscape:connector-curvature="0" />
    <path
       style="color:#000000;font-style:normal;font-variant:normal;font-weight:normal;font-stretch:normal;font-size:medium;line-height:normal;font-family:sans-serif;font-variant-ligatures:normal;font-variant-position:normal;font-variant-caps:normal;font-variant-numeric:normal;font-variant-alternates:normal;font-feature-settings:normal;text-indent:0;text-align:start;text-decoration:none;text-decoration-line:none;text-decoration-style:solid;text-decoration-color:#000000;letter-spacing:normal;word-spacing:normal;text-transform:none;writing-mode:lr-tb;direction:ltr;text-orientation:mixed;dominant-baseline:auto;baseline-shift:baseline;text-anchor:start;white-space:normal;shape-padding:0;clip-rule:nonzero;display:inline;overflow:visible;visibility:visible;opacity:1;isolation:auto;mix-blend-mode:normal;color-interpolation:sRGB;color-interpolation-filters:linearRGB;solid-color:#000000;solid-opacity:1;vector-effect:none;fill:none;fill-opacity:1;fill-rule:nonzero;stroke:#7373de;stroke-width:0.1;stroke-linecap:round;stroke-linejoin:miter;stroke-miterlimit:10;stroke-dasharray:none;stroke-dashoffset:0;stroke-opacity:1;color-rendering:auto;image-rendering:auto;shape-rendering:auto;text-rendering:auto;enable-background:accumulate"
       d="m 517.64258,155.49414 a 3.3603359,3.3603359 0 0 0 -0.92383,0.20508 3.3603359,3.3603359 0 0 0 -0.76367,0.16992 3.3603359,3.3603359 0 0 0 -0.34961,0.32031 3.3603359,3.3603359 0 0 0 -0.58789,0.61719 3.3603359,3.3603359 0 0 0 -0.002,0.004 l -29.99804,29.99609 h -22.6875 a 3.3603359,3.3603359 0 0 0 -0.5625,0 3.3603359,3.3603359 0 0 0 -0.9375,0.375 3.3603359,3.3603359 0 0 0 -0.5625,0.375 3.3603359,3.3603359 0 0 0 -0.1875,0.1875 3.3603359,3.3603359 0 0 0 -0.1875,0.1875 3.3603359,3.3603359 0 0 0 -0.5625,0.9375 3.3603359,3.3603359 0 0 0 -0.375,1.3125 3.3603359,3.3603359 0 0 0 0.375,1.3125 3.3603359,3.3603359 0 0 0 0.1875,0.5625 3.3603359,3.3603359 0 0 0 0.1875,0.1875 3.3603359,3.3603359 0 0 0 0.5625,0.5625 3.3603359,3.3603359 0 0 0 0.5625,0.375 3.3603359,3.3603359 0 0 0 1.3125,0.375 3.3603359,3.3603359 0 0 0 0.1875,0 h 23.4375 a 3.3603359,3.3603359 0 0 0 0.96875,-0.002 3.3603359,3.3603359 0 0 0 0.0957,-0.0137 3.3603359,3.3603359 0 0 0 1.18555,-0.35938 3.3603359,3.3603359 0 0 0 0.004,-0.002 3.3603359,3.3603359 0 0 0 0.5586,-0.37305 3.3603359,3.3603359 0 0 0 0.1875,-0.1875 3.3603359,3.3603359 0 0 0 0.375,-0.5625 l 29.8125,-29.8125 h 60.20508 a 3.3603359,3.3603359 0 0 0 0.16992,0.75 3.3603359,3.3603359 0 0 0 0.5625,0.5625 3.3603359,3.3603359 0 0 0 0.1875,0.1875 l 39.5625,39.5625 v 5.0625 a 3.3603359,3.3603359 0 0 0 0,0.5625 3.3603359,3.3603359 0 0 0 0.1875,0.9375 3.3603359,3.3603359 0 0 0 0.375,0.5625 3.3603359,3.3603359 0 0 0 0.5625,0.375 3.3603359,3.3603359 0 0 0 0.5625,0.375 3.3603359,3.3603359 0 0 0 0.9375,0.375 3.3603359,3.3603359 0 0 0 0.1875,0.1875 3.3603359,3.3603359 0 0 0 1.125,-0.1875 3.3603359,3.3603359 0 0 0 0.9375,-0.1875 3.3603359,3.3603359 0 0 0 0.75,-0.75 3.3603359,3.3603359 0 0 0 0.1875,-0.1875 3.3603359,3.3603359 0 0 0 0.375,-0.5625 3.3603359,3.3603359 0 0 0 0.375,-1.3125 3.3603359,3.3603359 0 0 0 0,-0.1875 v -5.68555 a 3.3603359,3.3603359 0 0 0 0.1875,-0.87695 3.3603359,3.3603359 0 0 0 -0.17969,-0.85156 3.3603359,3.3603359 0 0 0 -0.008,-0.0859 3.3603359,3.3603359 0 0 0 -0.1875,-0.5625 3.3603359,3.3603359 0 0 0 -0.375,-0.5625 3.3603359,3.3603359 0 0 0 -0.5625,-0.5625 3.3603359,3.3603359 0 0 0 -0.5625,-0.375 3.3603359,3.3603359 0 0 0 -0.004,-0.002 l -39.74609,-39.74805 a 3.3603359,3.3603359 0 0 0 -0.1875,-0.1875 3.3603359,3.3603359 0 0 0 -0.5625,-0.375 3.3603359,3.3603359 0 0 0 -0.67188,-0.29687 3.3603359,3.3603359 0 0 0 -0.0781,-0.26563 3.3603359,3.3603359 0 0 0 -0.375,-0.9375 3.3603359,3.3603359 0 0 0 -0.1875,-0.1875 3.3603359,3.3603359 0 0 0 -1.125,-0.75 3.3603359,3.3603359 0 0 0 -1.3125,-0.375 3.3603359,3.3603359 0 0 0 -0.1875,-0.1875 z"
       transform="matrix(0.75000002,0,0,0.75000002,-262.39436,-7.0004303)"
       id="path286-5"
       inkscape:connector-curvature="0" />
    <path
       style="color:#000000;font-style:normal;font-variant:normal;font-weight:normal;font-stretch:normal;font-size:medium;line-height:normal;font-family:sans-serif;font-variant-ligatures:normal;font-variant-position:normal;font-variant-caps:normal;font-variant-numeric:normal;font-variant-alternates:normal;font-feature-settings:normal;text-indent:0;text-align:start;text-decoration:none;text-decoration-line:none;text-decoration-style:solid;text-decoration-color:#000000;letter-spacing:normal;word-spacing:normal;text-transform:none;writing-mode:lr-tb;direction:ltr;text-orientation:mixed;dominant-baseline:auto;baseline-shift:baseline;text-anchor:start;white-space:normal;shape-padding:0;clip-rule:nonzero;display:inline;overflow:visible;visibility:visible;opacity:1;isolation:auto;mix-blend-mode:normal;color-interpolation:sRGB;color-interpolation-filters:linearRGB;solid-color:#000000;solid-opacity:1;vector-effect:none;fill:none;fill-opacity:1;fill-rule:nonzero;stroke:#7373de;stroke-width:0.1;stroke-linecap:round;stroke-linejoin:miter;stroke-miterlimit:10;stroke-dasharray:none;stroke-dashoffset:0;stroke-opacity:1;color-rendering:auto;image-rendering:auto;shape-rendering:auto;text-rendering:auto;enable-background:accumulate"
       d="m 627.39844,123.24219 a 3.3603359,3.3603359 0 0 0 -0.0684,0.002 3.3603359,3.3603359 0 0 0 -0.9375,0.375 3.3603359,3.3603359 0 0 0 -0.5625,0.1875 3.3603359,3.3603359 0 0 0 -0.5625,0.5625 l -9.39453,9.5625 h -109.0625 l -3.38867,-3.52539 a 3.3603359,3.3603359 0 0 0 -0.0293,-0.0371 3.3603359,3.3603359 0 0 0 -0.1875,-0.1875 3.3603359,3.3603359 0 0 0 -0.1875,-0.1875 3.3603359,3.3603359 0 0 0 -0.004,-0.004 3.3603359,3.3603359 0 0 0 -0.0332,-0.0254 3.3603359,3.3603359 0 0 0 -0.90039,-0.5332 3.3603359,3.3603359 0 0 0 -1.3125,-0.375 3.3603359,3.3603359 0 0 0 -0.82617,0.17188 3.3603359,3.3603359 0 0 0 -0.11133,0.0156 3.3603359,3.3603359 0 0 0 -0.9375,0.375 3.3603359,3.3603359 0 0 0 -0.75,0.75 3.3603359,3.3603359 0 0 0 -0.375,0.5625 l -36.31055,36.31055 a 3.3603359,3.3603359 0 0 0 -1.37695,0.0644 3.3603359,3.3603359 0 0 0 -0.5625,0.1875 3.3603359,3.3603359 0 0 0 -0.5625,0.375 3.3603359,3.3603359 0 0 0 -0.75,1.125 3.3603359,3.3603359 0 0 0 -0.5625,1.3125 3.3603359,3.3603359 0 0 0 0.1875,1.3125 3.3603359,3.3603359 0 0 0 0.375,0.5625 3.3603359,3.3603359 0 0 0 0.375,0.5625 3.3603359,3.3603359 0 0 0 0.1875,0.1875 3.3603359,3.3603359 0 0 0 0.5625,0.375 3.3603359,3.3603359 0 0 0 0.9375,0.5625 l 1.125,0.375 a 3.3603359,3.3603359 0 0 0 0.375,0 3.3603359,3.3603359 0 0 0 1.6875,0 3.3603359,3.3603359 0 0 0 0.5625,-0.375 3.3603359,3.3603359 0 0 0 0.006,-0.002 3.3603359,3.3603359 0 0 0 0.55664,-0.37305 3.3603359,3.3603359 0 0 0 0.1875,-0.1875 l 0.1875,-0.1875 35.86133,-35.85937 2.17187,2.25976 a 3.3603359,3.3603359 0 0 0 0.0293,0.0371 3.3603359,3.3603359 0 0 0 0.1875,0.1875 3.3603359,3.3603359 0 0 0 0.1875,0.1875 3.3603359,3.3603359 0 0 0 0.5625,0.375 3.3603359,3.3603359 0 0 0 0.37109,0.18555 3.3603359,3.3603359 0 0 0 0.004,0.002 3.3603359,3.3603359 0 0 0 0.0176,0.008 3.3603359,3.3603359 0 0 0 0.27148,0.10157 3.3603359,3.3603359 0 0 0 0.27344,0.0781 3.3603359,3.3603359 0 0 0 0.0391,0.002 3.3603359,3.3603359 0 0 0 0.43945,0.0137 3.3603359,3.3603359 0 0 0 1.20899,-0.0156 h 109.6875 a 3.3603359,3.3603359 0 0 0 1.5,0 3.3603359,3.3603359 0 0 0 0.56836,-0.18945 3.3603359,3.3603359 0 0 1 0.002,-0.002 3.3603359,3.3603359 0 0 0 0.36719,-0.18359 3.3603359,3.3603359 0 0 0 0.5625,-0.375 3.3603359,3.3603359 0 0 0 0.1875,-0.1875 l 10.6875,-10.6875 a 3.3603359,3.3603359 0 0 0 0.1875,-0.1875 3.3603359,3.3603359 0 0 0 0.375,-0.5625 3.3603359,3.3603359 0 0 0 0.375,-0.9375 3.3603359,3.3603359 0 0 0 0,-1.6875 3.3603359,3.3603359 0 0 0 -0.375,-0.5625 3.3603359,3.3603359 0 0 0 -0.375,-0.5625 3.3603359,3.3603359 0 0 0 -0.75,-0.75 3.3603359,3.3603359 0 0 0 -0.5625,-0.1875 3.3603359,3.3603359 0 0 0 -1.61914,-0.37695 z"
       transform="matrix(0.75000002,0,0,0.75000002,-262.39436,-7.0004303)"
       id="path300-2"
       inkscape:connector-curvature="0" />
  </g>
</svg>
