<?xml version="1.0" encoding="UTF-8" standalone="no"?>
<!-- Created with Inkscape (http://www.inkscape.org/) -->

<svg
   xmlns:dc="http://purl.org/dc/elements/1.1/"
   xmlns:cc="http://creativecommons.org/ns#"
   xmlns:rdf="http://www.w3.org/1999/02/22-rdf-syntax-ns#"
   xmlns:svg="http://www.w3.org/2000/svg"
   xmlns="http://www.w3.org/2000/svg"
   xmlns:sodipodi="http://sodipodi.sourceforge.net/DTD/sodipodi-0.dtd"
   xmlns:inkscape="http://www.inkscape.org/namespaces/inkscape"
   width="210mm"
   height="297mm"
   viewBox="0 0 210 297"
   version="1.1"
   id="svg2597"
   sodipodi:docname="holes.svg"
   inkscape:version="0.92.5 (2060ec1f9f, 2020-04-08)">
  <defs
     id="defs2591" />
  <sodipodi:namedview
     id="base"
     pagecolor="#ffffff"
     bordercolor="#666666"
     borderopacity="1.0"
     inkscape:pageopacity="0.0"
     inkscape:pageshadow="2"
     inkscape:zoom="4.4135607"
     inkscape:cx="253.55991"
     inkscape:cy="912.75947"
     inkscape:document-units="mm"
     inkscape:current-layer="layer1"
     showgrid="false"
     inkscape:window-width="3720"
     inkscape:window-height="2032"
     inkscape:window-x="120"
     inkscape:window-y="54"
     inkscape:window-maximized="1" />
  <metadata
     id="metadata2594">
    <rdf:RDF>
      <cc:Work
         rdf:about="">
        <dc:format>image/svg+xml</dc:format>
        <dc:type
           rdf:resource="http://purl.org/dc/dcmitype/StillImage" />
      </cc:Work>
    </rdf:RDF>
  </metadata>
  <g
     inkscape:label="Camada 1"
     inkscape:groupmode="layer"
     id="layer1">
    <path
       sodipodi:nodetypes="ssssss"
       inkscape:connector-curvature="0"
       id="path2232-0-7-5-8-5-1"
       d="m 52.530455,46.48122 c 0,0.214305 -0.17373,0.388035 -0.388035,0.388035 -0.214305,0 -0.388035,-0.17373 -0.388035,-0.388035 0,-0.1113 0.04695,-0.21168 0.12195,-0.282435 0.06945,-0.06555 0.163095,-0.1056 0.26607,-0.1056 0.21432,0 0.388035,0.17373 0.388035,0.388035 z"
       style="opacity:1;fill:none;fill-opacity:1;stroke:#000000;stroke-width:0.0396875;stroke-linecap:butt;stroke-linejoin:miter;stroke-miterlimit:4;stroke-dasharray:none;stroke-dashoffset:0;stroke-opacity:1" />
    <path
       sodipodi:nodetypes="ssssss"
       inkscape:connector-curvature="0"
       id="path2232-0-7-5-8-82-7"
       d="m 61.100432,53.947153 c 0,0.214305 -0.173715,0.388035 -0.38802,0.388035 -0.214304,0 -0.388035,-0.17373 -0.388035,-0.388035 0,-0.1113 0.04695,-0.211681 0.12195,-0.28245 0.06945,-0.0654 0.163081,-0.1056 0.26607,-0.1056 0.214306,0 0.388035,0.173745 0.388035,0.38805 z"
       style="opacity:1;fill:none;fill-opacity:1;stroke:#000000;stroke-width:0.0396875;stroke-linecap:butt;stroke-linejoin:miter;stroke-miterlimit:4;stroke-dasharray:none;stroke-dashoffset:0;stroke-opacity:1" />
    <path
       sodipodi:nodetypes="ssssss"
       inkscape:connector-curvature="0"
       id="path2232-0-7-5-8-6-8"
       d="m 50.043192,72.945595 c 0,0.21429 -0.173715,0.38802 -0.388035,0.38802 -0.21429,0 -0.38802,-0.17373 -0.38802,-0.38802 0,-0.1113 0.04695,-0.211695 0.12195,-0.28245 0.06945,-0.06555 0.16308,-0.1056 0.26607,-0.1056 0.214305,0 0.388035,0.17373 0.388035,0.388035 z"
       style="opacity:1;fill:none;fill-opacity:1;stroke:#000000;stroke-width:0.0396875;stroke-linecap:butt;stroke-linejoin:miter;stroke-miterlimit:4;stroke-dasharray:none;stroke-dashoffset:0;stroke-opacity:1" />
    <path
       sodipodi:nodetypes="ssssss"
       inkscape:connector-curvature="0"
       id="path2232-0-7-5-8-0-5"
       d="m 50.065903,75.55755 c 0,0.214305 -0.173715,0.388035 -0.38802,0.388035 -0.214306,0 -0.388035,-0.17373 -0.388035,-0.388035 0,-0.1113 0.04695,-0.21168 0.12195,-0.282435 0.06945,-0.0654 0.163095,-0.1056 0.26607,-0.1056 0.214304,0 0.388035,0.173745 0.388035,0.388035 z"
       style="opacity:1;fill:none;fill-opacity:1;stroke:#000000;stroke-width:0.0396875;stroke-linecap:butt;stroke-linejoin:miter;stroke-miterlimit:4;stroke-dasharray:none;stroke-dashoffset:0;stroke-opacity:1" />
    <path
       sodipodi:nodetypes="ssssss"
       inkscape:connector-curvature="0"
       id="path2232-0-7-5-8-66-7"
       d="m 50.020485,78.010545 c 0,0.21429 -0.173715,0.38802 -0.388035,0.38802 -0.21429,0 -0.388035,-0.17373 -0.388035,-0.38802 0,-0.1113 0.0468,-0.21168 0.12195,-0.28245 0.06945,-0.0654 0.163095,-0.1056 0.266085,-0.1056 0.214305,0 0.388035,0.17373 0.388035,0.388035 z"
       style="opacity:1;fill:none;fill-opacity:1;stroke:#000000;stroke-width:0.0396875;stroke-linecap:butt;stroke-linejoin:miter;stroke-miterlimit:4;stroke-dasharray:none;stroke-dashoffset:0;stroke-opacity:1" />
    <path
       sodipodi:nodetypes="ssssss"
       inkscape:connector-curvature="0"
       id="path2232-0-7-5-8-4-4"
       d="m 50.020485,80.554375 c 0,0.214305 -0.173715,0.38802 -0.388035,0.38802 -0.21429,1.5e-5 -0.388035,-0.173715 -0.388035,-0.38802 0,-0.1113 0.0468,-0.21168 0.12195,-0.28245 0.06945,-0.0654 0.163095,-0.1056 0.266085,-0.1056 0.214305,0 0.388035,0.173745 0.388035,0.388035 z"
       style="opacity:1;fill:none;fill-opacity:1;stroke:#000000;stroke-width:0.0396875;stroke-linecap:butt;stroke-linejoin:miter;stroke-miterlimit:4;stroke-dasharray:none;stroke-dashoffset:0;stroke-opacity:1" />
    <path
       sodipodi:nodetypes="ssssss"
       inkscape:connector-curvature="0"
       id="path2232-0-7-5-8-62-1"
       d="m 50.179475,83.03006 c 0,0.214305 -0.17373,0.388035 -0.388035,0.388035 -0.214305,0 -0.388035,-0.17373 -0.388035,-0.388035 0,-0.1113 0.04695,-0.21168 0.12195,-0.282435 0.06945,-0.0654 0.16308,-0.1056 0.26607,-0.1056 0.214305,0 0.388035,0.17373 0.388035,0.388035 z"
       style="opacity:1;fill:none;fill-opacity:1;stroke:#000000;stroke-width:0.0396875;stroke-linecap:butt;stroke-linejoin:miter;stroke-miterlimit:4;stroke-dasharray:none;stroke-dashoffset:0;stroke-opacity:1" />
    <path
       sodipodi:nodetypes="ssssss"
       inkscape:connector-curvature="0"
       id="path2232-0-7-5-8-89-8"
       d="m 83.884055,51.19208 c 0,0.214305 -0.17373,0.388035 -0.388035,0.388035 -0.214305,0 -0.388035,-0.17373 -0.388035,-0.388035 0,-0.1113 0.04695,-0.21168 0.12195,-0.282435 0.06945,-0.06555 0.163095,-0.1056 0.266085,-0.1056 0.214305,0 0.38802,0.17373 0.38802,0.388035 z"
       style="opacity:1;fill:none;fill-opacity:1;stroke:#000000;stroke-width:0.0396875;stroke-linecap:butt;stroke-linejoin:miter;stroke-miterlimit:4;stroke-dasharray:none;stroke-dashoffset:0;stroke-opacity:1" />
    <path
       sodipodi:nodetypes="ssssss"
       inkscape:connector-curvature="0"
       id="path2232-0-7-5-8-60-5"
       d="m 86.405175,51.010383 c 0,0.214305 -0.17373,0.388035 -0.388035,0.388035 -0.214305,0 -0.388035,-0.17373 -0.388035,-0.388035 0,-0.1113 0.0468,-0.21168 0.12195,-0.28245 0.06945,-0.0654 0.163095,-0.1056 0.266085,-0.1056 0.214305,0 0.388035,0.173745 0.388035,0.38805 z"
       style="opacity:1;fill:none;fill-opacity:1;stroke:#000000;stroke-width:0.0396875;stroke-linecap:butt;stroke-linejoin:miter;stroke-miterlimit:4;stroke-dasharray:none;stroke-dashoffset:0;stroke-opacity:1" />
    <path
       sodipodi:nodetypes="ssssss"
       inkscape:connector-curvature="0"
       id="path2232-0-7-5-8-7-9"
       d="m 78.399462,49.796015 c 0,0.21429 -0.173714,0.38802 -0.388035,0.38802 -0.214289,1.5e-5 -0.388019,-0.17373 -0.388019,-0.38802 0,-0.1113 0.04695,-0.21168 0.12195,-0.28245 0.06945,-0.0654 0.16308,-0.1056 0.266069,-0.1056 0.214305,0 0.388035,0.17373 0.388035,0.388035 z"
       style="opacity:1;fill:none;fill-opacity:1;stroke:#000000;stroke-width:0.0396875;stroke-linecap:butt;stroke-linejoin:miter;stroke-miterlimit:4;stroke-dasharray:none;stroke-dashoffset:0;stroke-opacity:1" />
    <path
       sodipodi:nodetypes="ssssss"
       inkscape:connector-curvature="0"
       id="path2232-0-7-5-8-01-7"
       d="m 73.819593,53.96986 c 0,0.214305 -0.17373,0.388035 -0.388035,0.388035 -0.21429,0 -0.38802,-0.17373 -0.38802,-0.388035 0,-0.1113 0.0468,-0.21168 0.12195,-0.282435 0.06945,-0.0654 0.16308,-0.1056 0.26607,-0.1056 0.214305,0 0.388035,0.17373 0.388035,0.388035 z"
       style="opacity:1;fill:none;fill-opacity:1;stroke:#000000;stroke-width:0.0396875;stroke-linecap:butt;stroke-linejoin:miter;stroke-miterlimit:4;stroke-dasharray:none;stroke-dashoffset:0;stroke-opacity:1" />
    <path
       sodipodi:nodetypes="ssssss"
       inkscape:connector-curvature="0"
       id="path2232-0-7-5-8-013-5"
       d="m 61.583625,80.540365 c 0,0.21429 -0.17373,0.38802 -0.388035,0.38802 -0.214305,1.5e-5 -0.388035,-0.17373 -0.388035,-0.38802 0,-0.1113 0.04695,-0.21168 0.12195,-0.28245 0.06945,-0.0654 0.163095,-0.1056 0.266085,-0.1056 0.214305,0 0.388035,0.173745 0.388035,0.388035 z"
       style="opacity:1;fill:none;fill-opacity:1;stroke:#000000;stroke-width:0.0396875;stroke-linecap:butt;stroke-linejoin:miter;stroke-miterlimit:4;stroke-dasharray:none;stroke-dashoffset:0;stroke-opacity:1" />
    <path
       sodipodi:nodetypes="ssssss"
       inkscape:connector-curvature="0"
       id="path2232-0-7-5-8-77-3"
       d="m 97.249442,54.99313 c 0,0.214305 -0.17373,0.388035 -0.388035,0.388035 -0.214305,0 -0.38802,-0.17373 -0.38802,-0.388035 0,-0.1113 0.04695,-0.21168 0.12195,-0.282435 0.06945,-0.06555 0.16308,-0.1056 0.26607,-0.1056 0.214305,0 0.388035,0.17373 0.388035,0.388035 z"
       style="opacity:1;fill:none;fill-opacity:1;stroke:#000000;stroke-width:0.0396875;stroke-linecap:butt;stroke-linejoin:miter;stroke-miterlimit:4;stroke-dasharray:none;stroke-dashoffset:0;stroke-opacity:1" />
    <path
       sodipodi:nodetypes="ssssss"
       inkscape:connector-curvature="0"
       id="path2232-0-7-5-8-2-8"
       d="m 103.74531,54.947715 c 0,0.21429 -0.17374,0.38802 -0.38804,0.38802 -0.2143,0 -0.38804,-0.17373 -0.38804,-0.38802 0,-0.1113 0.047,-0.211695 0.12195,-0.28245 0.0695,-0.06555 0.1631,-0.1056 0.26609,-0.1056 0.2143,0 0.38804,0.17373 0.38804,0.388035 z"
       style="opacity:1;fill:none;fill-opacity:1;stroke:#000000;stroke-width:0.0396875;stroke-linecap:butt;stroke-linejoin:miter;stroke-miterlimit:4;stroke-dasharray:none;stroke-dashoffset:0;stroke-opacity:1" />
    <path
       sodipodi:nodetypes="ssssss"
       inkscape:connector-curvature="0"
       id="path2232-0-7-5-8-64-8"
       d="m 97.272153,50.450585 c 0,0.21429 -0.173715,0.38802 -0.388021,0.38802 -0.214305,0 -0.388035,-0.17373 -0.388035,-0.38802 0,-0.1113 0.0468,-0.211695 0.12195,-0.28245 0.06945,-0.06555 0.16308,-0.1056 0.266071,-0.1056 0.214304,0 0.388035,0.17373 0.388035,0.388035 z"
       style="opacity:1;fill:none;fill-opacity:1;stroke:#000000;stroke-width:0.0396875;stroke-linecap:butt;stroke-linejoin:miter;stroke-miterlimit:4;stroke-dasharray:none;stroke-dashoffset:0;stroke-opacity:1" />
    <path
       sodipodi:nodetypes="ssssss"
       inkscape:connector-curvature="0"
       id="path2232-0-7-5-8-52-3"
       d="m 103.67717,50.473295 c 0,0.21429 -0.17373,0.38802 -0.38804,0.38802 -0.2143,1.5e-5 -0.38803,-0.17373 -0.38803,-0.38802 0,-0.1113 0.0469,-0.21168 0.12195,-0.28245 0.0695,-0.0654 0.16309,-0.1056 0.26608,-0.1056 0.21431,0 0.38802,0.173745 0.38802,0.388035 z"
       style="opacity:1;fill:none;fill-opacity:1;stroke:#000000;stroke-width:0.0396875;stroke-linecap:butt;stroke-linejoin:miter;stroke-miterlimit:4;stroke-dasharray:none;stroke-dashoffset:0;stroke-opacity:1" />
    <path
       sodipodi:nodetypes="ssssss"
       inkscape:connector-curvature="0"
       id="path2232-0-7-5-8-02-18"
       d="m 97.108233,30.18804 c 0,0.214305 -0.173715,0.388035 -0.38802,0.388035 -0.214305,0 -0.388035,-0.17373 -0.388035,-0.388035 0,-0.1113 0.04695,-0.21168 0.12195,-0.282435 0.06945,-0.06555 0.16308,-0.1056 0.26607,-0.1056 0.214305,0 0.388035,0.173745 0.388035,0.388035 z"
       style="opacity:1;fill:none;fill-opacity:1;stroke:#000000;stroke-width:0.0396875;stroke-linecap:butt;stroke-linejoin:miter;stroke-miterlimit:4;stroke-dasharray:none;stroke-dashoffset:0;stroke-opacity:1" />
    <path
       sodipodi:nodetypes="ssssss"
       inkscape:connector-curvature="0"
       id="path2232-0-7-5-8-02-9-9"
       d="m 103.55866,30.256185 c 0,0.214305 -0.17371,0.38802 -0.38802,0.38802 -0.2143,1.5e-5 -0.38803,-0.173715 -0.38803,-0.38802 0,-0.1113 0.0469,-0.21168 0.12195,-0.28245 0.0695,-0.0654 0.16308,-0.1056 0.26607,-0.1056 0.2143,0 0.38803,0.17373 0.38803,0.388035 z"
       style="opacity:1;fill:none;fill-opacity:1;stroke:#000000;stroke-width:0.0396875;stroke-linecap:butt;stroke-linejoin:miter;stroke-miterlimit:4;stroke-dasharray:none;stroke-dashoffset:0;stroke-opacity:1" />
    <path
       sodipodi:nodetypes="ssssss"
       inkscape:connector-curvature="0"
       id="path2232-0-7-5-8-02-0-6"
       d="m 103.6268,34.707895 c 0,0.214305 -0.17371,0.38802 -0.38803,0.38802 -0.21429,1.5e-5 -0.38802,-0.173715 -0.38802,-0.38802 0,-0.1113 0.0469,-0.21168 0.12195,-0.28245 0.0695,-0.0654 0.16308,-0.1056 0.26607,-0.1056 0.2143,0 0.38803,0.173745 0.38803,0.38805 z"
       style="opacity:1;fill:none;fill-opacity:1;stroke:#000000;stroke-width:0.0396875;stroke-linecap:butt;stroke-linejoin:miter;stroke-miterlimit:4;stroke-dasharray:none;stroke-dashoffset:0;stroke-opacity:1" />
    <path
       sodipodi:nodetypes="ssssss"
       inkscape:connector-curvature="0"
       id="path2232-0-7-5-8-02-99-4"
       d="m 97.108235,34.77602 c 0,0.214305 -0.173715,0.388035 -0.388035,0.388035 -0.21429,0 -0.388035,-0.17373 -0.388035,-0.388035 0,-0.1113 0.04695,-0.21168 0.12195,-0.282435 0.06945,-0.0654 0.163095,-0.1056 0.266085,-0.1056 0.214305,0 0.388035,0.17373 0.388035,0.388035 z"
       style="opacity:1;fill:none;fill-opacity:1;stroke:#000000;stroke-width:0.0396875;stroke-linecap:butt;stroke-linejoin:miter;stroke-miterlimit:4;stroke-dasharray:none;stroke-dashoffset:0;stroke-opacity:1" />
    <path
       sodipodi:nodetypes="ssssss"
       inkscape:connector-curvature="0"
       id="path2232-0-7-5-8-02-4-3"
       d="m 78.825155,37.402855 c 0,0.214305 -0.17373,0.38802 -0.388035,0.38802 -0.214305,1.5e-5 -0.388035,-0.173715 -0.388035,-0.38802 0,-0.1113 0.04695,-0.21168 0.12195,-0.28245 0.06945,-0.06555 0.163095,-0.1056 0.266085,-0.1056 0.214305,0 0.388035,0.173745 0.388035,0.38805 z"
       style="opacity:1;fill:none;fill-opacity:1;stroke:#000000;stroke-width:0.0396875;stroke-linecap:butt;stroke-linejoin:miter;stroke-miterlimit:4;stroke-dasharray:none;stroke-dashoffset:0;stroke-opacity:1" />
    <path
       sodipodi:nodetypes="ssssss"
       inkscape:connector-curvature="0"
       id="path2232-0-7-5-8-02-5-3"
       d="m 63.550522,39.739915 c 0,0.214305 -0.173715,0.38802 -0.388019,0.38802 -0.214306,1.5e-5 -0.388036,-0.173715 -0.388036,-0.38802 0,-0.1113 0.04695,-0.21168 0.12195,-0.28245 0.06945,-0.06555 0.16308,-0.1056 0.26607,-0.1056 0.214305,0 0.388035,0.173745 0.388035,0.388035 z"
       style="opacity:1;fill:none;fill-opacity:1;stroke:#000000;stroke-width:0.0396875;stroke-linecap:butt;stroke-linejoin:miter;stroke-miterlimit:4;stroke-dasharray:none;stroke-dashoffset:0;stroke-opacity:1" />
    <path
       sodipodi:nodetypes="ssssss"
       inkscape:connector-curvature="0"
       id="path2232-0-7-5-8-02-1-3"
       d="m 96.438285,87.572625 c 0,0.214305 -0.17373,0.38802 -0.388035,0.38802 -0.214305,1.5e-5 -0.388035,-0.173715 -0.388035,-0.38802 0,-0.1113 0.04695,-0.21168 0.12195,-0.28245 0.06945,-0.06555 0.163095,-0.1056 0.26607,-0.1056 0.21432,0 0.388035,0.173745 0.388035,0.388035 z"
       style="opacity:1;fill:none;fill-opacity:1;stroke:#000000;stroke-width:0.0396875;stroke-linecap:butt;stroke-linejoin:miter;stroke-miterlimit:4;stroke-dasharray:none;stroke-dashoffset:0;stroke-opacity:1" />
    <path
       sodipodi:nodetypes="ssssss"
       inkscape:connector-curvature="0"
       id="path2232-0-7-5-8-02-03-8"
       d="m 99.027545,87.572625 c 0,0.214305 -0.17373,0.38802 -0.388035,0.38802 -0.214305,1.5e-5 -0.388035,-0.173715 -0.388035,-0.38802 0,-0.1113 0.04695,-0.21168 0.12195,-0.28245 0.06945,-0.06555 0.163095,-0.1056 0.266085,-0.1056 0.21429,0 0.38802,0.173745 0.38802,0.388035 z"
       style="opacity:1;fill:none;fill-opacity:1;stroke:#000000;stroke-width:0.0396875;stroke-linecap:butt;stroke-linejoin:miter;stroke-miterlimit:4;stroke-dasharray:none;stroke-dashoffset:0;stroke-opacity:1" />
    <path
       sodipodi:nodetypes="ssssss"
       inkscape:connector-curvature="0"
       id="path2232-0-7-5-8-02-7-6"
       d="m 101.57138,87.549915 c 0,0.21429 -0.17374,0.38802 -0.38804,0.38802 -0.2143,0 -0.38803,-0.17373 -0.38803,-0.38802 0,-0.1113 0.0469,-0.211695 0.12194,-0.28245 0.0695,-0.06555 0.1631,-0.1056 0.26609,-0.1056 0.2143,0 0.38802,0.17373 0.38802,0.388035 z"
       style="opacity:1;fill:none;fill-opacity:1;stroke:#000000;stroke-width:0.0396875;stroke-linecap:butt;stroke-linejoin:miter;stroke-miterlimit:4;stroke-dasharray:none;stroke-dashoffset:0;stroke-opacity:1" />
    <path
       inkscape:connector-curvature="0"
       style="fill:none;fill-opacity:1;fill-rule:evenodd;stroke:#000000;stroke-width:0.02645833;stroke-miterlimit:4;stroke-dasharray:none;stroke-opacity:1"
       d="m 95.10367,81.85358 0.69282,-0.69173 v -0.97949 l -0.69282,-0.69281 h -0.97948 l -0.69173,0.69281 v 0.97949 l 0.69173,0.69173 h 0.97948"
       id="path150-2-8-0" />
    <path
       inkscape:connector-curvature="0"
       style="fill:none;fill-opacity:1;fill-rule:evenodd;stroke:#000000;stroke-width:0.02645833;stroke-miterlimit:4;stroke-dasharray:none;stroke-opacity:1"
       d="m 103.26649,81.59008 0.69281,-0.69172 v -0.9795 l -0.69281,-0.69281 H 102.287 l -0.69173,0.69281 v 0.9795 l 0.69173,0.69172 h 0.97949"
       id="path150-2-8-8-4" />
    <path
       sodipodi:nodetypes="ssssss"
       inkscape:connector-curvature="0"
       id="path2232-0-7-5-8-8-67-5-8"
       d="m 17.639805,20.849265 c 0,0.214305 -0.17373,0.38802 -0.388035,0.38802 -0.214305,1.5e-5 -0.388035,-0.173715 -0.388035,-0.38802 0,-0.1113 0.04695,-0.21168 0.12195,-0.28245 0.06945,-0.0654 0.163095,-0.1056 0.266085,-0.1056 0.214305,0 0.388035,0.17373 0.388035,0.388035 z"
       style="opacity:1;fill:none;fill-opacity:1;stroke:#000000;stroke-width:0.0396875;stroke-linecap:butt;stroke-linejoin:miter;stroke-miterlimit:4;stroke-dasharray:none;stroke-dashoffset:0;stroke-opacity:1" />
    <path
       sodipodi:nodetypes="ssssss"
       inkscape:connector-curvature="0"
       id="path2232-0-7-5-8-8-8"
       d="m 52.507735,33.27832 c 0,0.214305 -0.17373,0.388035 -0.388035,0.388035 -0.214305,0 -0.388035,-0.17373 -0.388035,-0.388035 0,-0.1113 0.04695,-0.21168 0.12195,-0.282435 0.06945,-0.06555 0.163095,-0.1056 0.266085,-0.1056 0.214305,0 0.388035,0.17373 0.388035,0.388035 z"
       style="opacity:1;fill:none;fill-opacity:1;stroke:#000000;stroke-width:0.0396875;stroke-linecap:butt;stroke-linejoin:miter;stroke-miterlimit:4;stroke-dasharray:none;stroke-dashoffset:0;stroke-opacity:1" />
    <path
       sodipodi:nodetypes="ssssss"
       inkscape:connector-curvature="0"
       id="path2232-0-7-5-8-8-6-8"
       d="m 63.459675,27.04346 c 0,0.214305 -0.17373,0.388035 -0.388035,0.388035 -0.214305,0 -0.388035,-0.17373 -0.388035,-0.388035 0,-0.1113 0.04695,-0.21168 0.12195,-0.282435 0.06945,-0.06555 0.163095,-0.1056 0.26607,-0.1056 0.21432,0 0.388035,0.17373 0.388035,0.388035 z"
       style="opacity:1;fill:none;fill-opacity:1;stroke:#000000;stroke-width:0.0396875;stroke-linecap:butt;stroke-linejoin:miter;stroke-miterlimit:4;stroke-dasharray:none;stroke-dashoffset:0;stroke-opacity:1" />
    <path
       sodipodi:nodetypes="ssssss"
       inkscape:connector-curvature="0"
       id="path2232-0-7-5-8-8-0-9"
       d="m 66.532675,23.47714 c 0,0.214305 -0.17373,0.388035 -0.388035,0.388035 -0.214305,0 -0.388035,-0.17373 -0.388035,-0.388035 0,-0.1113 0.04695,-0.21168 0.12195,-0.282435 0.06945,-0.0654 0.163095,-0.1056 0.26607,-0.1056 0.21432,0 0.388035,0.17373 0.388035,0.388035 z"
       style="opacity:1;fill:none;fill-opacity:1;stroke:#000000;stroke-width:0.0396875;stroke-linecap:butt;stroke-linejoin:miter;stroke-miterlimit:4;stroke-dasharray:none;stroke-dashoffset:0;stroke-opacity:1" />
    <path
       sodipodi:nodetypes="ssssss"
       inkscape:connector-curvature="0"
       id="path2232-0-7-5-8-8-4-7"
       d="m 69.053795,23.47714 c 0,0.214305 -0.17373,0.388035 -0.388035,0.388035 -0.214305,0 -0.388035,-0.17373 -0.388035,-0.388035 0,-0.1113 0.04695,-0.21168 0.12195,-0.282435 0.06945,-0.0654 0.163095,-0.1056 0.26607,-0.1056 0.21432,0 0.388035,0.17373 0.388035,0.388035 z"
       style="opacity:1;fill:none;fill-opacity:1;stroke:#000000;stroke-width:0.0396875;stroke-linecap:butt;stroke-linejoin:miter;stroke-miterlimit:4;stroke-dasharray:none;stroke-dashoffset:0;stroke-opacity:1" />
    <path
       sodipodi:nodetypes="ssssss"
       inkscape:connector-curvature="0"
       id="path2232-0-7-5-8-8-67-76"
       d="m 48.763262,22.119815 c 0,0.214305 -0.173729,0.38802 -0.388035,0.38802 -0.214289,1.5e-5 -0.38802,-0.173715 -0.38802,-0.38802 0,-0.1113 0.0468,-0.21168 0.12195,-0.28245 0.06945,-0.0654 0.16308,-0.1056 0.26607,-0.1056 0.214306,0 0.388035,0.17373 0.388035,0.388035 z"
       style="opacity:1;fill:none;fill-opacity:1;stroke:#000000;stroke-width:0.0396875;stroke-linecap:butt;stroke-linejoin:miter;stroke-miterlimit:4;stroke-dasharray:none;stroke-dashoffset:0;stroke-opacity:1" />
    <path
       sodipodi:nodetypes="ssssss"
       inkscape:connector-curvature="0"
       id="path2232-0-7-5-8-8-67-6-4"
       d="m 27.157625,28.469815 c 0,0.214305 -0.17373,0.38802 -0.388035,0.38802 -0.214305,1.5e-5 -0.388035,-0.173715 -0.388035,-0.38802 0,-0.1113 0.04695,-0.21168 0.12195,-0.28245 0.06945,-0.0654 0.16308,-0.1056 0.26607,-0.1056 0.214305,0 0.388035,0.17373 0.388035,0.388035 z"
       style="opacity:1;fill:none;fill-opacity:1;stroke:#000000;stroke-width:0.0396875;stroke-linecap:butt;stroke-linejoin:miter;stroke-miterlimit:4;stroke-dasharray:none;stroke-dashoffset:0;stroke-opacity:1" />
    <path
       sodipodi:nodetypes="ssssss"
       inkscape:connector-curvature="0"
       id="path2232-0-7-5-8-8-67-0-3"
       d="m 27.171413,23.47714 c 0,0.214305 -0.173716,0.388035 -0.388021,0.388035 -0.214304,0 -0.388035,-0.17373 -0.388035,-0.388035 0,-0.1113 0.0468,-0.21168 0.12195,-0.282435 0.06945,-0.0654 0.163095,-0.1056 0.266085,-0.1056 0.214305,0 0.38802,0.17373 0.388021,0.388035 z"
       style="opacity:1;fill:none;fill-opacity:1;stroke:#000000;stroke-width:0.0396875;stroke-linecap:butt;stroke-linejoin:miter;stroke-miterlimit:4;stroke-dasharray:none;stroke-dashoffset:0;stroke-opacity:1" />
    <path
       sodipodi:nodetypes="ssssss"
       inkscape:connector-curvature="0"
       id="path2232-0-7-5-8-8-67-9-0"
       d="m 29.715255,23.454435 c 0,0.214305 -0.17373,0.38802 -0.388035,0.38802 -0.214305,1.5e-5 -0.388035,-0.173715 -0.388035,-0.38802 0,-0.1113 0.04695,-0.21168 0.12195,-0.28245 0.06945,-0.0654 0.163095,-0.1056 0.266085,-0.1056 0.214305,0 0.38802,0.17373 0.38802,0.388035 z"
       style="opacity:1;fill:none;fill-opacity:1;stroke:#000000;stroke-width:0.0396875;stroke-linecap:butt;stroke-linejoin:miter;stroke-miterlimit:4;stroke-dasharray:none;stroke-dashoffset:0;stroke-opacity:1" />
    <path
       sodipodi:nodetypes="ssssss"
       inkscape:connector-curvature="0"
       id="path2232-0-7-5-8-8-67-7-3"
       d="m 32.236362,23.454435 c 0,0.214305 -0.173715,0.38802 -0.388019,0.38802 -0.214305,1.5e-5 -0.388035,-0.173715 -0.388035,-0.38802 0,-0.1113 0.04695,-0.21168 0.121949,-0.28245 0.06945,-0.0654 0.163081,-0.1056 0.26607,-0.1056 0.214305,0 0.388035,0.17373 0.388035,0.388035 z"
       style="opacity:1;fill:none;fill-opacity:1;stroke:#000000;stroke-width:0.0396875;stroke-linecap:butt;stroke-linejoin:miter;stroke-miterlimit:4;stroke-dasharray:none;stroke-dashoffset:0;stroke-opacity:1" />
    <path
       sodipodi:nodetypes="ssssss"
       inkscape:connector-curvature="0"
       id="path2232-0-7-5-1-9-92"
       d="m 24.361975,40.998204 c 0,0.267876 -0.21716,0.485029 -0.485039,0.485029 -0.26788,6e-6 -0.48504,-0.217153 -0.48504,-0.485029 0,-0.13914 0.05861,-0.264605 0.152442,-0.353054 0.08684,-0.08184 0.203862,-0.132 0.332598,-0.132 0.267879,0 0.485039,0.21717 0.485039,0.485049 z"
       style="opacity:1;fill:none;fill-opacity:1;stroke:#000000;stroke-width:0.0396875;stroke-linecap:butt;stroke-linejoin:miter;stroke-miterlimit:4;stroke-dasharray:none;stroke-dashoffset:0;stroke-opacity:1" />
    <path
       sodipodi:nodetypes="ssssss"
       inkscape:connector-curvature="0"
       id="path2232-0-7-5-1-9-0-5"
       d="m 24.361975,43.537728 c 0,0.267875 -0.21716,0.48503 -0.485039,0.48503 -0.26788,4e-6 -0.48504,-0.217155 -0.48504,-0.48503 0,-0.13914 0.05861,-0.264604 0.152442,-0.353055 0.08684,-0.08184 0.203862,-0.132 0.332598,-0.132 0.267879,0 0.485039,0.21717 0.485039,0.485051 z"
       style="opacity:1;fill:none;fill-opacity:1;stroke:#000000;stroke-width:0.0396875;stroke-linecap:butt;stroke-linejoin:miter;stroke-miterlimit:4;stroke-dasharray:none;stroke-dashoffset:0;stroke-opacity:1" />
    <path
       sodipodi:nodetypes="ssssss"
       inkscape:connector-curvature="0"
       id="path2232-0-7-5-1-9-9-4"
       d="m 24.361975,46.071773 c 0,0.267875 -0.21716,0.48503 -0.485039,0.48503 -0.26788,4e-6 -0.48504,-0.217155 -0.48504,-0.48503 0,-0.13914 0.05861,-0.264604 0.152442,-0.353055 0.08684,-0.08184 0.203862,-0.132 0.332598,-0.132 0.267879,0 0.485039,0.21717 0.485039,0.485049 z"
       style="opacity:1;fill:none;fill-opacity:1;stroke:#000000;stroke-width:0.0396875;stroke-linecap:butt;stroke-linejoin:miter;stroke-miterlimit:4;stroke-dasharray:none;stroke-dashoffset:0;stroke-opacity:1" />
    <path
       sodipodi:nodetypes="ssssss"
       inkscape:connector-curvature="0"
       id="path2232-0-7-5-1-9-1-0"
       d="m 24.361975,48.61982 c 0,0.267875 -0.21716,0.48503 -0.485039,0.48503 -0.26788,4e-6 -0.48504,-0.217155 -0.48504,-0.48503 0,-0.13914 0.05861,-0.264604 0.152442,-0.353055 0.08684,-0.08184 0.203862,-0.132 0.332598,-0.132 0.267879,0 0.485039,0.21717 0.485039,0.485051 z"
       style="opacity:1;fill:none;fill-opacity:1;stroke:#000000;stroke-width:0.0396875;stroke-linecap:butt;stroke-linejoin:miter;stroke-miterlimit:4;stroke-dasharray:none;stroke-dashoffset:0;stroke-opacity:1" />
    <path
       sodipodi:nodetypes="ssssss"
       inkscape:connector-curvature="0"
       id="path2232-0-7-5-1-9-7-5"
       d="m 24.361975,51.163704 c 0,0.267875 -0.21716,0.48503 -0.485039,0.48503 -0.26788,4e-6 -0.48504,-0.217155 -0.48504,-0.48503 0,-0.13914 0.05861,-0.264604 0.152442,-0.353055 0.08684,-0.08184 0.203862,-0.132 0.332598,-0.132 0.267879,0 0.485039,0.21717 0.485039,0.485051 z"
       style="opacity:1;fill:none;fill-opacity:1;stroke:#000000;stroke-width:0.0396875;stroke-linecap:butt;stroke-linejoin:miter;stroke-miterlimit:4;stroke-dasharray:none;stroke-dashoffset:0;stroke-opacity:1" />
    <path
       sodipodi:nodetypes="ssssss"
       inkscape:connector-curvature="0"
       id="path2232-0-7-5-1-9-71-9"
       d="m 24.361975,53.701912 c 0,0.267875 -0.21716,0.485028 -0.485039,0.485028 -0.26788,6e-6 -0.48504,-0.217153 -0.48504,-0.485028 0,-0.13914 0.05861,-0.264604 0.152442,-0.353055 0.08684,-0.08184 0.203862,-0.132 0.332598,-0.132 0.267879,0 0.485039,0.21717 0.485039,0.485051 z"
       style="opacity:1;fill:none;fill-opacity:1;stroke:#000000;stroke-width:0.0396875;stroke-linecap:butt;stroke-linejoin:miter;stroke-miterlimit:4;stroke-dasharray:none;stroke-dashoffset:0;stroke-opacity:1" />
    <path
       sodipodi:nodetypes="ssssss"
       inkscape:connector-curvature="0"
       id="path2232-0-7-5-1-9-15-4"
       d="m 24.361975,56.24996 c 0,0.267875 -0.21716,0.48503 -0.485039,0.48503 -0.26788,4e-6 -0.48504,-0.217155 -0.48504,-0.48503 0,-0.13914 0.05861,-0.264604 0.152442,-0.353056 0.08684,-0.08184 0.203862,-0.132 0.332598,-0.132 0.267879,0 0.485039,0.217171 0.485039,0.485052 z"
       style="opacity:1;fill:none;fill-opacity:1;stroke:#000000;stroke-width:0.0396875;stroke-linecap:butt;stroke-linejoin:miter;stroke-miterlimit:4;stroke-dasharray:none;stroke-dashoffset:0;stroke-opacity:1" />
    <path
       sodipodi:nodetypes="ssssss"
       inkscape:connector-curvature="0"
       id="path2232-0-7-5-1-9-97-6"
       d="m 24.361975,58.788673 c 0,0.267875 -0.21716,0.48503 -0.485039,0.48503 -0.26788,4e-6 -0.48504,-0.217155 -0.48504,-0.48503 0,-0.13914 0.05861,-0.264604 0.152442,-0.353055 0.08684,-0.08184 0.203862,-0.132 0.332598,-0.132 0.267879,0 0.485039,0.21717 0.485039,0.485051 z"
       style="opacity:1;fill:none;fill-opacity:1;stroke:#000000;stroke-width:0.0396875;stroke-linecap:butt;stroke-linejoin:miter;stroke-miterlimit:4;stroke-dasharray:none;stroke-dashoffset:0;stroke-opacity:1" />
    <path
       sodipodi:nodetypes="ssssss"
       inkscape:connector-curvature="0"
       id="path2232-0-7-5-1-9-76-92"
       d="m 24.361975,61.332053 c 0,0.267875 -0.21716,0.485028 -0.485039,0.485028 -0.26788,6e-6 -0.48504,-0.217153 -0.48504,-0.485028 0,-0.13914 0.05861,-0.264604 0.152442,-0.353055 0.08684,-0.08184 0.203862,-0.132 0.332598,-0.132 0.267879,0 0.485039,0.21717 0.485039,0.485051 z"
       style="opacity:1;fill:none;fill-opacity:1;stroke:#000000;stroke-width:0.0396875;stroke-linecap:butt;stroke-linejoin:miter;stroke-miterlimit:4;stroke-dasharray:none;stroke-dashoffset:0;stroke-opacity:1" />
    <path
       sodipodi:nodetypes="ssssss"
       inkscape:connector-curvature="0"
       id="path2232-0-7-5-1-9-73-2"
       d="m 24.361975,63.847432 c 0,0.267875 -0.21716,0.485028 -0.485039,0.485028 -0.26788,6e-6 -0.48504,-0.217153 -0.48504,-0.485028 0,-0.13914 0.05861,-0.264604 0.152442,-0.353055 0.08684,-0.08184 0.203862,-0.132 0.332598,-0.132 0.267879,0 0.485039,0.21717 0.485039,0.485051 z"
       style="opacity:1;fill:none;fill-opacity:1;stroke:#000000;stroke-width:0.0396875;stroke-linecap:butt;stroke-linejoin:miter;stroke-miterlimit:4;stroke-dasharray:none;stroke-dashoffset:0;stroke-opacity:1" />
    <path
       sodipodi:nodetypes="ssssss"
       inkscape:connector-curvature="0"
       id="path2232-0-7-5-1-9-6-47"
       d="m 24.361975,66.404811 c 0,0.267875 -0.21716,0.48503 -0.485039,0.48503 -0.26788,4e-6 -0.48504,-0.217155 -0.48504,-0.48503 0,-0.13914 0.05861,-0.264604 0.152442,-0.353055 0.08684,-0.08184 0.203862,-0.132 0.332598,-0.132 0.267879,0 0.485039,0.21717 0.485039,0.485051 z"
       style="opacity:1;fill:none;fill-opacity:1;stroke:#000000;stroke-width:0.0396875;stroke-linecap:butt;stroke-linejoin:miter;stroke-miterlimit:4;stroke-dasharray:none;stroke-dashoffset:0;stroke-opacity:1" />
    <path
       sodipodi:nodetypes="ssssss"
       inkscape:connector-curvature="0"
       id="path2232-0-7-5-1-9-5-7"
       d="m 24.361975,68.929524 c 0,0.267875 -0.21716,0.485028 -0.485039,0.485028 -0.26788,6e-6 -0.48504,-0.217153 -0.48504,-0.485028 0,-0.13914 0.05861,-0.264604 0.152442,-0.353055 0.08684,-0.08184 0.203862,-0.132 0.332598,-0.132 0.267879,0 0.485039,0.21717 0.485039,0.485051 z"
       style="opacity:1;fill:none;fill-opacity:1;stroke:#000000;stroke-width:0.0396875;stroke-linecap:butt;stroke-linejoin:miter;stroke-miterlimit:4;stroke-dasharray:none;stroke-dashoffset:0;stroke-opacity:1" />
    <path
       sodipodi:nodetypes="ssssss"
       inkscape:connector-curvature="0"
       id="path2232-0-7-5-1-9-63-5"
       d="m 24.361975,71.505571 c 0,0.267875 -0.21716,0.485028 -0.485039,0.485028 -0.26788,6e-6 -0.48504,-0.217153 -0.48504,-0.485028 0,-0.13914 0.05861,-0.264604 0.152442,-0.353055 0.08684,-0.08184 0.203862,-0.132 0.332598,-0.132 0.267879,0 0.485039,0.21717 0.485039,0.485051 z"
       style="opacity:1;fill:none;fill-opacity:1;stroke:#000000;stroke-width:0.0396875;stroke-linecap:butt;stroke-linejoin:miter;stroke-miterlimit:4;stroke-dasharray:none;stroke-dashoffset:0;stroke-opacity:1" />
    <path
       sodipodi:nodetypes="ssssss"
       inkscape:connector-curvature="0"
       id="path2232-0-7-5-1-9-94-4"
       d="m 24.361975,74.020949 c 0,0.267876 -0.21716,0.485029 -0.485039,0.485029 -0.26788,6e-6 -0.48504,-0.217153 -0.48504,-0.485029 0,-0.13914 0.05861,-0.264605 0.152442,-0.353054 0.08684,-0.08184 0.203862,-0.132 0.332598,-0.132 0.267879,0 0.485039,0.21717 0.485039,0.485049 z"
       style="opacity:1;fill:none;fill-opacity:1;stroke:#000000;stroke-width:0.0396875;stroke-linecap:butt;stroke-linejoin:miter;stroke-miterlimit:4;stroke-dasharray:none;stroke-dashoffset:0;stroke-opacity:1" />
    <path
       sodipodi:nodetypes="ssssss"
       inkscape:connector-curvature="0"
       id="path2232-0-7-5-1-9-8-8"
       d="m 24.361975,76.564329 c 0,0.267875 -0.21716,0.48503 -0.485039,0.48503 -0.26788,4e-6 -0.48504,-0.217155 -0.48504,-0.48503 0,-0.13914 0.05861,-0.264604 0.152442,-0.353055 0.08684,-0.08184 0.203862,-0.132 0.332598,-0.132 0.267879,0 0.485039,0.21717 0.485039,0.485051 z"
       style="opacity:1;fill:none;fill-opacity:1;stroke:#000000;stroke-width:0.0396875;stroke-linecap:butt;stroke-linejoin:miter;stroke-miterlimit:4;stroke-dasharray:none;stroke-dashoffset:0;stroke-opacity:1" />
    <path
       sodipodi:nodetypes="ssssss"
       inkscape:connector-curvature="0"
       id="path2232-0-7-5-1-9-12-1"
       d="m 24.361975,79.126375 c 0,0.267876 -0.21716,0.485029 -0.485039,0.485029 -0.26788,6e-6 -0.48504,-0.217153 -0.48504,-0.485029 0,-0.13914 0.05861,-0.264605 0.152442,-0.353054 0.08684,-0.08184 0.203862,-0.132 0.332598,-0.132 0.267879,0 0.485039,0.21717 0.485039,0.485049 z"
       style="opacity:1;fill:none;fill-opacity:1;stroke:#000000;stroke-width:0.0396875;stroke-linecap:butt;stroke-linejoin:miter;stroke-miterlimit:4;stroke-dasharray:none;stroke-dashoffset:0;stroke-opacity:1" />
    <path
       sodipodi:nodetypes="ssssss"
       inkscape:connector-curvature="0"
       id="path2232-0-7-5-1-9-93-2"
       d="m 24.361975,81.641754 c 0,0.267875 -0.21716,0.48503 -0.485039,0.48503 -0.26788,4e-6 -0.48504,-0.217155 -0.48504,-0.48503 0,-0.13914 0.05861,-0.264604 0.152442,-0.353055 0.08684,-0.08184 0.203862,-0.132 0.332598,-0.132 0.267879,0 0.485039,0.21717 0.485039,0.485049 z"
       style="opacity:1;fill:none;fill-opacity:1;stroke:#000000;stroke-width:0.0396875;stroke-linecap:butt;stroke-linejoin:miter;stroke-miterlimit:4;stroke-dasharray:none;stroke-dashoffset:0;stroke-opacity:1" />
    <path
       sodipodi:nodetypes="ssssss"
       inkscape:connector-curvature="0"
       id="path2232-0-7-5-1-9-90-8"
       d="m 24.361975,84.185112 c 0,-0.267875 -0.21716,-0.48503 -0.485039,-0.48503 -0.26788,-4e-6 -0.48504,0.217155 -0.48504,0.48503 0,0.13914 0.05861,0.264604 0.152442,0.353055 0.08684,0.08184 0.203862,0.132 0.332598,0.132 0.267879,0 0.485039,-0.21717 0.485039,-0.485049 z"
       style="opacity:1;fill:none;fill-opacity:1;stroke:#000000;stroke-width:0.0396875;stroke-linecap:butt;stroke-linejoin:miter;stroke-miterlimit:4;stroke-dasharray:none;stroke-dashoffset:0;stroke-opacity:1" />
    <path
       sodipodi:nodetypes="ssssss"
       inkscape:connector-curvature="0"
       id="path2232-0-7-5-1-9-88-9"
       d="m 24.361975,86.73318 c 0,0.267875 -0.21716,0.48503 -0.485039,0.48503 -0.26788,4e-6 -0.48504,-0.217155 -0.48504,-0.48503 0,-0.13914 0.05861,-0.264604 0.152442,-0.353055 0.08684,-0.08184 0.203862,-0.132 0.332598,-0.132 0.267879,0 0.485039,0.21717 0.485039,0.485051 z"
       style="opacity:1;fill:none;fill-opacity:1;stroke:#000000;stroke-width:0.0396875;stroke-linecap:butt;stroke-linejoin:miter;stroke-miterlimit:4;stroke-dasharray:none;stroke-dashoffset:0;stroke-opacity:1" />
    <path
       sodipodi:nodetypes="ssssss"
       inkscape:connector-curvature="0"
       id="path2232-0-7-5-1-9-50-3"
       d="m 24.361975,89.27656 c 0,0.267875 -0.21716,0.485028 -0.485039,0.485028 -0.26788,6e-6 -0.48504,-0.217153 -0.48504,-0.485028 0,-0.13914 0.05861,-0.264604 0.152442,-0.353055 0.08684,-0.08184 0.203862,-0.132 0.332598,-0.132 0.267879,0 0.485039,0.21717 0.485039,0.485051 z"
       style="opacity:1;fill:none;fill-opacity:1;stroke:#000000;stroke-width:0.0396875;stroke-linecap:butt;stroke-linejoin:miter;stroke-miterlimit:4;stroke-dasharray:none;stroke-dashoffset:0;stroke-opacity:1" />
    <path
       sodipodi:nodetypes="ssssss"
       inkscape:connector-curvature="0"
       id="path2232-0-7-5-1-9-96-8"
       d="m 42.205972,40.998203 c 0,0.267875 -0.21716,0.485028 -0.485039,0.485028 -0.26788,6e-6 -0.48504,-0.217153 -0.48504,-0.485028 0,-0.13914 0.05861,-0.264604 0.152442,-0.353055 0.08684,-0.08184 0.203862,-0.132 0.332598,-0.132 0.267879,0 0.485039,0.21717 0.485039,0.485051 z"
       style="opacity:1;fill:none;fill-opacity:1;stroke:#000000;stroke-width:0.0396875;stroke-linecap:butt;stroke-linejoin:miter;stroke-miterlimit:4;stroke-dasharray:none;stroke-dashoffset:0;stroke-opacity:1" />
    <path
       sodipodi:nodetypes="ssssss"
       inkscape:connector-curvature="0"
       id="path2232-0-7-5-1-9-0-3-0"
       d="m 42.205972,43.537726 c 0,0.267875 -0.21716,0.48503 -0.485039,0.48503 -0.26788,4e-6 -0.48504,-0.217155 -0.48504,-0.48503 0,-0.13914 0.05861,-0.264604 0.152442,-0.353055 0.08684,-0.08184 0.203862,-0.132 0.332598,-0.132 0.267879,0 0.485039,0.21717 0.485039,0.485049 z"
       style="opacity:1;fill:none;fill-opacity:1;stroke:#000000;stroke-width:0.0396875;stroke-linecap:butt;stroke-linejoin:miter;stroke-miterlimit:4;stroke-dasharray:none;stroke-dashoffset:0;stroke-opacity:1" />
    <path
       sodipodi:nodetypes="ssssss"
       inkscape:connector-curvature="0"
       id="path2232-0-7-5-1-9-9-8-2"
       d="m 42.205972,46.071771 c 0,0.267875 -0.21716,0.48503 -0.485039,0.48503 -0.26788,4e-6 -0.48504,-0.217155 -0.48504,-0.48503 0,-0.13914 0.05861,-0.264604 0.152442,-0.353055 0.08684,-0.08184 0.203862,-0.132 0.332598,-0.132 0.267879,0 0.485039,0.21717 0.485039,0.485049 z"
       style="opacity:1;fill:none;fill-opacity:1;stroke:#000000;stroke-width:0.0396875;stroke-linecap:butt;stroke-linejoin:miter;stroke-miterlimit:4;stroke-dasharray:none;stroke-dashoffset:0;stroke-opacity:1" />
    <path
       sodipodi:nodetypes="ssssss"
       inkscape:connector-curvature="0"
       id="path2232-0-7-5-1-9-1-5-1"
       d="m 42.205972,48.619818 c 0,0.267875 -0.21716,0.48503 -0.485039,0.48503 -0.26788,4e-6 -0.48504,-0.217155 -0.48504,-0.48503 0,-0.13914 0.05861,-0.264604 0.152442,-0.353055 0.08684,-0.08184 0.203862,-0.132 0.332598,-0.132 0.267879,0 0.485039,0.21717 0.485039,0.485051 z"
       style="opacity:1;fill:none;fill-opacity:1;stroke:#000000;stroke-width:0.0396875;stroke-linecap:butt;stroke-linejoin:miter;stroke-miterlimit:4;stroke-dasharray:none;stroke-dashoffset:0;stroke-opacity:1" />
    <path
       sodipodi:nodetypes="ssssss"
       inkscape:connector-curvature="0"
       id="path2232-0-7-5-1-9-7-6-0"
       d="m 42.205972,51.163702 c 0,0.267875 -0.21716,0.48503 -0.485039,0.48503 -0.26788,4e-6 -0.48504,-0.217155 -0.48504,-0.48503 0,-0.13914 0.05861,-0.264604 0.152442,-0.353055 0.08684,-0.08184 0.203862,-0.132 0.332598,-0.132 0.267879,0 0.485039,0.21717 0.485039,0.485051 z"
       style="opacity:1;fill:none;fill-opacity:1;stroke:#000000;stroke-width:0.0396875;stroke-linecap:butt;stroke-linejoin:miter;stroke-miterlimit:4;stroke-dasharray:none;stroke-dashoffset:0;stroke-opacity:1" />
    <path
       sodipodi:nodetypes="ssssss"
       inkscape:connector-curvature="0"
       id="path2232-0-7-5-1-9-71-1-5"
       d="m 42.205972,53.70191 c 0,0.267875 -0.21716,0.48503 -0.485039,0.48503 -0.26788,4e-6 -0.48504,-0.217155 -0.48504,-0.48503 0,-0.13914 0.05861,-0.264604 0.152442,-0.353055 0.08684,-0.08184 0.203862,-0.132 0.332598,-0.132 0.267879,0 0.485039,0.21717 0.485039,0.485051 z"
       style="opacity:1;fill:none;fill-opacity:1;stroke:#000000;stroke-width:0.0396875;stroke-linecap:butt;stroke-linejoin:miter;stroke-miterlimit:4;stroke-dasharray:none;stroke-dashoffset:0;stroke-opacity:1" />
    <path
       sodipodi:nodetypes="ssssss"
       inkscape:connector-curvature="0"
       id="path2232-0-7-5-1-9-15-1-1"
       d="m 42.205972,56.249957 c 0,0.267875 -0.21716,0.485028 -0.485039,0.485028 -0.26788,1.1e-5 -0.48504,-0.217153 -0.48504,-0.485028 0,-0.13914 0.05861,-0.264604 0.152442,-0.353055 0.08684,-0.08184 0.203862,-0.132 0.332598,-0.132 0.267879,0 0.485039,0.217176 0.485039,0.485051 z"
       style="opacity:1;fill:none;fill-opacity:1;stroke:#000000;stroke-width:0.0396875;stroke-linecap:butt;stroke-linejoin:miter;stroke-miterlimit:4;stroke-dasharray:none;stroke-dashoffset:0;stroke-opacity:1" />
    <path
       sodipodi:nodetypes="ssssss"
       inkscape:connector-curvature="0"
       id="path2232-0-7-5-1-9-97-5-1"
       d="m 42.205972,58.788673 c 0,0.267875 -0.21716,0.485028 -0.485039,0.485028 -0.26788,6e-6 -0.48504,-0.217153 -0.48504,-0.485028 0,-0.13914 0.05861,-0.264604 0.152442,-0.353055 0.08684,-0.08184 0.203862,-0.132 0.332598,-0.132 0.267879,0 0.485039,0.21717 0.485039,0.485051 z"
       style="opacity:1;fill:none;fill-opacity:1;stroke:#000000;stroke-width:0.0396875;stroke-linecap:butt;stroke-linejoin:miter;stroke-miterlimit:4;stroke-dasharray:none;stroke-dashoffset:0;stroke-opacity:1" />
    <path
       sodipodi:nodetypes="ssssss"
       inkscape:connector-curvature="0"
       id="path2232-0-7-5-1-9-76-9-0"
       d="m 42.205972,61.332052 c 0,0.267875 -0.21716,0.48503 -0.485039,0.48503 -0.26788,4e-6 -0.48504,-0.217155 -0.48504,-0.48503 0,-0.13914 0.05861,-0.264604 0.152442,-0.353055 0.08684,-0.08184 0.203862,-0.132 0.332598,-0.132 0.267879,0 0.485039,0.21717 0.485039,0.485051 z"
       style="opacity:1;fill:none;fill-opacity:1;stroke:#000000;stroke-width:0.0396875;stroke-linecap:butt;stroke-linejoin:miter;stroke-miterlimit:4;stroke-dasharray:none;stroke-dashoffset:0;stroke-opacity:1" />
    <path
       sodipodi:nodetypes="ssssss"
       inkscape:connector-curvature="0"
       id="path2232-0-7-5-1-9-73-8-8"
       d="m 42.205972,63.847433 c 0,0.267873 -0.21716,0.485026 -0.485039,0.485026 -0.26788,6e-6 -0.48504,-0.217153 -0.48504,-0.485026 0,-0.13914 0.05861,-0.264605 0.152442,-0.353055 0.08684,-0.08184 0.203862,-0.132 0.332598,-0.132 0.267879,0 0.485039,0.21717 0.485039,0.48505 z"
       style="opacity:1;fill:none;fill-opacity:1;stroke:#000000;stroke-width:0.0396875;stroke-linecap:butt;stroke-linejoin:miter;stroke-miterlimit:4;stroke-dasharray:none;stroke-dashoffset:0;stroke-opacity:1" />
    <path
       sodipodi:nodetypes="ssssss"
       inkscape:connector-curvature="0"
       id="path2232-0-7-5-1-9-6-4-5"
       d="m 42.205972,66.404808 c 0,0.267876 -0.21716,0.485029 -0.485039,0.485029 -0.26788,6e-6 -0.48504,-0.217153 -0.48504,-0.485029 0,-0.13914 0.05861,-0.264605 0.152442,-0.353054 0.08684,-0.08184 0.203862,-0.132 0.332598,-0.132 0.267879,0 0.485039,0.21717 0.485039,0.485049 z"
       style="opacity:1;fill:none;fill-opacity:1;stroke:#000000;stroke-width:0.0396875;stroke-linecap:butt;stroke-linejoin:miter;stroke-miterlimit:4;stroke-dasharray:none;stroke-dashoffset:0;stroke-opacity:1" />
    <path
       sodipodi:nodetypes="ssssss"
       inkscape:connector-curvature="0"
       id="path2232-0-7-5-1-9-5-8-0"
       d="m 42.205972,68.929522 c 0,0.267874 -0.21716,0.485028 -0.485039,0.485028 -0.26788,0 -0.48504,-0.217154 -0.48504,-0.485028 0,-0.13914 0.05861,-0.264605 0.152442,-0.353061 0.08684,-0.08184 0.203862,-0.131985 0.332598,-0.131985 0.267879,0 0.485039,0.21717 0.485039,0.48505 z"
       style="opacity:1;fill:none;fill-opacity:1;stroke:#000000;stroke-width:0.0396875;stroke-linecap:butt;stroke-linejoin:miter;stroke-miterlimit:4;stroke-dasharray:none;stroke-dashoffset:0;stroke-opacity:1" />
    <path
       sodipodi:nodetypes="ssssss"
       inkscape:connector-curvature="0"
       id="path2232-0-7-5-1-9-63-1-6"
       d="m 42.205972,71.505569 c 0,0.267875 -0.21716,0.48503 -0.485039,0.48503 -0.26788,4e-6 -0.48504,-0.217155 -0.48504,-0.48503 0,-0.13914 0.05861,-0.264604 0.152442,-0.353055 0.08684,-0.08184 0.203862,-0.132 0.332598,-0.132 0.267879,0 0.485039,0.21717 0.485039,0.485055 z"
       style="opacity:1;fill:none;fill-opacity:1;stroke:#000000;stroke-width:0.0396875;stroke-linecap:butt;stroke-linejoin:miter;stroke-miterlimit:4;stroke-dasharray:none;stroke-dashoffset:0;stroke-opacity:1" />
    <path
       sodipodi:nodetypes="ssssss"
       inkscape:connector-curvature="0"
       id="path2232-0-7-5-1-9-94-0-4"
       d="m 42.205972,74.020944 c 0,0.267876 -0.21716,0.48503 -0.485039,0.48503 -0.26788,1e-5 -0.48504,-0.217154 -0.48504,-0.48503 0,-0.13914 0.05861,-0.264604 0.152442,-0.353049 0.08684,-0.08184 0.203862,-0.132 0.332598,-0.132 0.267879,0 0.485039,0.21717 0.485039,0.485045 z"
       style="opacity:1;fill:none;fill-opacity:1;stroke:#000000;stroke-width:0.0396875;stroke-linecap:butt;stroke-linejoin:miter;stroke-miterlimit:4;stroke-dasharray:none;stroke-dashoffset:0;stroke-opacity:1" />
    <path
       sodipodi:nodetypes="ssssss"
       inkscape:connector-curvature="0"
       id="path2232-0-7-5-1-9-8-3-6"
       d="m 42.205972,76.564328 c 0,0.267876 -0.21716,0.485029 -0.485039,0.485029 -0.26788,6e-6 -0.48504,-0.217153 -0.48504,-0.485029 0,-0.13914 0.05861,-0.264605 0.152442,-0.353054 0.08684,-0.08184 0.203862,-0.132 0.332598,-0.132 0.267879,0 0.485039,0.21717 0.485039,0.485054 z"
       style="opacity:1;fill:none;fill-opacity:1;stroke:#000000;stroke-width:0.0396875;stroke-linecap:butt;stroke-linejoin:miter;stroke-miterlimit:4;stroke-dasharray:none;stroke-dashoffset:0;stroke-opacity:1" />
    <path
       sodipodi:nodetypes="ssssss"
       inkscape:connector-curvature="0"
       id="path2232-0-7-5-1-9-12-0-2"
       d="m 42.205972,79.126373 c 0,0.267876 -0.21716,0.485029 -0.485039,0.485029 -0.26788,6e-6 -0.48504,-0.217153 -0.48504,-0.485029 0,-0.13914 0.05861,-0.264605 0.152442,-0.353054 0.08684,-0.08184 0.203862,-0.132 0.332598,-0.132 0.267879,0 0.485039,0.21717 0.485039,0.485049 z"
       style="opacity:1;fill:none;fill-opacity:1;stroke:#000000;stroke-width:0.0396875;stroke-linecap:butt;stroke-linejoin:miter;stroke-miterlimit:4;stroke-dasharray:none;stroke-dashoffset:0;stroke-opacity:1" />
    <path
       sodipodi:nodetypes="ssssss"
       inkscape:connector-curvature="0"
       id="path2232-0-7-5-1-9-93-4-5"
       d="m 42.205972,81.64175 c 0,0.267874 -0.21716,0.485028 -0.485039,0.485028 -0.26788,1e-5 -0.48504,-0.217154 -0.48504,-0.485028 0,-0.13914 0.05861,-0.264605 0.152442,-0.353051 0.08684,-0.08184 0.203862,-0.132 0.332598,-0.132 0.267879,0 0.485039,0.21717 0.485039,0.485046 z"
       style="opacity:1;fill:none;fill-opacity:1;stroke:#000000;stroke-width:0.0396875;stroke-linecap:butt;stroke-linejoin:miter;stroke-miterlimit:4;stroke-dasharray:none;stroke-dashoffset:0;stroke-opacity:1" />
    <path
       sodipodi:nodetypes="ssssss"
       inkscape:connector-curvature="0"
       id="path2232-0-7-5-1-9-90-4-8"
       d="m 42.205972,84.185107 c 0,-0.267874 -0.21716,-0.485028 -0.485039,-0.485028 -0.26788,-4e-6 -0.48504,0.217154 -0.48504,0.485028 0,0.13914 0.05861,0.264605 0.152442,0.353057 0.08684,0.08184 0.203862,0.132 0.332598,0.132 0.267879,0 0.485039,-0.21717 0.485039,-0.485054 z"
       style="opacity:1;fill:none;fill-opacity:1;stroke:#000000;stroke-width:0.0396875;stroke-linecap:butt;stroke-linejoin:miter;stroke-miterlimit:4;stroke-dasharray:none;stroke-dashoffset:0;stroke-opacity:1" />
    <path
       sodipodi:nodetypes="ssssss"
       inkscape:connector-curvature="0"
       id="path2232-0-7-5-1-9-88-4-6"
       d="m 42.205972,86.733178 c 0,0.267876 -0.21716,0.48503 -0.485039,0.48503 -0.26788,3e-6 -0.48504,-0.217154 -0.48504,-0.48503 0,-0.13914 0.05861,-0.264604 0.152442,-0.353056 0.08684,-0.08184 0.203862,-0.132 0.332598,-0.132 0.267879,0 0.485039,0.21717 0.485039,0.485052 z"
       style="opacity:1;fill:none;fill-opacity:1;stroke:#000000;stroke-width:0.0396875;stroke-linecap:butt;stroke-linejoin:miter;stroke-miterlimit:4;stroke-dasharray:none;stroke-dashoffset:0;stroke-opacity:1" />
    <path
       sodipodi:nodetypes="ssssss"
       inkscape:connector-curvature="0"
       id="path2232-0-7-5-1-9-50-4-2"
       d="m 42.205972,89.276558 c 0,0.267874 -0.21716,0.485028 -0.485039,0.485028 -0.26788,4e-6 -0.48504,-0.217154 -0.48504,-0.485028 0,-0.13914 0.05861,-0.264605 0.152442,-0.353057 0.08684,-0.08184 0.203862,-0.132 0.332598,-0.132 0.267879,0 0.485039,0.21717 0.485039,0.485049 z"
       style="opacity:1;fill:none;fill-opacity:1;stroke:#000000;stroke-width:0.0396875;stroke-linecap:butt;stroke-linejoin:miter;stroke-miterlimit:4;stroke-dasharray:none;stroke-dashoffset:0;stroke-opacity:1" />
  </g>
</svg>
