<?xml version="1.0" encoding="UTF-8"?>
<svg xmlns="http://www.w3.org/2000/svg" xmlns:xlink="http://www.w3.org/1999/xlink" width="150pt" height="211pt" viewBox="0 0 150 211" version="1.1">
<g id="surface3645">
<path style=" stroke:none;fill-rule:evenodd;fill:rgb(45.098039%,45.098039%,87.058824%);fill-opacity:1;" d="M 17.832031 93.191406 L 22.792969 93.191406 L 22.792969 88.230469 L 17.832031 88.230469 Z M 17.832031 93.191406 "/>
<path style=" stroke:none;fill-rule:evenodd;fill:rgb(45.098039%,45.098039%,87.058824%);fill-opacity:1;" d="M 22.792969 97.910156 C 22.792969 94.601562 17.832031 94.601562 17.832031 97.910156 C 17.832031 101.214844 22.792969 101.214844 22.792969 97.910156 "/>
<path style=" stroke:none;fill-rule:evenodd;fill:rgb(45.098039%,45.098039%,87.058824%);fill-opacity:1;" d="M 22.792969 105.109375 C 22.792969 101.800781 17.832031 101.800781 17.832031 105.109375 C 17.832031 108.417969 22.792969 108.417969 22.792969 105.109375 "/>
<path style=" stroke:none;fill-rule:evenodd;fill:rgb(45.098039%,45.098039%,87.058824%);fill-opacity:1;" d="M 22.792969 112.308594 C 22.792969 109.003906 17.832031 109.003906 17.832031 112.308594 C 17.832031 115.617188 22.792969 115.617188 22.792969 112.308594 "/>
<path style=" stroke:none;fill-rule:evenodd;fill:rgb(45.098039%,45.098039%,87.058824%);fill-opacity:1;" d="M 22.792969 119.507812 C 22.792969 116.203125 17.832031 116.203125 17.832031 119.507812 C 17.832031 122.816406 22.792969 122.816406 22.792969 119.507812 "/>
<path style=" stroke:none;fill-rule:evenodd;fill:rgb(45.098039%,45.098039%,87.058824%);fill-opacity:1;" d="M 22.792969 126.710938 C 22.792969 123.402344 17.832031 123.402344 17.832031 126.710938 C 17.832031 130.015625 22.792969 130.015625 22.792969 126.710938 "/>
<path style=" stroke:none;fill-rule:evenodd;fill:rgb(45.098039%,45.098039%,87.058824%);fill-opacity:1;" d="M 22.792969 133.910156 C 22.792969 130.601562 17.832031 130.601562 17.832031 133.910156 C 17.832031 137.214844 22.792969 137.214844 22.792969 133.910156 "/>
<path style=" stroke:none;fill-rule:evenodd;fill:rgb(45.098039%,45.098039%,87.058824%);fill-opacity:1;" d="M 22.792969 141.109375 C 22.792969 137.800781 17.832031 137.800781 17.832031 141.109375 C 17.832031 144.417969 22.792969 144.417969 22.792969 141.109375 "/>
<path style=" stroke:none;fill-rule:evenodd;fill:rgb(45.098039%,45.098039%,87.058824%);fill-opacity:1;" d="M 22.792969 148.308594 C 22.792969 145.003906 17.832031 145.003906 17.832031 148.308594 C 17.832031 151.617188 22.792969 151.617188 22.792969 148.308594 "/>
<path style=" stroke:none;fill-rule:evenodd;fill:rgb(45.098039%,45.098039%,87.058824%);fill-opacity:1;" d="M 22.792969 155.507812 C 22.792969 152.203125 17.832031 152.203125 17.832031 155.507812 C 17.832031 158.816406 22.792969 158.816406 22.792969 155.507812 "/>
<path style=" stroke:none;fill-rule:evenodd;fill:rgb(45.098039%,45.098039%,87.058824%);fill-opacity:1;" d="M 22.792969 162.710938 C 22.792969 159.402344 17.832031 159.402344 17.832031 162.710938 C 17.832031 166.015625 22.792969 166.015625 22.792969 162.710938 "/>
<path style=" stroke:none;fill-rule:evenodd;fill:rgb(45.098039%,45.098039%,87.058824%);fill-opacity:1;" d="M 22.792969 169.910156 C 22.792969 166.601562 17.832031 166.601562 17.832031 169.910156 C 17.832031 173.214844 22.792969 173.214844 22.792969 169.910156 "/>
<path style=" stroke:none;fill-rule:evenodd;fill:rgb(45.098039%,45.098039%,87.058824%);fill-opacity:1;" d="M 22.792969 177.109375 C 22.792969 173.800781 17.832031 173.800781 17.832031 177.109375 C 17.832031 180.417969 22.792969 180.417969 22.792969 177.109375 "/>
<path style=" stroke:none;fill-rule:evenodd;fill:rgb(45.098039%,45.098039%,87.058824%);fill-opacity:1;" d="M 22.792969 184.308594 C 22.792969 181.003906 17.832031 181.003906 17.832031 184.308594 C 17.832031 187.617188 22.792969 187.617188 22.792969 184.308594 "/>
<path style=" stroke:none;fill-rule:evenodd;fill:rgb(45.098039%,45.098039%,87.058824%);fill-opacity:1;" d="M 22.792969 191.507812 C 22.792969 188.203125 17.832031 188.203125 17.832031 191.507812 C 17.832031 194.816406 22.792969 194.816406 22.792969 191.507812 "/>
<path style=" stroke:none;fill-rule:evenodd;fill:rgb(45.098039%,45.098039%,87.058824%);fill-opacity:1;" d="M 87.589844 191.507812 C 87.589844 188.203125 82.632812 188.203125 82.632812 191.507812 C 82.632812 194.816406 87.589844 194.816406 87.589844 191.507812 "/>
<path style=" stroke:none;fill-rule:evenodd;fill:rgb(45.098039%,45.098039%,87.058824%);fill-opacity:1;" d="M 87.589844 184.308594 C 87.589844 181.003906 82.632812 181.003906 82.632812 184.308594 C 82.632812 187.617188 87.589844 187.617188 87.589844 184.308594 "/>
<path style=" stroke:none;fill-rule:evenodd;fill:rgb(45.098039%,45.098039%,87.058824%);fill-opacity:1;" d="M 87.589844 177.109375 C 87.589844 173.800781 82.632812 173.800781 82.632812 177.109375 C 82.632812 180.417969 87.589844 180.417969 87.589844 177.109375 "/>
<path style=" stroke:none;fill-rule:evenodd;fill:rgb(45.098039%,45.098039%,87.058824%);fill-opacity:1;" d="M 87.589844 169.910156 C 87.589844 166.601562 82.632812 166.601562 82.632812 169.910156 C 82.632812 173.214844 87.589844 173.214844 87.589844 169.910156 "/>
<path style=" stroke:none;fill-rule:evenodd;fill:rgb(45.098039%,45.098039%,87.058824%);fill-opacity:1;" d="M 87.589844 162.710938 C 87.589844 159.402344 82.632812 159.402344 82.632812 162.710938 C 82.632812 166.015625 87.589844 166.015625 87.589844 162.710938 "/>
<path style=" stroke:none;fill-rule:evenodd;fill:rgb(45.098039%,45.098039%,87.058824%);fill-opacity:1;" d="M 87.589844 155.507812 C 87.589844 152.203125 82.632812 152.203125 82.632812 155.507812 C 82.632812 158.816406 87.589844 158.816406 87.589844 155.507812 "/>
<path style=" stroke:none;fill-rule:evenodd;fill:rgb(45.098039%,45.098039%,87.058824%);fill-opacity:1;" d="M 87.589844 148.308594 C 87.589844 145.003906 82.632812 145.003906 82.632812 148.308594 C 82.632812 151.617188 87.589844 151.617188 87.589844 148.308594 "/>
<path style=" stroke:none;fill-rule:evenodd;fill:rgb(45.098039%,45.098039%,87.058824%);fill-opacity:1;" d="M 87.589844 141.109375 C 87.589844 137.800781 82.632812 137.800781 82.632812 141.109375 C 82.632812 144.417969 87.589844 144.417969 87.589844 141.109375 "/>
<path style=" stroke:none;fill-rule:evenodd;fill:rgb(45.098039%,45.098039%,87.058824%);fill-opacity:1;" d="M 87.589844 133.910156 C 87.589844 130.601562 82.632812 130.601562 82.632812 133.910156 C 82.632812 137.214844 87.589844 137.214844 87.589844 133.910156 "/>
<path style=" stroke:none;fill-rule:evenodd;fill:rgb(45.098039%,45.098039%,87.058824%);fill-opacity:1;" d="M 87.589844 126.710938 C 87.589844 123.402344 82.632812 123.402344 82.632812 126.710938 C 82.632812 130.015625 87.589844 130.015625 87.589844 126.710938 "/>
<path style=" stroke:none;fill-rule:evenodd;fill:rgb(45.098039%,45.098039%,87.058824%);fill-opacity:1;" d="M 87.589844 119.507812 C 87.589844 116.203125 82.632812 116.203125 82.632812 119.507812 C 82.632812 122.816406 87.589844 122.816406 87.589844 119.507812 "/>
<path style=" stroke:none;fill-rule:evenodd;fill:rgb(45.098039%,45.098039%,87.058824%);fill-opacity:1;" d="M 87.589844 112.308594 C 87.589844 109.003906 82.632812 109.003906 82.632812 112.308594 C 82.632812 115.617188 87.589844 115.617188 87.589844 112.308594 "/>
<path style=" stroke:none;fill-rule:evenodd;fill:rgb(45.098039%,45.098039%,87.058824%);fill-opacity:1;" d="M 87.589844 105.109375 C 87.589844 101.800781 82.632812 101.800781 82.632812 105.109375 C 82.632812 108.417969 87.589844 108.417969 87.589844 105.109375 "/>
<path style=" stroke:none;fill-rule:evenodd;fill:rgb(45.098039%,45.098039%,87.058824%);fill-opacity:1;" d="M 87.589844 97.910156 C 87.589844 94.601562 82.632812 94.601562 82.632812 97.910156 C 82.632812 101.214844 87.589844 101.214844 87.589844 97.910156 "/>
<path style=" stroke:none;fill-rule:evenodd;fill:rgb(45.098039%,45.098039%,87.058824%);fill-opacity:1;" d="M 87.589844 90.710938 C 87.589844 87.402344 82.632812 87.402344 82.632812 90.710938 C 82.632812 94.015625 87.589844 94.015625 87.589844 90.710938 "/>
<path style=" stroke:none;fill-rule:evenodd;fill:rgb(45.098039%,45.098039%,87.058824%);fill-opacity:1;" d="M 33.773438 11.507812 C 33.773438 7.957031 28.445312 7.957031 28.445312 11.507812 C 28.445312 15.0625 33.773438 15.0625 33.773438 11.507812 "/>
<path style=" stroke:none;fill-rule:evenodd;fill:rgb(45.098039%,45.098039%,87.058824%);fill-opacity:1;" d="M 40.976562 11.507812 C 40.976562 7.957031 35.648438 7.957031 35.648438 11.507812 C 35.648438 15.0625 40.976562 15.0625 40.976562 11.507812 "/>
<path style=" stroke:none;fill-rule:evenodd;fill:rgb(45.098039%,45.098039%,87.058824%);fill-opacity:1;" d="M 98.574219 11.507812 C 98.574219 7.957031 93.246094 7.957031 93.246094 11.507812 C 93.246094 15.0625 98.574219 15.0625 98.574219 11.507812 "/>
<path style=" stroke:none;fill-rule:evenodd;fill:rgb(45.098039%,45.098039%,87.058824%);fill-opacity:1;" d="M 91.375 11.507812 C 91.375 7.957031 86.046875 7.957031 86.046875 11.507812 C 86.046875 15.0625 91.375 15.0625 91.375 11.507812 "/>
<path style=" stroke:none;fill-rule:evenodd;fill:rgb(45.098039%,45.098039%,87.058824%);fill-opacity:1;" d="M 84.175781 11.507812 C 84.175781 7.957031 78.847656 7.957031 78.847656 11.507812 C 78.847656 15.0625 84.175781 15.0625 84.175781 11.507812 "/>
<path style=" stroke:none;fill-rule:evenodd;fill:rgb(45.098039%,45.098039%,87.058824%);fill-opacity:1;" d="M 120.175781 169.910156 C 120.175781 166.359375 114.847656 166.359375 114.847656 169.910156 C 114.847656 173.460938 120.175781 173.460938 120.175781 169.910156 "/>
<path style=" stroke:none;fill-rule:evenodd;fill:rgb(45.098039%,45.098039%,87.058824%);fill-opacity:1;" d="M 120.175781 177.109375 C 120.175781 173.558594 114.847656 173.558594 114.847656 177.109375 C 114.847656 180.660156 120.175781 180.660156 120.175781 177.109375 "/>
<path style=" stroke:none;fill-rule:evenodd;fill:rgb(45.098039%,45.098039%,87.058824%);fill-opacity:1;" d="M 120.175781 184.308594 C 120.175781 180.757812 114.847656 180.757812 114.847656 184.308594 C 114.847656 187.863281 120.175781 187.863281 120.175781 184.308594 "/>
<path style=" stroke:none;fill-rule:evenodd;fill:rgb(45.098039%,45.098039%,87.058824%);fill-opacity:1;" d="M 120.175781 191.507812 C 120.175781 187.957031 114.847656 187.957031 114.847656 191.507812 C 114.847656 195.0625 120.175781 195.0625 120.175781 191.507812 "/>
<path style=" stroke:none;fill-rule:evenodd;fill:rgb(45.098039%,45.098039%,87.058824%);fill-opacity:1;" d="M 120.175781 198.710938 C 120.175781 195.15625 114.847656 195.15625 114.847656 198.710938 C 114.847656 202.261719 120.175781 202.261719 120.175781 198.710938 "/>
<path style=" stroke:none;fill-rule:evenodd;fill:rgb(45.098039%,45.098039%,87.058824%);fill-opacity:1;" d="M 143.792969 104.316406 C 143.792969 100.765625 138.464844 100.765625 138.464844 104.316406 C 138.464844 107.871094 143.792969 107.871094 143.792969 104.316406 "/>
<path style=" stroke:none;fill-rule:evenodd;fill:rgb(45.098039%,45.098039%,87.058824%);fill-opacity:1;" d="M 125.359375 104.316406 C 125.359375 100.765625 120.03125 100.765625 120.03125 104.316406 C 120.03125 107.871094 125.359375 107.871094 125.359375 104.316406 "/>
<path style=" stroke:none;fill-rule:evenodd;fill:rgb(45.098039%,45.098039%,87.058824%);fill-opacity:1;" d="M 143.792969 91.5 C 143.792969 87.949219 138.464844 87.949219 138.464844 91.5 C 138.464844 95.054688 143.792969 95.054688 143.792969 91.5 "/>
<path style=" stroke:none;fill-rule:evenodd;fill:rgb(45.098039%,45.098039%,87.058824%);fill-opacity:1;" d="M 125.359375 91.5 C 125.359375 87.949219 120.03125 87.949219 120.03125 91.5 C 120.03125 95.054688 125.359375 95.054688 125.359375 91.5 "/>
<path style=" stroke:none;fill-rule:evenodd;fill:rgb(45.098039%,45.098039%,87.058824%);fill-opacity:1;" d="M 105.804688 28.6875 L 111.132812 28.6875 L 111.132812 23.359375 L 105.804688 23.359375 Z M 105.804688 28.6875 "/>
<path style=" stroke:none;fill-rule:evenodd;fill:rgb(45.098039%,45.098039%,87.058824%);fill-opacity:1;" d="M 105.804688 35.773438 L 111.132812 35.773438 L 111.132812 30.445312 L 105.804688 30.445312 Z M 105.804688 35.773438 "/>
<path style=" stroke:none;fill-rule:evenodd;fill:rgb(45.098039%,45.098039%,87.058824%);fill-opacity:1;" d="M 105.804688 42.859375 L 111.132812 42.859375 L 111.132812 37.53125 L 105.804688 37.53125 Z M 105.804688 42.859375 "/>
<path style=" stroke:none;fill-rule:evenodd;fill:rgb(45.098039%,45.098039%,87.058824%);fill-opacity:1;" d="M 124.058594 22.398438 L 126.550781 24.890625 L 130.074219 24.890625 L 132.5625 22.398438 L 132.5625 18.875 L 130.074219 16.386719 L 126.550781 16.386719 L 124.058594 18.875 L 124.058594 22.398438 "/>
<path style=" stroke:none;fill-rule:evenodd;fill:rgb(45.098039%,45.098039%,87.058824%);fill-opacity:1;" d="M 124.058594 47.34375 L 126.550781 49.835938 L 130.074219 49.835938 L 132.5625 47.34375 L 132.5625 43.820312 L 130.074219 41.332031 L 126.550781 41.332031 L 124.058594 43.820312 L 124.058594 47.34375 "/>
<path style=" stroke:none;fill-rule:evenodd;fill:rgb(45.098039%,45.098039%,87.058824%);fill-opacity:1;" d="M 33.773438 54.710938 C 33.773438 51.15625 28.445312 51.15625 28.445312 54.710938 C 28.445312 58.261719 33.773438 58.261719 33.773438 54.710938 "/>
<path style=" stroke:none;fill-rule:evenodd;fill:rgb(45.098039%,45.098039%,87.058824%);fill-opacity:1;" d="M 12.175781 54.710938 C 12.175781 51.15625 6.847656 51.15625 6.847656 54.710938 C 6.847656 58.261719 12.175781 58.261719 12.175781 54.710938 "/>
<path style=" stroke:none;fill-rule:evenodd;fill:rgb(45.098039%,45.098039%,87.058824%);fill-opacity:1;" d="M 116.574219 76.308594 C 116.574219 72.757812 111.246094 72.757812 111.246094 76.308594 C 111.246094 79.863281 116.574219 79.863281 116.574219 76.308594 "/>
<path style=" stroke:none;fill-rule:evenodd;fill:rgb(45.098039%,45.098039%,87.058824%);fill-opacity:1;" d="M 116.574219 54.710938 C 116.574219 51.15625 111.246094 51.15625 111.246094 54.710938 C 111.246094 58.261719 116.574219 58.261719 116.574219 54.710938 "/>
<path style="fill:none;stroke-width:0.052;stroke-linecap:round;stroke-linejoin:miter;stroke:rgb(45.098039%,45.098039%,87.058824%);stroke-opacity:1;stroke-miterlimit:10;" d="M 1.425973 2.599981 L 1.373998 2.599981 " transform="matrix(72,0,0,-72,-40.8888,223.9096)"/>
<path style="fill:none;stroke-width:0.052;stroke-linecap:round;stroke-linejoin:miter;stroke:rgb(45.098039%,45.098039%,87.058824%);stroke-opacity:1;stroke-miterlimit:10;" d="M 1.026016 2.599981 L 0.973987 2.599981 " transform="matrix(72,0,0,-72,-40.8888,223.9096)"/>
<path style="fill:none;stroke-width:0.052;stroke-linecap:round;stroke-linejoin:miter;stroke:rgb(45.098039%,45.098039%,87.058824%);stroke-opacity:1;stroke-miterlimit:10;" d="M 1.700007 2.27598 L 1.700007 2.224005 " transform="matrix(72,0,0,-72,-40.8888,223.9096)"/>
<path style="fill:none;stroke-width:0.052;stroke-linecap:round;stroke-linejoin:miter;stroke:rgb(45.098039%,45.098039%,87.058824%);stroke-opacity:1;stroke-miterlimit:10;" d="M 1.700007 2.624016 L 1.700007 2.675991 " transform="matrix(72,0,0,-72,-40.8888,223.9096)"/>
</g>
</svg>
