<?xml version="1.0" encoding="UTF-8" standalone="no"?>
<svg
   width="168pt"
   height="239pt"
   viewBox="0 0 168 239"
   version="1.1"
   id="svg1398"
   sodipodi:docname="trilhas_fresa.svg"
   inkscape:version="1.1.2 (0a00cf5339, 2022-02-04)"
   xmlns:inkscape="http://www.inkscape.org/namespaces/inkscape"
   xmlns:sodipodi="http://sodipodi.sourceforge.net/DTD/sodipodi-0.dtd"
   xmlns="http://www.w3.org/2000/svg"
   xmlns:svg="http://www.w3.org/2000/svg">
  <defs
     id="defs1402" />
  <sodipodi:namedview
     id="namedview1400"
     pagecolor="#ffffff"
     bordercolor="#666666"
     borderopacity="1.0"
     inkscape:pageshadow="2"
     inkscape:pageopacity="0.0"
     inkscape:pagecheckerboard="0"
     inkscape:document-units="pt"
     showgrid="false"
     inkscape:zoom="2.4006276"
     inkscape:cx="112.05403"
     inkscape:cy="159.33333"
     inkscape:window-width="1848"
     inkscape:window-height="1016"
     inkscape:window-x="72"
     inkscape:window-y="27"
     inkscape:window-maximized="1"
     inkscape:current-layer="svg1398" />
  <path
     id="path1161"
     style="fill:#7373de;fill-opacity:1;fill-rule:evenodd;stroke:none;stroke-width:0.999997"
     d="m 157.75781,10.6875 a 2.52,2.52 0 0 1 0.88184,0.175781 2.52,2.52 0 0 1 0.24462,0.124512 2.52,2.52 0 0 1 0.52295,0.350098 2.52,2.52 0 0 1 0.21826,0.216796 2.52,2.52 0 0 1 0.35303,0.527344 2.52,2.52 0 0 1 0.12305,0.244629 2.52,2.52 0 0 1 0.17578,0.880371 v 53.05664 c 0.0928,0.280348 0.14502,0.594438 0.14502,0.94336 0,0.349306 -0.0522,0.664169 -0.14502,0.944825 v 9.855471 90.000003 a 2.52,2.52 0 0 1 -2.51953,2.51952 h -10.7959 a 2.52,2.52 0 0 1 -1.17187,-0.30322 c -0.0536,-0.0261 -0.10665,-0.0535 -0.15821,-0.0835 a 2.52,2.52 0 0 1 -0.0981,-0.0601 c -0.36642,-0.2378 -0.67016,-0.58048 -0.85547,-1.02539 a 2.52,2.52 0 0 1 -0.23584,-1.04736 2.52,2.52 0 0 1 0.23584,-1.04591 c 0.18526,-0.44552 0.48871,-0.78736 0.85547,-1.02538 a 2.52,2.52 0 0 1 0.0981,-0.0601 c 0.0174,-0.0101 0.0351,-0.0196 0.0527,-0.0293 a 2.52,2.52 0 0 1 1.27734,-0.35889 h 8.27637 V 68.147461 c -0.0919,-0.279534 -0.14356,-0.592969 -0.14356,-0.94043 0,-0.347079 0.0517,-0.659738 0.14356,-0.938965 V 15.726562 h -66.9609 v 7.337403 c 0.09279,0.280347 0.14502,0.594437 0.14502,0.943359 0,0.348764 -0.05231,0.663108 -0.14502,0.943359 v 9.858399 a 2.52,2.52 0 0 1 -0.07617,0.581543 2.52,2.52 0 0 1 -0.0542,0.180175 2.52,2.52 0 0 1 -0.16113,0.386719 2.52,2.52 0 0 1 -0.08935,0.168458 2.52,2.52 0 0 1 -0.830565,0.826171 2.52,2.52 0 0 1 -0.143557,0.07764 2.52,2.52 0 0 1 -0.41748,0.172852 2.52,2.52 0 0 1 -0.156735,0.04834 2.52,2.52 0 0 1 -0.590333,0.07764 H 61.46484 v 3.855469 H 56.1372 v -0.14502 H 50.481442 V 64.6875 h 1.970213 c 1.552477,-0.506102 3.572752,0.333171 3.572752,2.519531 0,2.192881 -2.027917,3.032219 -3.581542,2.519531 h -4.480958 a 2.52,2.52 0 0 1 -0.59472,-0.0791 2.52,2.52 0 0 1 -0.09229,-0.02197 2.52,2.52 0 0 1 -0.533205,-0.221192 2.52,2.52 0 0 1 -0.09082,-0.05566 2.52,2.52 0 0 1 -0.832035,-0.830567 2.52,2.52 0 0 1 -0.05566,-0.09082 2.52,2.52 0 0 1 -0.216795,-0.52295 2.52,2.52 0 0 1 -0.02783,-0.115722 2.52,2.52 0 0 1 -0.07617,-0.581543 v -28.6875 a 2.52,2.52 0 0 1 0.07617,-0.583008 2.52,2.52 0 0 1 0.0542,-0.177246 2.52,2.52 0 0 1 0.16113,-0.391113 2.52,2.52 0 0 1 0.08789,-0.162598 2.52,2.52 0 0 1 0.832027,-0.829101 2.52,2.52 0 0 1 0.143558,-0.07764 2.52,2.52 0 0 1 0.41748,-0.172851 2.52,2.52 0 0 1 0.156735,-0.04834 A 2.52,2.52 0 0 1 47.961907,36 H 56.1372 v -0.145019 h 0.14502 v -1.045899 a 2.52,2.52 0 0 1 0.0791,-0.612305 2.52,2.52 0 0 1 0.01319,-0.05713 2.52,2.52 0 0 1 0.224123,-0.540527 2.52,2.52 0 0 1 0.04394,-0.08057 2.52,2.52 0 0 1 0.353033,-0.458496 2.52,2.52 0 0 1 0.05713,-0.05713 2.52,2.52 0 0 1 0.458498,-0.353027 2.52,2.52 0 0 1 0.08057,-0.04395 2.52,2.52 0 0 1 0.540525,-0.224121 2.52,2.52 0 0 1 0.05713,-0.01318 2.52,2.52 0 0 1 0.612308,-0.0791 h 24.436522 v -7.343261 c -0.09179,-0.279142 -0.143557,-0.592026 -0.143557,-0.938965 0,-0.347079 0.0517,-0.659738 0.143557,-0.938965 V 13.207031 A 2.52,2.52 0 0 1 85.757812,10.6875 Z m -79.198243,0 a 2.52,2.52 0 0 1 2.519528,2.519531 v 9.861328 c 0.09187,0.279227 0.143557,0.591886 0.143557,0.938965 0,3.550782 -5.32764,3.550782 -5.327632,0 0,-0.348922 0.05223,-0.663012 0.145012,-0.943359 V 15.726562 H 12.679688 V 223.08984 H 119.23828 v -47.88281 a 2.52,2.52 0 0 1 0.11572,-0.72217 2.52,2.52 0 0 1 0.085,-0.20654 2.52,2.52 0 0 1 0.22998,-0.45117 2.52,2.52 0 0 1 0.1626,-0.2124 2.52,2.52 0 0 1 0.33398,-0.33399 2.52,2.52 0 0 1 0.21241,-0.1626 2.52,2.52 0 0 1 0.43945,-0.22412 2.52,2.52 0 0 1 0.22412,-0.0937 2.52,2.52 0 0 1 0.71631,-0.11279 h 25.2041 a 2.52,2.52 0 0 1 0.99316,0.22852 c 0.044,0.0174 0.0889,0.0344 0.13184,0.0542 a 2.52,2.52 0 0 1 0.19336,0.10108 c 0.35099,0.20152 0.65209,0.49195 0.85986,0.87158 a 2.52,2.52 0 0 1 0.006,0.0132 c 0.0714,0.13253 0.1318,0.27518 0.17871,0.42919 a 2.52,2.52 0 0 1 0.15674,0.82178 2.52,2.52 0 0 1 -0.15527,0.81738 c -0.0478,0.15838 -0.10809,0.30516 -0.18164,0.44092 a 2.52,2.52 0 0 1 -0.001,0.001 2.52,2.52 0 0 1 -0.001,0.001 c -0.2104,0.38673 -0.51673,0.68203 -0.87451,0.88476 a 2.52,2.52 0 0 1 -0.14795,0.0776 c -0.0804,0.0386 -0.16347,0.0726 -0.24756,0.10254 a 2.52,2.52 0 0 1 -0.90967,0.19336 h -22.68457 v 47.88281 a 2.52,2.52 0 0 1 -0.30176,1.13086 2.52,2.52 0 0 1 -0.0981,0.1919 2.52,2.52 0 0 1 -0.79688,0.79541 2.52,2.52 0 0 1 -0.18896,0.0967 2.52,2.52 0 0 1 -1.13379,0.3047 H 10.160152 A 2.52,2.52 0 0 1 8.900385,227.78965 2.52,2.52 0 0 1 7.640625,225.6085 V 13.207031 A 2.52,2.52 0 0 1 7.9438425,12.076171 2.52,2.52 0 0 1 8.134275,11.791992 2.52,2.52 0 0 1 8.7451125,11.181152 2.52,2.52 0 0 1 9.029295,10.990723 2.52,2.52 0 0 1 10.160152,10.6875 Z m 57.600583,10.656738 c 1.33203,0 2.66455,0.887695 2.66455,2.663086 0,0.348764 -0.0523,0.663108 -0.14502,0.943359 v 22.50586 a 1.872,1.872 0 0 1 1.22315,1.750488 1.872,1.872 0 0 1 -1.22315,1.750488 v 15.306152 c 0.0928,0.280348 0.14502,0.594438 0.14502,0.94336 0,3.554688 -5.32763,3.554688 -5.32763,0 0,-0.347079 0.0517,-0.659738 0.14355,-0.938965 V 50.957519 a 1.872,1.872 0 0 1 -1.22168,-1.750488 1.872,1.872 0 0 1 1.22168,-1.750488 V 24.946289 c -0.0918,-0.279142 -0.14355,-0.592026 -0.14355,-0.938965 0,-1.775391 1.33105,-2.663086 2.66308,-2.663086 z m -7.19824,0 c 1.33203,0 2.66309,0.887695 2.66309,2.663086 0,2.187327 -2.02148,3.027047 -3.57422,2.519532 H 99.079098 v 34.379882 a 2.52,2.52 0 0 1 -0.115722,0.722168 2.52,2.52 0 0 1 -0.08496,0.206543 2.52,2.52 0 0 1 -0.22998,0.451172 2.52,2.52 0 0 1 -0.162597,0.212402 2.52,2.52 0 0 1 -0.333985,0.333985 2.52,2.52 0 0 1 -0.212402,0.162598 2.52,2.52 0 0 1 -0.451172,0.22998 2.52,2.52 0 0 1 -0.206543,0.08496 2.52,2.52 0 0 1 -0.722168,0.115723 H 73.879395 V 100.6875 h 8.280757 a 2.52,2.52 0 0 1 1.442873,0.45996 c 0.35814,0.23599 0.65487,0.57233 0.837892,1.00781 a 2.52,2.52 0 0 1 0.23877,1.05176 2.52,2.52 0 0 1 -0.235845,1.04736 c -0.18531,0.44492 -0.489052,0.78613 -0.855465,1.02393 a 2.52,2.52 0 0 1 -0.09229,0.0571 c -0.05356,0.0314 -0.108285,0.0607 -0.164063,0.0879 a 2.52,2.52 0 0 1 -1.171875,0.30322 H 71.35986 a 2.52,2.52 0 0 1 -0.694335,-0.10986 2.52,2.52 0 0 1 -0.143558,-0.0439 2.52,2.52 0 0 1 -0.61377,-0.31348 2.52,2.52 0 0 1 -0.08057,-0.0659 2.52,2.52 0 0 1 -0.454102,-0.45411 2.52,2.52 0 0 1 -0.06592,-0.0806 2.52,2.52 0 0 1 -0.313477,-0.61377 2.52,2.52 0 0 1 -0.04394,-0.14355 2.52,2.52 0 0 1 -0.109867,-0.69434 V 60.906738 a 2.52,2.52 0 0 1 0.1128,-0.716309 2.52,2.52 0 0 1 0.09521,-0.22998 2.52,2.52 0 0 1 0.22119,-0.432129 2.52,2.52 0 0 1 0.165525,-0.215332 2.52,2.52 0 0 1 0.329595,-0.331055 2.52,2.52 0 0 1 0.216795,-0.165527 2.52,2.52 0 0 1 0.449708,-0.229981 2.52,2.52 0 0 1 0.206542,-0.08496 2.52,2.52 0 0 1 0.722168,-0.114258 H 94.040035 V 24.007324 a 2.52,2.52 0 0 1 0.114258,-0.722168 2.52,2.52 0 0 1 0.08496,-0.206543 2.52,2.52 0 0 1 0.229981,-0.449707 2.52,2.52 0 0 1 0.165527,-0.216797 2.52,2.52 0 0 1 0.331055,-0.32959 2.52,2.52 0 0 1 0.213867,-0.164062 2.52,2.52 0 0 1 0.445313,-0.227051 2.52,2.52 0 0 1 0.212402,-0.08789 2.52,2.52 0 0 1 0.722168,-0.115723 h 31.492674 c 0.29198,-0.09525 0.60114,-0.143555 0.90967,-0.143555 z m -57.60205,0 c 1.33203,0 2.664547,0.887695 2.664547,2.663086 0,2.187063 -2.021542,3.026661 -3.574215,2.519532 H 19.879395 V 215.88721 h 88.562985 v -59.7583 H 82.160152 a 2.52,2.52 0 0 1 -1.105957,-0.27539 c -0.0062,-0.003 -0.01291,-0.005 -0.01904,-0.007 a 2.52,2.52 0 0 1 -0.193357,-0.10107 c -0.352418,-0.20235 -0.654938,-0.49408 -0.862793,-0.87598 a 2.52,2.52 0 0 1 -0.0029,-0.009 c -0.07144,-0.13253 -0.131798,-0.27518 -0.17871,-0.4292 a 2.52,2.52 0 0 1 -0.156735,-0.82178 2.52,2.52 0 0 1 0.155272,-0.81738 c 0.04777,-0.15838 0.109553,-0.30661 0.183105,-0.44238 a 2.52,2.52 0 0 1 0.0015,-0.001 c 0.21039,-0.38673 0.516735,-0.68203 0.874515,-0.88476 a 2.52,2.52 0 0 1 0.147945,-0.0776 c 0.08038,-0.0386 0.16347,-0.0726 0.24756,-0.10254 a 2.52,2.52 0 0 1 0.909667,-0.19336 h 28.801756 a 2.52,2.52 0 0 1 0.85254,0.16993 2.52,2.52 0 0 1 0.20508,0.085 2.52,2.52 0 0 1 1.20703,1.20702 2.52,2.52 0 0 1 0.085,0.20508 2.52,2.52 0 0 1 0.16992,0.85254 v 64.79736 a 2.52,2.52 0 0 1 -2.51953,2.51954 H 17.35986 a 2.52,2.52 0 0 1 -1.130858,-0.30323 2.52,2.52 0 0 1 -0.284182,-0.19042 2.52,2.52 0 0 1 -0.610838,-0.61085 2.52,2.52 0 0 1 -0.190432,-0.28417 2.52,2.52 0 0 1 -0.303225,-1.13087 V 24.007324 A 2.52,2.52 0 0 1 15.14502,22.875 a 2.52,2.52 0 0 1 0.09667,-0.19043 2.52,2.52 0 0 1 0.795412,-0.79541 2.52,2.52 0 0 1 0.193358,-0.09814 2.52,2.52 0 0 1 1.129395,-0.303223 H 70.45165 c 0.291817,-0.09513 0.599865,-0.143555 0.908205,-0.143555 z m -30.64014,7.538086 2.491702,2.493164 v 3.522949 l -2.491702,2.48877 H 37.1997 l -2.491695,-2.48877 V 31.375488 L 37.1997,28.882324 Z m 45.038092,12.981445 a 1.872,1.872 0 0 1 1.872068,1.870606 v 0.212402 a 2.52,2.52 0 0 1 0.64746,1.662598 2.52,2.52 0 0 1 -0.64746,1.662598 v 0.208008 a 1.872,1.872 0 0 1 -1.872068,1.872069 1.872,1.872 0 0 1 -1.74903,-1.223144 H 61.46484 v 0.145019 H 56.1372 v -5.329101 h 5.32764 v 0.14502 h 22.541017 a 1.872,1.872 0 0 1 1.751955,-1.226075 z M 107.35986,46.6875 a 2.52,2.52 0 0 1 1.66406,0.648925 h 0.20655 a 1.872,1.872 0 0 1 1.87207,1.870606 1.872,1.872 0 0 1 -1.22315,1.750488 V 74.406738 100.6875 h 37.08252 a 2.52,2.52 0 0 1 0.25049,0.0396 h 2.22949 v 2.23242 a 2.52,2.52 0 0 1 0.0395,0.24756 2.52,2.52 0 0 1 -0.0395,0.24756 v 2.23242 h -2.22949 a 2.52,2.52 0 0 1 -0.25049,0.0396 h -39.60205 a 2.52,2.52 0 0 1 -0.71631,-0.11279 2.52,2.52 0 0 1 -0.22412,-0.0937 2.52,2.52 0 0 1 -0.43945,-0.22412 2.52,2.52 0 0 1 -0.21241,-0.1626 2.52,2.52 0 0 1 -0.33398,-0.33399 2.52,2.52 0 0 1 -0.1626,-0.2124 2.52,2.52 0 0 1 -0.22412,-0.43945 2.52,2.52 0 0 1 -0.0937,-0.22412 2.52,2.52 0 0 1 -0.11279,-0.71631 V 76.92627 H 87.50976 A 1.872,1.872 0 0 1 85.757812,78.15234 1.872,1.872 0 0 1 83.8872,76.281735 V 76.075192 A 2.52,2.52 0 0 1 83.238277,74.406738 2.52,2.52 0 0 1 83.8872,72.736816 v -0.202148 a 1.872,1.872 0 0 1 1.870612,-1.870606 1.872,1.872 0 0 1 1.750485,1.223145 H 104.84033 V 50.957519 a 1.872,1.872 0 0 1 -1.22315,-1.750488 1.872,1.872 0 0 1 1.87207,-1.870606 h 0.20655 a 2.52,2.52 0 0 1 1.66406,-0.648925 z m -45.89502,3.344238 v 0.143555 h 0.9375 a 2.52,2.52 0 0 1 0.761722,0.121582 2.52,2.52 0 0 1 0.0454,0.01758 2.52,2.52 0 0 1 0.644535,0.328125 2.52,2.52 0 0 1 0.05859,0.04395 2.52,2.52 0 0 1 0.493658,0.492188 2.52,2.52 0 0 1 0.0542,0.07324 2.52,2.52 0 0 1 0.32373,0.637207 2.52,2.52 0 0 1 0.01758,0.04541 2.52,2.52 0 0 1 0.12012,0.760254 v 55.192381 h 17.238277 a 2.52,2.52 0 0 1 1.231935,0.33545 c 0.114878,0.0598 0.2256,0.12843 0.329588,0.20654 a 2.52,2.52 0 0 1 0.01465,0.0117 c 0.275948,0.21083 0.50673,0.48677 0.666503,0.82764 a 2.52,2.52 0 0 1 0.06739,0.15527 c 0.01724,0.0451 0.03352,0.0921 0.04834,0.13915 a 2.52,2.52 0 0 1 0,10e-4 2.52,2.52 0 0 1 0.161137,0.84228 2.52,2.52 0 0 1 -0.158205,0.83497 c -0.01658,0.0534 -0.03599,0.1059 -0.05567,0.15674 a 2.52,2.52 0 0 1 -0.0586,0.13916 c -0.2262,0.48817 -0.59895,0.84299 -1.03857,1.0664 a 2.52,2.52 0 0 1 -1.208498,0.32227 H 62.40234 a 2.52,2.52 0 0 1 -0.692873,-0.11133 2.52,2.52 0 0 1 -0.18603,-0.0645 2.52,2.52 0 0 1 -0.496582,-0.25341 2.52,2.52 0 0 1 -0.139163,-0.0864 2.52,2.52 0 0 1 -0.489255,-0.48925 2.52,2.52 0 0 1 -0.08643,-0.13916 2.52,2.52 0 0 1 -0.253417,-0.49659 2.52,2.52 0 0 1 -0.06446,-0.18603 2.52,2.52 0 0 1 -0.111323,-0.69288 V 55.359375 H 56.1372 v -5.327637 z m -20.74512,3.796875 2.491702,2.491699 v 3.52002 L 40.71972,62.332031 H 37.1997 l -2.491695,-2.491699 v -3.52002 L 37.1997,53.828613 Z m 12.64014,32.317384 c 1.33203,0 2.664547,0.887693 2.664547,2.663085 0,0.348923 -0.05223,0.663015 -0.145012,0.943358 v 25.3374 h 26.280757 a 2.52,2.52 0 0 1 0.905273,0.19189 c 0.08695,0.0307 0.171892,0.0655 0.254887,0.10548 a 2.52,2.52 0 0 1 0.14355,0.0747 c 0.357668,0.20222 0.663773,0.49739 0.874515,0.8833 a 2.52,2.52 0 0 1 0.0073,0.0117 c 0.07225,0.13425 0.13305,0.27881 0.18018,0.43506 a 2.52,2.52 0 0 1 0.15381,0.81738 2.52,2.52 0 0 1 -0.15528,0.82178 c -0.04633,0.15211 -0.105502,0.29365 -0.175777,0.42481 a 2.52,2.52 0 0 1 -0.01318,0.022 c -0.207825,0.37752 -0.50712,0.66797 -0.856935,0.86865 a 2.52,2.52 0 0 1 -0.205073,0.104 c -0.04498,0.0205 -0.0901,0.0393 -0.136237,0.0571 a 2.52,2.52 0 0 1 -0.977048,0.2212 H 53.35986 a 2.52,2.52 0 0 1 -2.519535,-2.51954 V 91.32861 H 28.664062 v 11.72754 c 0.09278,0.28035 0.145013,0.59444 0.145013,0.94336 0,3.55078 -5.327632,3.55078 -5.327632,0 0,-0.34708 0.05169,-0.65974 0.143557,-0.93897 V 88.809082 a 2.52,2.52 0 0 1 0.07763,-0.590332 2.52,2.52 0 0 1 0.04834,-0.156735 2.52,2.52 0 0 1 0.172852,-0.41748 2.52,2.52 0 0 1 0.07764,-0.143558 2.52,2.52 0 0 1 0.826169,-0.830565 2.52,2.52 0 0 1 0.168458,-0.08935 2.52,2.52 0 0 1 0.386722,-0.161137 2.52,2.52 0 0 1 0.180173,-0.0542 2.52,2.52 0 0 1 0.581542,-0.07618 h 26.305665 c 0.29226,-0.09545 0.600803,-0.14355 0.909668,-0.14355 z m -8.784668,15.190423 c 1.33203,0 2.663085,0.8877 2.663085,2.66309 0,3.55078 -5.32764,3.55078 -5.327632,0 0,-1.77539 1.332517,-2.66309 2.664547,-2.66309 z m 102.386718,6.5918 c 1.24023,0 2.47998,0.82617 2.47998,2.47851 0,3.3086 -4.96142,3.3086 -4.96142,0 0,-1.65234 1.24121,-2.47851 2.48144,-2.47851 z m -102.386718,6.22559 c 1.33203,0 2.663085,0.88769 2.663085,2.66308 0,3.55078 -5.32764,3.55078 -5.327632,0 0,-1.77539 1.332517,-2.66308 2.664547,-2.66308 z m -18.430665,0 c 1.33203,0 2.664548,0.88769 2.664548,2.66308 0,0.34893 -0.05223,0.66302 -0.145013,0.94336 v 18.92725 h 53.49609 a 2.52,2.52 0 0 1 0.95508,0.2124 c 0.177248,0.0666 0.346493,0.15227 0.503903,0.25781 a 2.52,2.52 0 0 1 0.03369,0.0234 c 0.382477,0.26617 0.688807,0.65011 0.85401,1.15137 a 2.52,2.52 0 0 1 0.172852,0.87451 2.52,2.52 0 0 1 -0.17139,0.87158 c -0.165885,0.50718 -0.475837,0.89416 -0.862792,1.16162 a 2.52,2.52 0 0 1 -0.01318,0.009 c -0.16752,0.11413 -0.348945,0.2058 -0.539063,0.27539 a 2.52,2.52 0 0 1 -0.933105,0.20215 h -56.01563 a 2.52,2.52 0 0 1 -0.692872,-0.10986 2.52,2.52 0 0 1 -0.184568,-0.0645 2.52,2.52 0 0 1 -0.508305,-0.25929 2.52,2.52 0 0 1 -0.12597,-0.0791 2.52,2.52 0 0 1 -0.492187,-0.49219 2.52,2.52 0 0 1 -0.08643,-0.13916 2.52,2.52 0 0 1 -0.253418,-0.49805 2.52,2.52 0 0 1 -0.06445,-0.1831 2.52,2.52 0 0 1 -0.111322,-0.69434 v -21.45117 c -0.09187,-0.27923 -0.143557,-0.59189 -0.143557,-0.93897 0,-1.77539 1.331054,-2.66308 2.663084,-2.66308 z m 120.817383,0.97412 c 1.24023,0 2.47998,0.82715 2.47998,2.48144 0,3.30468 -4.96142,3.30468 -4.96142,0 0,-1.65429 1.24121,-2.48144 2.48144,-2.48144 z m 0,7.19971 c 1.24023,0 2.47998,0.82714 2.47998,2.48144 0,3.30469 -4.96142,3.30469 -4.96142,0 0,-1.6543 1.24121,-2.48144 2.48144,-2.48144 z m -64.801758,0 c 1.240238,0 2.481443,0.82714 2.481443,2.48144 0,3.30469 -4.961423,3.30469 -4.961423,0 0,-1.6543 1.239743,-2.48144 2.47998,-2.48144 z m 64.801758,7.19824 c 1.24023,0 2.47998,0.82715 2.47998,2.48145 0,3.30859 -4.96142,3.30859 -4.96142,0 0,-1.6543 1.24121,-2.48145 2.48144,-2.48145 z m -64.801758,0 c 1.240238,0 2.481443,0.82715 2.481443,2.48145 0,3.30859 -4.961423,3.30859 -4.961423,0 0,-1.6543 1.239743,-2.48145 2.47998,-2.48145 z m 64.801758,7.20264 c 1.24023,0 2.47998,0.82617 2.47998,2.47851 0,3.30859 -4.96142,3.30859 -4.96142,0 0,-1.65234 1.24121,-2.47851 2.48144,-2.47851 z m 0,7.1997 c 1.24023,0 2.47998,0.82617 2.47998,2.47851 0,3.3086 -4.96142,3.3086 -4.96142,0 0,-1.65234 1.24121,-2.47851 2.48144,-2.47851 z m -64.801758,0 c 1.240238,0 2.481443,0.82617 2.481443,2.47851 0,3.3086 -4.961423,3.3086 -4.961423,0 0,-1.65234 1.239743,-2.47851 2.47998,-2.47851 z m 64.801758,7.19971 c 1.24023,0 2.47998,0.82715 2.47998,2.48144 0,3.30469 -4.96142,3.30469 -4.96142,0 0,-1.65429 1.24121,-2.48144 2.48144,-2.48144 z m -64.801758,7.16162 a 2.52,2.52 0 0 1 0.934568,0.20215 c 0.187905,0.0689 0.36735,0.15858 0.533205,0.27099 a 2.52,2.52 0 0 1 0.02051,0.0147 c 0.384465,0.26661 0.692573,0.65204 0.858398,1.15576 a 2.52,2.52 0 0 1 0.172852,0.87598 2.52,2.52 0 0 1 -0.172852,0.87451 c -0.165,0.50062 -0.470738,0.88377 -0.85254,1.14991 a 2.52,2.52 0 0 1 -0.04102,0.0278 c -0.158332,0.10547 -0.328642,0.19157 -0.506835,0.25781 a 2.52,2.52 0 0 1 -0.94629,0.20947 H 27.079095 v 38.15918 h 21.770512 c 1.552545,-0.50647 3.572753,0.33292 3.572753,2.51954 0,2.18732 -2.021475,3.02704 -3.574215,2.51952 H 24.559567 a 2.52,2.52 0 0 1 -0.722167,-0.11425 2.52,2.52 0 0 1 -0.2124,-0.0879 2.52,2.52 0 0 1 -0.44385,-0.22559 2.52,2.52 0 0 1 -0.218265,-0.16846 2.52,2.52 0 0 1 -0.326655,-0.32666 2.52,2.52 0 0 1 -0.168458,-0.21826 2.52,2.52 0 0 1 -0.225585,-0.44385 2.52,2.52 0 0 1 -0.08789,-0.2124 2.52,2.52 0 0 1 -0.114263,-0.72216 v -43.19825 a 2.52,2.52 0 0 1 2.519535,-2.51953 z m 64.801758,0.0381 c 1.24023,0 2.47998,0.82714 2.47998,2.48144 0,3.30469 -4.96142,3.30469 -4.96142,0 0,-1.6543 1.24121,-2.48144 2.48144,-2.48144 z m -64.801758,7.16015 a 2.52,2.52 0 0 1 0.924315,0.19775 c 0.1917,0.0693 0.374535,0.16237 0.543458,0.27686 a 2.52,2.52 0 0 1 0.02051,0.0146 c 0.384668,0.26674 0.694103,0.65165 0.85986,1.15576 a 2.52,2.52 0 0 1 0.17139,0.87452 2.52,2.52 0 0 1 -0.172852,0.87597 c -0.165825,0.50373 -0.473933,0.88916 -0.858398,1.15576 a 2.52,2.52 0 0 1 -0.02051,0.0146 c -0.165855,0.11241 -0.3453,0.20211 -0.533205,0.271 a 2.52,2.52 0 0 1 -0.934568,0.20214 H 34.27734 v 23.7627 h 14.570805 c 1.55274,-0.50751 3.574215,0.33221 3.574215,2.51953 0,2.18661 -2.020208,3.026 -3.572753,2.51953 H 31.757812 a 2.52,2.52 0 0 1 -0.604987,-0.0806 2.52,2.52 0 0 1 -0.202148,-0.0703 2.52,2.52 0 0 1 -0.372067,-0.15381 2.52,2.52 0 0 1 -0.20508,-0.1289 2.52,2.52 0 0 1 -0.295898,-0.22706 2.52,2.52 0 0 1 -0.17871,-0.17871 2.52,2.52 0 0 1 -0.227047,-0.29589 2.52,2.52 0 0 1 -0.12891,-0.20508 2.52,2.52 0 0 1 -0.15381,-0.37207 2.52,2.52 0 0 1 -0.07031,-0.20215 2.52,2.52 0 0 1 -0.08057,-0.60498 v -28.80175 a 2.52,2.52 0 0 1 0.115725,-0.72217 2.52,2.52 0 0 1 0.08496,-0.20655 2.52,2.52 0 0 1 0.22998,-0.45117 2.52,2.52 0 0 1 0.1626,-0.2124 2.52,2.52 0 0 1 0.333983,-0.33398 2.52,2.52 0 0 1 0.2124,-0.1626 2.52,2.52 0 0 1 0.45117,-0.22998 2.52,2.52 0 0 1 0.20655,-0.085 2.52,2.52 0 0 1 0.722167,-0.11573 z m 14.399415,7.19971 a 2.52,2.52 0 0 1 0.588867,0.0776 2.52,2.52 0 0 1 0.159668,0.0498 2.52,2.52 0 0 1 0.413086,0.16992 2.52,2.52 0 0 1 0.149414,0.0806 2.52,2.52 0 0 1 0.832031,0.83349 2.52,2.52 0 0 1 0.07764,0.14356 2.52,2.52 0 0 1 0.172852,0.41748 2.52,2.52 0 0 1 0.04834,0.15674 2.52,2.52 0 0 1 0.07764,0.59033 v 36 a 2.52,2.52 0 0 1 -0.115722,0.72217 2.52,2.52 0 0 1 -0.08496,0.20654 2.52,2.52 0 0 1 -0.22998,0.45117 2.52,2.52 0 0 1 -0.162597,0.2124 2.52,2.52 0 0 1 -0.333985,0.33399 2.52,2.52 0 0 1 -0.212402,0.1626 2.52,2.52 0 0 1 -0.439453,0.22412 2.52,2.52 0 0 1 -0.224121,0.0937 2.52,2.52 0 0 1 -0.716309,0.11279 H 50.67627 c -1.553708,0.51313 -3.58155,-0.32635 -3.58155,-2.51953 0,-2.18661 2.020215,-3.02601 3.57276,-2.51953 H 94.040035 V 177.72656 H 82.160152 a 2.52,2.52 0 0 1 -1.170412,-0.30322 c -0.05855,-0.0285 -0.116738,-0.0591 -0.172845,-0.0923 a 2.52,2.52 0 0 1 -0.08497,-0.0527 c -0.363112,-0.23566 -0.6624,-0.57315 -0.848145,-1.01221 a 2.52,2.52 0 0 1 -0.243157,-1.05908 2.52,2.52 0 0 1 0.244627,-1.06347 c 0.185925,-0.43588 0.485078,-0.77196 0.846675,-1.00635 a 2.52,2.52 0 0 1 1.428225,-0.44971 z m -28.801755,0 a 2.52,2.52 0 0 1 0.613763,0.082 2.52,2.52 0 0 1 0.16407,0.0571 2.52,2.52 0 0 1 0.413085,0.17138 2.52,2.52 0 0 1 0.175777,0.10987 2.52,2.52 0 0 1 0.325193,0.24902 2.52,2.52 0 0 1 0.161137,0.1626 2.52,2.52 0 0 1 0.235838,0.30615 2.52,2.52 0 0 1 0.12744,0.20215 2.52,2.52 0 0 1 0.15528,0.375 2.52,2.52 0 0 1 0.06884,0.19629 2.52,2.52 0 0 1 0.0791,0.60791 v 19.08252 h 11.882812 a 2.52,2.52 0 0 1 1.171875,0.30322 c 0.05617,0.0274 0.111608,0.0563 0.165525,0.0879 a 2.52,2.52 0 0 1 0.08643,0.0527 c 0.367103,0.23707 0.670695,0.57953 0.856935,1.02393 a 2.52,2.52 0 0 1 0.23877,1.05175 2.52,2.52 0 0 1 -0.23877,1.05029 c -0.181755,0.43317 -0.475312,0.76746 -0.830572,1.00342 a 2.52,2.52 0 0 1 -1.450193,0.46582 h -14.40234 a 2.52,2.52 0 0 1 -0.534667,-0.0615 2.52,2.52 0 0 1 -0.130373,-0.0395 2.52,2.52 0 0 1 -0.372075,-0.13037 2.52,2.52 0 0 1 -0.166987,-0.0894 2.52,2.52 0 0 1 -0.29004,-0.18164 2.52,2.52 0 0 1 -0.156743,-0.1289 2.52,2.52 0 0 1 -0.2373,-0.23731 2.52,2.52 0 0 1 -0.12891,-0.15674 2.52,2.52 0 0 1 -0.181642,-0.29004 2.52,2.52 0 0 1 -0.08936,-0.16699 2.52,2.52 0 0 1 -0.130365,-0.37207 2.52,2.52 0 0 1 -0.03955,-0.13037 2.52,2.52 0 0 1 -0.06152,-0.53467 V 177.72656 H 41.481442 v 9.36328 h 7.359375 c 1.5537,-0.51312 3.581543,0.32636 3.581543,2.51953 0,2.18662 -2.020208,3.02601 -3.572753,2.51954 h -9.8877 a 2.52,2.52 0 0 1 -0.492187,-0.0483 2.52,2.52 0 0 1 -2.02734,-2.47119 v -14.40234 a 2.52,2.52 0 0 1 0.07617,-0.58301 2.52,2.52 0 0 1 0.0542,-0.17725 2.52,2.52 0 0 1 0.16113,-0.39111 2.52,2.52 0 0 1 0.08789,-0.1626 2.52,2.52 0 0 1 0.832027,-0.8291 2.52,2.52 0 0 1 0.143558,-0.0776 2.52,2.52 0 0 1 0.41748,-0.17285 2.52,2.52 0 0 1 0.156735,-0.0483 2.52,2.52 0 0 1 0.590332,-0.0776 z m -18,7.05615 c 0.30906,0 0.618705,0.048 0.91113,0.14356 h 9.890625 a 2.52,2.52 0 0 1 0.52734,0.0586 2.52,2.52 0 0 1 0.169928,0.0527 2.52,2.52 0 0 1 0.33105,0.11571 2.52,2.52 0 0 1 0.191895,0.10254 2.52,2.52 0 0 1 0.266602,0.167 2.52,2.52 0 0 1 0.172853,0.14209 2.52,2.52 0 0 1 0.224122,0.22412 2.52,2.52 0 0 1 0.133298,0.1626 2.52,2.52 0 0 1 0.18018,0.28417 2.52,2.52 0 0 1 0.09228,0.17579 2.52,2.52 0 0 1 0.127447,0.36475 2.52,2.52 0 0 1 0.04101,0.13329 2.52,2.52 0 0 1 0.06152,0.53613 v 19.08106 h 19.081057 a 2.52,2.52 0 0 1 1.208498,0.32227 c 0.43962,0.22341 0.81237,0.57823 1.03857,1.0664 a 2.52,2.52 0 0 1 0.0586,0.13916 c 0.01967,0.0508 0.03909,0.1033 0.05567,0.15674 a 2.52,2.52 0 0 1 0.158205,0.83497 2.52,2.52 0 0 1 -0.159667,0.83642 c -0.01554,0.0501 -0.03155,0.0987 -0.04981,0.14648 a 2.52,2.52 0 0 1 -0.06592,0.15381 c -0.22647,0.48512 -0.59781,0.83951 -1.035645,1.06202 a 2.52,2.52 0 0 1 -1.208498,0.32079 H 60.559567 a 2.52,2.52 0 0 1 -0.561037,-0.063 2.52,2.52 0 0 1 -1.958498,-2.45654 V 184.92627 H 50.67627 c -1.553708,0.51313 -3.58155,-0.32635 -3.58155,-2.51954 0,-1.77538 1.331062,-2.66308 2.663092,-2.66308 z m 97.204098,0.18457 c 1.24023,0 2.47998,0.82617 2.47998,2.47851 0,3.3086 -4.96142,3.3086 -4.96142,0 0,-1.65234 1.24121,-2.47851 2.48144,-2.47851 z m -64.801758,0 c 1.240238,0 2.481443,0.82617 2.481443,2.47851 0,3.3086 -4.961423,3.3086 -4.961423,0 0,-1.65234 1.239743,-2.47851 2.47998,-2.47851 z m 64.801758,7.19971 c 1.24023,0 2.47998,0.82715 2.47998,2.48144 0,3.30469 -4.96142,3.30469 -4.96142,0 0,-1.65429 1.24121,-2.48144 2.48144,-2.48144 z m -64.801758,0 c 1.240238,0 2.481443,0.82715 2.481443,2.48144 0,3.30469 -4.961423,3.30469 -4.961423,0 0,-1.65429 1.239743,-2.48144 2.47998,-2.48144 z m 64.801758,7.19971 c 1.24023,0 2.47998,0.82714 2.47998,2.48144 0,3.30469 -4.96142,3.30469 -4.96142,0 0,-1.6543 1.24121,-2.48144 2.48144,-2.48144 z m 0,7.19824 c 1.24023,0 2.47998,0.82715 2.47998,2.48145 0,3.30859 -4.96142,3.30859 -4.96142,0 0,-1.6543 1.24121,-2.48145 2.48144,-2.48145 z" />
  <path
     id="path2"
     style="fill:#000000;fill-opacity:1;fill-rule:evenodd;stroke:none"
     d="m 147.82027,103.88428 c -0.65365,0 -1.30729,0 -1.96094,0 0,-0.65365 0,-1.3073 0,-1.96094 0.65365,0 1.30729,0 1.96094,0 0,0.65364 0,1.30729 0,1.96094 z" />
  <path
     id="path4"
     style="fill:#000000;fill-opacity:1;fill-rule:evenodd;stroke:none"
     d="m 146.9355,109.12451 c 1.10329,-0.033 1.2115,1.84791 0.11133,1.9375 -0.78875,0.21177 -1.42806,-0.62262 -1.13281,-1.35156 0.12094,-0.43461 0.60941,-0.61742 1.02148,-0.58594 z" />
  <path
     id="path6"
     style="fill:#000000;fill-opacity:1;fill-rule:evenodd;stroke:none"
     d="m 146.95894,116.32764 c 1.09115,-0.0119 1.173,1.8492 0.0879,1.9375 -0.7881,0.21022 -1.42899,-0.62605 -1.13281,-1.35547 0.12381,-0.44381 0.62594,-0.62322 1.04492,-0.58203 z" />
  <path
     id="path8"
     style="fill:#000000;fill-opacity:1;fill-rule:evenodd;stroke:none"
     d="m 146.9355,123.52685 c 1.10829,-0.0365 1.20742,1.84637 0.11133,1.9375 -0.787,0.21003 -1.42874,-0.62455 -1.13281,-1.35351 0.12074,-0.4348 0.60944,-0.61608 1.02148,-0.58399 z" />
  <path
     id="path10"
     style="fill:#000000;fill-opacity:1;fill-rule:evenodd;stroke:none"
     d="m 146.9355,130.72607 c 1.10829,-0.0365 1.20742,1.84637 0.11133,1.9375 -0.787,0.21003 -1.42874,-0.62456 -1.13281,-1.35351 0.12074,-0.4348 0.60944,-0.61609 1.02148,-0.58399 z" />
  <path
     id="path12"
     style="fill:#000000;fill-opacity:1;fill-rule:evenodd;stroke:none"
     d="m 146.9355,137.92529 c 1.10329,-0.033 1.2115,1.84791 0.11133,1.9375 -0.78875,0.21177 -1.42806,-0.62262 -1.13281,-1.35156 0.12094,-0.43461 0.60941,-0.61742 1.02148,-0.58594 z" />
  <path
     id="path14"
     style="fill:#000000;fill-opacity:1;fill-rule:evenodd;stroke:none"
     d="m 146.9355,145.12451 c 1.10329,-0.033 1.2115,1.84791 0.11133,1.9375 -0.78875,0.21177 -1.42806,-0.62262 -1.13281,-1.35156 0.12094,-0.43461 0.60941,-0.61742 1.02148,-0.58594 z" />
  <path
     id="path16"
     style="fill:#000000;fill-opacity:1;fill-rule:evenodd;stroke:none"
     d="m 146.9355,152.32373 c 1.10474,-0.0317 1.21041,1.8481 0.11133,1.94141 -0.78844,0.207 -1.42926,-0.62419 -1.13281,-1.35547 0.12094,-0.43461 0.60941,-0.61742 1.02148,-0.58594 z" />
  <path
     id="path18"
     style="fill:#000000;fill-opacity:1;fill-rule:evenodd;stroke:none"
     d="m 146.9355,159.52685 c 1.10829,-0.0365 1.20742,1.84637 0.11133,1.9375 -0.787,0.21003 -1.42874,-0.62455 -1.13281,-1.35351 0.12074,-0.4348 0.60944,-0.61608 1.02148,-0.58399 z" />
  <path
     id="path20"
     style="fill:#000000;fill-opacity:1;fill-rule:evenodd;stroke:none"
     d="m 146.9355,166.72607 c 1.10829,-0.0365 1.20742,1.84637 0.11133,1.9375 -0.787,0.21003 -1.42874,-0.62456 -1.13281,-1.35351 0.12074,-0.4348 0.60944,-0.61609 1.02148,-0.58399 z" />
  <path
     id="path22"
     style="fill:#000000;fill-opacity:1;fill-rule:evenodd;stroke:none"
     d="m 146.9355,173.92529 c 1.10329,-0.033 1.2115,1.84791 0.11133,1.9375 -0.78875,0.21177 -1.42806,-0.62262 -1.13281,-1.35156 0.12094,-0.43461 0.60941,-0.61742 1.02148,-0.58594 z" />
  <path
     id="path24"
     style="fill:#000000;fill-opacity:1;fill-rule:evenodd;stroke:none"
     d="m 146.9355,181.12451 c 1.10329,-0.033 1.2115,1.84791 0.11133,1.9375 -0.78875,0.21177 -1.42806,-0.62262 -1.13281,-1.35156 0.12094,-0.43461 0.60941,-0.61742 1.02148,-0.58594 z" />
  <path
     id="path26"
     style="fill:#000000;fill-opacity:1;fill-rule:evenodd;stroke:none"
     d="m 146.9355,188.32373 c 1.10474,-0.0317 1.21041,1.8481 0.11133,1.94141 -0.78844,0.207 -1.42926,-0.62419 -1.13281,-1.35547 0.12094,-0.43461 0.60941,-0.61742 1.02148,-0.58594 z" />
  <path
     id="path28"
     style="fill:#000000;fill-opacity:1;fill-rule:evenodd;stroke:none"
     d="m 146.9355,195.52685 c 1.10829,-0.0365 1.20742,1.84637 0.11133,1.9375 -0.787,0.21003 -1.42874,-0.62455 -1.13281,-1.35351 0.12074,-0.4348 0.60944,-0.61608 1.02148,-0.58399 z" />
  <path
     id="path30"
     style="fill:#000000;fill-opacity:1;fill-rule:evenodd;stroke:none"
     d="m 146.9355,202.72607 c 1.10829,-0.0365 1.20742,1.84637 0.11133,1.9375 -0.787,0.21003 -1.42874,-0.62456 -1.13281,-1.35351 0.12074,-0.4348 0.60944,-0.61609 1.02148,-0.58399 z" />
  <path
     id="path32"
     style="fill:#000000;fill-opacity:1;fill-rule:evenodd;stroke:none"
     d="m 82.136683,202.72607 c 1.105529,-0.0376 1.20455,1.84709 0.11132,1.9375 -0.78946,0.21228 -1.42577,-0.6256 -1.13086,-1.35351 0.12125,-0.4372 0.60631,-0.61585 1.01954,-0.58399 z" />
  <path
     id="path34"
     style="fill:#000000;fill-opacity:1;fill-rule:evenodd;stroke:none"
     d="m 82.136683,195.52685 c 1.105529,-0.0376 1.20455,1.84709 0.11132,1.9375 -0.78946,0.21228 -1.42577,-0.6256 -1.13086,-1.35351 0.12125,-0.4372 0.60631,-0.61585 1.01954,-0.58399 z" />
  <path
     id="path36"
     style="fill:#000000;fill-opacity:1;fill-rule:evenodd;stroke:none"
     d="m 82.136683,188.32373 c 1.1055,-0.0338 1.20516,1.84968 0.11132,1.94141 -0.78643,0.20791 -1.42389,-0.61797 -1.13284,-1.34723 0.11605,-0.44077 0.60608,-0.62635 1.02152,-0.59418 z" />
  <path
     id="path38"
     style="fill:#000000;fill-opacity:1;fill-rule:evenodd;stroke:none"
     d="m 82.136683,181.12451 c 1.1056,-0.035 1.20413,1.84953 0.11132,1.9375 -0.7913,0.21502 -1.42505,-0.62385 -1.13086,-1.35156 0.121199,-0.43575 0.606509,-0.61754 1.01954,-0.58594 z" />
  <path
     id="path40"
     style="fill:#000000;fill-opacity:1;fill-rule:evenodd;stroke:none"
     d="m 82.136683,173.92529 c 1.1056,-0.035 1.20413,1.84953 0.11132,1.9375 -0.7913,0.21502 -1.42505,-0.62385 -1.13086,-1.35156 0.121199,-0.43574 0.606509,-0.61754 1.01954,-0.58594 z" />
  <path
     id="path42"
     style="fill:#000000;fill-opacity:1;fill-rule:evenodd;stroke:none"
     d="m 82.136683,166.72607 c 1.105529,-0.0376 1.20455,1.84709 0.11132,1.9375 -0.78946,0.21228 -1.42577,-0.6256 -1.13086,-1.35351 0.12125,-0.4372 0.60631,-0.61585 1.01954,-0.58399 z" />
  <path
     id="path44"
     style="fill:#000000;fill-opacity:1;fill-rule:evenodd;stroke:none"
     d="m 82.136683,159.52685 c 1.105529,-0.0376 1.20455,1.84709 0.11132,1.9375 -0.78946,0.21228 -1.42577,-0.6256 -1.13086,-1.35351 0.12125,-0.4372 0.60631,-0.61585 1.01954,-0.58399 z" />
  <path
     id="path46"
     style="fill:#000000;fill-opacity:1;fill-rule:evenodd;stroke:none"
     d="m 82.136683,152.32373 c 1.1055,-0.0338 1.20516,1.84968 0.11132,1.94141 -0.78643,0.20791 -1.42389,-0.61797 -1.13284,-1.34723 0.11605,-0.44077 0.60608,-0.62635 1.02152,-0.59418 z" />
  <path
     id="path48"
     style="fill:#000000;fill-opacity:1;fill-rule:evenodd;stroke:none"
     d="m 82.136683,145.12451 c 1.1056,-0.035 1.20413,1.84953 0.11132,1.9375 -0.7913,0.21502 -1.42505,-0.62385 -1.13086,-1.35156 0.121199,-0.43575 0.606509,-0.61754 1.01954,-0.58594 z" />
  <path
     id="path50"
     style="fill:#000000;fill-opacity:1;fill-rule:evenodd;stroke:none"
     d="m 82.136683,137.92529 c 1.1056,-0.035 1.20413,1.84953 0.11132,1.9375 -0.7913,0.21502 -1.42505,-0.62385 -1.13086,-1.35156 0.121199,-0.43574 0.606509,-0.61754 1.01954,-0.58594 z" />
  <path
     id="path52"
     style="fill:#000000;fill-opacity:1;fill-rule:evenodd;stroke:none"
     d="m 82.136683,130.72607 c 1.105529,-0.0376 1.20455,1.84709 0.11132,1.9375 -0.78946,0.21228 -1.42577,-0.6256 -1.13086,-1.35351 0.12125,-0.4372 0.60631,-0.61585 1.01954,-0.58399 z" />
  <path
     id="path54"
     style="fill:#000000;fill-opacity:1;fill-rule:evenodd;stroke:none"
     d="m 82.136683,123.52685 c 1.105529,-0.0376 1.20455,1.84709 0.11132,1.9375 -0.78946,0.21228 -1.42577,-0.6256 -1.13086,-1.35351 0.12125,-0.4372 0.60631,-0.61585 1.01954,-0.58399 z" />
  <path
     id="path56"
     style="fill:#000000;fill-opacity:1;fill-rule:evenodd;stroke:none"
     d="m 82.160113,116.32764 c 1.154239,-0.005 1.13622,1.98295 -0.0234,1.95312 -0.94737,0.17703 -1.43225,-1.11447 -0.794919,-1.72461 0.224819,-0.18999 0.53091,-0.25152 0.81836,-0.22851 z" />
  <path
     id="path58"
     style="fill:#000000;fill-opacity:1;fill-rule:evenodd;stroke:none"
     d="m 82.136683,109.12451 c 1.1056,-0.035 1.20413,1.84953 0.11132,1.9375 -0.7913,0.21502 -1.42505,-0.62385 -1.13086,-1.35156 0.121199,-0.43575 0.606509,-0.61754 1.01954,-0.58594 z" />
  <path
     id="path60"
     style="fill:#000000;fill-opacity:1;fill-rule:evenodd;stroke:none"
     d="m 82.160113,101.9292 c 1.154529,-0.005 1.13488,1.9824 -0.0234,1.94922 -0.97004,0.18899 -1.450449,-1.17761 -0.75195,-1.75391 0.21987,-0.16558 0.50598,-0.21608 0.77539,-0.19531 z" />
  <path
     id="path62"
     style="fill:#000000;fill-opacity:1;fill-rule:evenodd;stroke:none"
     d="m 136.15621,22.542479 c 1.25025,-0.04248 1.45041,2.037001 0.2539,2.275391 -0.80049,0.275486 -1.72134,-0.410766 -1.52148,-1.283203 0.007,-0.662008 0.65521,-1.060099 1.26758,-0.992188 z" />
  <path
     id="path64"
     style="fill:#000000;fill-opacity:1;fill-rule:evenodd;stroke:none"
     d="m 128.95308,22.542479 c 1.25025,-0.04248 1.45042,2.037001 0.25391,2.275391 -0.8005,0.275486 -1.72135,-0.410766 -1.52149,-1.283203 0.007,-0.662008 0.65522,-1.060099 1.26758,-0.992188 z" />
  <path
     id="path66"
     style="fill:#000000;fill-opacity:1;fill-rule:evenodd;stroke:none"
     d="m 71.355433,22.542479 c 1.25025,-0.04248 1.45041,2.037001 0.253899,2.275391 -0.800489,0.275486 -1.72134,-0.410766 -1.521479,-1.283203 0.007,-0.662008 0.65521,-1.060099 1.26758,-0.992188 z" />
  <path
     id="path68"
     style="fill:#000000;fill-opacity:1;fill-rule:evenodd;stroke:none"
     d="m 78.554643,22.542479 c 1.25026,-0.04248 1.45042,2.037001 0.253909,2.275391 -0.80049,0.275486 -1.72135,-0.410766 -1.52148,-1.283203 0.007,-0.662008 0.655211,-1.060099 1.267571,-0.992188 z" />
  <path
     id="path70"
     style="fill:#000000;fill-opacity:1;fill-rule:evenodd;stroke:none"
     d="m 85.753863,22.542479 c 1.250259,-0.04248 1.45042,2.037001 0.253909,2.275391 -0.8005,0.275486 -1.72135,-0.410766 -1.52149,-1.283203 0.007,-0.662008 0.655221,-1.060099 1.267581,-0.992188 z" />
  <path
     id="path72"
     style="fill:#000000;fill-opacity:1;fill-rule:evenodd;stroke:none"
     d="m 49.753865,180.94482 c 1.24841,-0.0417 1.44937,2.02806 0.25782,2.27344 -0.80145,0.27466 -1.72405,-0.40667 -1.5254,-1.28125 0.007,-0.66201 0.65522,-1.0601 1.26758,-0.99219 z" />
  <path
     id="path74"
     style="fill:#000000;fill-opacity:1;fill-rule:evenodd;stroke:none"
     d="m 49.753865,188.14404 c 1.24841,-0.0417 1.44937,2.02806 0.25782,2.27344 -0.80145,0.27466 -1.72405,-0.40667 -1.5254,-1.28125 0.007,-0.66201 0.65522,-1.0601 1.26758,-0.99219 z" />
  <path
     id="path76"
     style="fill:#000000;fill-opacity:1;fill-rule:evenodd;stroke:none"
     d="m 49.753865,195.34326 c 1.25026,-0.0425 1.45042,2.037 0.25391,2.27539 -0.8005,0.27549 -1.72135,-0.41077 -1.52149,-1.2832 0.007,-0.66201 0.65522,-1.0601 1.26758,-0.99219 z" />
  <path
     id="path78"
     style="fill:#000000;fill-opacity:1;fill-rule:evenodd;stroke:none"
     d="m 49.753865,202.54248 c 1.25026,-0.0425 1.45042,2.037 0.25391,2.27539 -0.8005,0.27549 -1.72135,-0.41077 -1.52149,-1.2832 0.007,-0.66201 0.65522,-1.0601 1.26758,-0.99219 z" />
  <path
     id="path80"
     style="fill:#000000;fill-opacity:1;fill-rule:evenodd;stroke:none"
     d="m 49.753865,209.7417 c 1.25228,-0.0397 1.44755,2.03157 0.25782,2.27734 -0.80145,0.27466 -1.72405,-0.40666 -1.5254,-1.28125 0.011,-0.66969 0.64705,-1.05724 1.26758,-0.99609 z" />
  <path
     id="path82"
     style="fill:#000000;fill-opacity:1;fill-rule:evenodd;stroke:none"
     d="m 26.136685,115.35107 c 1.25025,-0.0425 1.45041,2.037 0.2539,2.27539 -0.80049,0.27549 -1.72134,-0.41076 -1.52148,-1.2832 0.007,-0.66201 0.65521,-1.0601 1.26758,-0.99219 z" />
  <path
     id="path84"
     style="fill:#000000;fill-opacity:1;fill-rule:evenodd;stroke:none"
     d="m 44.570275,115.35107 c 1.25025,-0.0425 1.45041,2.037 0.25391,2.27539 -0.8005,0.27549 -1.72135,-0.41076 -1.52149,-1.2832 0.007,-0.66201 0.65522,-1.0601 1.26758,-0.99219 z" />
  <path
     id="path86"
     style="fill:#000000;fill-opacity:1;fill-rule:evenodd;stroke:none"
     d="m 26.136685,102.53467 c 1.25025,-0.0425 1.45041,2.037 0.2539,2.27539 -0.80049,0.27548 -1.72134,-0.41077 -1.52148,-1.28321 0.007,-0.662 0.65521,-1.0601 1.26758,-0.99218 z" />
  <path
     id="path88"
     style="fill:#000000;fill-opacity:1;fill-rule:evenodd;stroke:none"
     d="m 44.570275,102.53467 c 1.25025,-0.0425 1.45041,2.037 0.25391,2.27539 -0.8005,0.27548 -1.72135,-0.41077 -1.52149,-1.28321 0.007,-0.662 0.65522,-1.0601 1.26758,-0.99218 z" />
  <path
     id="path90"
     style="fill:#000000;fill-opacity:1;fill-rule:evenodd;stroke:none"
     d="m 59.847615,39.38037 c -0.77604,0 -1.55208,0 -2.32812,0 0,-0.776042 0,-1.552083 0,-2.328125 0.77604,0 1.55208,0 2.32812,0 0,0.776042 0,1.552083 0,2.328125 z" />
  <path
     id="path92"
     style="fill:#000000;fill-opacity:1;fill-rule:evenodd;stroke:none"
     d="m 59.847615,46.466308 c -0.77604,0 -1.55208,-10e-7 -2.32812,0 0,-0.776042 0,-1.552084 0,-2.328126 0.77604,0 1.55208,0 2.32812,0 0,0.776042 0,1.552084 0,2.328126 z" />
  <path
     id="path94"
     style="fill:#000000;fill-opacity:1;fill-rule:evenodd;stroke:none"
     d="m 59.847615,53.552245 c -0.77604,0 -1.55208,0 -2.32812,0 0,-0.776042 0,-1.552083 0,-2.328125 0.77604,0 1.55208,0 2.32812,0 0,0.776042 0,1.552083 0,2.328125 z" />
  <path
     id="path96"
     style="fill:#000000;fill-opacity:1;fill-rule:evenodd;stroke:none"
     d="m 41.593715,31.688964 c -0.0476,0.774053 0.0949,1.626801 -0.0707,2.35196 -0.55746,0.490221 -1.03623,1.170391 -1.64257,1.542571 -0.74067,-0.04761 -1.56026,0.09501 -2.25188,-0.0708 -0.48882,-0.557459 -1.16789,-1.03625 -1.53875,-1.642485 0.0476,-0.740719 -0.0949,-1.560139 0.0707,-2.251961 0.55628,-0.488606 1.03344,-1.168219 1.63866,-1.538664 0.74078,0.0475 1.56003,-0.09478 2.25205,0.07062 0.51416,0.512916 1.02832,1.025833 1.54249,1.53875 z" />
  <path
     id="path98"
     style="fill:#000000;fill-opacity:1;fill-rule:evenodd;stroke:none"
     d="m 41.593715,56.634276 c -0.0476,0.774053 0.0949,1.626802 -0.0707,2.351961 -0.55746,0.490221 -1.03623,1.17039 -1.64257,1.542571 -0.74067,-0.04761 -1.56026,0.09501 -2.25188,-0.0708 -0.48882,-0.557459 -1.16789,-1.03625 -1.53875,-1.642485 0.0476,-0.740719 -0.0949,-1.560138 0.0707,-2.25196 0.55628,-0.488606 1.03344,-1.16822 1.63866,-1.538665 0.74078,0.0475 1.56003,-0.09478 2.25205,0.07062 0.51416,0.512917 1.02832,1.025834 1.54249,1.53875 z" />
  <path
     id="path100"
     style="fill:#000000;fill-opacity:1;fill-rule:evenodd;stroke:none"
     d="m 136.15621,65.741698 c 1.25228,-0.03966 1.44754,2.031569 0.25781,2.277344 -0.80145,0.274657 -1.72405,-0.406667 -1.52539,-1.28125 0.011,-0.669696 0.64704,-1.057244 1.26758,-0.996094 z" />
  <path
     id="path102"
     style="fill:#000000;fill-opacity:1;fill-rule:evenodd;stroke:none"
     d="m 157.75386,65.741698 c 1.25228,-0.03966 1.44755,2.031569 0.25782,2.277344 -0.80145,0.274657 -1.72405,-0.406667 -1.5254,-1.28125 0.011,-0.669696 0.64705,-1.057244 1.26758,-0.996094 z" />
  <path
     id="path104"
     style="fill:#000000;fill-opacity:1;fill-rule:evenodd;stroke:none"
     d="m 53.355425,87.343261 c 1.25026,-0.04248 1.45042,2.037 0.25391,2.27539 -0.80049,0.275487 -1.72134,-0.410766 -1.52148,-1.283203 0.007,-0.662008 0.65521,-1.060099 1.26757,-0.992187 z" />
  <path
     id="path106"
     style="fill:#000000;fill-opacity:1;fill-rule:evenodd;stroke:none"
     d="m 53.355425,65.741698 c 1.25229,-0.03966 1.44755,2.031569 0.25782,2.277344 -0.80145,0.274657 -1.72405,-0.406667 -1.52539,-1.28125 0.011,-0.669696 0.64704,-1.057244 1.26757,-0.996094 z" />
</svg>
