<?xml version="1.0" encoding="UTF-8" standalone="no"?>
<!-- Created with Fritzing (http://www.fritzing.org/) -->

<svg
   xmlns:dc="http://purl.org/dc/elements/1.1/"
   xmlns:cc="http://creativecommons.org/ns#"
   xmlns:rdf="http://www.w3.org/1999/02/22-rdf-syntax-ns#"
   xmlns:svg="http://www.w3.org/2000/svg"
   xmlns="http://www.w3.org/2000/svg"
   xmlns:sodipodi="http://sodipodi.sourceforge.net/DTD/sodipodi-0.dtd"
   xmlns:inkscape="http://www.inkscape.org/namespaces/inkscape"
   version="1.2"
   x="0in"
   y="0in"
   width="3.27121in"
   height="2.17778in"
   viewBox="0 0 235.527 156.8"
   id="svg1114"
   sodipodi:docname="arduino_pcb_master.svg"
   inkscape:version="0.92.5 (2060ec1f9f, 2020-04-08)">
  <metadata
     id="metadata1120">
    <rdf:RDF>
      <cc:Work
         rdf:about="">
        <dc:format>image/svg+xml</dc:format>
        <dc:type
           rdf:resource="http://purl.org/dc/dcmitype/StillImage" />
        <dc:title></dc:title>
      </cc:Work>
    </rdf:RDF>
  </metadata>
  <defs
     id="defs1118" />
  <sodipodi:namedview
     pagecolor="#ffffff"
     bordercolor="#666666"
     borderopacity="1"
     objecttolerance="10"
     gridtolerance="10"
     guidetolerance="10"
     inkscape:pageopacity="0"
     inkscape:pageshadow="2"
     inkscape:window-width="3720"
     inkscape:window-height="2032"
     id="namedview1116"
     showgrid="false"
     inkscape:zoom="6.319276"
     inkscape:cx="155.04703"
     inkscape:cy="88.863884"
     inkscape:window-x="120"
     inkscape:window-y="54"
     inkscape:window-maximized="1"
     inkscape:current-layer="g2230" />
  <g
     partID="99350"
     id="g6"
     style="stroke:#100000;stroke-opacity:1;fill:none;stroke-width:0.74999945;stroke-miterlimit:4;stroke-dasharray:none">
    <g
       transform="translate(0,4.8)"
       id="g4"
       style="stroke:#100000;stroke-opacity:1;fill:none;stroke-width:0.74999945;stroke-miterlimit:4;stroke-dasharray:none">
      <g
         id="board"
         style="stroke:#100000;stroke-opacity:1;fill:none;stroke-width:0.74999945;stroke-miterlimit:4;stroke-dasharray:none">
        <path
           d="M186.951,36.41L186.951,4.367l-3.566,-3.566L0.805,0.8l0.001,149.701l186.147,0l0,-5.827l8.441,-8.441L195.394,43.545L186.951,36.41z"
           id="boardoutline"
           fill-opacity="0.5"
           fill="#FFFFFF"
           style="stroke:#100000;stroke-opacity:1;fill:none;stroke-width:0.74999945;stroke-miterlimit:4;stroke-dasharray:none" />
      </g>
    </g>
  </g>
  <g
     partID="99351"
     id="g16"
     style="stroke:#100000;stroke-opacity:1;fill:none;stroke-width:0.74999945;stroke-miterlimit:4;stroke-dasharray:none">
    <g
       transform="translate(0,4.8)"
       id="g14"
       style="stroke:#100000;stroke-opacity:1;fill:none;stroke-width:0.74999945;stroke-miterlimit:4;stroke-dasharray:none">
      <g
         id="silkscreen0"
         style="stroke:#100000;stroke-opacity:1;fill:none;stroke-width:0.74999945;stroke-miterlimit:4;stroke-dasharray:none">
        <path
           stroke-linecap="round"
           d="M186.951,36.41L186.951,4.367l-3.566,-3.566L0.805,0.8l0.001,149.701l186.147,0l0,-5.827l8.441,-8.441L195.394,43.545L186.951,36.41z"
           stroke="#111111"
           fill="none"
           stroke-miterlimit="10"
           stroke-linejoin="round"
           id="path8"
           style="stroke:#100000;stroke-opacity:1;fill:none;stroke-width:0.74999945;stroke-miterlimit:4;stroke-dasharray:none" />
      </g>
    </g>
  </g>
  <g
     partID="99260"
     id="g53"
     style="stroke:#100000;stroke-opacity:1;fill:none;stroke-width:0.74999945;stroke-miterlimit:4;stroke-dasharray:none">
    <g
       transform="translate(0.134863,5.6)"
       id="g51"
       style="stroke:#100000;stroke-opacity:1;fill:none;stroke-width:0.74999945;stroke-miterlimit:4;stroke-dasharray:none">
      <g
         id="copper0"
         style="stroke:#100000;stroke-opacity:1;fill:none;stroke-width:0.74999945;stroke-miterlimit:4;stroke-dasharray:none">
        <path
           style="fill:none;stroke:#100000;stroke-width:0.74999945;stroke-opacity:1;stroke-miterlimit:4;stroke-dasharray:none"
           d="m 153.267,144 a 1.883,1.883 0 0 1 -1.883,1.883 1.883,1.883 0 0 1 -1.883,-1.883 1.883,1.883 0 0 1 1.883,-1.883 1.883,1.883 0 0 1 1.883,1.883 z"
           id="connector1pad" />
        <path
           style="fill:none;stroke:#100000;stroke-width:0.74999945;stroke-opacity:1;stroke-miterlimit:4;stroke-dasharray:none"
           d="m 160.46599,144 a 1.883,1.883 0 0 1 -1.883,1.883 1.883,1.883 0 0 1 -1.883,-1.883 1.883,1.883 0 0 1 1.883,-1.883 1.883,1.883 0 0 1 1.883,1.883 z"
           id="connector2pad" />
        <path
           style="fill:none;stroke:#100000;stroke-width:0.74999945;stroke-opacity:1;stroke-miterlimit:4;stroke-dasharray:none"
           d="m 167.669,144 a 1.883,1.883 0 0 1 -1.883,1.883 1.883,1.883 0 0 1 -1.883,-1.883 1.883,1.883 0 0 1 1.883,-1.883 1.883,1.883 0 0 1 1.883,1.883 z"
           id="connector3pad" />
        <path
           style="fill:none;stroke:#100000;stroke-width:0.74999945;stroke-opacity:1;stroke-miterlimit:4;stroke-dasharray:none"
           d="m 174.868,144 a 1.883,1.883 0 0 1 -1.883,1.883 1.883,1.883 0 0 1 -1.883,-1.883 1.883,1.883 0 0 1 1.883,-1.883 1.883,1.883 0 0 1 1.883,1.883 z"
           id="connector4pad" />
        <path
           style="fill:none;stroke:#100000;stroke-width:0.74999945;stroke-opacity:1;stroke-miterlimit:4;stroke-dasharray:none"
           d="m 182.068,144 a 1.883,1.883 0 0 1 -1.883,1.883 1.883,1.883 0 0 1 -1.883,-1.883 1.883,1.883 0 0 1 1.883,-1.883 1.883,1.883 0 0 1 1.883,1.883 z"
           id="connector5pad" />
        <path
           style="fill:none;stroke:#100000;stroke-width:0.74999945;stroke-opacity:1;stroke-miterlimit:4;stroke-dasharray:none"
           d="m 120.147,7.1999998 a 1.8839999,1.8839999 0 0 1 -1.884,1.884 1.8839999,1.8839999 0 0 1 -1.884,-1.884 1.8839999,1.8839999 0 0 1 1.884,-1.8839999 1.8839999,1.8839999 0 0 1 1.884,1.8839999 z"
           id="connector51pad" />
        <path
           style="fill:none;stroke:#100000;stroke-width:0.74999945;stroke-opacity:1;stroke-miterlimit:4;stroke-dasharray:none"
           d="m 112.949,7.1999998 a 1.8839999,1.8839999 0 0 1 -1.884,1.884 1.8839999,1.8839999 0 0 1 -1.884,-1.884 1.8839999,1.8839999 0 0 1 1.884,-1.8839999 1.8839999,1.8839999 0 0 1 1.884,1.8839999 z"
           id="connector52pad" />
        <path
           style="fill:none;stroke:#100000;stroke-width:0.74999945;stroke-opacity:1;stroke-miterlimit:4;stroke-dasharray:none"
           d="m 105.748,7.1999998 a 1.8839999,1.8839999 0 0 1 -1.884,1.884 1.8839999,1.8839999 0 0 1 -1.884,-1.884 1.8839999,1.8839999 0 0 1 1.884,-1.8839999 1.8839999,1.8839999 0 0 1 1.884,1.8839999 z"
           id="connector53pad" />
        <path
           style="fill:none;stroke:#100000;stroke-width:0.74999945;stroke-opacity:1;stroke-miterlimit:4;stroke-dasharray:none"
           d="m 98.548001,7.1999998 a 1.8839999,1.8839999 0 0 1 -1.884,1.884 1.8839999,1.8839999 0 0 1 -1.883999,-1.884 1.8839999,1.8839999 0 0 1 1.883999,-1.8839999 1.8839999,1.8839999 0 0 1 1.884,1.8839999 z"
           id="connector54pad" />
        <path
           style="fill:none;stroke:#100000;stroke-width:0.74999945;stroke-opacity:1;stroke-miterlimit:4;stroke-dasharray:none"
           d="m 91.347997,7.1999998 a 1.8839999,1.8839999 0 0 1 -1.884,1.884 1.8839999,1.8839999 0 0 1 -1.884,-1.884 1.8839999,1.8839999 0 0 1 1.884,-1.8839999 1.8839999,1.8839999 0 0 1 1.884,1.8839999 z"
           id="connector55pad" />
        <path
           style="fill:none;stroke:#100000;stroke-width:0.74999945;stroke-opacity:1;stroke-miterlimit:4;stroke-dasharray:none"
           d="m 84.148,7.1999998 a 1.8839999,1.8839999 0 0 1 -1.884,1.884 1.8839999,1.8839999 0 0 1 -1.884,-1.884 1.8839999,1.8839999 0 0 1 1.884,-1.8839999 1.8839999,1.8839999 0 0 1 1.884,1.8839999 z"
           id="connector56pad" />
        <path
           style="fill:none;stroke:#100000;stroke-width:0.74999945;stroke-opacity:1;stroke-miterlimit:4;stroke-dasharray:none"
           d="m 76.948003,7.1999998 a 1.8839999,1.8839999 0 0 1 -1.884,1.884 1.8839999,1.8839999 0 0 1 -1.884,-1.884 1.8839999,1.8839999 0 0 1 1.884,-1.8839999 1.8839999,1.8839999 0 0 1 1.884,1.8839999 z"
           id="connector57pad" />
        <path
           style="fill:none;stroke:#100000;stroke-width:0.74999945;stroke-opacity:1;stroke-miterlimit:4;stroke-dasharray:none"
           d="m 69.747998,7.1999998 a 1.8839999,1.8839999 0 0 1 -1.884,1.884 1.8839999,1.8839999 0 0 1 -1.884,-1.884 1.8839999,1.8839999 0 0 1 1.884,-1.8839999 1.8839999,1.8839999 0 0 1 1.884,1.8839999 z"
           id="connector58pad" />
        <path
           style="fill:none;stroke:#100000;stroke-width:0.74999945;stroke-opacity:1;stroke-miterlimit:4;stroke-dasharray:none"
           d="m 62.548001,7.1999998 a 1.8839999,1.8839999 0 0 1 -1.884,1.884 1.8839999,1.8839999 0 0 1 -1.883999,-1.884 1.8839999,1.8839999 0 0 1 1.883999,-1.8839999 1.8839999,1.8839999 0 0 1 1.884,1.8839999 z"
           id="connector59pad" />
        <path
           style="fill:none;stroke:#100000;stroke-width:0.74999945;stroke-opacity:1;stroke-miterlimit:4;stroke-dasharray:none"
           d="m 55.347001,7.1999998 a 1.8839999,1.8839999 0 0 1 -1.884,1.884 1.8839999,1.8839999 0 0 1 -1.884,-1.884 1.8839999,1.8839999 0 0 1 1.884,-1.8839999 1.8839999,1.8839999 0 0 1 1.884,1.8839999 z"
           id="connector60pad" />
        <path
           style="fill:none;stroke:#100000;stroke-width:0.74999945;stroke-opacity:1;stroke-miterlimit:4;stroke-dasharray:none"
           d="m 182.069,7.1999998 a 1.8839999,1.8839999 0 0 1 -1.884,1.884 1.8839999,1.8839999 0 0 1 -1.884,-1.884 1.8839999,1.8839999 0 0 1 1.884,-1.8839999 1.8839999,1.8839999 0 0 1 1.884,1.8839999 z"
           id="connector61pad" />
        <path
           style="fill:none;stroke:#100000;stroke-width:0.74999945;stroke-opacity:1;stroke-miterlimit:4;stroke-dasharray:none"
           d="m 174.869,7.1999998 a 1.8839999,1.8839999 0 0 1 -1.884,1.884 1.8839999,1.8839999 0 0 1 -1.884,-1.884 1.8839999,1.8839999 0 0 1 1.884,-1.8839999 1.8839999,1.8839999 0 0 1 1.884,1.8839999 z"
           id="connector62pad" />
        <path
           style="fill:none;stroke:#100000;stroke-width:0.74999945;stroke-opacity:1;stroke-miterlimit:4;stroke-dasharray:none"
           d="m 167.67,7.1999998 a 1.8839999,1.8839999 0 0 1 -1.884,1.884 1.8839999,1.8839999 0 0 1 -1.884,-1.884 1.8839999,1.8839999 0 0 1 1.884,-1.8839999 1.8839999,1.8839999 0 0 1 1.884,1.8839999 z"
           id="connector63pad" />
        <path
           style="fill:none;stroke:#100000;stroke-width:0.74999945;stroke-opacity:1;stroke-miterlimit:4;stroke-dasharray:none"
           d="m 160.46699,7.1999998 a 1.8839999,1.8839999 0 0 1 -1.884,1.884 1.8839999,1.8839999 0 0 1 -1.884,-1.884 1.8839999,1.8839999 0 0 1 1.884,-1.8839999 1.8839999,1.8839999 0 0 1 1.884,1.8839999 z"
           id="connector64pad" />
        <path
           style="fill:none;stroke:#100000;stroke-width:0.74999945;stroke-opacity:1;stroke-miterlimit:4;stroke-dasharray:none"
           d="m 153.268,7.1999998 a 1.8839999,1.8839999 0 0 1 -1.884,1.884 1.8839999,1.8839999 0 0 1 -1.884,-1.884 1.8839999,1.8839999 0 0 1 1.884,-1.8839999 1.8839999,1.8839999 0 0 1 1.884,1.8839999 z"
           id="connector65pad" />
        <path
           style="fill:none;stroke:#100000;stroke-width:0.74999945;stroke-opacity:1;stroke-miterlimit:4;stroke-dasharray:none"
           d="m 146.069,7.1999998 a 1.8839999,1.8839999 0 0 1 -1.884,1.884 1.8839999,1.8839999 0 0 1 -1.884,-1.884 1.8839999,1.8839999 0 0 1 1.884,-1.8839999 1.8839999,1.8839999 0 0 1 1.884,1.8839999 z"
           id="connector66pad" />
        <path
           style="fill:none;stroke:#100000;stroke-width:0.74999945;stroke-opacity:1;stroke-miterlimit:4;stroke-dasharray:none"
           d="m 138.869,7.1999998 a 1.8839999,1.8839999 0 0 1 -1.884,1.884 1.8839999,1.8839999 0 0 1 -1.884,-1.884 1.8839999,1.8839999 0 0 1 1.884,-1.8839999 1.8839999,1.8839999 0 0 1 1.884,1.8839999 z"
           id="connector67pad" />
        <path
           style="fill:none;stroke:#100000;stroke-width:0.74999945;stroke-opacity:1;stroke-miterlimit:4;stroke-dasharray:none"
           d="m 131.668,7.1999998 a 1.8839999,1.8839999 0 0 1 -1.884,1.884 1.8839999,1.8839999 0 0 1 -1.884,-1.884 1.8839999,1.8839999 0 0 1 1.884,-1.8839999 1.8839999,1.8839999 0 0 1 1.884,1.8839999 z"
           id="connector68pad" />
        <path
           style="fill:none;stroke:#100000;stroke-width:0.74999945;stroke-opacity:1;stroke-miterlimit:4;stroke-dasharray:none"
           d="M 88.467,144 A 1.883,1.883 0 0 1 86.584,145.883 1.883,1.883 0 0 1 84.701,144 1.883,1.883 0 0 1 86.584,142.117 1.883,1.883 0 0 1 88.467,144 Z"
           id="connector84pad" />
        <path
           style="fill:none;stroke:#100000;stroke-width:0.74999945;stroke-opacity:1;stroke-miterlimit:4;stroke-dasharray:none"
           d="m 81.267003,144 a 1.883,1.883 0 0 1 -1.883,1.883 1.883,1.883 0 0 1 -1.883,-1.883 1.883,1.883 0 0 1 1.883,-1.883 1.883,1.883 0 0 1 1.883,1.883 z"
           id="connector91pin" />
        <path
           style="fill:none;stroke:#100000;stroke-width:0.74999945;stroke-opacity:1;stroke-miterlimit:4;stroke-dasharray:none"
           d="m 95.666997,144 a 1.883,1.883 0 0 1 -1.883,1.883 1.883,1.883 0 0 1 -1.883,-1.883 1.883,1.883 0 0 1 1.883,-1.883 1.883,1.883 0 0 1 1.883,1.883 z"
           id="connector85pad" />
        <path
           style="fill:none;stroke:#100000;stroke-width:0.74999945;stroke-opacity:1;stroke-miterlimit:4;stroke-dasharray:none"
           d="m 102.868,144 a 1.883,1.883 0 0 1 -1.883,1.883 A 1.883,1.883 0 0 1 99.102001,144 1.883,1.883 0 0 1 100.985,142.117 1.883,1.883 0 0 1 102.868,144 Z"
           id="connector86pad" />
        <path
           style="fill:none;stroke:#100000;stroke-width:0.74999945;stroke-opacity:1;stroke-miterlimit:4;stroke-dasharray:none"
           d="m 110.068,144 a 1.883,1.883 0 0 1 -1.883,1.883 1.883,1.883 0 0 1 -1.883,-1.883 1.883,1.883 0 0 1 1.883,-1.883 1.883,1.883 0 0 1 1.883,1.883 z"
           id="connector87pad" />
        <path
           style="fill:none;stroke:#100000;stroke-width:0.74999945;stroke-opacity:1;stroke-miterlimit:4;stroke-dasharray:none"
           d="m 117.267,144 a 1.883,1.883 0 0 1 -1.883,1.883 1.883,1.883 0 0 1 -1.883,-1.883 1.883,1.883 0 0 1 1.883,-1.883 1.883,1.883 0 0 1 1.883,1.883 z"
           id="connector88pad" />
        <path
           style="fill:none;stroke:#100000;stroke-width:0.74999945;stroke-opacity:1;stroke-miterlimit:4;stroke-dasharray:none"
           d="m 124.466,144 a 1.883,1.883 0 0 1 -1.883,1.883 1.883,1.883 0 0 1 -1.883,-1.883 1.883,1.883 0 0 1 1.883,-1.883 1.883,1.883 0 0 1 1.883,1.883 z"
           id="connector89pad" />
        <path
           style="fill:none;stroke:#100000;stroke-width:0.74999945;stroke-opacity:1;stroke-miterlimit:4;stroke-dasharray:none"
           d="m 131.667,144 a 1.883,1.883 0 0 1 -1.883,1.883 1.883,1.883 0 0 1 -1.883,-1.883 1.883,1.883 0 0 1 1.883,-1.883 1.883,1.883 0 0 1 1.883,1.883 z"
           id="connector90pad" />
        <path
           style="fill:none;stroke:#100000;stroke-width:0.74999945;stroke-opacity:1;stroke-miterlimit:4;stroke-dasharray:none"
           d="m 146.068,144 a 1.883,1.883 0 0 1 -1.883,1.883 1.883,1.883 0 0 1 -1.883,-1.883 1.883,1.883 0 0 1 1.883,-1.883 1.883,1.883 0 0 1 1.883,1.883 z"
           id="connector0pad" />
      </g>
    </g>
  </g>
  <g
     partID="99261"
     id="g401"
     style="stroke:#100000;stroke-opacity:1;fill:none;stroke-width:0.74999945;stroke-miterlimit:4;stroke-dasharray:none">
    <g
       transform="translate(0.134863,5.6)"
       id="g399"
       style="stroke:#100000;stroke-opacity:1;fill:none;stroke-width:0.74999945;stroke-miterlimit:4;stroke-dasharray:none">
      <g
         id="g397"
         style="stroke:#100000;stroke-opacity:1;fill:none;stroke-width:0.74999945;stroke-miterlimit:4;stroke-dasharray:none">
        <g
           id="g395"
           style="stroke:#100000;stroke-opacity:1;fill:none;stroke-width:0.74999945;stroke-miterlimit:4;stroke-dasharray:none">
          <path
             style="fill:none;stroke:#100000;stroke-width:0.74999945;stroke-opacity:1;stroke-miterlimit:4;stroke-dasharray:none"
             d="m 153.267,144 a 1.883,1.883 0 0 1 -1.883,1.883 1.883,1.883 0 0 1 -1.883,-1.883 1.883,1.883 0 0 1 1.883,-1.883 1.883,1.883 0 0 1 1.883,1.883 z"
             id="circle331" />
          <path
             style="fill:none;stroke:#100000;stroke-width:0.74999945;stroke-opacity:1;stroke-miterlimit:4;stroke-dasharray:none"
             d="m 160.46599,144 a 1.883,1.883 0 0 1 -1.883,1.883 1.883,1.883 0 0 1 -1.883,-1.883 1.883,1.883 0 0 1 1.883,-1.883 1.883,1.883 0 0 1 1.883,1.883 z"
             id="circle333" />
          <path
             style="fill:none;stroke:#100000;stroke-width:0.74999945;stroke-opacity:1;stroke-miterlimit:4;stroke-dasharray:none"
             d="m 167.669,144 a 1.883,1.883 0 0 1 -1.883,1.883 1.883,1.883 0 0 1 -1.883,-1.883 1.883,1.883 0 0 1 1.883,-1.883 1.883,1.883 0 0 1 1.883,1.883 z"
             id="circle335" />
          <path
             style="fill:none;stroke:#100000;stroke-width:0.74999945;stroke-opacity:1;stroke-miterlimit:4;stroke-dasharray:none"
             d="m 174.868,144 a 1.883,1.883 0 0 1 -1.883,1.883 1.883,1.883 0 0 1 -1.883,-1.883 1.883,1.883 0 0 1 1.883,-1.883 1.883,1.883 0 0 1 1.883,1.883 z"
             id="circle337" />
          <path
             style="fill:none;stroke:#100000;stroke-width:0.74999945;stroke-opacity:1;stroke-miterlimit:4;stroke-dasharray:none"
             d="m 182.068,144 a 1.883,1.883 0 0 1 -1.883,1.883 1.883,1.883 0 0 1 -1.883,-1.883 1.883,1.883 0 0 1 1.883,-1.883 1.883,1.883 0 0 1 1.883,1.883 z"
             id="circle339" />
          <path
             style="fill:none;stroke:#100000;stroke-width:0.74999945;stroke-opacity:1;stroke-miterlimit:4;stroke-dasharray:none"
             d="m 120.147,7.1999998 a 1.8839999,1.8839999 0 0 1 -1.884,1.884 1.8839999,1.8839999 0 0 1 -1.884,-1.884 1.8839999,1.8839999 0 0 1 1.884,-1.8839999 1.8839999,1.8839999 0 0 1 1.884,1.8839999 z"
             id="circle341" />
          <path
             style="fill:none;stroke:#100000;stroke-width:0.74999945;stroke-opacity:1;stroke-miterlimit:4;stroke-dasharray:none"
             d="m 112.949,7.1999998 a 1.8839999,1.8839999 0 0 1 -1.884,1.884 1.8839999,1.8839999 0 0 1 -1.884,-1.884 1.8839999,1.8839999 0 0 1 1.884,-1.8839999 1.8839999,1.8839999 0 0 1 1.884,1.8839999 z"
             id="circle343" />
          <path
             style="fill:none;stroke:#100000;stroke-width:0.74999945;stroke-opacity:1;stroke-miterlimit:4;stroke-dasharray:none"
             d="m 105.748,7.1999998 a 1.8839999,1.8839999 0 0 1 -1.884,1.884 1.8839999,1.8839999 0 0 1 -1.884,-1.884 1.8839999,1.8839999 0 0 1 1.884,-1.8839999 1.8839999,1.8839999 0 0 1 1.884,1.8839999 z"
             id="circle345" />
          <path
             style="fill:none;stroke:#100000;stroke-width:0.74999945;stroke-opacity:1;stroke-miterlimit:4;stroke-dasharray:none"
             d="m 98.548001,7.1999998 a 1.8839999,1.8839999 0 0 1 -1.884,1.884 1.8839999,1.8839999 0 0 1 -1.883999,-1.884 1.8839999,1.8839999 0 0 1 1.883999,-1.8839999 1.8839999,1.8839999 0 0 1 1.884,1.8839999 z"
             id="circle347" />
          <path
             style="fill:none;stroke:#100000;stroke-width:0.74999945;stroke-opacity:1;stroke-miterlimit:4;stroke-dasharray:none"
             d="m 91.347997,7.1999998 a 1.8839999,1.8839999 0 0 1 -1.884,1.884 1.8839999,1.8839999 0 0 1 -1.884,-1.884 1.8839999,1.8839999 0 0 1 1.884,-1.8839999 1.8839999,1.8839999 0 0 1 1.884,1.8839999 z"
             id="circle349" />
          <path
             style="fill:none;stroke:#100000;stroke-width:0.74999945;stroke-opacity:1;stroke-miterlimit:4;stroke-dasharray:none"
             d="m 84.148,7.1999998 a 1.8839999,1.8839999 0 0 1 -1.884,1.884 1.8839999,1.8839999 0 0 1 -1.884,-1.884 1.8839999,1.8839999 0 0 1 1.884,-1.8839999 1.8839999,1.8839999 0 0 1 1.884,1.8839999 z"
             id="circle351" />
          <path
             style="fill:none;stroke:#100000;stroke-width:0.74999945;stroke-opacity:1;stroke-miterlimit:4;stroke-dasharray:none"
             d="m 76.948003,7.1999998 a 1.8839999,1.8839999 0 0 1 -1.884,1.884 1.8839999,1.8839999 0 0 1 -1.884,-1.884 1.8839999,1.8839999 0 0 1 1.884,-1.8839999 1.8839999,1.8839999 0 0 1 1.884,1.8839999 z"
             id="circle353" />
          <path
             style="fill:none;stroke:#100000;stroke-width:0.74999945;stroke-opacity:1;stroke-miterlimit:4;stroke-dasharray:none"
             d="m 69.747998,7.1999998 a 1.8839999,1.8839999 0 0 1 -1.884,1.884 1.8839999,1.8839999 0 0 1 -1.884,-1.884 1.8839999,1.8839999 0 0 1 1.884,-1.8839999 1.8839999,1.8839999 0 0 1 1.884,1.8839999 z"
             id="circle355" />
          <path
             style="fill:none;stroke:#100000;stroke-width:0.74999945;stroke-opacity:1;stroke-miterlimit:4;stroke-dasharray:none"
             d="m 62.548001,7.1999998 a 1.8839999,1.8839999 0 0 1 -1.884,1.884 1.8839999,1.8839999 0 0 1 -1.883999,-1.884 1.8839999,1.8839999 0 0 1 1.883999,-1.8839999 1.8839999,1.8839999 0 0 1 1.884,1.8839999 z"
             id="circle357" />
          <path
             style="fill:none;stroke:#100000;stroke-width:0.74999945;stroke-opacity:1;stroke-miterlimit:4;stroke-dasharray:none"
             d="m 55.347001,7.1999998 a 1.8839999,1.8839999 0 0 1 -1.884,1.884 1.8839999,1.8839999 0 0 1 -1.884,-1.884 1.8839999,1.8839999 0 0 1 1.884,-1.8839999 1.8839999,1.8839999 0 0 1 1.884,1.8839999 z"
             id="circle359" />
          <path
             style="fill:none;stroke:#100000;stroke-width:0.74999945;stroke-opacity:1;stroke-miterlimit:4;stroke-dasharray:none"
             d="m 182.069,7.1999998 a 1.8839999,1.8839999 0 0 1 -1.884,1.884 1.8839999,1.8839999 0 0 1 -1.884,-1.884 1.8839999,1.8839999 0 0 1 1.884,-1.8839999 1.8839999,1.8839999 0 0 1 1.884,1.8839999 z"
             id="circle361" />
          <path
             style="fill:none;stroke:#100000;stroke-width:0.74999945;stroke-opacity:1;stroke-miterlimit:4;stroke-dasharray:none"
             d="m 174.869,7.1999998 a 1.8839999,1.8839999 0 0 1 -1.884,1.884 1.8839999,1.8839999 0 0 1 -1.884,-1.884 1.8839999,1.8839999 0 0 1 1.884,-1.8839999 1.8839999,1.8839999 0 0 1 1.884,1.8839999 z"
             id="circle363" />
          <path
             style="fill:none;stroke:#100000;stroke-width:0.74999945;stroke-opacity:1;stroke-miterlimit:4;stroke-dasharray:none"
             d="m 167.67,7.1999998 a 1.8839999,1.8839999 0 0 1 -1.884,1.884 1.8839999,1.8839999 0 0 1 -1.884,-1.884 1.8839999,1.8839999 0 0 1 1.884,-1.8839999 1.8839999,1.8839999 0 0 1 1.884,1.8839999 z"
             id="circle365" />
          <path
             style="fill:none;stroke:#100000;stroke-width:0.74999945;stroke-opacity:1;stroke-miterlimit:4;stroke-dasharray:none"
             d="m 160.46699,7.1999998 a 1.8839999,1.8839999 0 0 1 -1.884,1.884 1.8839999,1.8839999 0 0 1 -1.884,-1.884 1.8839999,1.8839999 0 0 1 1.884,-1.8839999 1.8839999,1.8839999 0 0 1 1.884,1.8839999 z"
             id="circle367" />
          <path
             style="fill:none;stroke:#100000;stroke-width:0.74999945;stroke-opacity:1;stroke-miterlimit:4;stroke-dasharray:none"
             d="m 153.268,7.1999998 a 1.8839999,1.8839999 0 0 1 -1.884,1.884 1.8839999,1.8839999 0 0 1 -1.884,-1.884 1.8839999,1.8839999 0 0 1 1.884,-1.8839999 1.8839999,1.8839999 0 0 1 1.884,1.8839999 z"
             id="circle369" />
          <path
             style="fill:none;stroke:#100000;stroke-width:0.74999945;stroke-opacity:1;stroke-miterlimit:4;stroke-dasharray:none"
             d="m 146.069,7.1999998 a 1.8839999,1.8839999 0 0 1 -1.884,1.884 1.8839999,1.8839999 0 0 1 -1.884,-1.884 1.8839999,1.8839999 0 0 1 1.884,-1.8839999 1.8839999,1.8839999 0 0 1 1.884,1.8839999 z"
             id="circle371" />
          <path
             style="fill:none;stroke:#100000;stroke-width:0.74999945;stroke-opacity:1;stroke-miterlimit:4;stroke-dasharray:none"
             d="m 138.869,7.1999998 a 1.8839999,1.8839999 0 0 1 -1.884,1.884 1.8839999,1.8839999 0 0 1 -1.884,-1.884 1.8839999,1.8839999 0 0 1 1.884,-1.8839999 1.8839999,1.8839999 0 0 1 1.884,1.8839999 z"
             id="circle373" />
          <path
             style="fill:none;stroke:#100000;stroke-width:0.74999945;stroke-opacity:1;stroke-miterlimit:4;stroke-dasharray:none"
             d="m 131.668,7.1999998 a 1.8839999,1.8839999 0 0 1 -1.884,1.884 1.8839999,1.8839999 0 0 1 -1.884,-1.884 1.8839999,1.8839999 0 0 1 1.884,-1.8839999 1.8839999,1.8839999 0 0 1 1.884,1.8839999 z"
             id="circle375" />
          <path
             style="fill:none;stroke:#100000;stroke-width:0.74999945;stroke-opacity:1;stroke-miterlimit:4;stroke-dasharray:none"
             d="M 88.467,144 A 1.883,1.883 0 0 1 86.584,145.883 1.883,1.883 0 0 1 84.701,144 1.883,1.883 0 0 1 86.584,142.117 1.883,1.883 0 0 1 88.467,144 Z"
             id="circle377" />
          <path
             style="fill:none;stroke:#100000;stroke-width:0.74999945;stroke-opacity:1;stroke-miterlimit:4;stroke-dasharray:none"
             d="m 81.267003,144 a 1.883,1.883 0 0 1 -1.883,1.883 1.883,1.883 0 0 1 -1.883,-1.883 1.883,1.883 0 0 1 1.883,-1.883 1.883,1.883 0 0 1 1.883,1.883 z"
             id="circle379" />
          <path
             style="fill:none;stroke:#100000;stroke-width:0.74999945;stroke-opacity:1;stroke-miterlimit:4;stroke-dasharray:none"
             d="m 95.666997,144 a 1.883,1.883 0 0 1 -1.883,1.883 1.883,1.883 0 0 1 -1.883,-1.883 1.883,1.883 0 0 1 1.883,-1.883 1.883,1.883 0 0 1 1.883,1.883 z"
             id="circle381" />
          <path
             style="fill:none;stroke:#100000;stroke-width:0.74999945;stroke-opacity:1;stroke-miterlimit:4;stroke-dasharray:none"
             d="m 102.868,144 a 1.883,1.883 0 0 1 -1.883,1.883 A 1.883,1.883 0 0 1 99.102001,144 1.883,1.883 0 0 1 100.985,142.117 1.883,1.883 0 0 1 102.868,144 Z"
             id="circle383" />
          <path
             style="fill:none;stroke:#100000;stroke-width:0.74999945;stroke-opacity:1;stroke-miterlimit:4;stroke-dasharray:none"
             d="m 110.068,144 a 1.883,1.883 0 0 1 -1.883,1.883 1.883,1.883 0 0 1 -1.883,-1.883 1.883,1.883 0 0 1 1.883,-1.883 1.883,1.883 0 0 1 1.883,1.883 z"
             id="circle385" />
          <path
             style="fill:none;stroke:#100000;stroke-width:0.74999945;stroke-opacity:1;stroke-miterlimit:4;stroke-dasharray:none"
             d="m 117.267,144 a 1.883,1.883 0 0 1 -1.883,1.883 1.883,1.883 0 0 1 -1.883,-1.883 1.883,1.883 0 0 1 1.883,-1.883 1.883,1.883 0 0 1 1.883,1.883 z"
             id="circle387" />
          <path
             style="fill:none;stroke:#100000;stroke-width:0.74999945;stroke-opacity:1;stroke-miterlimit:4;stroke-dasharray:none"
             d="m 124.466,144 a 1.883,1.883 0 0 1 -1.883,1.883 1.883,1.883 0 0 1 -1.883,-1.883 1.883,1.883 0 0 1 1.883,-1.883 1.883,1.883 0 0 1 1.883,1.883 z"
             id="circle389" />
          <path
             style="fill:none;stroke:#100000;stroke-width:0.74999945;stroke-opacity:1;stroke-miterlimit:4;stroke-dasharray:none"
             d="m 131.667,144 a 1.883,1.883 0 0 1 -1.883,1.883 1.883,1.883 0 0 1 -1.883,-1.883 1.883,1.883 0 0 1 1.883,-1.883 1.883,1.883 0 0 1 1.883,1.883 z"
             id="circle391" />
          <path
             style="fill:none;stroke:#100000;stroke-width:0.74999945;stroke-opacity:1;stroke-miterlimit:4;stroke-dasharray:none"
             d="m 146.068,144 a 1.883,1.883 0 0 1 -1.883,1.883 1.883,1.883 0 0 1 -1.883,-1.883 1.883,1.883 0 0 1 1.883,-1.883 1.883,1.883 0 0 1 1.883,1.883 z"
             id="circle393" />
        </g>
      </g>
    </g>
  </g>
  <g
     partID="99352"
     id="g880"
     style="stroke:#100000;stroke-opacity:1;fill:none;stroke-width:0.74999945;stroke-miterlimit:4;stroke-dasharray:none">
    <g
       transform="translate(0,4.8)"
       id="g878"
       style="stroke:#100000;stroke-opacity:1;fill:none;stroke-width:0.74999945;stroke-miterlimit:4;stroke-dasharray:none">
      <g
         id="g876"
         style="stroke:#100000;stroke-opacity:1;fill:none;stroke-width:0.74999945;stroke-miterlimit:4;stroke-dasharray:none">
        <path
           stroke-linecap="round"
           d="M186.951,36.41L186.951,4.367l-3.566,-3.566L0.805,0.8l0.001,149.701l186.147,0l0,-5.827l8.441,-8.441L195.394,43.545L186.951,36.41z"
           stroke="#FFFFFF"
           fill="none"
           stroke-miterlimit="10"
           stroke-linejoin="round"
           id="path874"
           style="stroke-width:0.74999945;stroke-miterlimit:4;stroke-dasharray:none;stroke:#100000;stroke-opacity:1;fill:none" />
      </g>
    </g>
  </g>
  <g
     partID="99260"
     id="partLabel"
     style="stroke:#100000;stroke-opacity:1;fill:none;stroke-width:0.74999945;stroke-miterlimit:4;stroke-dasharray:none" />
  <g
     id="g2230"
     transform="matrix(0.06735089,0,0,0.06735089,6.4829524,129.44425)"
     style="fill:none;stroke:#100000;stroke-opacity:1;stroke-width:11.13570216;stroke-miterlimit:4;stroke-dasharray:none">
    <path
       style="fill:none;stroke-width:1.11357022;stroke:#100000;stroke-opacity:1;stroke-miterlimit:4;stroke-dasharray:none"
       d="m 249.08801,175.22493 c -0.0825,-0.21541 -0.11565,-4.35536 -0.0734,-9.20008 l 0.0767,-8.80864 3.47114,-2.00826 c 1.90912,-1.10455 5.09822,-2.94573 7.08687,-4.09152 9.65164,-5.56087 107.18213,-61.866857 111.22049,-64.209487 2.54548,-1.47659 6.77592,-3.92281 9.40095,-5.43604 l 4.77279,-2.75137 0.0737,-26.98702 c 0.0407,-14.84289 -0.0237,-27.0857 -0.14541,-27.2063 -0.20426,-0.20425 -22.20882,12.33836 -23.25627,13.25615 -0.26209,0.22962 -0.62417,1.00444 -0.80483,1.72194 -1.10608,4.39258 -6.17458,15.2701 -9.84175,21.12133 -6.55031,10.45141 -15.63121,19.97917 -24.7924,26.01227 -14.23095,9.37183 -29.35263,11.61994 -40.71945,6.05369 -16.24522,-7.95517 -22.58791,-29.59609 -16.05685,-54.78527 6.10702,-23.55382 22.7663,-45.4082705 42.07109,-55.19108 4.25225,-2.15484 7.92262,-3.52785 12.29361,-4.59875 3.03463,-0.74349 3.78328,-0.81414 8.53317,-0.80504 4.67639,0.0101 5.4926,0.0866 8.01418,0.7623 5.18069,1.38824 9.43919,3.77711 13.21083,7.41081 1.01036,0.9734 1.96694,1.76983 2.1257,1.76983 0.15896,0 4.6022,-2.45165 9.87427,-5.44816 5.272,-2.99651 11.83087,-6.71664 14.57522,-8.26699 l 4.98973,-2.81884 v -24.8326 c 0,-20.72715 0.066,-24.89861 0.39916,-25.23176 0.49623,-0.49624 15.06698,-8.8985 15.43127,-8.8985 0.3057,0 5.52597,10.61255 7.32745,14.89689 7.09076,16.86336 11.46417,34.39296 13.35094,53.51312 0.50911,5.15936 0.50005,26.4222095 -0.0135,31.81859 -1.7092,17.95763 -5.74809,34.81382 -12.21542,50.98089 -2.46092,6.15179 -8.27589,18.03831 -11.56885,23.64815 -13.80642,23.520517 -33.3053,44.136717 -55.95533,59.161767 -25.11226,16.65828 -53.80459,26.65887 -83.74081,29.18751 -7.47531,0.63144 -8.95619,0.67378 -9.1148,0.2604 z m -16.34012,-0.14372 c -30.49793,-2.13688 -55.60681,-9.71052 -80.70351,-24.34276 -15.61741,-9.10552 -28.88148,-19.92561 -42.74921,-34.87238 -9.356407,-10.08444 -20.164964,-25.808877 -26.36939,-38.362437 -0.98286,-1.98868 -2.028284,-4.07136 -2.323139,-4.62816 -1.181954,-2.23204 -4.687069,-10.60823 -6.308305,-15.07486 -6.472713,-17.83312 -9.73293,-34.30704 -10.78407,-54.4921405 -0.397762,-7.63769 -0.003,-19.3645095 0.887632,-26.4672795 0.149805,-1.19322 0.416257,-3.34099 0.592005,-4.7728 1.391984,-11.34047 5.244071,-26.64544 9.780518,-38.85937 2.250973,-6.06052 8.901773,-20.593885 9.63027,-21.044132 0.14304,-0.08826 3.608558,1.786641 7.701432,4.166592 l 7.441547,4.32719 0.144743,79.07003953 0.144735,79.07006047 2.314082,1.32776 c 9.15943,5.25551 25.95035,14.94663 26.90115,15.52639 2.06381,1.25842 12.70768,7.362057 13.399,7.683527 0.5239,0.24348 0.72964,0.22048 0.93569,-0.10518 0.15082,-0.23875 0.26614,-7.274047 0.26851,-16.421437 l 0.003,-16.004 -2.43283,-3.23905 c -9.59303,-12.77198 -15.57304,-26.94547 -17.71432,-41.98537 -0.59352,-4.16881 -0.67033,-13.40955 -0.1383,-16.6324005 1.66888,-10.10789 4.66767,-16.78785 9.97452,-22.2188295 2.64265,-2.70443 5.02798,-4.40892 8.41605,-6.01387 7.69042,-3.64297 16.49619,-3.83043 26.33724,-0.56063 16.50567,5.48418 32.68573,20.73999953 42.50226,40.07442 9.32337,18.36313 11.91915,38.18908 6.97774,53.29457 -0.92775,2.83607 -3.33124,7.64421 -4.97038,9.94324 -2.63836,3.70042 -6.51568,7.03662 -10.73396,9.23598 l -2.24632,1.1712 v 21.237587 21.23756 l 4.19429,2.4324 c 2.30685,1.33785 5.69116,3.30759 7.52075,4.37723 2.69002,1.57271 18.74654,10.82328 23.93626,13.79024 l 1.22937,0.70285 v 8.63465 c 0,9.43693 0.073,9.05054 -1.6869,8.93529 -0.42451,-0.0271 -1.35757,-0.0916 -2.07351,-0.14169 z m -2.74795,-222.140517 c -10.67252,-1.07126 -20.15067,-3.63926 -28.72739,-7.78344 -11.54362,-5.57771 -19.19551,-12.62298 -23.50256,-21.63943 -2.26076,-4.7327 -2.68131,-6.67171 -2.70738,-12.483294 -0.017,-3.921207 0.0883,-5.347661 0.52183,-7.04116 0.53232,-2.078646 0.53232,-2.135076 0,-2.65874 -0.89169,-0.87708 -26.06848,-15.321089 -26.70565,-15.321089 -0.32263,0 -9.94836,5.40192 -21.39033,12.0043 -11.44195,6.602364 -20.96293,12.004302 -21.15775,12.004302 -0.58888,0 -15.609441,-8.761988 -15.609441,-9.105488 0,-0.48447 5.177277,-8.153824 8.385077,-12.421134 8.519734,-11.33389 18.972004,-22.30541 29.428184,-30.89018 20.85119,-17.11933 44.8846,-29.30081 70.35667,-35.66074 16.09572,-4.0188 30.2926,-5.59263 47.45193,-5.26033 17.25531,0.33411 31.1625,2.46726 47.67715,7.31276 33.32889,9.77897 64.87212,30.73993 87.02281,57.82806 5.35259,6.54571 13.69046,18.207674 13.69046,19.148549 0,0.158587 -1.98506,1.434929 -4.41121,2.836078 -2.42619,1.401141 -5.83814,3.382055 -7.58217,4.401949 -1.92042,1.123102 -3.4034,1.809119 -3.76037,1.739534 -0.52184,-0.101798 -15.45752,-8.681154 -77.8219,-44.70273 -9.2274,-5.32973 -25.23792,-14.57522 -35.57899,-20.54554 -10.34104,-5.97034 -19.68331,-11.36642 -20.76061,-11.99129 -1.07727,-0.62485 -2.15062,-1.06247 -2.38521,-0.97241 -0.2347,0.09 -9.31098,5.29127 -20.16971,11.55834 -10.85871,6.26708 -21.2726,12.26994 -23.14194,13.33964 -1.86935,1.06972 -3.39881,2.11345 -3.39881,2.31943 0,0.2932 13.95482,8.44768 19.44048,11.35995 l 1.07244,0.56938 3.26644,-0.67726 c 6.99337,-1.44995 9.63623,-1.67885 19.32038,-1.67344 7.84662,0.003 9.65435,0.0903 13.02032,0.61859 10.78353,1.69262 19.68065,4.57506 27.52201,8.91641 5.62675,3.11525 8.9757,5.68045 13.26004,10.15671 15.96133,16.676386 12.14119,38.724973 -9.13961,52.750973 -6.95421,4.58345 -15.75431,8.20497 -24.55919,10.10685 -7.23238,1.56222 -9.68362,1.80692 -18.94654,1.8915 -4.85233,0.0443 -9.34308,0.0271 -9.97946,-0.0356 z"
       id="path5483-1"
       inkscape:connector-curvature="0" />
    <path
       inkscape:connector-curvature="0"
       id="path4012-9"
       d="m 22.418734,236.96065 c -3.893922,0.0391 -11.052125,-1.34264 -11.674989,4.29999 0.235505,20.26185 -0.606721,40.67642 0.400001,60.94993 1.257283,5.61592 10.905936,4.56322 10.549993,-1.35 0.465795,-4.80273 0.134753,-9.63514 0.15,-14.44997 14.215385,-0.67786 29.975903,2.5247 42.849966,-5 10.081538,-7.41945 10.408493,-22.8961 4.849999,-33.22497 -6.510377,-10.07166 -20.105407,-11.14475 -31.099822,-11.17269 -5.341233,-0.10398 -10.68327,-0.0927 -16.025148,-0.0524 z m 12.949993,10.12499 c 8.238159,0.63365 19.211048,-1.10524 24.599982,6.69999 2.796088,5.91554 3.228418,14.42917 -1.824996,19.24999 -8.279087,5.27527 -18.799839,2.74293 -28.149985,3.52499 -5.583168,0.74984 -10.120425,0.45376 -8.099994,-6.39999 0,-7.69166 0,-15.38332 0,-23.07498 4.491664,0 8.983336,0 13.474993,0 z"
       style="font-style:normal;font-weight:normal;font-size:144px;line-height:125%;font-family:Gruppo;-inkscape-font-specification:Gruppo;letter-spacing:0px;word-spacing:0px;fill:none;fill-opacity:1;stroke:#100000;stroke-width:1.11357022;stroke-opacity:1;stroke-miterlimit:4;stroke-dasharray:none" />
    <path
       inkscape:connector-curvature="0"
       id="path4010-7"
       d="m 117.26867,235.81064 c -14.24041,0.0992 -31.136985,3.99828 -38.049973,17.8 -6.049668,13.42527 -5.488968,31.16195 4.699992,42.39995 11.992599,11.71983 30.430591,11.91985 46.195581,10.71625 13.51945,-0.93727 28.34341,-7.78912 32.32933,-21.71624 4.18512,-13.24004 2.63271,-29.99767 -8.17496,-39.64996 -10.07661,-8.56055 -24.25294,-9.70476 -36.99997,-9.55 z m 1.6,10.075 c 10.90255,0.0741 24.46663,0.65519 31.04998,10.82499 4.94207,10.01567 5.02327,23.30367 -2.025,32.27497 -9.3018,9.29123 -23.88296,8.18999 -36.12497,7.79999 -9.59832,-0.52115 -21.40762,-4.70734 -23.699986,-15.27498 -3.217883,-10.90158 -1.868279,-25.68409 9.299993,-31.59998 6.655093,-3.39209 14.183933,-3.75149 21.499983,-4.02499 z"
       style="font-style:normal;font-weight:normal;font-size:144px;line-height:125%;font-family:Gruppo;-inkscape-font-specification:Gruppo;letter-spacing:0px;word-spacing:0px;fill:none;fill-opacity:1;stroke:#100000;stroke-width:1.11357022;stroke-opacity:1;stroke-miterlimit:4;stroke-dasharray:none" />
    <path
       inkscape:connector-curvature="0"
       id="path4014-0"
       d="m 204.31861,236.96065 c -6.04223,1.52502 -6.48752,8.77229 -9.86383,12.95589 -9.01824,17.02966 -19.52031,33.45218 -27.48614,50.91906 -0.77768,5.55329 7.87567,7.98614 10.19023,2.85704 3.60128,-5.40037 6.23623,-11.3009 9.48471,-16.90704 12.13423,0.23714 24.78494,-0.47179 36.59998,0.35 4.10463,6.2461 5.99287,14.47669 12.09999,19.09999 4.76007,2.1831 9.61063,-4.31917 6.34063,-8.35159 -11.11255,-19.85195 -21.51831,-40.25815 -33.44061,-59.54836 -1.05408,-0.96734 -2.48825,-1.54245 -3.92496,-1.37499 z m 13.49999,40.09996 c -8.66663,0 -17.33335,0 -25.99998,0 4.33335,-7.90833 8.66663,-15.81665 12.99999,-23.72498 4.33336,7.90833 8.66663,15.81665 12.99999,23.72498 z"
       style="font-style:normal;font-weight:normal;font-size:144px;line-height:125%;font-family:Gruppo;-inkscape-font-specification:Gruppo;letter-spacing:0px;word-spacing:0px;fill:none;fill-opacity:1;stroke:#100000;stroke-width:1.11357022;stroke-opacity:1;stroke-miterlimit:4;stroke-dasharray:none" />
    <path
       inkscape:connector-curvature="0"
       id="path3924-5"
       style="font-style:normal;font-weight:normal;font-size:144px;line-height:125%;font-family:Gruppo;-inkscape-font-specification:Gruppo;letter-spacing:0px;word-spacing:0px;fill:none;fill-opacity:1;stroke:#100000;stroke-width:1.11357022;stroke-opacity:1;stroke-miterlimit:4;stroke-dasharray:none"
       d="m 259.41713,303.97749 c -0.56256,0 -1.01256,-0.0188 -1.35,-0.0562 -0.30008,-0.0375 -0.52504,-0.1125 -0.67504,-0.225 -0.15,-0.15 -0.24376,-0.35625 -0.28128,-0.61875 0,-0.3 0,-0.69375 0,-1.18125 v -56.92494 c 0,-0.97494 0.1688,-1.81869 0.50632,-2.53125 0.33744,-0.74994 1.04992,-1.12494 2.13744,-1.125 0.89999,6e-5 1.48127,0.39381 1.74376,1.18125 0.26248,0.75006 0.39376,1.57506 0.39376,2.475 v 55.2937 h 48.31868 c 0.75,0 1.31248,0.20625 1.68752,0.61875 0.41248,0.375 0.61872,0.78749 0.6188,1.23749 -8e-5,0.4875 -0.20632,0.91875 -0.6188,1.29375 -0.37504,0.375 -0.93752,0.5625 -1.68752,0.5625 h -50.79364" />
    <path
       inkscape:connector-curvature="0"
       id="path3926-2"
       style="font-style:normal;font-weight:normal;font-size:144px;line-height:125%;font-family:Gruppo;-inkscape-font-specification:Gruppo;letter-spacing:0px;word-spacing:0px;fill:none;fill-opacity:1;stroke:#100000;stroke-width:1.11357022;stroke-opacity:1;stroke-miterlimit:4;stroke-dasharray:none"
       d="m 347.44827,244.18379 c 0.6,-1.08743 1.06872,-1.83743 1.40623,-2.24999 0.33752,-0.41244 0.84376,-0.61869 1.5188,-0.61876 0.52496,7e-5 0.97496,0.20632 1.35,0.61876 0.4124,0.37506 0.93744,1.12506 1.57496,2.24999 l 31.04998,56.02496 c 0.41239,0.75 0.61864,1.48124 0.61872,2.19374 -8e-5,0.675 -0.18761,1.2 -0.56249,1.575 -0.37503,0.375 -0.82503,0.5625 -1.35,0.5625 -0.52503,0 -1.05007,-0.1875 -1.57503,-0.5625 -0.48752,-0.3375 -0.99376,-0.975 -1.51872,-1.9125 L 370.39825,284.74 h -40.04997 l -9.67496,17.54999 c -0.41256,0.7875 -0.9,1.35 -1.46256,1.6875 -0.52496,0.375 -1.05,0.5625 -1.57496,0.5625 -0.63751,0 -1.10623,-0.225 -1.40623,-0.675 -0.3,-0.45 -0.45,-1.05 -0.45,-1.8 0,-0.3 0.056,-0.59999 0.16872,-0.89999 0.15,-0.3 0.31879,-0.6375 0.50623,-1.0125 l 30.99375,-55.96871 m 21.31878,37.23747 -18.39375,-33.58123 -18.39374,33.58123 h 36.78749" />
    <path
       inkscape:connector-curvature="0"
       id="path3928-5"
       style="font-style:normal;font-weight:normal;font-size:144px;line-height:125%;font-family:Gruppo;-inkscape-font-specification:Gruppo;letter-spacing:0px;word-spacing:0px;fill:none;fill-opacity:1;stroke:#100000;stroke-width:1.11357022;stroke-opacity:1;stroke-miterlimit:4;stroke-dasharray:none"
       d="m 460.17314,285.64 c 0,3.82501 -0.73128,6.93751 -2.19367,9.3375 -1.46265,2.3625 -3.48761,4.21875 -6.07505,5.56875 -2.55007,1.31249 -5.56879,2.21249 -9.05622,2.69999 -3.48752,0.4875 -7.23752,0.73125 -11.25,0.73125 h -32.39997 c -0.63752,0 -1.12505,-0.1875 -1.46249,-0.5625 -0.3,-0.375 -0.45,-0.84375 -0.45,-1.40625 V 243.3963 c 0,-0.67494 0.20625,-1.18119 0.61872,-1.51875 0.41249,-0.37494 0.93753,-0.56244 1.57505,-0.56251 h 25.76246 c 2.69991,7e-5 5.36247,0.0376 7.98751,0.11251 2.62488,0.0375 5.09992,0.22506 7.42495,0.56249 2.36249,0.30007 4.51872,0.76882 6.46872,1.40626 1.98744,0.63755 3.69376,1.53755 5.1188,2.69999 1.4624,1.16255 2.58743,2.62505 3.37496,4.3875 0.82495,1.76254 1.23744,3.91879 1.23751,6.46875 -7e-5,2.17503 -0.30007,4.01254 -0.9,5.51248 -0.60007,1.50005 -1.36879,2.75629 -2.30623,3.76876 -0.90008,1.01253 -1.91256,1.81878 -3.03752,2.41875 -1.12504,0.56253 -2.21256,0.99378 -3.26248,1.29375 -1.05008,0.26253 -2.00632,0.43128 -2.86872,0.50625 -0.86255,0.075 -1.50008,0.11253 -1.91255,0.11249 h -0.39377 c 2.28744,0.22504 4.5,0.61878 6.63752,1.18125 2.13744,0.56253 4.03119,1.42503 5.68128,2.5875 1.68743,1.12502 3.03743,2.60627 4.04999,4.44374 1.04992,1.83752 1.59368,4.12501 1.6312,6.86249 m -8.1,-28.68746 c 0,-1.91246 -0.31879,-3.59996 -0.95623,-5.06251 -0.63752,-1.49994 -1.85632,-2.75619 -3.65624,-3.76874 -1.80008,-1.01245 -4.31256,-1.78119 -7.53752,-2.30625 -3.22503,-0.52494 -7.42503,-0.78744 -12.59999,-0.7875 h -25.25621 v 24.13124 h 26.60621 c 4.05,3e-5 7.53752,-0.14997 10.46255,-0.45 2.9624,-0.33747 5.39992,-0.95622 7.31248,-1.85625 1.9124,-0.89996 3.31872,-2.13746 4.21872,-3.71251 0.93744,-1.57494 1.40623,-3.63745 1.40623,-6.18748 m 3.3188,28.68746 c -8e-5,-2.58748 -0.63759,-4.74372 -1.91247,-6.46874 -1.23761,-1.72497 -3.01888,-3.09372 -5.34376,-4.10625 -2.2876,-1.01246 -5.08135,-1.72496 -8.38128,-2.13749 -3.30007,-0.44997 -6.99375,-0.67497 -11.08127,-0.675 H 402.06695 V 300.265 h 31.66877 c 5.0624,0 9.03743,-0.4125 11.92495,-1.2375 2.92496,-0.825 5.09992,-1.9125 6.52503,-3.26251 1.42488,-1.34999 2.30616,-2.90623 2.64377,-4.66874 0.37488,-1.76248 0.56239,-3.58124 0.56247,-5.45625" />
  </g>
</svg>
