<?xml version="1.0" encoding="UTF-8" standalone="no"?>
<svg
   xmlns:dc="http://purl.org/dc/elements/1.1/"
   xmlns:cc="http://creativecommons.org/ns#"
   xmlns:rdf="http://www.w3.org/1999/02/22-rdf-syntax-ns#"
   xmlns:svg="http://www.w3.org/2000/svg"
   xmlns="http://www.w3.org/2000/svg"
   xmlns:sodipodi="http://sodipodi.sourceforge.net/DTD/sodipodi-0.dtd"
   xmlns:inkscape="http://www.inkscape.org/namespaces/inkscape"
   width="10cm"
   height="10cm"
   viewBox="0 0 283.46456 283.46457"
   version="1.1"
   id="svg311"
   sodipodi:docname="copperv3_top.gbr.svg"
   inkscape:version="0.92.5 (2060ec1f9f, 2020-04-08)">
  <metadata
     id="metadata317">
    <rdf:RDF>
      <cc:Work
         rdf:about="">
        <dc:format>image/svg+xml</dc:format>
        <dc:type
           rdf:resource="http://purl.org/dc/dcmitype/StillImage" />
        <dc:title></dc:title>
      </cc:Work>
    </rdf:RDF>
  </metadata>
  <defs
     id="defs315" />
  <sodipodi:namedview
     pagecolor="#ffffff"
     bordercolor="#666666"
     borderopacity="1"
     objecttolerance="10"
     gridtolerance="10"
     guidetolerance="10"
     inkscape:pageopacity="0"
     inkscape:pageshadow="2"
     inkscape:window-width="3720"
     inkscape:window-height="2032"
     id="namedview313"
     showgrid="false"
     inkscape:zoom="3.6520058"
     inkscape:cx="304.74258"
     inkscape:cy="149.73771"
     inkscape:window-x="120"
     inkscape:window-y="54"
     inkscape:window-maximized="1"
     inkscape:current-layer="svg311"
     inkscape:lockguides="false"
     units="cm" />
  <g
     id="g2193"
     transform="translate(-523.81149,11.435054)"
     style="fill:#000000;fill-opacity:1">
    <path
       id="path4-6"
       d="m 700.40709,30.616658 a 2.5202521,2.5202521 0 0 1 0.50097,0.0483 h 84.37501 a 2.5202521,2.5202521 0 0 1 0.70312,0 2.5202521,2.5202521 0 0 1 0.70313,0.28125 2.5202521,2.5202521 0 0 1 0.5625,0.5625 2.5202521,2.5202521 0 0 1 0.28125,0.421871 2.5202521,2.5202521 0 0 1 0.28125,0.984379 2.5202521,2.5202521 0 0 1 -0.14063,0.98437 2.5202521,2.5202521 0 0 1 -0.14062,0.42188 2.5202521,2.5202521 0 0 1 -0.28125,0.42187 2.5202521,2.5202521 0 0 1 -0.84375,0.5625 2.5202521,2.5202521 0 0 1 -0.70313,0.28125 2.5202521,2.5202521 0 0 1 -0.42187,0.14063 h -83.67188 l -2.8125,2.8125 a 2.5202521,2.5202521 0 0 1 -0.14063,0.14062 2.5202521,2.5202521 0 0 1 -0.42187,0.28125 2.5202521,2.5202521 0 0 1 -0.42188,0.14063 2.5202521,2.5202521 0 0 1 -0.14062,0.14062 2.5202521,2.5202521 0 0 1 -1.125,0 2.5202521,2.5202521 0 0 1 -0.70313,-0.28125 2.5202521,2.5202521 0 0 1 -0.42187,-0.28125 2.5202521,2.5202521 0 0 1 -0.14063,-0.14062 2.5202521,2.5202521 0 0 1 -0.14062,-0.14063 2.5202521,2.5202521 0 0 1 -0.42188,-0.70312 2.5202521,2.5202521 0 0 1 -0.14062,-0.98438 2.5202521,2.5202521 0 0 1 0.14062,-0.98437 2.5202521,2.5202521 0 0 1 0.28125,-0.42188 2.5202521,2.5202521 0 0 1 0.14063,-0.14062 2.5202521,2.5202521 0 0 1 0.14062,-0.14063 l 3.09668,-3.09814 a 2.5202521,2.5202521 0 0 1 0.27832,-0.41748 2.5202521,2.5202521 0 0 1 0.39845,-0.268069 2.5202521,2.5202521 0 0 1 0.16405,-0.15381 2.5202521,2.5202521 0 0 1 0.70313,-0.421871 2.5202521,2.5202521 0 0 1 0.4834,-0.0483 z m 18.24902,21.562502 a 2.5202521,2.5202521 0 0 1 0.25195,0.0015 h 39.37501 a 2.5202521,2.5202521 0 0 1 0.70312,0.140625 2.5202521,2.5202521 0 0 1 0.70313,0.28125 2.5202521,2.5202521 0 0 1 0.14062,0.140625 2.5202521,2.5202521 0 0 1 0.5625,0.5625 2.5202521,2.5202521 0 0 1 0.28125,0.703125 2.5202521,2.5202521 0 0 1 0.14063,0.984376 2.5202521,2.5202521 0 0 1 -0.28125,0.984375 2.5202521,2.5202521 0 0 1 -0.28125,0.421875 2.5202521,2.5202521 0 0 1 -0.42188,0.28125 2.5202521,2.5202521 0 0 1 -0.42187,0.28125 2.5202521,2.5202521 0 0 1 -0.70313,0.28125 2.5202521,2.5202521 0 0 1 -0.42187,0 h -38.53858 l -13.21875,13.091308 a 2.5202521,2.5202521 0 0 1 -0.27393,0.408693 2.5202521,2.5202521 0 0 1 -0.57276,0.430664 2.5202521,2.5202521 0 0 1 -0.69286,0.413086 2.5202521,2.5202521 0 0 1 -0.42188,0.140625 2.5202521,2.5202521 0 0 1 -0.5625,0 h -16.875 l -16.59375,16.593751 a 2.5202521,2.5202521 0 0 1 -0.28125,0.421875 2.5202521,2.5202521 0 0 1 -0.57276,0.430663 2.5202521,2.5202521 0 0 1 -0.69288,0.413087 2.5202521,2.5202521 0 0 1 -0.42186,0.140625 2.5202521,2.5202521 0 0 1 -0.5625,0 h -14.20314 -35.71874 a 2.5202521,2.5202521 0 0 1 -0.26075,0 h -0.0205 a 2.5202521,2.5202521 0 0 1 -0.009,-0.0029 2.5202521,2.5202521 0 0 1 -0.69434,-0.137695 2.5202521,2.5202521 0 0 1 -0.12158,-0.05713 2.5202521,2.5202521 0 0 1 -0.3003,-0.0835 2.5202521,2.5202521 0 0 1 -0.42187,-0.28125 2.5202521,2.5202521 0 0 1 -0.28125,-0.421875 2.5202521,2.5202521 0 0 1 -0.002,-0.0029 l -6.32667,-6.325195 h -18 v 36.140627 c 0.0515,0.21924 0.0864,0.45131 0.0864,0.70752 0,0.25622 -0.0349,0.48828 -0.0864,0.70752 v 54.41308 h 69.18751 a 2.5202521,2.5202521 0 0 1 0.98436,0 2.5202521,2.5202521 0 0 1 0.84375,0.5625 2.5202521,2.5202521 0 0 1 0.14064,0.14063 2.5202521,2.5202521 0 0 1 0.0249,0.0249 2.5202521,2.5202521 0 0 1 0.11571,0.11572 2.5202521,2.5202521 0 0 1 0.16699,0.22998 2.5202521,2.5202521 0 0 1 0.13916,0.22853 2.5202521,2.5202521 0 0 1 0.39697,0.94774 2.5202521,2.5202521 0 0 1 0,0.27833 2.5202521,2.5202521 0 0 1 0,0.003 v 25.45312 27.00001 a 2.5202521,2.5202521 0 0 1 0,0.008 2.5202521,2.5202521 0 0 1 0,0.27393 2.5202521,2.5202521 0 0 1 -0.28125,0.70312 2.5202521,2.5202521 0 0 1 -0.14062,0.42188 2.5202521,2.5202521 0 0 1 -0.5625,0.5625 2.5202521,2.5202521 0 0 1 -0.42188,0.28125 2.5202521,2.5202521 0 0 1 -0.70312,0.28125 2.5202521,2.5202521 0 0 1 -0.98438,0 h -99.84374 a 2.5202521,2.5202521 0 0 1 -0.84375,0 2.5202521,2.5202521 0 0 1 -0.70314,-0.14063 2.5202521,2.5202521 0 0 1 -0.42186,-0.28125 2.5202521,2.5202521 0 0 1 -0.003,-7.5e-4 2.5202521,2.5202521 0 0 1 -0.41895,-0.2798 2.5202521,2.5202521 0 0 1 -7.5e-4,-0.003 2.5202521,2.5202521 0 0 1 -0.27979,-0.41893 2.5202521,2.5202521 0 0 1 -7.5e-4,-0.003 2.5202521,2.5202521 0 0 0 0,-7.5e-4 2.5202521,2.5202521 0 0 1 -0.2798,-0.41748 2.5202521,2.5202521 0 0 1 -0.14061,-0.98437 2.5202521,2.5202521 0 0 1 0,-0.26075 v -4.26269 h -0.1333 v -5.32917 h 5.32909 v 5.32763 h -0.13329 v 1.99219 h 95.90603 v -24.04689 a 2.5202521,2.5202521 0 0 1 0,-0.42187 2.5202521,2.5202521 0 0 1 0,-0.26075 v -22.66113 h -69.1875 a 2.5202521,2.5202521 0 0 1 -0.84375,0 2.5202521,2.5202521 0 0 1 -0.70314,-0.28125 2.5202521,2.5202521 0 0 1 -0.42186,-0.28125 2.5202521,2.5202521 0 0 1 -0.28125,-0.42188 2.5202521,2.5202521 0 0 1 -7.5e-4,-0.003 2.5202521,2.5202521 0 0 1 -0.2798,-0.41894 2.5202521,2.5202521 0 0 1 -0.0103,-0.0205 2.5202521,2.5202521 0 0 1 -0.003,-0.006 2.5202521,2.5202521 0 0 1 -0.26808,-0.67676 2.5202521,2.5202521 0 0 1 0,-0.98437 v -56.08288 c -0.10839,-0.29803 -0.18018,-0.62747 -0.18018,-1.00635 0,-0.37889 0.0718,-0.70832 0.18018,-1.00635 V 80.165002 a 2.5202521,2.5202521 0 0 1 0,-0.984375 2.5202521,2.5202521 0 0 1 0.5625,-0.84375 2.5202521,2.5202521 0 0 1 0.14063,-0.140625 2.5202521,2.5202521 0 0 1 0.42187,-0.421875 2.5202521,2.5202521 0 0 1 0.31347,-0.109864 2.5202521,2.5202521 0 0 1 0.81153,-0.312011 2.5202521,2.5202521 0 0 1 0.28125,0 h 21.51563 a 2.5202521,2.5202521 0 0 1 0.68995,0.152343 2.5202521,2.5202521 0 0 1 0.57567,0.128907 2.5202521,2.5202521 0 0 1 0.35595,0.316406 2.5202521,2.5202521 0 0 1 0.34718,0.386719 2.5202521,2.5202521 0 0 1 0.003,0.0029 l 6.32518,6.325195 h 34.87501 a 2.5202521,2.5202521 0 0 1 0.28125,0 2.5202521,2.5202521 0 0 1 0.2754,0 h 12.80204 l 17.15625,-17.1562 a 2.5202521,2.5202521 0 0 1 0.14062,-0.140625 2.5202521,2.5202521 0 0 1 0.14063,-0.140625 2.5202521,2.5202521 0 0 1 0.70312,-0.421875 2.5202521,2.5202521 0 0 1 0.21827,-0.06592 2.5202521,2.5202521 0 0 1 0.1333,-0.02783 2.5202521,2.5202521 0 0 1 0.11571,-0.02198 2.5202521,2.5202521 0 0 1 0.12744,-0.01319 2.5202521,2.5202521 0 0 1 0.10841,-0.01172 2.5202521,2.5202521 0 0 1 0.98437,0 h 16.17888 l 13.08107,-12.955085 a 2.5202521,2.5202521 0 0 1 0.27099,-0.404297 2.5202521,2.5202521 0 0 1 0.14062,-0.140625 2.5202521,2.5202521 0 0 1 0.42188,-0.421875 2.5202521,2.5202521 0 0 1 0.42187,-0.28125 2.5202521,2.5202521 0 0 1 0.28858,-0.08057 2.5202521,2.5202521 0 0 1 0.1333,-0.06006 2.5202521,2.5202521 0 0 1 0.69726,-0.139161 2.5202521,2.5202521 0 0 1 0.006,-0.0015 h 0.0132 a 2.5202521,2.5202521 0 0 1 0.0161,-0.0015 z"
       style="fill:#000000;fill-opacity:1;fill-rule:evenodd;stroke:#0b2700;stroke-width:0.075;stroke-miterlimit:4;stroke-dasharray:none;stroke-opacity:1"
       inkscape:connector-curvature="0" />
  </g>
</svg>
