G04 EAGLE Gerber RS-274X export*
G75*
%MOMM*%
%FSLAX34Y34*%
%LPD*%
%INTop Copper*%
%IPPOS*%
%AMOC8*
5,1,8,0,0,1.08239X$1,22.5*%
G01*
%ADD10R,1.750000X1.750000*%
%ADD11C,1.750000*%
%ADD12C,1.879600*%
%ADD13R,1.879600X1.879600*%
%ADD14P,3.247170X8X202.500000*%
%ADD15C,1.320800*%
%ADD16C,1.778000*%


D10*
X215900Y469900D03*
D11*
X215900Y444500D03*
X215900Y419100D03*
X215900Y393700D03*
X215900Y368300D03*
X215900Y342900D03*
X215900Y317500D03*
X215900Y292100D03*
X215900Y266700D03*
X215900Y241300D03*
X215900Y215900D03*
X215900Y190500D03*
X215900Y165100D03*
X215900Y139700D03*
X215900Y114300D03*
X444500Y114300D03*
X444500Y139700D03*
X444500Y165100D03*
X444500Y190500D03*
X444500Y215900D03*
X444500Y241300D03*
X444500Y266700D03*
X444500Y292100D03*
X444500Y317500D03*
X444500Y342900D03*
X444500Y368300D03*
X444500Y393700D03*
X444500Y419100D03*
X444500Y444500D03*
X444500Y469900D03*
D12*
X254000Y749300D03*
X279400Y749300D03*
X482600Y749300D03*
X457200Y749300D03*
X431800Y749300D03*
X558800Y190500D03*
X558800Y165100D03*
X558800Y139700D03*
X558800Y114300D03*
X558800Y88900D03*
X642112Y421894D03*
X577088Y421894D03*
X642112Y467106D03*
X577088Y467106D03*
D13*
X526900Y698100D03*
X526900Y673100D03*
X526900Y648100D03*
D14*
X596900Y717100D03*
X596900Y629100D03*
D12*
X254000Y596900D03*
X177800Y596900D03*
X546100Y520700D03*
X546100Y596900D03*
D15*
X362204Y660400D02*
X348996Y660400D01*
X260604Y660400D02*
X247396Y660400D01*
X431800Y578104D02*
X431800Y564896D01*
X431800Y666496D02*
X431800Y679704D01*
D16*
X355600Y660400D02*
X355600Y571500D01*
X431800Y571500D01*
X355600Y571500D02*
X355600Y469900D01*
X215900Y469900D01*
X526900Y698100D02*
X565150Y698100D01*
X565150Y596900D01*
X546100Y596900D01*
X215900Y241300D02*
X177800Y241300D01*
X177800Y596900D01*
X431800Y749300D02*
X431800Y787400D01*
X177800Y787400D01*
X177800Y596900D02*
X177800Y558800D01*
X177800Y596900D02*
X177800Y787400D01*
X526900Y711200D02*
X526900Y698100D01*
X526900Y711200D02*
X431800Y711200D01*
X431800Y749300D01*
X642112Y421894D02*
X642112Y342900D01*
X444500Y342900D01*
X482600Y469900D02*
X482600Y619125D01*
X482600Y469900D02*
X444500Y469900D01*
X482600Y619125D02*
X393700Y619125D01*
X393700Y749300D02*
X279400Y749300D01*
X393700Y749300D02*
X393700Y619125D01*
X444500Y444500D02*
X514200Y444500D01*
X514200Y648100D02*
X526900Y648100D01*
X514200Y648100D02*
X514200Y444500D01*
X546100Y419100D02*
X546100Y520700D01*
X546100Y419100D02*
X444500Y419100D01*
X642112Y467106D02*
X642112Y520700D01*
X546100Y520700D01*
X526900Y673100D02*
X431800Y673100D01*
X254000Y660400D02*
X254000Y596900D01*
X254000Y660400D02*
X254000Y749300D01*
X482600Y749300D02*
X673100Y749300D01*
X673100Y63500D02*
X342900Y63500D01*
X342900Y292100D02*
X444500Y292100D01*
X342900Y292100D02*
X342900Y63500D01*
X673100Y63500D02*
X673100Y749300D01*
X647700Y266700D02*
X444500Y266700D01*
X647700Y266700D02*
X647700Y114300D01*
X558800Y114300D01*
X622300Y241300D02*
X444500Y241300D01*
X622300Y241300D02*
X622300Y139700D01*
X558800Y139700D01*
X444500Y215900D02*
X393700Y215900D01*
X393700Y88900D01*
X558800Y88900D01*
X558800Y165100D02*
X596900Y165100D01*
X596900Y215900D01*
X495300Y215900D01*
X495300Y139700D02*
X444500Y139700D01*
X495300Y139700D02*
X495300Y215900D01*
X304800Y38100D02*
X698500Y38100D01*
X304800Y215900D02*
X215900Y215900D01*
X304800Y215900D02*
X304800Y38100D01*
X457200Y787400D02*
X698500Y787400D01*
X457200Y787400D02*
X457200Y749300D01*
X698500Y787400D02*
X698500Y38100D01*
X520700Y114300D02*
X444500Y114300D01*
X520700Y114300D02*
X520700Y190500D01*
X558800Y190500D01*
M02*
