<?xml version="1.0" encoding="UTF-8" standalone="no"?>
<svg
   width="150pt"
   height="211pt"
   viewBox="0 0 150 211"
   version="1.1"
   id="svg117"
   sodipodi:docname="furacao.svg"
   inkscape:version="1.1.2 (0a00cf5339, 2022-02-04)"
   xmlns:inkscape="http://www.inkscape.org/namespaces/inkscape"
   xmlns:sodipodi="http://sodipodi.sourceforge.net/DTD/sodipodi-0.dtd"
   xmlns="http://www.w3.org/2000/svg"
   xmlns:svg="http://www.w3.org/2000/svg">
  <defs
     id="defs121" />
  <sodipodi:namedview
     id="namedview119"
     pagecolor="#ffffff"
     bordercolor="#666666"
     borderopacity="1.0"
     inkscape:pageshadow="2"
     inkscape:pageopacity="0.0"
     inkscape:pagecheckerboard="0"
     inkscape:document-units="pt"
     showgrid="false"
     inkscape:zoom="2.5556872"
     inkscape:cx="100.16875"
     inkscape:cy="140.66667"
     inkscape:window-width="1848"
     inkscape:window-height="1016"
     inkscape:window-x="72"
     inkscape:window-y="27"
     inkscape:window-maximized="1"
     inkscape:current-layer="surface4861" />
  <g
     id="surface4861"
     style="fill:#000000;fill-opacity:1;stroke:none">
    <path
       id="path2"
       style="fill:#000000;fill-opacity:1;fill-rule:evenodd;stroke:none"
       d="m 19.332031,91.691406 c 0.653646,0 1.307292,0 1.960938,0 0,-0.653646 0,-1.307291 0,-1.960937 -0.653646,0 -1.307292,0 -1.960938,0 0,0.653646 0,1.307291 0,1.960937 z" />
    <path
       id="path4"
       style="fill:#000000;fill-opacity:1;fill-rule:evenodd;stroke:none"
       d="m 20.216797,96.931641 c -1.103284,-0.03301 -1.211499,1.847906 -0.111328,1.9375 0.788755,0.211765 1.428059,-0.622619 1.132812,-1.351563 C 21.11734,97.08297 20.62887,96.900162 20.216797,96.931641 Z" />
    <path
       id="path6"
       style="fill:#000000;fill-opacity:1;fill-rule:evenodd;stroke:none"
       d="m 20.193359,104.13477 c -1.091146,-0.0119 -1.172999,1.8492 -0.08789,1.9375 0.788106,0.21022 1.428994,-0.62605 1.132812,-1.35547 -0.12381,-0.44381 -0.625937,-0.62322 -1.044922,-0.58203 z" />
    <path
       id="path8"
       style="fill:#000000;fill-opacity:1;fill-rule:evenodd;stroke:none"
       d="m 20.216797,111.33398 c -1.108287,-0.0365 -1.207417,1.84637 -0.111328,1.9375 0.786997,0.21003 1.428743,-0.62455 1.132812,-1.35351 -0.120736,-0.4348 -0.609441,-0.61608 -1.021484,-0.58399 z" />
    <path
       id="path10"
       style="fill:#000000;fill-opacity:1;fill-rule:evenodd;stroke:none"
       d="m 20.216797,118.5332 c -1.108287,-0.0365 -1.207417,1.84637 -0.111328,1.9375 0.786997,0.21003 1.428743,-0.62456 1.132812,-1.35351 -0.120736,-0.4348 -0.609441,-0.61609 -1.021484,-0.58399 z" />
    <path
       id="path12"
       style="fill:#000000;fill-opacity:1;fill-rule:evenodd;stroke:none"
       d="m 20.216797,125.73242 c -1.103284,-0.033 -1.211499,1.84791 -0.111328,1.9375 0.788755,0.21177 1.428059,-0.62262 1.132812,-1.35156 -0.120941,-0.43461 -0.609411,-0.61742 -1.021484,-0.58594 z" />
    <path
       id="path14"
       style="fill:#000000;fill-opacity:1;fill-rule:evenodd;stroke:none"
       d="m 20.216797,132.93164 c -1.103284,-0.033 -1.211499,1.84791 -0.111328,1.9375 0.788755,0.21177 1.428059,-0.62262 1.132812,-1.35156 -0.120941,-0.43461 -0.609411,-0.61742 -1.021484,-0.58594 z" />
    <path
       id="path16"
       style="fill:#000000;fill-opacity:1;fill-rule:evenodd;stroke:none"
       d="m 20.216797,140.13086 c -1.104733,-0.0317 -1.210403,1.8481 -0.111328,1.94141 0.788444,0.207 1.429265,-0.62419 1.132812,-1.35547 -0.120941,-0.43461 -0.609411,-0.61742 -1.021484,-0.58594 z" />
    <path
       id="path18"
       style="fill:#000000;fill-opacity:1;fill-rule:evenodd;stroke:none"
       d="m 20.216797,147.33398 c -1.108287,-0.0365 -1.207417,1.84637 -0.111328,1.9375 0.786997,0.21003 1.428743,-0.62455 1.132812,-1.35351 -0.120736,-0.4348 -0.609441,-0.61608 -1.021484,-0.58399 z" />
    <path
       id="path20"
       style="fill:#000000;fill-opacity:1;fill-rule:evenodd;stroke:none"
       d="m 20.216797,154.5332 c -1.108287,-0.0365 -1.207417,1.84637 -0.111328,1.9375 0.786997,0.21003 1.428743,-0.62456 1.132812,-1.35351 -0.120736,-0.4348 -0.609441,-0.61609 -1.021484,-0.58399 z" />
    <path
       id="path22"
       style="fill:#000000;fill-opacity:1;fill-rule:evenodd;stroke:none"
       d="m 20.216797,161.73242 c -1.103284,-0.033 -1.211499,1.84791 -0.111328,1.9375 0.788755,0.21177 1.428059,-0.62262 1.132812,-1.35156 -0.120941,-0.43461 -0.609411,-0.61742 -1.021484,-0.58594 z" />
    <path
       id="path24"
       style="fill:#000000;fill-opacity:1;fill-rule:evenodd;stroke:none"
       d="m 20.216797,168.93164 c -1.103284,-0.033 -1.211499,1.84791 -0.111328,1.9375 0.788755,0.21177 1.428059,-0.62262 1.132812,-1.35156 -0.120941,-0.43461 -0.609411,-0.61742 -1.021484,-0.58594 z" />
    <path
       id="path26"
       style="fill:#000000;fill-opacity:1;fill-rule:evenodd;stroke:none"
       d="m 20.216797,176.13086 c -1.104733,-0.0317 -1.210403,1.8481 -0.111328,1.94141 0.788444,0.207 1.429265,-0.62419 1.132812,-1.35547 -0.120941,-0.43461 -0.609411,-0.61742 -1.021484,-0.58594 z" />
    <path
       id="path28"
       style="fill:#000000;fill-opacity:1;fill-rule:evenodd;stroke:none"
       d="m 20.216797,183.33398 c -1.108287,-0.0365 -1.207417,1.84637 -0.111328,1.9375 0.786997,0.21003 1.428743,-0.62455 1.132812,-1.35351 -0.120736,-0.4348 -0.609441,-0.61608 -1.021484,-0.58399 z" />
    <path
       id="path30"
       style="fill:#000000;fill-opacity:1;fill-rule:evenodd;stroke:none"
       d="m 20.216797,190.5332 c -1.108287,-0.0365 -1.207417,1.84637 -0.111328,1.9375 0.786997,0.21003 1.428743,-0.62456 1.132812,-1.35351 -0.120736,-0.4348 -0.609441,-0.61609 -1.021484,-0.58399 z" />
    <path
       id="path32"
       style="fill:#000000;fill-opacity:1;fill-rule:evenodd;stroke:none"
       d="m 85.015625,190.5332 c -1.105535,-0.0376 -1.204553,1.84709 -0.111328,1.9375 0.789462,0.21228 1.425772,-0.6256 1.130859,-1.35351 -0.121246,-0.4372 -0.606305,-0.61585 -1.019531,-0.58399 z" />
    <path
       id="path34"
       style="fill:#000000;fill-opacity:1;fill-rule:evenodd;stroke:none"
       d="m 85.015625,183.33398 c -1.105535,-0.0376 -1.204553,1.84709 -0.111328,1.9375 0.789462,0.21228 1.425772,-0.6256 1.130859,-1.35351 -0.121246,-0.4372 -0.606305,-0.61585 -1.019531,-0.58399 z" />
    <path
       id="path36"
       style="fill:#000000;fill-opacity:1;fill-rule:evenodd;stroke:none"
       d="m 85.015625,176.13086 c -1.105501,-0.0338 -1.205168,1.84968 -0.111328,1.94141 0.786437,0.20791 1.423889,-0.61797 1.132844,-1.34723 -0.116049,-0.44077 -0.606081,-0.62635 -1.021516,-0.59418 z" />
    <path
       id="path38"
       style="fill:#000000;fill-opacity:1;fill-rule:evenodd;stroke:none"
       d="m 85.015625,168.93164 c -1.105601,-0.035 -1.204132,1.84953 -0.111328,1.9375 0.791308,0.21502 1.425053,-0.62385 1.130859,-1.35156 -0.121196,-0.43575 -0.606503,-0.61754 -1.019531,-0.58594 z" />
    <path
       id="path40"
       style="fill:#000000;fill-opacity:1;fill-rule:evenodd;stroke:none"
       d="m 85.015625,161.73242 c -1.105601,-0.035 -1.204132,1.84953 -0.111328,1.9375 0.791308,0.21502 1.425053,-0.62385 1.130859,-1.35156 -0.121196,-0.43574 -0.606503,-0.61754 -1.019531,-0.58594 z" />
    <path
       id="path42"
       style="fill:#000000;fill-opacity:1;fill-rule:evenodd;stroke:none"
       d="m 85.015625,154.5332 c -1.105535,-0.0376 -1.204553,1.84709 -0.111328,1.9375 0.789462,0.21228 1.425772,-0.6256 1.130859,-1.35351 -0.121246,-0.4372 -0.606305,-0.61585 -1.019531,-0.58399 z" />
    <path
       id="path44"
       style="fill:#000000;fill-opacity:1;fill-rule:evenodd;stroke:none"
       d="m 85.015625,147.33398 c -1.105535,-0.0376 -1.204553,1.84709 -0.111328,1.9375 0.789462,0.21228 1.425772,-0.6256 1.130859,-1.35351 -0.121246,-0.4372 -0.606305,-0.61585 -1.019531,-0.58399 z" />
    <path
       id="path46"
       style="fill:#000000;fill-opacity:1;fill-rule:evenodd;stroke:none"
       d="m 85.015625,140.13086 c -1.105501,-0.0338 -1.205168,1.84968 -0.111328,1.94141 0.786437,0.20791 1.423889,-0.61797 1.132844,-1.34723 -0.116049,-0.44077 -0.606081,-0.62635 -1.021516,-0.59418 z" />
    <path
       id="path48"
       style="fill:#000000;fill-opacity:1;fill-rule:evenodd;stroke:none"
       d="m 85.015625,132.93164 c -1.105601,-0.035 -1.204132,1.84953 -0.111328,1.9375 0.791308,0.21502 1.425053,-0.62385 1.130859,-1.35156 -0.121196,-0.43575 -0.606503,-0.61754 -1.019531,-0.58594 z" />
    <path
       id="path50"
       style="fill:#000000;fill-opacity:1;fill-rule:evenodd;stroke:none"
       d="m 85.015625,125.73242 c -1.105601,-0.035 -1.204132,1.84953 -0.111328,1.9375 0.791308,0.21502 1.425053,-0.62385 1.130859,-1.35156 -0.121196,-0.43574 -0.606503,-0.61754 -1.019531,-0.58594 z" />
    <path
       id="path52"
       style="fill:#000000;fill-opacity:1;fill-rule:evenodd;stroke:none"
       d="m 85.015625,118.5332 c -1.105535,-0.0376 -1.204553,1.84709 -0.111328,1.9375 0.789462,0.21228 1.425772,-0.6256 1.130859,-1.35351 -0.121246,-0.4372 -0.606305,-0.61585 -1.019531,-0.58399 z" />
    <path
       id="path54"
       style="fill:#000000;fill-opacity:1;fill-rule:evenodd;stroke:none"
       d="m 85.015625,111.33398 c -1.105535,-0.0376 -1.204553,1.84709 -0.111328,1.9375 0.789462,0.21228 1.425772,-0.6256 1.130859,-1.35351 -0.121246,-0.4372 -0.606305,-0.61585 -1.019531,-0.58399 z" />
    <path
       id="path56"
       style="fill:#000000;fill-opacity:1;fill-rule:evenodd;stroke:none"
       d="m 84.992188,104.13477 c -1.154233,-0.005 -1.136214,1.98295 0.02344,1.95312 0.94737,0.17703 1.432254,-1.11447 0.794922,-1.72461 -0.224816,-0.18999 -0.530911,-0.25152 -0.818359,-0.22851 z" />
    <path
       id="path58"
       style="fill:#000000;fill-opacity:1;fill-rule:evenodd;stroke:none"
       d="m 85.015625,96.931641 c -1.105601,-0.035 -1.204132,1.84953 -0.111328,1.9375 0.791308,0.215022 1.425053,-0.623851 1.130859,-1.351563 -0.121196,-0.435743 -0.606503,-0.617535 -1.019531,-0.585937 z" />
    <path
       id="path60"
       style="fill:#000000;fill-opacity:1;fill-rule:evenodd;stroke:none"
       d="m 84.992188,89.736328 c -1.154532,-0.0055 -1.134878,1.982399 0.02344,1.949219 0.970045,0.188997 1.450448,-1.177605 0.751953,-1.753906 -0.219874,-0.16558 -0.505985,-0.216083 -0.77539,-0.195313 z" />
    <path
       id="path62"
       style="fill:#000000;fill-opacity:1;fill-rule:evenodd;stroke:none"
       d="m 30.996094,10.349609 c -1.250254,-0.04248 -1.450416,2.037001 -0.253906,2.275391 0.800494,0.275486 1.721346,-0.410766 1.521484,-1.283203 -0.007,-0.662008 -0.655216,-1.060099 -1.267578,-0.992188 z" />
    <path
       id="path64"
       style="fill:#000000;fill-opacity:1;fill-rule:evenodd;stroke:none"
       d="m 38.199219,10.349609 c -1.250254,-0.04248 -1.450416,2.037001 -0.253907,2.275391 0.800495,0.275486 1.721347,-0.410766 1.521485,-1.283203 -0.007,-0.662008 -0.655216,-1.060099 -1.267578,-0.992188 z" />
    <path
       id="path66"
       style="fill:#000000;fill-opacity:1;fill-rule:evenodd;stroke:none"
       d="m 95.796875,10.349609 c -1.250254,-0.04248 -1.450416,2.037001 -0.253906,2.275391 0.800494,0.275486 1.721346,-0.410766 1.521484,-1.283203 -0.0071,-0.662008 -0.655216,-1.060099 -1.267578,-0.992188 z" />
    <path
       id="path68"
       style="fill:#000000;fill-opacity:1;fill-rule:evenodd;stroke:none"
       d="m 88.597656,10.349609 c -1.250254,-0.04248 -1.450415,2.037001 -0.253906,2.275391 0.800494,0.275486 1.721346,-0.410766 1.521484,-1.283203 -0.0071,-0.662008 -0.655216,-1.060099 -1.267578,-0.992188 z" />
    <path
       id="path70"
       style="fill:#000000;fill-opacity:1;fill-rule:evenodd;stroke:none"
       d="m 81.398438,10.349609 c -1.250254,-0.04248 -1.450416,2.037001 -0.253907,2.275391 0.800495,0.275486 1.721346,-0.410766 1.521485,-1.283203 -0.0071,-0.662008 -0.655216,-1.060099 -1.267578,-0.992188 z" />
    <path
       id="path72"
       style="fill:#000000;fill-opacity:1;fill-rule:evenodd;stroke:none"
       d="m 117.39844,168.75195 c -1.24841,-0.0417 -1.44937,2.02806 -0.25782,2.27344 0.80145,0.27466 1.72405,-0.40667 1.5254,-1.28125 -0.007,-0.66201 -0.65522,-1.0601 -1.26758,-0.99219 z" />
    <path
       id="path74"
       style="fill:#000000;fill-opacity:1;fill-rule:evenodd;stroke:none"
       d="m 117.39844,175.95117 c -1.24841,-0.0417 -1.44937,2.02806 -0.25782,2.27344 0.80145,0.27466 1.72405,-0.40667 1.5254,-1.28125 -0.007,-0.66201 -0.65522,-1.0601 -1.26758,-0.99219 z" />
    <path
       id="path76"
       style="fill:#000000;fill-opacity:1;fill-rule:evenodd;stroke:none"
       d="m 117.39844,183.15039 c -1.25026,-0.0425 -1.45042,2.037 -0.25391,2.27539 0.8005,0.27549 1.72135,-0.41077 1.52149,-1.2832 -0.007,-0.66201 -0.65522,-1.0601 -1.26758,-0.99219 z" />
    <path
       id="path78"
       style="fill:#000000;fill-opacity:1;fill-rule:evenodd;stroke:none"
       d="m 117.39844,190.34961 c -1.25026,-0.0425 -1.45042,2.037 -0.25391,2.27539 0.8005,0.27549 1.72135,-0.41077 1.52149,-1.2832 -0.007,-0.66201 -0.65522,-1.0601 -1.26758,-0.99219 z" />
    <path
       id="path80"
       style="fill:#000000;fill-opacity:1;fill-rule:evenodd;stroke:none"
       d="m 117.39844,197.54883 c -1.25228,-0.0397 -1.44755,2.03157 -0.25782,2.27734 0.80145,0.27466 1.72405,-0.40666 1.5254,-1.28125 -0.011,-0.66969 -0.64705,-1.05724 -1.26758,-0.99609 z" />
    <path
       id="path82"
       style="fill:#000000;fill-opacity:1;fill-rule:evenodd;stroke:none"
       d="m 141.01562,103.1582 c -1.25025,-0.0425 -1.45041,2.037 -0.2539,2.27539 0.80049,0.27549 1.72134,-0.41076 1.52148,-1.2832 -0.007,-0.66201 -0.65521,-1.0601 -1.26758,-0.99219 z" />
    <path
       id="path84"
       style="fill:#000000;fill-opacity:1;fill-rule:evenodd;stroke:none"
       d="m 122.58203,103.1582 c -1.25025,-0.0425 -1.45041,2.037 -0.25391,2.27539 0.8005,0.27549 1.72135,-0.41076 1.52149,-1.2832 -0.007,-0.66201 -0.65522,-1.0601 -1.26758,-0.99219 z" />
    <path
       id="path86"
       style="fill:#000000;fill-opacity:1;fill-rule:evenodd;stroke:none"
       d="m 141.01562,90.341797 c -1.25025,-0.04248 -1.45041,2.037 -0.2539,2.275391 0.80049,0.275486 1.72134,-0.410767 1.52148,-1.283204 -0.007,-0.662007 -0.65521,-1.060099 -1.26758,-0.992187 z" />
    <path
       id="path88"
       style="fill:#000000;fill-opacity:1;fill-rule:evenodd;stroke:none"
       d="m 122.58203,90.341797 c -1.25025,-0.04248 -1.45041,2.037 -0.25391,2.275391 0.8005,0.275486 1.72135,-0.410767 1.52149,-1.283204 -0.007,-0.662007 -0.65522,-1.060099 -1.26758,-0.992187 z" />
    <path
       id="path90"
       style="fill:#000000;fill-opacity:1;fill-rule:evenodd;stroke:none"
       d="m 107.30469,23.585938 c 0.77604,0 1.55208,0 2.32812,0 0,-0.776042 0,-1.552084 0,-2.328126 -0.77604,0 -1.55208,10e-7 -2.32812,0 0,0.776042 0,1.552084 0,2.328126 z" />
    <path
       id="path92"
       style="fill:#000000;fill-opacity:1;fill-rule:evenodd;stroke:none"
       d="m 107.30469,30.671875 c 0.77604,0 1.55208,0 2.32812,0 0,-0.776042 0,-1.552083 0,-2.328125 -0.77604,0 -1.55208,0 -2.32812,0 0,0.776042 0,1.552083 0,2.328125 z" />
    <path
       id="path94"
       style="fill:#000000;fill-opacity:1;fill-rule:evenodd;stroke:none"
       d="m 107.30469,37.761719 c 0.77604,0 1.55208,0 2.32812,0 0,-0.776042 0,-1.552084 0,-2.328125 -0.77604,0 -1.55208,0 -2.32812,0 0,0.776041 0,1.552083 0,2.328125 z" />
    <path
       style="fill-rule:evenodd;fill:#000000;fill-opacity:1;stroke:none"
       d="M 124.058594 18.796875 L 126.550781 21.289062 L 130.074219 21.289062 L 132.5625 18.796875 L 132.5625 15.277344 L 130.074219 12.785156 L 126.550781 12.785156 L 124.058594 15.277344 L 124.058594 18.796875 "
       id="path96" />
    <path
       style="fill-rule:evenodd;fill:#000000;fill-opacity:1;stroke:none"
       d="M 124.058594 43.742188 L 126.550781 46.234375 L 130.074219 46.234375 L 132.5625 43.742188 L 132.5625 40.222656 L 130.074219 37.730469 L 126.550781 37.730469 L 124.058594 40.222656 L 124.058594 43.742188 "
       id="path98" />
    <path
       id="path100"
       style="fill:#000000;fill-opacity:1;fill-rule:evenodd;stroke:none"
       d="m 30.996094,53.548828 c -1.252282,-0.03966 -1.447545,2.031569 -0.257813,2.277344 0.801445,0.274657 1.724046,-0.406667 1.525391,-1.28125 -0.011,-0.669696 -0.647045,-1.057244 -1.267578,-0.996094 z" />
    <path
       id="path102"
       style="fill:#000000;fill-opacity:1;fill-rule:evenodd;stroke:none"
       d="m 9.3984375,53.548828 c -1.2522816,-0.03966 -1.4475443,2.031569 -0.2578125,2.277344 0.8014447,0.274657 1.724045,-0.406667 1.525391,-1.28125 -0.011,-0.669696 -0.647045,-1.057244 -1.2675785,-0.996094 z" />
    <path
       id="path100-9"
       style="fill:#000000;fill-opacity:1;fill-rule:evenodd;stroke:none"
       d="m 55.807348,36.416032 c -1.252282,-0.03966 -1.447545,2.031569 -0.257813,2.277344 0.801445,0.274657 1.724046,-0.406667 1.525391,-1.28125 -0.011,-0.669696 -0.647045,-1.057244 -1.267578,-0.996094 z" />
    <path
       id="path102-3"
       style="fill:#000000;fill-opacity:1;fill-rule:evenodd;stroke:none"
       d="m 34.209691,36.416032 c -1.252281,-0.03966 -1.447544,2.031569 -0.257812,2.277344 0.801445,0.274657 1.724045,-0.406667 1.525391,-1.28125 -0.011,-0.669696 -0.647045,-1.057244 -1.267579,-0.996094 z" />
    <path
       id="path104"
       style="fill:#000000;fill-opacity:1;fill-rule:evenodd;stroke:none"
       d="m 113.79688,75.150391 c -1.25026,-0.04248 -1.45042,2.037 -0.25391,2.27539 0.80049,0.275487 1.72134,-0.410766 1.52148,-1.283203 -0.007,-0.662008 -0.65521,-1.060099 -1.26757,-0.992187 z" />
    <path
       id="path106"
       style="fill:#000000;fill-opacity:1;fill-rule:evenodd;stroke:none"
       d="m 113.79688,53.548828 c -1.25229,-0.03966 -1.44755,2.031569 -0.25782,2.277344 0.80145,0.274657 1.72405,-0.406667 1.52539,-1.28125 -0.011,-0.669696 -0.64704,-1.057244 -1.26757,-0.996094 z" />
    <g
       id="g1516"
       transform="rotate(90,53.17945,67.4293)">
      <path
         id="path100-0"
         style="fill:#000000;fill-opacity:1;fill-rule:evenodd;stroke:none"
         d="m 42.958574,38.157709 c -1.252282,-0.03966 -1.447545,2.031569 -0.257813,2.277344 0.801445,0.274657 1.724046,-0.406667 1.525391,-1.28125 -0.011,-0.669696 -0.647045,-1.057244 -1.267578,-0.996094 z" />
      <path
         id="path102-8"
         style="fill:#000000;fill-opacity:1;fill-rule:evenodd;stroke:none"
         d="m 21.360917,38.157709 c -1.252281,-0.03966 -1.447544,2.031569 -0.257812,2.277344 0.801445,0.274657 1.724045,-0.406667 1.525391,-1.28125 -0.011,-0.669696 -0.647045,-1.057244 -1.267579,-0.996094 z" />
    </g>
  </g>
</svg>
