<?xml version="1.0" encoding="UTF-8" standalone="no"?>
<svg
   width="180pt"
   height="239pt"
   viewBox="0 0 180 239"
   version="1.1"
   id="svg1398"
   sodipodi:docname="trilhas_fresa_v2.svg"
   inkscape:version="1.1.2 (0a00cf5339, 2022-02-04)"
   xmlns:inkscape="http://www.inkscape.org/namespaces/inkscape"
   xmlns:sodipodi="http://sodipodi.sourceforge.net/DTD/sodipodi-0.dtd"
   xmlns="http://www.w3.org/2000/svg"
   xmlns:svg="http://www.w3.org/2000/svg">
  <defs
     id="defs1402" />
  <sodipodi:namedview
     id="namedview1400"
     pagecolor="#ffffff"
     bordercolor="#666666"
     borderopacity="1.0"
     inkscape:pageshadow="2"
     inkscape:pageopacity="0.0"
     inkscape:pagecheckerboard="0"
     inkscape:document-units="pt"
     showgrid="false"
     inkscape:zoom="2.4446532"
     inkscape:cx="119.23981"
     inkscape:cy="152.37335"
     inkscape:window-width="1848"
     inkscape:window-height="1016"
     inkscape:window-x="72"
     inkscape:window-y="27"
     inkscape:window-maximized="1"
     inkscape:current-layer="svg1398" />
  <path
     id="path1161"
     style="fill:#7373de;fill-opacity:1;fill-rule:evenodd;stroke:none;stroke-width:0.999997"
     d="m 157.75781,10.6875 c 0.30211,0.0053 0.60081,0.06479 0.88184,0.175781 0.0837,0.03703 0.1654,0.07859 0.24462,0.124512 0.18826,0.09439 0.36395,0.212006 0.52295,0.350098 0.0771,0.06775 0.14999,0.140153 0.21826,0.216796 0.13943,0.160203 0.25805,0.337389 0.35303,0.527344 0.0454,0.07925 0.0865,0.160916 0.12305,0.244629 0.11081,0.280571 0.17035,0.578758 0.17578,0.880371 v 53.05664 c 0.0928,0.280348 0.14502,0.594438 0.14502,0.94336 0,0.349306 -0.0522,0.664169 -0.14502,0.944825 0,0 -1.0295,6.263249 0.99143,8.547405 2.03932,2.304935 11.00406,-0.747808 12.96477,1.874294 l 0.11224,89.995045 c -2.7e-4,1.39139 -1.69659,1.95799 -3.08798,1.95825 h -10.7959 c -0.40946,-0.004 -0.81168,-0.10844 -1.17187,-0.30322 -0.0536,-0.0261 -0.10665,-0.0535 -0.15821,-0.0835 -0.0332,-0.0193 -0.0659,-0.0393 -0.0981,-0.0601 -0.36642,-0.2378 -0.67016,-0.58048 -0.85547,-1.02539 -0.15293,-0.32813 -0.23337,-0.68535 -0.23584,-1.04736 0.003,-0.36152 0.0831,-0.71823 0.23584,-1.04591 0.18526,-0.44552 0.48871,-0.78736 0.85547,-1.02538 0.0322,-0.0208 0.065,-0.0408 0.0981,-0.0601 0.0174,-0.0101 0.0351,-0.0196 0.0527,-0.0293 0.38608,-0.23158 0.82715,-0.35551 1.27734,-0.35889 l 7.93674,0.22542 c -0.15036,-27.21189 -0.39808,-70.685677 0.0174,-81.01517 0.13903,-3.456855 -10.40836,0.370126 -12.20571,-2.033284 -1.75855,-2.351519 -0.97202,-14.517205 -0.97202,-14.517205 -0.0919,-0.279534 -0.14356,-0.592969 -0.14356,-0.94043 0,-0.347079 0.0517,-0.659738 0.14356,-0.938965 V 15.726562 h -66.9609 v 7.337403 c 0.09279,0.280347 0.14502,0.594437 0.14502,0.943359 0,0.348764 -0.05231,0.663108 -0.14502,0.943359 v 9.858399 c -0.0027,0.196152 -0.02823,0.391321 -0.07617,0.581543 -0.01582,0.06071 -0.0339,0.120812 -0.0542,0.180175 -0.04288,0.133155 -0.09678,0.262508 -0.16113,0.386719 -0.02765,0.05726 -0.05745,0.113453 -0.08935,0.168458 -0.208111,0.336812 -0.492654,0.61985 -0.830565,0.826171 -0.047,0.02742 -0.09488,0.05332 -0.143557,0.07764 -0.133703,0.07 -0.273425,0.127852 -0.41748,0.172852 -0.05171,0.01781 -0.103979,0.03393 -0.156735,0.04834 -0.193018,0.04912 -0.391179,0.07518 -0.590333,0.07764 H 61.46484 v 3.855469 H 56.1372 v -0.14502 H 50.481442 V 64.6875 h 1.970213 c 1.552477,-0.506102 3.572752,0.333171 3.572752,2.519531 0,2.192881 -2.027917,3.032219 -3.581542,2.519531 h -4.480958 c -0.200683,-0.0026 -0.400337,-0.02914 -0.59472,-0.0791 -0.0309,-0.0067 -0.06167,-0.01407 -0.09229,-0.02197 -0.185621,-0.05306 -0.364529,-0.12728 -0.533205,-0.221192 -0.03066,-0.01791 -0.06094,-0.03647 -0.09082,-0.05566 -0.338949,-0.207385 -0.624052,-0.491985 -0.832035,-0.830567 -0.01919,-0.02988 -0.03775,-0.06016 -0.05566,-0.09082 -0.09168,-0.165621 -0.164401,-0.341044 -0.216795,-0.52295 -0.01019,-0.03835 -0.01947,-0.07693 -0.02783,-0.115722 -0.04794,-0.190222 -0.0735,-0.385391 -0.07617,-0.581543 v -28.6875 c 0.0026,-0.196642 0.02812,-0.39231 0.07617,-0.583008 0.01589,-0.05973 0.03397,-0.118849 0.0542,-0.177246 0.04265,-0.134656 0.09655,-0.265488 0.16113,-0.391113 0.0273,-0.05526 0.05662,-0.109492 0.08789,-0.162598 0.208163,-0.338047 0.493249,-0.622131 0.832027,-0.829101 0.047,-0.02742 0.09488,-0.05332 0.143558,-0.07764 0.133703,-0.07 0.273425,-0.127851 0.41748,-0.172851 0.05171,-0.01781 0.103979,-0.03393 0.156735,-0.04834 0.193019,-0.04912 0.39118,-0.07518 0.590335,-0.07764 H 56.1372 v -0.145019 h 0.14502 v -1.045899 c 0.0012,-0.206572 0.02774,-0.412217 0.0791,-0.612305 0.0042,-0.01909 0.0086,-0.03814 0.01319,-0.05713 0.05347,-0.188267 0.128679,-0.369666 0.224123,-0.540527 0.01416,-0.02712 0.0288,-0.05398 0.04394,-0.08057 0.09968,-0.165881 0.21814,-0.319727 0.353033,-0.458496 0.01874,-0.01935 0.03778,-0.03839 0.05713,-0.05713 0.13877,-0.134891 0.292617,-0.253347 0.458498,-0.353027 0.02659,-0.01514 0.05345,-0.02979 0.08057,-0.04395 0.170861,-0.09544 0.352258,-0.170657 0.540525,-0.224121 0.01899,-0.0046 0.03804,-0.009 0.05713,-0.01318 0.200089,-0.05136 0.405735,-0.07793 0.612308,-0.0791 h 24.436522 v -7.343261 c -0.09179,-0.279142 -0.143557,-0.592026 -0.143557,-0.938965 0,-0.347079 0.0517,-0.659738 0.143557,-0.938965 v -9.861324 c 2.59e-4,-1.391388 1.128135,-2.519268 2.519523,-2.519531 z m -79.198243,0 c 1.39139,2.61e-4 2.519269,1.128141 2.519528,2.519531 v 9.861328 c 0.09187,0.279227 0.143557,0.591886 0.143557,0.938965 0,3.550782 -5.32764,3.550782 -5.327632,0 0,-0.348922 0.05223,-0.663012 0.145012,-0.943359 V 15.726562 H 12.679688 V 223.08984 H 119.23828 v -47.88281 c 0.003,-0.24507 0.0422,-0.48835 0.11572,-0.72217 0.0253,-0.0701 0.0536,-0.13898 0.085,-0.20654 0.0613,-0.15773 0.13837,-0.30888 0.22998,-0.45117 0.0504,-0.0736 0.10468,-0.14453 0.1626,-0.2124 0.10062,-0.12154 0.21244,-0.23336 0.33398,-0.33399 0.0679,-0.0579 0.13878,-0.1122 0.21241,-0.1626 0.1388,-0.0889 0.28599,-0.16397 0.43945,-0.22412 0.0732,-0.0348 0.14795,-0.0661 0.22412,-0.0937 0.23208,-0.0719 0.47335,-0.10992 0.71631,-0.11279 h 38.7041 c 0.34316,0.008 0.68112,0.0855 0.99316,0.22852 0.044,0.0174 0.0889,0.0344 0.13184,0.0542 0.0659,0.0309 0.1304,0.0646 0.19336,0.10108 0.35099,0.20152 0.65209,0.49195 0.85986,0.87158 0.002,0.004 0.004,0.009 0.006,0.0132 0.0714,0.13253 0.1318,0.27518 0.17871,0.42919 0.0977,0.26328 0.15065,0.54103 0.15674,0.82178 -0.006,0.27918 -0.0586,0.5554 -0.15527,0.81738 -0.0478,0.15838 -0.10809,0.30516 -0.18164,0.44092 l -0.001,0.001 -0.001,0.001 c -0.2104,0.38673 -0.51673,0.68203 -0.87451,0.88476 -0.0485,0.0275 -0.0978,0.0534 -0.14795,0.0776 -0.0804,0.0386 -0.16347,0.0726 -0.24756,0.10254 -0.2886,0.12033 -0.59708,0.1859 -0.90967,0.19336 h -36.18457 v 47.88281 c -0.0104,0.39541 -0.11382,0.78281 -0.30176,1.13086 -0.0299,0.0653 -0.0627,0.12936 -0.0981,0.1919 -0.20224,0.32184 -0.47466,0.59377 -0.79688,0.79541 -0.0616,0.0349 -0.12464,0.0671 -0.18896,0.0967 -0.34867,0.18941 -0.73714,0.29381 -1.13379,0.3047 H 10.160152 c -0.4423437,-2.8e-4 -0.876822,-0.11698 -1.259767,-0.33839 -0.7792167,-0.45 -1.2593688,-1.28133 -1.25976,-2.18115 V 13.207031 c 0.010889,-0.395531 0.114765,-0.782939 0.3032175,-1.13086 0.056967,-0.09893 0.1205914,-0.193875 0.1904325,-0.284179 0.1669352,-0.237255 0.3735833,-0.443904 0.6108375,-0.61084 0.090305,-0.06984 0.185251,-0.133463 0.2841825,-0.190429 0.3479194,-0.188454 0.7353268,-0.292332 1.130857,-0.303223 z m 57.600583,10.656738 c 1.33203,0 2.66455,0.887695 2.66455,2.663086 0,0.348764 -0.0523,0.663108 -0.14502,0.943359 v 22.50586 c 0.73318,0.270918 1.22087,0.968856 1.22315,1.750488 -0.002,0.781632 -0.48997,1.47957 -1.22315,1.750488 v 15.306152 c 0.0928,0.280348 0.14502,0.594438 0.14502,0.94336 0,3.554688 -5.32763,3.554688 -5.32763,0 0,-0.347079 0.0517,-0.659738 0.14355,-0.938965 V 50.957519 c -0.7326,-0.271402 -1.21962,-0.96923 -1.22168,-1.750488 0.002,-0.781258 0.48908,-1.479086 1.22168,-1.750488 V 24.946289 c -0.0918,-0.279142 -0.14355,-0.592026 -0.14355,-0.938965 0,-1.775391 1.33105,-2.663086 2.66308,-2.663086 z m -7.19824,0 c 1.33203,0 2.66309,0.887695 2.66309,2.663086 0,2.187327 -2.02148,3.027047 -3.57422,2.519532 H 99.079098 v 34.379882 c -0.0033,0.245069 -0.04224,0.488354 -0.115722,0.722168 -0.02525,0.07007 -0.0536,0.138985 -0.08496,0.206543 -0.06132,0.157731 -0.138365,0.308885 -0.22998,0.451172 -0.0504,0.07363 -0.104676,0.14453 -0.162597,0.212402 -0.100627,0.121539 -0.212446,0.233358 -0.333985,0.333985 -0.06787,0.05792 -0.138773,0.112197 -0.212402,0.162598 -0.142287,0.09161 -0.293441,0.168664 -0.451172,0.22998 -0.06756,0.03136 -0.136474,0.05971 -0.206543,0.08496 -0.233814,0.07349 -0.477099,0.112472 -0.722168,0.115723 H 73.879395 V 100.6875 h 8.280757 c 0.516741,0.002 1.02045,0.16233 1.442873,0.45996 0.35814,0.23599 0.65487,0.57233 0.837892,1.00781 0.154559,0.32925 0.236015,0.68805 0.23877,1.05176 -0.0025,0.36201 -0.08291,0.71923 -0.235845,1.04736 -0.18531,0.44492 -0.489052,0.78613 -0.855465,1.02393 -0.03035,0.0197 -0.06112,0.0387 -0.09229,0.0571 -0.05356,0.0314 -0.108285,0.0607 -0.164063,0.0879 -0.360188,0.19478 -0.762416,0.29886 -1.171875,0.30322 H 71.35986 c -0.235441,-0.004 -0.46916,-0.041 -0.694335,-0.10986 -0.04828,-0.0132 -0.09615,-0.0278 -0.143558,-0.0439 -0.217981,-0.0759 -0.424502,-0.18137 -0.61377,-0.31348 -0.02731,-0.0214 -0.05417,-0.0434 -0.08057,-0.0659 -0.170115,-0.13138 -0.322721,-0.28399 -0.454102,-0.45411 -0.02253,-0.0264 -0.0445,-0.0533 -0.06592,-0.0806 -0.132108,-0.18927 -0.237586,-0.39579 -0.313477,-0.61377 -0.01607,-0.0474 -0.03072,-0.0953 -0.04394,-0.14355 -0.06888,-0.22518 -0.105865,-0.4589 -0.109867,-0.69434 V 60.906738 c 0.0029,-0.242959 0.04086,-0.484226 0.1128,-0.716309 0.02793,-0.07818 0.0597,-0.154935 0.09521,-0.22998 0.05965,-0.150826 0.133725,-0.29554 0.22119,-0.432129 0.05126,-0.0747 0.106519,-0.146582 0.165525,-0.215332 0.09938,-0.120319 0.209717,-0.231147 0.329595,-0.331055 0.06922,-0.05905 0.141595,-0.114306 0.216795,-0.165527 0.141822,-0.09153 0.292481,-0.168575 0.449708,-0.229981 0.06756,-0.03136 0.136473,-0.05971 0.206542,-0.08496 0.233888,-0.07299 0.477171,-0.111482 0.722168,-0.114258 H 94.040035 V 24.007324 c 0.0028,-0.244997 0.04127,-0.48828 0.114258,-0.722168 0.02525,-0.07007 0.0536,-0.138985 0.08496,-0.206543 0.06141,-0.157226 0.138453,-0.307885 0.229981,-0.449707 0.05122,-0.0752 0.106478,-0.147573 0.165527,-0.216797 0.09991,-0.119877 0.210736,-0.230214 0.331055,-0.32959 0.06831,-0.05846 0.139702,-0.113229 0.213867,-0.164062 0.140546,-0.09025 0.289717,-0.166312 0.445313,-0.227051 0.06943,-0.03251 0.140301,-0.06184 0.212402,-0.08789 0.233814,-0.07349 0.477099,-0.112472 0.722168,-0.115723 h 31.492674 c 0.29198,-0.09525 0.60114,-0.143555 0.90967,-0.143555 z m -57.60205,0 c 1.33203,0 2.664547,0.887695 2.664547,2.663086 0,2.187063 -2.021542,3.026661 -3.574215,2.519532 H 19.879395 V 215.88721 h 88.562985 v -59.7583 H 82.160152 c -0.384846,-0.006 -0.763173,-0.10034 -1.105957,-0.27539 -0.0062,-0.003 -0.01291,-0.005 -0.01904,-0.007 -0.06588,-0.0309 -0.130394,-0.0646 -0.193357,-0.10107 -0.352418,-0.20235 -0.654938,-0.49408 -0.862793,-0.87598 -9.72e-4,-0.003 -0.0019,-0.006 -0.0029,-0.009 -0.07144,-0.13253 -0.131798,-0.27518 -0.17871,-0.4292 -0.09767,-0.26328 -0.150642,-0.54103 -0.156735,-0.82178 0.0061,-0.27918 0.05858,-0.5554 0.155272,-0.81738 0.04777,-0.15838 0.109553,-0.30661 0.183105,-0.44238 l 0.0015,-0.001 c 0.21039,-0.38673 0.516735,-0.68203 0.874515,-0.88476 0.04844,-0.0275 0.09779,-0.0534 0.147945,-0.0776 0.08038,-0.0386 0.16347,-0.0726 0.24756,-0.10254 0.2886,-0.12033 0.597075,-0.1859 0.909667,-0.19336 h 28.801756 c 0.29188,0.007 0.58035,0.0643 0.85254,0.16993 0.0696,0.0253 0.138,0.0537 0.20508,0.085 0.53051,0.24967 0.95736,0.67651 1.20703,1.20702 0.0313,0.0671 0.0597,0.1355 0.085,0.20508 0.1056,0.27219 0.16309,0.56066 0.16992,0.85254 v 64.79736 c -2.5e-4,1.39139 -1.12814,2.51928 -2.51953,2.51954 H 17.35986 c -0.395531,-0.0109 -0.782939,-0.11477 -1.130858,-0.30323 -0.09893,-0.057 -0.193877,-0.12058 -0.284182,-0.19042 -0.237255,-0.16694 -0.443904,-0.37359 -0.610838,-0.61085 -0.06984,-0.0903 -0.133464,-0.18524 -0.190432,-0.28417 -0.188457,-0.34792 -0.292335,-0.73534 -0.303225,-1.13087 V 24.007324 c 0.01112,-0.396149 0.115506,-0.784092 0.304695,-1.132324 0.02952,-0.06481 0.06177,-0.128348 0.09667,-0.19043 0.201819,-0.321682 0.47373,-0.593592 0.795412,-0.79541 0.06302,-0.03547 0.127527,-0.06822 0.193358,-0.09814 0.347481,-0.188233 0.734362,-0.292103 1.129395,-0.303223 H 70.45165 c 0.291817,-0.09513 0.599865,-0.143555 0.908205,-0.143555 z m -30.64014,7.538086 2.491702,2.493164 v 3.522949 l -2.491702,2.48877 H 37.1997 l -2.491695,-2.48877 V 31.375488 L 37.1997,28.882324 Z m 45.038092,12.981445 c 1.033359,-3.8e-5 1.871299,0.837247 1.872068,1.870606 v 0.212402 c 0.411356,0.456695 0.64162,1.047984 0.64746,1.662598 -0.0058,0.614614 -0.236104,1.205903 -0.64746,1.662598 v 0.208008 c 3.8e-5,1.033931 -0.838137,1.872107 -1.872068,1.872069 -0.781096,-0.0029 -1.478297,-0.490462 -1.74903,-1.223144 H 61.46484 v 0.145019 H 56.1372 v -5.329101 h 5.32764 v 0.14502 h 22.541017 c 0.27014,-0.734837 0.969039,-1.22395 1.751955,-1.226075 z M 107.35986,46.6875 c 0.61531,0.0059 1.2072,0.236705 1.66406,0.648925 h 0.20655 c 1.03336,-3.9e-5 1.8713,0.837246 1.87207,1.870606 -0.002,0.781632 -0.48997,1.47957 -1.22315,1.750488 V 74.406738 100.6875 h 50.58252 c 0.0841,0.009 0.16771,0.0222 0.25049,0.0396 h 2.22949 v 2.23242 c 0.0173,0.0818 0.0305,0.16444 0.0395,0.24756 -0.009,0.0831 -0.0222,0.16575 -0.0395,0.24756 v 2.23242 h -2.22949 c -0.0828,0.0174 -0.16638,0.0306 -0.25049,0.0396 h -53.10205 c -0.24296,-0.003 -0.48423,-0.0409 -0.71631,-0.11279 -0.0762,-0.0276 -0.15096,-0.0589 -0.22412,-0.0937 -0.15346,-0.0601 -0.30065,-0.13522 -0.43945,-0.22412 -0.0736,-0.0504 -0.14454,-0.10468 -0.21241,-0.1626 -0.12154,-0.10063 -0.23336,-0.21245 -0.33398,-0.33399 -0.0579,-0.0679 -0.1122,-0.13877 -0.1626,-0.2124 -0.0889,-0.1388 -0.16397,-0.28599 -0.22412,-0.43945 -0.0348,-0.0732 -0.0661,-0.14795 -0.0937,-0.22412 -0.0719,-0.23208 -0.10992,-0.47335 -0.11279,-0.71631 V 76.92627 H 87.50976 c -0.27014,0.734833 -0.969036,1.223943 -1.751948,1.22607 -1.032791,-7.65e-4 -1.869843,-0.837814 -1.870612,-1.870605 v -0.206543 c -0.41322,-0.457985 -0.644108,-1.051625 -0.648923,-1.668454 0.0045,-0.617336 0.235368,-1.21156 0.648923,-1.669922 v -0.202148 c 7.69e-4,-1.032791 0.837821,-1.869841 1.870612,-1.870606 0.78163,0.0023 1.479566,0.489965 1.750485,1.223145 H 104.84033 V 50.957519 c -0.73318,-0.270918 -1.22087,-0.968856 -1.22315,-1.750488 7.7e-4,-1.03336 0.83871,-1.870645 1.87207,-1.870606 h 0.20655 c 0.45686,-0.41222 1.04875,-0.643038 1.66406,-0.648925 z m -45.89502,3.344238 v 0.143555 h 0.9375 c 0.258642,0.0012 0.515559,0.0422 0.761722,0.121582 0.01519,0.0057 0.03032,0.01157 0.0454,0.01758 0.229505,0.07782 0.446585,0.188328 0.644535,0.328125 0.01974,0.01436 0.03927,0.02902 0.05859,0.04395 0.18656,0.140401 0.352702,0.306048 0.493658,0.492188 0.01851,0.02408 0.03658,0.0485 0.0542,0.07324 0.137636,0.195943 0.246642,0.410503 0.32373,0.637207 0.006,0.01508 0.01187,0.03022 0.01758,0.04541 0.07873,0.245772 0.119245,0.50218 0.12012,0.760254 v 55.192381 h 17.238277 c 0.432633,0.004 0.856895,0.11973 1.231935,0.33545 0.114878,0.0598 0.2256,0.12843 0.329588,0.20654 0.0049,0.004 0.0098,0.008 0.01465,0.0117 0.275948,0.21083 0.50673,0.48677 0.666503,0.82764 0.0242,0.051 0.04667,0.10277 0.06739,0.15527 0.01724,0.0451 0.03352,0.0921 0.04834,0.13915 v 10e-4 c 0.10144,0.26949 0.155941,0.55438 0.161137,0.84228 -0.0051,0.28527 -0.05858,0.56761 -0.158205,0.83497 -0.01658,0.0534 -0.03599,0.1059 -0.05567,0.15674 -0.01814,0.047 -0.03768,0.0934 -0.0586,0.13916 -0.2262,0.48817 -0.59895,0.84299 -1.03857,1.0664 -0.36935,0.20727 -0.784984,0.31811 -1.208498,0.32227 H 62.40234 c -0.23502,-0.005 -0.468238,-0.0421 -0.692873,-0.11133 -0.06283,-0.0191 -0.124884,-0.0406 -0.18603,-0.0645 -0.17439,-0.0658 -0.340937,-0.15083 -0.496582,-0.25341 -0.04731,-0.0273 -0.09372,-0.0561 -0.139163,-0.0864 -0.184804,-0.13981 -0.349441,-0.30445 -0.489255,-0.48925 -0.03031,-0.0454 -0.05914,-0.0918 -0.08643,-0.13916 -0.102579,-0.15565 -0.187572,-0.3222 -0.253417,-0.49659 -0.0239,-0.0611 -0.04541,-0.1232 -0.06446,-0.18603 -0.06924,-0.22464 -0.106713,-0.45786 -0.111323,-0.69288 V 55.359375 H 56.1372 v -5.327637 z m -20.74512,3.796875 2.491702,2.491699 v 3.52002 L 40.71972,62.332031 H 37.1997 l -2.491695,-2.491699 v -3.52002 L 37.1997,53.828613 Z m 12.64014,32.317384 c 1.33203,0 2.664547,0.887693 2.664547,2.663085 0,0.348923 -0.05223,0.663015 -0.145012,0.943358 v 25.3374 h 26.280757 c 0.311016,0.008 0.617947,0.0726 0.905273,0.19189 0.08695,0.0307 0.171892,0.0655 0.254887,0.10548 0.04864,0.0234 0.09651,0.0483 0.14355,0.0747 0.357668,0.20222 0.663773,0.49739 0.874515,0.8833 0.0024,0.004 0.0049,0.008 0.0073,0.0117 0.07225,0.13425 0.13305,0.27881 0.18018,0.43506 0.09619,0.26206 0.148167,0.53828 0.15381,0.81738 -0.0056,0.28066 -0.05811,0.55841 -0.15528,0.82178 -0.04633,0.15211 -0.105502,0.29365 -0.175777,0.42481 -0.0044,0.007 -0.0087,0.0147 -0.01318,0.022 -0.207825,0.37752 -0.50712,0.66797 -0.856935,0.86865 -0.06674,0.0378 -0.135169,0.0725 -0.205073,0.104 -0.04498,0.0205 -0.0901,0.0393 -0.136237,0.0571 -0.307598,0.13838 -0.639844,0.2136 -0.977048,0.2212 H 53.35986 c -1.391396,-2.6e-4 -2.519281,-1.12814 -2.519535,-2.51954 V 91.32861 H 28.664062 v 11.72754 c 0.09278,0.28035 0.145013,0.59444 0.145013,0.94336 0,3.55078 -5.327632,3.55078 -5.327632,0 0,-0.34708 0.05169,-0.65974 0.143557,-0.93897 V 88.809082 c 0.0025,-0.199154 0.02852,-0.397314 0.07763,-0.590332 0.01441,-0.05276 0.03053,-0.105028 0.04834,-0.156735 0.045,-0.144055 0.10285,-0.283777 0.172852,-0.41748 0.02432,-0.04868 0.05022,-0.09656 0.07764,-0.143558 0.206321,-0.337911 0.489358,-0.622454 0.826169,-0.830565 0.05501,-0.0319 0.111198,-0.0617 0.168458,-0.08935 0.124211,-0.06435 0.253566,-0.118252 0.386722,-0.161137 0.05936,-0.0203 0.119462,-0.03838 0.180173,-0.0542 0.190221,-0.04794 0.38539,-0.07351 0.581542,-0.07618 h 26.305665 c 0.29226,-0.09545 0.600803,-0.14355 0.909668,-0.14355 z m -8.784668,15.190423 c 1.33203,0 2.663085,0.8877 2.663085,2.66309 0,3.55078 -5.32764,3.55078 -5.327632,0 0,-1.77539 1.332517,-2.66309 2.664547,-2.66309 z m 115.886718,6.5918 c 1.24023,0 2.47998,0.82617 2.47998,2.47851 0,3.3086 -4.96142,3.3086 -4.96142,0 0,-1.65234 1.24121,-2.47851 2.48144,-2.47851 z m -115.886718,6.22559 c 1.33203,0 2.663085,0.88769 2.663085,2.66308 0,3.55078 -5.32764,3.55078 -5.327632,0 0,-1.77539 1.332517,-2.66308 2.664547,-2.66308 z m -18.430665,0 c 1.33203,0 2.664548,0.88769 2.664548,2.66308 0,0.34893 -0.05223,0.66302 -0.145013,0.94336 v 18.92725 h 53.49609 c 0.329179,0.008 0.653654,0.0799 0.95508,0.2124 0.177248,0.0666 0.346493,0.15227 0.503903,0.25781 0.01129,0.008 0.02252,0.0155 0.03369,0.0234 0.382477,0.26617 0.688807,0.65011 0.85401,1.15137 0.109128,0.27892 0.167661,0.57505 0.172852,0.87451 -0.0051,0.29838 -0.0631,0.59349 -0.17139,0.87158 -0.165885,0.50718 -0.475837,0.89416 -0.862792,1.16162 -0.0044,0.003 -0.0088,0.006 -0.01318,0.009 -0.16752,0.11413 -0.348945,0.2058 -0.539063,0.27539 -0.295312,0.12623 -0.61203,0.19484 -0.933105,0.20215 h -56.01563 c -0.23495,-0.004 -0.468166,-0.0411 -0.692872,-0.10986 -0.06233,-0.0191 -0.123903,-0.0406 -0.184568,-0.0645 -0.178706,-0.0669 -0.349233,-0.15389 -0.508305,-0.25929 -0.04276,-0.0251 -0.08477,-0.0515 -0.12597,-0.0791 -0.18604,-0.14051 -0.351682,-0.30615 -0.492187,-0.49219 -0.03031,-0.0454 -0.05914,-0.0918 -0.08643,-0.13916 -0.102676,-0.15611 -0.187671,-0.32315 -0.253418,-0.49805 -0.02383,-0.0602 -0.04533,-0.12126 -0.06445,-0.1831 -0.06938,-0.22511 -0.106848,-0.45883 -0.111322,-0.69434 v -21.45117 c -0.09187,-0.27923 -0.143557,-0.59189 -0.143557,-0.93897 0,-1.77539 1.331054,-2.66308 2.663084,-2.66308 z m 134.317383,0.97412 c 1.24023,0 2.47998,0.82715 2.47998,2.48144 0,3.30468 -4.96142,3.30468 -4.96142,0 0,-1.65429 1.24121,-2.48144 2.48144,-2.48144 z m 0,7.19971 c 1.24023,0 2.47998,0.82714 2.47998,2.48144 0,3.30469 -4.96142,3.30469 -4.96142,0 0,-1.6543 1.24121,-2.48144 2.48144,-2.48144 z m -78.301758,0 c 1.240238,0 2.481443,0.82714 2.481443,2.48144 0,3.30469 -4.961423,3.30469 -4.961423,0 0,-1.6543 1.239743,-2.48144 2.47998,-2.48144 z m 78.301758,7.19824 c 1.24023,0 2.47998,0.82715 2.47998,2.48145 0,3.30859 -4.96142,3.30859 -4.96142,0 0,-1.6543 1.24121,-2.48145 2.48144,-2.48145 z m -78.301758,0 c 1.240238,0 2.481443,0.82715 2.481443,2.48145 0,3.30859 -4.961423,3.30859 -4.961423,0 0,-1.6543 1.239743,-2.48145 2.47998,-2.48145 z m 78.301758,7.20264 c 1.24023,0 2.47998,0.82617 2.47998,2.47851 0,3.30859 -4.96142,3.30859 -4.96142,0 0,-1.65234 1.24121,-2.47851 2.48144,-2.47851 z m 0,7.1997 c 1.24023,0 2.47998,0.82617 2.47998,2.47851 0,3.3086 -4.96142,3.3086 -4.96142,0 0,-1.65234 1.24121,-2.47851 2.48144,-2.47851 z m -78.301758,0 c 1.240238,0 2.481443,0.82617 2.481443,2.47851 0,3.3086 -4.961423,3.3086 -4.961423,0 0,-1.65234 1.239743,-2.47851 2.47998,-2.47851 z m 78.301758,7.19971 c 1.24023,0 2.47998,0.82715 2.47998,2.48144 0,3.30469 -4.96142,3.30469 -4.96142,0 0,-1.65429 1.24121,-2.48144 2.48144,-2.48144 z m -78.301758,7.16162 c 0.321569,0.007 0.638801,0.0757 0.934568,0.20215 0.187905,0.0689 0.36735,0.15858 0.533205,0.27099 0.0069,0.005 0.0137,0.01 0.02051,0.0147 0.384465,0.26661 0.692573,0.65204 0.858398,1.15576 0.109299,0.27938 0.167835,0.57603 0.172852,0.87598 -0.0052,0.29946 -0.06372,0.59559 -0.172852,0.87451 -0.165,0.50062 -0.470738,0.88377 -0.85254,1.14991 -0.01358,0.009 -0.02726,0.0187 -0.04102,0.0278 -0.158332,0.10547 -0.328642,0.19157 -0.506835,0.25781 -0.298905,0.13039 -0.620278,0.20153 -0.94629,0.20947 H 27.079095 v 38.15918 h 21.770512 c 1.552545,-0.50647 3.572753,0.33292 3.572753,2.51954 0,2.18732 -2.021475,3.02704 -3.574215,2.51952 H 24.559567 c -0.244996,-0.003 -0.488279,-0.0413 -0.722167,-0.11425 -0.0721,-0.026 -0.142974,-0.0554 -0.2124,-0.0879 -0.155034,-0.0604 -0.303709,-0.13593 -0.44385,-0.22559 -0.07578,-0.0521 -0.148639,-0.10837 -0.218265,-0.16846 -0.118657,-0.0987 -0.228001,-0.208 -0.326655,-0.32666 -0.06009,-0.0696 -0.11633,-0.14249 -0.168458,-0.21826 -0.08966,-0.14014 -0.165226,-0.28882 -0.225585,-0.44385 -0.03251,-0.0694 -0.06184,-0.1403 -0.08789,-0.2124 -0.07299,-0.23389 -0.111484,-0.47717 -0.114263,-0.72216 v -43.19825 c 2.59e-4,-1.39139 1.128143,-2.51927 2.519535,-2.51953 z m 78.301758,0.0381 c 1.24023,0 2.47998,0.82714 2.47998,2.48144 0,3.30469 -4.96142,3.30469 -4.96142,0 0,-1.6543 1.24121,-2.48144 2.48144,-2.48144 z m -78.301758,7.16015 c 0.31782,0.007 0.631441,0.0741 0.924315,0.19775 0.1917,0.0693 0.374535,0.16237 0.543458,0.27686 0.0069,0.005 0.0137,0.01 0.02051,0.0146 0.384668,0.26674 0.694103,0.65165 0.85986,1.15576 0.108629,0.27901 0.166666,0.57515 0.17139,0.87452 -0.005,0.29995 -0.06355,0.5966 -0.172852,0.87597 -0.165825,0.50373 -0.473933,0.88916 -0.858398,1.15576 -0.0068,0.005 -0.01365,0.01 -0.02051,0.0146 -0.165855,0.11241 -0.3453,0.20211 -0.533205,0.271 -0.295768,0.12641 -0.613,0.19502 -0.934568,0.20214 H 34.27734 v 23.7627 h 14.570805 c 1.55274,-0.50751 3.574215,0.33221 3.574215,2.51953 0,2.18661 -2.020208,3.026 -3.572753,2.51953 H 31.757812 c -0.204183,-0.002 -0.407335,-0.0293 -0.604987,-0.0806 -0.06835,-0.0206 -0.135791,-0.044 -0.202148,-0.0703 -0.127926,-0.0413 -0.252345,-0.0927 -0.372067,-0.15381 -0.07039,-0.0396 -0.138826,-0.0827 -0.20508,-0.1289 -0.104106,-0.0683 -0.20301,-0.14417 -0.295898,-0.22706 -0.06252,-0.0565 -0.122167,-0.11619 -0.17871,-0.17871 -0.08289,-0.0929 -0.158777,-0.19179 -0.227047,-0.29589 -0.04623,-0.0662 -0.08925,-0.13469 -0.12891,-0.20508 -0.06111,-0.11972 -0.112545,-0.24414 -0.15381,-0.37207 -0.02629,-0.0664 -0.04975,-0.1338 -0.07031,-0.20215 -0.05127,-0.19765 -0.07832,-0.4008 -0.08057,-0.60498 v -28.80175 c 0.0033,-0.24507 0.04224,-0.48836 0.115725,-0.72217 0.02525,-0.0701 0.0536,-0.13899 0.08496,-0.20655 0.06132,-0.15773 0.138365,-0.30888 0.22998,-0.45117 0.0504,-0.0736 0.104678,-0.14453 0.1626,-0.2124 0.100626,-0.12154 0.212445,-0.23335 0.333983,-0.33398 0.06787,-0.0579 0.138771,-0.1122 0.2124,-0.1626 0.142286,-0.0916 0.293439,-0.16866 0.45117,-0.22998 0.06756,-0.0314 0.136478,-0.0597 0.20655,-0.085 0.233814,-0.0735 0.477098,-0.11248 0.722167,-0.11573 z m 14.399415,7.19971 c 0.198662,0.003 0.396323,0.0286 0.588867,0.0776 0.05376,0.0148 0.107011,0.0314 0.159668,0.0498 0.142453,0.0443 0.280692,0.10116 0.413086,0.16992 0.0507,0.0252 0.100529,0.0521 0.149414,0.0806 0.339283,0.20821 0.624412,0.49384 0.832031,0.83349 0.02742,0.047 0.05332,0.0949 0.07764,0.14356 0.07,0.1337 0.127852,0.27342 0.172852,0.41748 0.01781,0.0517 0.03393,0.10398 0.04834,0.15674 0.04912,0.19302 0.07518,0.39118 0.07764,0.59033 v 36 c -0.0032,0.24507 -0.04224,0.48835 -0.115722,0.72217 -0.02525,0.0701 -0.0536,0.13898 -0.08496,0.20654 -0.06132,0.15773 -0.138365,0.30888 -0.22998,0.45117 -0.0504,0.0736 -0.104676,0.14453 -0.162597,0.2124 -0.100626,0.12154 -0.212446,0.23336 -0.333985,0.33399 -0.06787,0.0579 -0.138773,0.1122 -0.212402,0.1626 -0.138802,0.0889 -0.285991,0.16397 -0.439453,0.22412 -0.07316,0.0348 -0.147951,0.0661 -0.224121,0.0937 -0.232084,0.0719 -0.47335,0.10992 -0.716309,0.11279 H 50.67627 c -1.553708,0.51313 -3.58155,-0.32635 -3.58155,-2.51953 0,-2.18661 2.020215,-3.02601 3.57276,-2.51953 H 94.040035 V 177.72656 H 82.160152 c -0.408963,-0.005 -0.810661,-0.10867 -1.170412,-0.30322 -0.05855,-0.0285 -0.116738,-0.0591 -0.172845,-0.0923 -0.02867,-0.017 -0.057,-0.0346 -0.08497,-0.0527 -0.363112,-0.23566 -0.6624,-0.57315 -0.848145,-1.01221 -0.157107,-0.33114 -0.240088,-0.69257 -0.243157,-1.05908 0.0029,-0.3681 0.08639,-0.7311 0.244627,-1.06347 0.185925,-0.43588 0.485078,-0.77196 0.846675,-1.00635 0.419515,-0.29115 0.917582,-0.44797 1.428225,-0.44971 z m -28.801755,0 c 0.207181,0.002 0.413324,0.0295 0.613763,0.082 0.05533,0.0171 0.110053,0.0362 0.16407,0.0571 0.142502,0.0448 0.280741,0.10212 0.413085,0.17138 0.06007,0.0342 0.118716,0.0709 0.175777,0.10987 0.114975,0.074 0.223732,0.15733 0.325193,0.24902 0.05615,0.0517 0.109915,0.10599 0.161137,0.1626 0.08633,0.0959 0.165178,0.19821 0.235838,0.30615 0.04565,0.0653 0.08818,0.13279 0.12744,0.20215 0.06176,0.12062 0.113687,0.24603 0.15528,0.375 0.02564,0.0644 0.0486,0.12994 0.06884,0.19629 0.05101,0.19866 0.07757,0.40281 0.0791,0.60791 v 19.08252 h 11.882812 c 0.409459,0.004 0.811687,0.10844 1.171875,0.30322 0.05617,0.0274 0.111608,0.0563 0.165525,0.0879 0.02916,0.017 0.05798,0.0346 0.08643,0.0527 0.367103,0.23707 0.670695,0.57953 0.856935,1.02393 0.154558,0.32924 0.236013,0.68804 0.23877,1.05175 -0.003,0.36321 -0.08442,0.72149 -0.23877,1.05029 -0.181755,0.43317 -0.475312,0.76746 -0.830572,1.00342 -0.423776,0.30114 -0.930318,0.46385 -1.450193,0.46582 h -14.40234 c -0.179907,-0.001 -0.359151,-0.022 -0.534667,-0.0615 -0.04381,-0.012 -0.08728,-0.0252 -0.130373,-0.0395 -0.127239,-0.0337 -0.251645,-0.0773 -0.372075,-0.13037 -0.05676,-0.0277 -0.112465,-0.0575 -0.166987,-0.0894 -0.100684,-0.0539 -0.197588,-0.11459 -0.29004,-0.18164 -0.05396,-0.0408 -0.106247,-0.0839 -0.156743,-0.1289 -0.08428,-0.0737 -0.163561,-0.15302 -0.2373,-0.23731 -0.04506,-0.0505 -0.08806,-0.10278 -0.12891,-0.15674 -0.06705,-0.0924 -0.127737,-0.18936 -0.181642,-0.29004 -0.03187,-0.0545 -0.06168,-0.11023 -0.08936,-0.16699 -0.05311,-0.12043 -0.09669,-0.24483 -0.130365,-0.37207 -0.01436,-0.0431 -0.02754,-0.0866 -0.03955,-0.13037 -0.03953,-0.17552 -0.06016,-0.35476 -0.06152,-0.53467 V 177.72656 H 41.481442 v 9.36328 h 7.359375 c 1.5537,-0.51312 3.581543,0.32636 3.581543,2.51953 0,2.18662 -2.020208,3.02601 -3.572753,2.51954 h -9.8877 c -0.165249,8e-5 -0.330105,-0.0161 -0.492187,-0.0483 -1.178573,-0.23494 -2.027253,-1.26943 -2.02734,-2.47119 v -14.40234 c 0.0026,-0.19664 0.02812,-0.39231 0.07617,-0.58301 0.01589,-0.0597 0.03397,-0.11885 0.0542,-0.17725 0.04265,-0.13466 0.09655,-0.26549 0.16113,-0.39111 0.0273,-0.0553 0.05662,-0.10949 0.08789,-0.1626 0.208163,-0.33805 0.493249,-0.62213 0.832027,-0.8291 0.047,-0.0274 0.09488,-0.0533 0.143558,-0.0776 0.133703,-0.07 0.273425,-0.12785 0.41748,-0.17285 0.05171,-0.0178 0.10398,-0.0339 0.156735,-0.0483 0.193019,-0.0491 0.39118,-0.0752 0.590332,-0.0776 z m -18,7.05615 c 0.30906,0 0.618705,0.048 0.91113,0.14356 h 9.890625 c 0.177352,9.2e-4 0.354112,0.0206 0.52734,0.0586 0.05725,0.0156 0.113923,0.0331 0.169928,0.0527 0.112903,0.0308 0.223521,0.0695 0.33105,0.11571 0.06541,0.0314 0.129436,0.0656 0.191895,0.10254 0.09226,0.0501 0.181299,0.10584 0.266602,0.167 0.05969,0.0448 0.117368,0.0922 0.172853,0.14209 0.07934,0.0699 0.154191,0.14478 0.224122,0.22412 0.04668,0.0523 0.09115,0.10657 0.133298,0.1626 0.06632,0.0906 0.126518,0.18554 0.18018,0.28417 0.03306,0.0574 0.06384,0.116 0.09228,0.17579 0.05175,0.11814 0.09436,0.24008 0.127447,0.36475 0.0149,0.044 0.02857,0.0885 0.04101,0.13329 0.03964,0.17599 0.06026,0.35573 0.06152,0.53613 v 19.08106 h 19.081057 c 0.423514,0.004 0.839148,0.115 1.208498,0.32227 0.43962,0.22341 0.81237,0.57823 1.03857,1.0664 0.02092,0.0458 0.04046,0.0922 0.0586,0.13916 0.01967,0.0508 0.03909,0.1033 0.05567,0.15674 0.09962,0.26736 0.153118,0.5497 0.158205,0.83497 -0.0054,0.28585 -0.05938,0.56869 -0.159667,0.83642 -0.01554,0.0501 -0.03155,0.0987 -0.04981,0.14648 -0.02026,0.052 -0.04225,0.10328 -0.06592,0.15381 -0.22647,0.48512 -0.59781,0.83951 -1.035645,1.06202 -0.369487,0.20676 -0.785113,0.31708 -1.208498,0.32079 H 60.559567 c -0.188782,8e-5 -0.376975,-0.0211 -0.561037,-0.063 -1.145838,-0.2619 -1.958448,-1.28115 -1.958498,-2.45654 V 184.92627 H 50.67627 c -1.553708,0.51313 -3.58155,-0.32635 -3.58155,-2.51954 0,-1.77538 1.331062,-2.66308 2.663092,-2.66308 z m 110.704098,0.18457 c 1.24023,0 2.47998,0.82617 2.47998,2.47851 0,3.3086 -4.96142,3.3086 -4.96142,0 0,-1.65234 1.24121,-2.47851 2.48144,-2.47851 z m -78.301758,0 c 1.240238,0 2.481443,0.82617 2.481443,2.47851 0,3.3086 -4.961423,3.3086 -4.961423,0 0,-1.65234 1.239743,-2.47851 2.47998,-2.47851 z m 78.301758,7.19971 c 1.24023,0 2.47998,0.82715 2.47998,2.48144 0,3.30469 -4.96142,3.30469 -4.96142,0 0,-1.65429 1.24121,-2.48144 2.48144,-2.48144 z m -78.301758,0 c 1.240238,0 2.481443,0.82715 2.481443,2.48144 0,3.30469 -4.961423,3.30469 -4.961423,0 0,-1.65429 1.239743,-2.48144 2.47998,-2.48144 z m 78.301758,7.19971 c 1.24023,0 2.47998,0.82714 2.47998,2.48144 0,3.30469 -4.96142,3.30469 -4.96142,0 0,-1.6543 1.24121,-2.48144 2.48144,-2.48144 z m 0,7.19824 c 1.24023,0 2.47998,0.82715 2.47998,2.48145 0,3.30859 -4.96142,3.30859 -4.96142,0 0,-1.6543 1.24121,-2.48145 2.48144,-2.48145 z"
     sodipodi:nodetypes="cccccccccscscccccscccccscccsscsccccsccccccccccccccccccsccccccccccccccccccccccccccccccccccccccscccccccsscccccccccccccccccccccccccccsccccccccccccccccccccsscccccsscccccsssscccccccccccccccccccscccccccccccccccccccccccccccccccccccssscccccccccccccccccccccccccccccccccccccccccssccccccccccccccsccccccccccccsccccccccccccccccccccccccccccccccccccsccccccccccccccccccccccccccccccccccccccccccccccccccccssccccccccccccccccccccccssccccccccccccsssssssssssssscscccccccccsccccccccccccccsccssssssssssssssssssssssssssssssssssssccccccccccccccsccccccccccccccssssccccccccccccccscccccccccccccccccccccccccccccccccccccccccccccscccccscccccccccccccccccccccccccccccccccccccccccccccccscccccccccccccccsccccccccccccccccccccccccccccccccsssssssssssssssssssssssssss" />
  <path
     id="path2"
     style="fill:#000000;fill-opacity:1;fill-rule:evenodd;stroke:none;stroke-width:1"
     d="m 161.99237,103.88428 c -0.79237,0 -1.58473,0 -2.37711,0 0,-0.65365 0,-1.3073 0,-1.96094 0.79238,0 1.58474,0 2.37711,0 0,0.65364 0,1.30729 0,1.96094 z" />
  <path
     id="path4"
     style="fill:#000000;fill-opacity:1;fill-rule:evenodd;stroke:none;stroke-width:1"
     d="m 160.91983,109.12451 c 1.33744,-0.033 1.46862,1.84791 0.13496,1.9375 -0.95615,0.21177 -1.73114,-0.62262 -1.37323,-1.35156 0.14661,-0.43461 0.73875,-0.61742 1.23827,-0.58594 z" />
  <path
     id="path6"
     style="fill:#000000;fill-opacity:1;fill-rule:evenodd;stroke:none;stroke-width:1"
     d="m 160.94824,116.32764 c 1.32273,-0.0119 1.42195,1.8492 0.10656,1.9375 -0.95536,0.21022 -1.73227,-0.62605 -1.37323,-1.35547 0.15009,-0.44381 0.75879,-0.62322 1.26669,-0.58203 z" />
  <path
     id="path8"
     style="fill:#000000;fill-opacity:1;fill-rule:evenodd;stroke:none;stroke-width:1"
     d="m 160.91983,123.52685 c 1.3435,-0.0365 1.46367,1.84637 0.13496,1.9375 -0.95403,0.21003 -1.73197,-0.62455 -1.37323,-1.35351 0.14636,-0.4348 0.73878,-0.61608 1.23827,-0.58399 z" />
  <path
     id="path10"
     style="fill:#000000;fill-opacity:1;fill-rule:evenodd;stroke:none;stroke-width:1"
     d="m 160.91983,130.72607 c 1.3435,-0.0365 1.46367,1.84637 0.13496,1.9375 -0.95403,0.21003 -1.73197,-0.62456 -1.37323,-1.35351 0.14636,-0.4348 0.73878,-0.61609 1.23827,-0.58399 z" />
  <path
     id="path12"
     style="fill:#000000;fill-opacity:1;fill-rule:evenodd;stroke:none;stroke-width:1"
     d="m 160.91983,137.92529 c 1.33744,-0.033 1.46862,1.84791 0.13496,1.9375 -0.95615,0.21177 -1.73114,-0.62262 -1.37323,-1.35156 0.14661,-0.43461 0.73875,-0.61742 1.23827,-0.58594 z" />
  <path
     id="path14"
     style="fill:#000000;fill-opacity:1;fill-rule:evenodd;stroke:none;stroke-width:1"
     d="m 160.91983,145.12451 c 1.33744,-0.033 1.46862,1.84791 0.13496,1.9375 -0.95615,0.21177 -1.73114,-0.62262 -1.37323,-1.35156 0.14661,-0.43461 0.73875,-0.61742 1.23827,-0.58594 z" />
  <path
     id="path16"
     style="fill:#000000;fill-opacity:1;fill-rule:evenodd;stroke:none;stroke-width:1"
     d="m 160.91983,152.32373 c 1.3392,-0.0317 1.4673,1.8481 0.13496,1.94141 -0.95577,0.207 -1.7326,-0.62419 -1.37323,-1.35547 0.14661,-0.43461 0.73875,-0.61742 1.23827,-0.58594 z" />
  <path
     id="path18"
     style="fill:#000000;fill-opacity:1;fill-rule:evenodd;stroke:none;stroke-width:1"
     d="m 160.91983,159.52685 c 1.3435,-0.0365 1.46367,1.84637 0.13496,1.9375 -0.95403,0.21003 -1.73197,-0.62455 -1.37323,-1.35351 0.14636,-0.4348 0.73878,-0.61608 1.23827,-0.58399 z" />
  <path
     id="path20"
     style="fill:#000000;fill-opacity:1;fill-rule:evenodd;stroke:none;stroke-width:1"
     d="m 160.91983,166.72607 c 1.3435,-0.0365 1.46367,1.84637 0.13496,1.9375 -0.95403,0.21003 -1.73197,-0.62456 -1.37323,-1.35351 0.14636,-0.4348 0.73878,-0.61609 1.23827,-0.58399 z" />
  <path
     id="path22"
     style="fill:#000000;fill-opacity:1;fill-rule:evenodd;stroke:none;stroke-width:1"
     d="m 160.91983,173.92529 c 1.33744,-0.033 1.46862,1.84791 0.13496,1.9375 -0.95615,0.21177 -1.73114,-0.62262 -1.37323,-1.35156 0.14661,-0.43461 0.73875,-0.61742 1.23827,-0.58594 z" />
  <path
     id="path24"
     style="fill:#000000;fill-opacity:1;fill-rule:evenodd;stroke:none;stroke-width:1"
     d="m 160.91983,181.12451 c 1.33744,-0.033 1.46862,1.84791 0.13496,1.9375 -0.95615,0.21177 -1.73114,-0.62262 -1.37323,-1.35156 0.14661,-0.43461 0.73875,-0.61742 1.23827,-0.58594 z" />
  <path
     id="path26"
     style="fill:#000000;fill-opacity:1;fill-rule:evenodd;stroke:none;stroke-width:1"
     d="m 160.91983,188.32373 c 1.3392,-0.0317 1.4673,1.8481 0.13496,1.94141 -0.95577,0.207 -1.7326,-0.62419 -1.37323,-1.35547 0.14661,-0.43461 0.73875,-0.61742 1.23827,-0.58594 z" />
  <path
     id="path28"
     style="fill:#000000;fill-opacity:1;fill-rule:evenodd;stroke:none;stroke-width:1"
     d="m 160.91983,195.52685 c 1.3435,-0.0365 1.46367,1.84637 0.13496,1.9375 -0.95403,0.21003 -1.73197,-0.62455 -1.37323,-1.35351 0.14636,-0.4348 0.73878,-0.61608 1.23827,-0.58399 z" />
  <path
     id="path30"
     style="fill:#000000;fill-opacity:1;fill-rule:evenodd;stroke:none;stroke-width:1"
     d="m 160.91983,202.72607 c 1.3435,-0.0365 1.46367,1.84637 0.13496,1.9375 -0.95403,0.21003 -1.73197,-0.62456 -1.37323,-1.35351 0.14636,-0.4348 0.73878,-0.61609 1.23827,-0.58399 z" />
  <path
     id="path32"
     style="fill:#000000;fill-opacity:1;fill-rule:evenodd;stroke:none;stroke-width:1"
     d="m 82.368714,202.72607 c 1.340156,-0.0376 1.460192,1.84709 0.134945,1.9375 -0.957007,0.21228 -1.728362,-0.6256 -1.370863,-1.35351 0.146983,-0.4372 0.734988,-0.61585 1.235918,-0.58399 z" />
  <path
     id="path34"
     style="fill:#000000;fill-opacity:1;fill-rule:evenodd;stroke:none;stroke-width:1"
     d="m 82.368714,195.52685 c 1.340156,-0.0376 1.460192,1.84709 0.134945,1.9375 -0.957007,0.21228 -1.728362,-0.6256 -1.370863,-1.35351 0.146983,-0.4372 0.734988,-0.61585 1.235918,-0.58399 z" />
  <path
     id="path36"
     style="fill:#000000;fill-opacity:1;fill-rule:evenodd;stroke:none;stroke-width:1"
     d="m 82.368714,188.32373 c 1.340121,-0.0338 1.460932,1.84968 0.134945,1.94141 -0.953334,0.20791 -1.726083,-0.61797 -1.373263,-1.34723 0.140679,-0.44077 0.734709,-0.62635 1.238318,-0.59418 z" />
  <path
     id="path38"
     style="fill:#000000;fill-opacity:1;fill-rule:evenodd;stroke:none;stroke-width:1"
     d="m 82.368714,181.12451 c 1.340242,-0.035 1.459683,1.84953 0.134945,1.9375 -0.959238,0.21502 -1.727489,-0.62385 -1.370863,-1.35156 0.146921,-0.43575 0.735229,-0.61754 1.235918,-0.58594 z" />
  <path
     id="path40"
     style="fill:#000000;fill-opacity:1;fill-rule:evenodd;stroke:none;stroke-width:1"
     d="m 82.368714,173.92529 c 1.340242,-0.035 1.459683,1.84953 0.134945,1.9375 -0.959238,0.21502 -1.727489,-0.62385 -1.370863,-1.35156 0.146921,-0.43574 0.735229,-0.61754 1.235918,-0.58594 z" />
  <path
     id="path42"
     style="fill:#000000;fill-opacity:1;fill-rule:evenodd;stroke:none;stroke-width:1"
     d="m 82.368714,166.72607 c 1.340156,-0.0376 1.460192,1.84709 0.134945,1.9375 -0.957007,0.21228 -1.728362,-0.6256 -1.370863,-1.35351 0.146983,-0.4372 0.734988,-0.61585 1.235918,-0.58399 z" />
  <path
     id="path44"
     style="fill:#000000;fill-opacity:1;fill-rule:evenodd;stroke:none;stroke-width:1"
     d="m 82.368714,159.52685 c 1.340156,-0.0376 1.460192,1.84709 0.134945,1.9375 -0.957007,0.21228 -1.728362,-0.6256 -1.370863,-1.35351 0.146983,-0.4372 0.734988,-0.61585 1.235918,-0.58399 z" />
  <path
     id="path46"
     style="fill:#000000;fill-opacity:1;fill-rule:evenodd;stroke:none;stroke-width:1"
     d="m 82.368714,152.32373 c 1.340121,-0.0338 1.460932,1.84968 0.134945,1.94141 -0.953334,0.20791 -1.726083,-0.61797 -1.373263,-1.34723 0.140679,-0.44077 0.734709,-0.62635 1.238318,-0.59418 z" />
  <path
     id="path48"
     style="fill:#000000;fill-opacity:1;fill-rule:evenodd;stroke:none;stroke-width:1"
     d="m 82.368714,145.12451 c 1.340242,-0.035 1.459683,1.84953 0.134945,1.9375 -0.959238,0.21502 -1.727489,-0.62385 -1.370863,-1.35156 0.146921,-0.43575 0.735229,-0.61754 1.235918,-0.58594 z" />
  <path
     id="path50"
     style="fill:#000000;fill-opacity:1;fill-rule:evenodd;stroke:none;stroke-width:1"
     d="m 82.368714,137.92529 c 1.340242,-0.035 1.459683,1.84953 0.134945,1.9375 -0.959238,0.21502 -1.727489,-0.62385 -1.370863,-1.35156 0.146921,-0.43574 0.735229,-0.61754 1.235918,-0.58594 z" />
  <path
     id="path52"
     style="fill:#000000;fill-opacity:1;fill-rule:evenodd;stroke:none;stroke-width:1"
     d="m 82.368714,130.72607 c 1.340156,-0.0376 1.460192,1.84709 0.134945,1.9375 -0.957007,0.21228 -1.728362,-0.6256 -1.370863,-1.35351 0.146983,-0.4372 0.734988,-0.61585 1.235918,-0.58399 z" />
  <path
     id="path54"
     style="fill:#000000;fill-opacity:1;fill-rule:evenodd;stroke:none;stroke-width:1"
     d="m 82.368714,123.52685 c 1.340156,-0.0376 1.460192,1.84709 0.134945,1.9375 -0.957007,0.21228 -1.728362,-0.6256 -1.370863,-1.35351 0.146983,-0.4372 0.734988,-0.61585 1.235918,-0.58399 z" />
  <path
     id="path56"
     style="fill:#000000;fill-opacity:1;fill-rule:evenodd;stroke:none;stroke-width:1"
     d="m 82.397116,116.32764 c 1.399204,-0.005 1.377361,1.98295 -0.02837,1.95312 -1.148431,0.17703 -1.736217,-1.11447 -0.963625,-1.72461 0.272532,-0.18999 0.643585,-0.25152 0.992041,-0.22851 z" />
  <path
     id="path58"
     style="fill:#000000;fill-opacity:1;fill-rule:evenodd;stroke:none;stroke-width:1"
     d="m 82.368714,109.12451 c 1.340242,-0.035 1.459683,1.84953 0.134945,1.9375 -0.959238,0.21502 -1.727489,-0.62385 -1.370863,-1.35156 0.146921,-0.43575 0.735229,-0.61754 1.235918,-0.58594 z" />
  <path
     id="path60"
     style="fill:#000000;fill-opacity:1;fill-rule:evenodd;stroke:none;stroke-width:1"
     d="m 82.397116,101.9292 c 1.399556,-0.005 1.375737,1.9824 -0.02837,1.94922 -1.175912,0.18899 -1.758279,-1.17761 -0.911537,-1.75391 0.266533,-0.16558 0.613365,-0.21608 0.939952,-0.19531 z" />
  <path
     id="path62"
     style="fill:#000000;fill-opacity:1;fill-rule:evenodd;stroke:none"
     d="m 136.15621,22.542479 c 1.25025,-0.04248 1.45041,2.037001 0.2539,2.275391 -0.80049,0.275486 -1.72134,-0.410766 -1.52148,-1.283203 0.007,-0.662008 0.65521,-1.060099 1.26758,-0.992188 z" />
  <path
     id="path64"
     style="fill:#000000;fill-opacity:1;fill-rule:evenodd;stroke:none"
     d="m 128.95308,22.542479 c 1.25025,-0.04248 1.45042,2.037001 0.25391,2.275391 -0.8005,0.275486 -1.72135,-0.410766 -1.52149,-1.283203 0.007,-0.662008 0.65522,-1.060099 1.26758,-0.992188 z" />
  <path
     id="path66"
     style="fill:#000000;fill-opacity:1;fill-rule:evenodd;stroke:none"
     d="m 71.355433,22.542479 c 1.25025,-0.04248 1.45041,2.037001 0.253899,2.275391 -0.800489,0.275486 -1.72134,-0.410766 -1.521479,-1.283203 0.007,-0.662008 0.65521,-1.060099 1.26758,-0.992188 z" />
  <path
     id="path68"
     style="fill:#000000;fill-opacity:1;fill-rule:evenodd;stroke:none"
     d="m 78.554643,22.542479 c 1.25026,-0.04248 1.45042,2.037001 0.253909,2.275391 -0.80049,0.275486 -1.72135,-0.410766 -1.52148,-1.283203 0.007,-0.662008 0.655211,-1.060099 1.267571,-0.992188 z" />
  <path
     id="path70"
     style="fill:#000000;fill-opacity:1;fill-rule:evenodd;stroke:none"
     d="m 85.753863,22.542479 c 1.250259,-0.04248 1.45042,2.037001 0.253909,2.275391 -0.8005,0.275486 -1.72135,-0.410766 -1.52149,-1.283203 0.007,-0.662008 0.655221,-1.060099 1.267581,-0.992188 z" />
  <path
     id="path70-8"
     style="fill:#000000;fill-opacity:1;fill-rule:evenodd;stroke:none"
     d="m 85.875971,44.671386 c 1.250259,-0.04248 1.45042,2.037001 0.253909,2.275391 -0.8005,0.275486 -1.72135,-0.410766 -1.52149,-1.283203 0.007,-0.662008 0.655221,-1.060099 1.267581,-0.992188 z" />
  <path
     id="path70-8-1"
     style="fill:#000000;fill-opacity:1;fill-rule:evenodd;stroke:none"
     d="m 107.73637,48.330601 c 1.25026,-0.04248 1.45042,2.037001 0.25391,2.275391 -0.8005,0.275486 -1.72135,-0.410766 -1.52149,-1.283203 0.007,-0.662008 0.65522,-1.060099 1.26758,-0.992188 z" />
  <path
     id="path70-8-1-2"
     style="fill:#000000;fill-opacity:1;fill-rule:evenodd;stroke:none"
     d="m 136.54316,48.023809 c 1.25026,-0.04248 1.45042,2.037001 0.25391,2.275391 -0.8005,0.275486 -1.72135,-0.410766 -1.52149,-1.283203 0.007,-0.662008 0.65522,-1.060099 1.26758,-0.992188 z" />
  <path
     id="path70-8-1-2-9"
     style="fill:#000000;fill-opacity:1;fill-rule:evenodd;stroke:none"
     d="m 85.84995,72.944185 c 1.25026,-0.04248 1.45042,2.037001 0.25391,2.275391 -0.8005,0.275486 -1.72135,-0.410766 -1.52149,-1.283203 0.007,-0.662008 0.65522,-1.060099 1.26758,-0.992188 z" />
  <path
     id="path72"
     style="fill:#000000;fill-opacity:1;fill-rule:evenodd;stroke:none"
     d="m 49.753865,180.94482 c 1.24841,-0.0417 1.44937,2.02806 0.25782,2.27344 -0.80145,0.27466 -1.72405,-0.40667 -1.5254,-1.28125 0.007,-0.66201 0.65522,-1.0601 1.26758,-0.99219 z" />
  <path
     id="path74"
     style="fill:#000000;fill-opacity:1;fill-rule:evenodd;stroke:none"
     d="m 49.753865,188.14404 c 1.24841,-0.0417 1.44937,2.02806 0.25782,2.27344 -0.80145,0.27466 -1.72405,-0.40667 -1.5254,-1.28125 0.007,-0.66201 0.65522,-1.0601 1.26758,-0.99219 z" />
  <path
     id="path76"
     style="fill:#000000;fill-opacity:1;fill-rule:evenodd;stroke:none"
     d="m 49.753865,195.34326 c 1.25026,-0.0425 1.45042,2.037 0.25391,2.27539 -0.8005,0.27549 -1.72135,-0.41077 -1.52149,-1.2832 0.007,-0.66201 0.65522,-1.0601 1.26758,-0.99219 z" />
  <path
     id="path78"
     style="fill:#000000;fill-opacity:1;fill-rule:evenodd;stroke:none"
     d="m 49.753865,202.54248 c 1.25026,-0.0425 1.45042,2.037 0.25391,2.27539 -0.8005,0.27549 -1.72135,-0.41077 -1.52149,-1.2832 0.007,-0.66201 0.65522,-1.0601 1.26758,-0.99219 z" />
  <path
     id="path80"
     style="fill:#000000;fill-opacity:1;fill-rule:evenodd;stroke:none"
     d="m 49.753865,209.7417 c 1.25228,-0.0397 1.44755,2.03157 0.25782,2.27734 -0.80145,0.27466 -1.72405,-0.40666 -1.5254,-1.28125 0.011,-0.66969 0.64705,-1.05724 1.26758,-0.99609 z" />
  <path
     id="path82"
     style="fill:#000000;fill-opacity:1;fill-rule:evenodd;stroke:none"
     d="m 26.136685,115.35107 c 1.25025,-0.0425 1.45041,2.037 0.2539,2.27539 -0.80049,0.27549 -1.72134,-0.41076 -1.52148,-1.2832 0.007,-0.66201 0.65521,-1.0601 1.26758,-0.99219 z" />
  <path
     id="path84"
     style="fill:#000000;fill-opacity:1;fill-rule:evenodd;stroke:none"
     d="m 44.570275,115.35107 c 1.25025,-0.0425 1.45041,2.037 0.25391,2.27539 -0.8005,0.27549 -1.72135,-0.41076 -1.52149,-1.2832 0.007,-0.66201 0.65522,-1.0601 1.26758,-0.99219 z" />
  <path
     id="path86"
     style="fill:#000000;fill-opacity:1;fill-rule:evenodd;stroke:none"
     d="m 26.136685,102.53467 c 1.25025,-0.0425 1.45041,2.037 0.2539,2.27539 -0.80049,0.27548 -1.72134,-0.41077 -1.52148,-1.28321 0.007,-0.662 0.65521,-1.0601 1.26758,-0.99218 z" />
  <path
     id="path88"
     style="fill:#000000;fill-opacity:1;fill-rule:evenodd;stroke:none"
     d="m 44.570275,102.53467 c 1.25025,-0.0425 1.45041,2.037 0.25391,2.27539 -0.8005,0.27548 -1.72135,-0.41077 -1.52149,-1.28321 0.007,-0.662 0.65522,-1.0601 1.26758,-0.99218 z" />
  <path
     id="path90"
     style="fill:#000000;fill-opacity:1;fill-rule:evenodd;stroke:none"
     d="m 59.847615,39.38037 c -0.77604,0 -1.55208,0 -2.32812,0 0,-0.776042 0,-1.552083 0,-2.328125 0.77604,0 1.55208,0 2.32812,0 0,0.776042 0,1.552083 0,2.328125 z" />
  <path
     id="path92"
     style="fill:#000000;fill-opacity:1;fill-rule:evenodd;stroke:none"
     d="m 59.847615,46.466308 c -0.77604,0 -1.55208,-10e-7 -2.32812,0 0,-0.776042 0,-1.552084 0,-2.328126 0.77604,0 1.55208,0 2.32812,0 0,0.776042 0,1.552084 0,2.328126 z" />
  <path
     id="path94"
     style="fill:#000000;fill-opacity:1;fill-rule:evenodd;stroke:none"
     d="m 59.847615,53.552245 c -0.77604,0 -1.55208,0 -2.32812,0 0,-0.776042 0,-1.552083 0,-2.328125 0.77604,0 1.55208,0 2.32812,0 0,0.776042 0,1.552083 0,2.328125 z" />
  <path
     id="path96"
     style="fill:#000000;fill-opacity:1;fill-rule:evenodd;stroke:none"
     d="m 41.593715,31.688964 c -0.0476,0.774053 0.0949,1.626801 -0.0707,2.35196 -0.55746,0.490221 -1.03623,1.170391 -1.64257,1.542571 -0.74067,-0.04761 -1.56026,0.09501 -2.25188,-0.0708 -0.48882,-0.557459 -1.16789,-1.03625 -1.53875,-1.642485 0.0476,-0.740719 -0.0949,-1.560139 0.0707,-2.251961 0.55628,-0.488606 1.03344,-1.168219 1.63866,-1.538664 0.74078,0.0475 1.56003,-0.09478 2.25205,0.07062 0.51416,0.512916 1.02832,1.025833 1.54249,1.53875 z" />
  <path
     id="path98"
     style="fill:#000000;fill-opacity:1;fill-rule:evenodd;stroke:none"
     d="m 41.593715,56.634276 c -0.0476,0.774053 0.0949,1.626802 -0.0707,2.351961 -0.55746,0.490221 -1.03623,1.17039 -1.64257,1.542571 -0.74067,-0.04761 -1.56026,0.09501 -2.25188,-0.0708 -0.48882,-0.557459 -1.16789,-1.03625 -1.53875,-1.642485 0.0476,-0.740719 -0.0949,-1.560138 0.0707,-2.25196 0.55628,-0.488606 1.03344,-1.16822 1.63866,-1.538665 0.74078,0.0475 1.56003,-0.09478 2.25205,0.07062 0.51416,0.512917 1.02832,1.025834 1.54249,1.53875 z" />
  <path
     id="path100"
     style="fill:#000000;fill-opacity:1;fill-rule:evenodd;stroke:none"
     d="m 136.15621,65.741698 c 1.25228,-0.03966 1.44754,2.031569 0.25781,2.277344 -0.80145,0.274657 -1.72405,-0.406667 -1.52539,-1.28125 0.011,-0.669696 0.64704,-1.057244 1.26758,-0.996094 z" />
  <path
     id="path102"
     style="fill:#000000;fill-opacity:1;fill-rule:evenodd;stroke:none"
     d="m 157.75386,65.741698 c 1.25228,-0.03966 1.44755,2.031569 0.25782,2.277344 -0.80145,0.274657 -1.72405,-0.406667 -1.5254,-1.28125 0.011,-0.669696 0.64705,-1.057244 1.26758,-0.996094 z" />
  <path
     id="path104"
     style="fill:#000000;fill-opacity:1;fill-rule:evenodd;stroke:none"
     d="m 53.355425,87.343261 c 1.25026,-0.04248 1.45042,2.037 0.25391,2.27539 -0.80049,0.275487 -1.72134,-0.410766 -1.52148,-1.283203 0.007,-0.662008 0.65521,-1.060099 1.26757,-0.992187 z" />
  <path
     id="path106"
     style="fill:#000000;fill-opacity:1;fill-rule:evenodd;stroke:none"
     d="m 53.355425,65.741698 c 1.25229,-0.03966 1.44755,2.031569 0.25782,2.277344 -0.80145,0.274657 -1.72405,-0.406667 -1.52539,-1.28125 0.011,-0.669696 0.64704,-1.057244 1.26757,-0.996094 z" />
</svg>
